<svg xmlns="http://www.w3.org/2000/svg" width="124.205" height="49.798" viewBox="0 0 124.205 49.798">
  <g id="Group_178" data-name="Group 178" transform="translate(-543.049 -199.87)">
    <g id="Group_173" data-name="Group 173" transform="translate(543.049 199.87)">
      <g id="Group_171" data-name="Group 171" transform="translate(3.271)">
        <path id="Path_109" data-name="Path 109" d="M575.777,249.668a24.9,24.9,0,1,1,24.9-24.9A24.925,24.925,0,0,1,575.777,249.668Zm0-46.778a21.88,21.88,0,1,0,21.877,21.879A21.906,21.906,0,0,0,575.777,202.89Z" transform="translate(-550.879 -199.87)" fill="#4155ff"/>
      </g>
      <g id="Group_172" data-name="Group 172" transform="translate(0 6.379)">
        <path id="Path_110" data-name="Path 110" d="M573.452,215.142l-2.128,2.132,6.736,6.741a51.5,51.5,0,0,0-12.145,1.767,39.151,39.151,0,0,0-12.443,5.752,31.536,31.536,0,0,0-10.279,12.278,1.514,1.514,0,0,0,.716,2.009,1.53,1.53,0,0,0,.647.147,1.509,1.509,0,0,0,1.365-.863c3.867-8.151,10.831-13.667,20.7-16.389a48.623,48.623,0,0,1,11.432-1.676l-5.431,5.43,2.134,2.132,9.075-9.077Z" transform="translate(-543.049 -215.142)" fill="#4155ff"/>
        <path id="Path_111" data-name="Path 111" d="M620.2,230.168a1.5,1.5,0,0,0-2.005.718c-3.868,8.149-10.834,13.662-20.706,16.387a48.633,48.633,0,0,1-11.427,1.677l5.431-5.431-2.136-2.132-9.076,9.08,10.378,10.38,2.135-2.133-6.741-6.741a51.49,51.49,0,0,0,12.148-1.764,39.11,39.11,0,0,0,12.438-5.754,31.471,31.471,0,0,0,10.283-12.277A1.507,1.507,0,0,0,620.2,230.168Z" transform="translate(-564.725 -223.806)" fill="#4155ff"/>
      </g>
    </g>
    <g id="Group_177" data-name="Group 177" transform="translate(609.228 208.646)">
      <g id="Group_174" data-name="Group 174" transform="translate(0 26.084)">
        <path id="Path_112" data-name="Path 112" d="M706.076,288.96a2.385,2.385,0,0,1-1.759.792,2.6,2.6,0,0,1-1.125-.251,2.916,2.916,0,0,1-.9-.679,3.173,3.173,0,0,1-.6-.986,3.226,3.226,0,0,1-.215-1.172,3.161,3.161,0,0,1,.215-1.163,3.1,3.1,0,0,1,.6-.969,2.773,2.773,0,0,1,.91-.657,2.677,2.677,0,0,1,1.149-.243,2.721,2.721,0,0,1,1.451.36,2.338,2.338,0,0,1,.884.957l-.729.525a1.706,1.706,0,0,0-.681-.738,1.866,1.866,0,0,0-.952-.248,1.653,1.653,0,0,0-.772.183,1.92,1.92,0,0,0-.6.485,2.154,2.154,0,0,0-.377.7,2.627,2.627,0,0,0-.133.832,2.421,2.421,0,0,0,.151.86,2.251,2.251,0,0,0,.406.7,1.923,1.923,0,0,0,.615.473,1.755,1.755,0,0,0,.774.173,1.927,1.927,0,0,0,.878-.21,2.6,2.6,0,0,0,.806-.673v-.648h-1.268v-.705h2.065v3.053h-.8Z" transform="translate(-701.478 -283.502)" fill="#fff"/>
        <path id="Path_113" data-name="Path 113" d="M716.734,283.323h.937v4.92a.563.563,0,0,0,.125.387.458.458,0,0,0,.357.14.893.893,0,0,0,.219-.033,1.707,1.707,0,0,0,.229-.078l.139.733a2.181,2.181,0,0,1-.484.149,2.642,2.642,0,0,1-.5.055,1.027,1.027,0,0,1-.752-.264,1,1,0,0,1-.269-.747Z" transform="translate(-710.361 -283.323)" fill="#fff"/>
        <path id="Path_114" data-name="Path 114" d="M724.579,291.962a2.353,2.353,0,0,1-.95-.185,2.181,2.181,0,0,1-.717-.5,2.246,2.246,0,0,1-.463-.734,2.514,2.514,0,0,1-.162-.881,2.484,2.484,0,0,1,.162-.878,2.181,2.181,0,0,1,.466-.735,2.234,2.234,0,0,1,.721-.5,2.269,2.269,0,0,1,.943-.187,2.24,2.24,0,0,1,.936.187,2.217,2.217,0,0,1,.723.5,2.138,2.138,0,0,1,.464.735,2.412,2.412,0,0,1,.161.878,2.44,2.44,0,0,1-.161.881,2.157,2.157,0,0,1-.464.734,2.278,2.278,0,0,1-.723.5A2.321,2.321,0,0,1,724.579,291.962Zm-1.328-2.294a1.623,1.623,0,0,0,.1.594,1.473,1.473,0,0,0,.279.471,1.333,1.333,0,0,0,.422.315,1.236,1.236,0,0,0,1.046,0,1.3,1.3,0,0,0,.421-.319,1.591,1.591,0,0,0,.281-.477,1.756,1.756,0,0,0,.1-.593,1.781,1.781,0,0,0-.1-.59,1.58,1.58,0,0,0-.281-.481,1.334,1.334,0,0,0-.421-.32,1.238,1.238,0,0,0-.521-.113,1.173,1.173,0,0,0-.518.117,1.367,1.367,0,0,0-.419.323,1.5,1.5,0,0,0-.283.481A1.613,1.613,0,0,0,723.251,289.668Z" transform="translate(-713.595 -285.671)" fill="#fff"/>
        <path id="Path_115" data-name="Path 115" d="M737.491,289.614a1.8,1.8,0,0,1-1.573-.894v.807H735.1v-6.2h.932v2.6a2.027,2.027,0,0,1,.656-.671,1.747,1.747,0,0,1,.933-.245,1.687,1.687,0,0,1,.8.189,1.94,1.94,0,0,1,.626.511,2.339,2.339,0,0,1,.4.739,2.656,2.656,0,0,1,.142.88,2.4,2.4,0,0,1-.6,1.62,2.056,2.056,0,0,1-.667.488A1.977,1.977,0,0,1,737.491,289.614Zm-.246-.8a1.264,1.264,0,0,0,.561-.125,1.353,1.353,0,0,0,.437-.327,1.394,1.394,0,0,0,.282-.471,1.484,1.484,0,0,0,.1-.565,1.735,1.735,0,0,0-.1-.574,1.6,1.6,0,0,0-.272-.485,1.381,1.381,0,0,0-.415-.335,1.146,1.146,0,0,0-.533-.127,1.169,1.169,0,0,0-.771.281,1.862,1.862,0,0,0-.512.679v1.172a.891.891,0,0,0,.179.355,1.619,1.619,0,0,0,.295.275,1.411,1.411,0,0,0,.367.183A1.185,1.185,0,0,0,737.245,288.815Z" transform="translate(-721.055 -283.323)" fill="#fff"/>
        <path id="Path_116" data-name="Path 116" d="M748.739,291.962a1.7,1.7,0,0,1-.6-.107,1.472,1.472,0,0,1-.473-.294,1.338,1.338,0,0,1-.315-.442,1.313,1.313,0,0,1-.113-.552,1.182,1.182,0,0,1,.134-.569,1.348,1.348,0,0,1,.385-.444,1.838,1.838,0,0,1,.6-.288,2.617,2.617,0,0,1,.761-.1,3.579,3.579,0,0,1,.62.052,3.209,3.209,0,0,1,.552.149v-.3a1.029,1.029,0,0,0-.282-.77,1.111,1.111,0,0,0-.806-.277,1.915,1.915,0,0,0-.7.133,3.548,3.548,0,0,0-.711.378l-.289-.595a3.161,3.161,0,0,1,1.782-.578,2.039,2.039,0,0,1,1.429.468,1.715,1.715,0,0,1,.513,1.343v1.6c0,.2.078.3.244.308v.8c-.092.018-.172.028-.234.035s-.13.01-.192.01a.613.613,0,0,1-.421-.137.586.586,0,0,1-.181-.349l-.026-.281a1.994,1.994,0,0,1-.735.6A2.168,2.168,0,0,1,748.739,291.962Zm.252-.69a1.721,1.721,0,0,0,.648-.122,1.153,1.153,0,0,0,.469-.344.437.437,0,0,0,.177-.324V289.9a2.771,2.771,0,0,0-.506-.144,2.8,2.8,0,0,0-.523-.053,1.4,1.4,0,0,0-.818.218.659.659,0,0,0-.32.574.725.725,0,0,0,.246.556A.893.893,0,0,0,748.991,291.272Z" transform="translate(-728.122 -285.671)" fill="#fff"/>
        <path id="Path_117" data-name="Path 117" d="M759.233,283.323h.933v4.92a.556.556,0,0,0,.126.387.462.462,0,0,0,.359.14.863.863,0,0,0,.216-.033,2,2,0,0,0,.235-.078l.136.733a2.111,2.111,0,0,1-.484.149,2.689,2.689,0,0,1-.5.055,1.025,1.025,0,0,1-.751-.264.983.983,0,0,1-.267-.747Z" transform="translate(-735.107 -283.323)" fill="#fff"/>
        <path id="Path_118" data-name="Path 118" d="M769.883,283.323h.937v4.92a.534.534,0,0,0,.127.387.449.449,0,0,0,.356.14.909.909,0,0,0,.217-.033,1.932,1.932,0,0,0,.233-.078l.133.733a2.053,2.053,0,0,1-.479.149,2.731,2.731,0,0,1-.5.055,1.015,1.015,0,0,1-.751-.264.99.99,0,0,1-.272-.747Z" transform="translate(-741.309 -283.323)" fill="#fff"/>
        <path id="Path_119" data-name="Path 119" d="M777.875,291.962a2.345,2.345,0,0,1-.944-.183,2.258,2.258,0,0,1-.729-.5,2.33,2.33,0,0,1-.631-1.615,2.375,2.375,0,0,1,.631-1.629,2.171,2.171,0,0,1,.729-.5,2.374,2.374,0,0,1,.952-.182,2.258,2.258,0,0,1,1.655.684,2.106,2.106,0,0,1,.456.723,2.43,2.43,0,0,1,.158.861,1.865,1.865,0,0,1-.008.192c-.006.061-.014.109-.018.147h-3.56a1.471,1.471,0,0,0,.138.537,1.431,1.431,0,0,0,.3.413,1.321,1.321,0,0,0,.415.266,1.274,1.274,0,0,0,.49.094,1.426,1.426,0,0,0,.371-.048,1.359,1.359,0,0,0,.332-.133,1.225,1.225,0,0,0,.275-.218,1.066,1.066,0,0,0,.187-.282l.8.23a1.853,1.853,0,0,1-.759.82A2.363,2.363,0,0,1,777.875,291.962Zm1.352-2.645a1.545,1.545,0,0,0-.142-.518,1.385,1.385,0,0,0-.3-.405,1.255,1.255,0,0,0-.417-.256,1.3,1.3,0,0,0-.5-.092,1.282,1.282,0,0,0-.5.092,1.342,1.342,0,0,0-.411.256,1.261,1.261,0,0,0-.288.405,1.543,1.543,0,0,0-.139.518Z" transform="translate(-744.621 -285.671)" fill="#fff"/>
        <path id="Path_120" data-name="Path 120" d="M792.221,291.876h-.937v-2.489a1.633,1.633,0,0,0-.2-.913.676.676,0,0,0-.592-.287,1.138,1.138,0,0,0-.408.077,1.443,1.443,0,0,0-.384.217,1.827,1.827,0,0,0-.318.332,1.487,1.487,0,0,0-.215.42v2.643h-.935v-4.442h.851v.89a1.816,1.816,0,0,1,.734-.711,2.289,2.289,0,0,1,1.074-.256,1.3,1.3,0,0,1,.654.144,1.038,1.038,0,0,1,.4.395,1.663,1.663,0,0,1,.21.581,4.084,4.084,0,0,1,.06.692Z" transform="translate(-751.994 -285.671)" fill="#fff"/>
        <path id="Path_121" data-name="Path 121" d="M801.808,289.614a1.92,1.92,0,0,1-.835-.183,2.169,2.169,0,0,1-.663-.5,2.317,2.317,0,0,1-.439-.737,2.65,2.65,0,0,1-.155-.906,2.562,2.562,0,0,1,.149-.878,2.387,2.387,0,0,1,.416-.728,2.011,2.011,0,0,1,.628-.5,1.85,1.85,0,0,1,1.74.074,1.948,1.948,0,0,1,.638.66v-2.6h.932v5.1a.369.369,0,0,0,.058.229.26.26,0,0,0,.2.079v.8c-.1.018-.175.028-.235.035s-.109.01-.151.01a.7.7,0,0,1-.454-.144.508.508,0,0,1-.2-.377l-.015-.331a1.8,1.8,0,0,1-.673.657A1.911,1.911,0,0,1,801.808,289.614Zm.228-.8a1.35,1.35,0,0,0,.412-.069,1.514,1.514,0,0,0,.371-.188,1.342,1.342,0,0,0,.295-.277,1.036,1.036,0,0,0,.175-.35v-1.166a1.4,1.4,0,0,0-.218-.391,1.524,1.524,0,0,0-.319-.306,1.363,1.363,0,0,0-.381-.195,1.2,1.2,0,0,0-.4-.068,1.072,1.072,0,0,0-.516.127,1.309,1.309,0,0,0-.4.34,1.606,1.606,0,0,0-.263.486,1.528,1.528,0,0,0-.1.561,1.49,1.49,0,0,0,.109.576,1.4,1.4,0,0,0,.292.477,1.418,1.418,0,0,0,.428.324A1.144,1.144,0,0,0,802.036,288.815Z" transform="translate(-758.68 -283.323)" fill="#fff"/>
        <path id="Path_122" data-name="Path 122" d="M813.464,284.352v-1.029h.935v1.029Zm0,5.176v-4.442h.935v4.442Z" transform="translate(-766.685 -283.323)" fill="#fff"/>
        <path id="Path_123" data-name="Path 123" d="M822.116,291.876h-.94v-2.489a1.639,1.639,0,0,0-.2-.913.679.679,0,0,0-.591-.287,1.187,1.187,0,0,0-.411.077,1.442,1.442,0,0,0-.38.217,1.691,1.691,0,0,0-.32.332,1.588,1.588,0,0,0-.218.42v2.643h-.936v-4.442h.853v.89a1.8,1.8,0,0,1,.741-.711,2.24,2.24,0,0,1,1.069-.256,1.319,1.319,0,0,1,.655.144,1.073,1.073,0,0,1,.4.395,1.8,1.8,0,0,1,.211.581,3.845,3.845,0,0,1,.061.692Z" transform="translate(-769.398 -285.671)" fill="#fff"/>
        <path id="Path_124" data-name="Path 124" d="M831.655,291.92a1.857,1.857,0,0,1-.819-.183,1.9,1.9,0,0,1-.643-.5,2.355,2.355,0,0,1-.417-.722,2.49,2.49,0,0,1-.149-.859,2.567,2.567,0,0,1,.152-.9,2.268,2.268,0,0,1,.423-.733,2.055,2.055,0,0,1,.651-.492,1.9,1.9,0,0,1,.841-.182,1.7,1.7,0,0,1,.934.256,2.048,2.048,0,0,1,.667.66v-.838h.825v4.315a2.021,2.021,0,0,1-.176.86,1.839,1.839,0,0,1-.5.632,2.244,2.244,0,0,1-.751.394,3.161,3.161,0,0,1-.939.136,2.675,2.675,0,0,1-1.225-.25,2.359,2.359,0,0,1-.823-.7l.528-.492a1.652,1.652,0,0,0,.66.542,2.04,2.04,0,0,0,.86.19,2.012,2.012,0,0,0,.553-.078,1.3,1.3,0,0,0,.451-.236,1.079,1.079,0,0,0,.312-.41,1.387,1.387,0,0,0,.115-.586v-.68a1.62,1.62,0,0,1-.656.629A1.815,1.815,0,0,1,831.655,291.92Zm.308-.757a1.16,1.16,0,0,0,.406-.072,1.406,1.406,0,0,0,.364-.2,1.351,1.351,0,0,0,.286-.279,1,1,0,0,0,.17-.335v-1.166a1.648,1.648,0,0,0-.222-.388,1.537,1.537,0,0,0-.31-.3,1.565,1.565,0,0,0-.369-.2,1.185,1.185,0,0,0-.939.06,1.359,1.359,0,0,0-.411.35,1.664,1.664,0,0,0-.266.489,1.738,1.738,0,0,0-.094.561,1.539,1.539,0,0,0,.107.573,1.523,1.523,0,0,0,.292.465,1.475,1.475,0,0,0,.444.322A1.237,1.237,0,0,0,831.963,291.163Z" transform="translate(-776.096 -285.671)" fill="#fff"/>
      </g>
      <g id="Group_176" data-name="Group 176" transform="translate(0.5 0)">
        <g id="Group_175" data-name="Group 175">
          <path id="Path_125" data-name="Path 125" d="M702.675,241.7v-20.54h9.26a5.954,5.954,0,0,1,2.676.607,7.218,7.218,0,0,1,2.129,1.593,7.585,7.585,0,0,1,1.4,2.226,6.687,6.687,0,0,1,.505,2.519,7.293,7.293,0,0,1-.229,1.836,7.138,7.138,0,0,1-.671,1.663,6.165,6.165,0,0,1-1.052,1.4,6.259,6.259,0,0,1-1.406,1.055L719.8,241.7h-5.35l-3.935-6.625h-3.094V241.7Zm4.747-10.76h4.336a1.784,1.784,0,0,0,1.447-.8,3.226,3.226,0,0,0,.609-2.037,2.874,2.874,0,0,0-.7-2.026,2.022,2.022,0,0,0-1.5-.752h-4.192Z" transform="translate(-702.675 -221.042)" fill="#fff"/>
          <path id="Path_126" data-name="Path 126" d="M746.2,231.09a10.447,10.447,0,0,1,.693-3.688,10,10,0,0,1,2.027-3.282,10.156,10.156,0,0,1,3.243-2.344,10.052,10.052,0,0,1,4.332-.9,9.771,9.771,0,0,1,5.022,1.244,8.068,8.068,0,0,1,3.168,3.242l-3.644,2.545a4.262,4.262,0,0,0-.883-1.345,4.781,4.781,0,0,0-1.175-.867,4.707,4.707,0,0,0-1.3-.464,6.836,6.836,0,0,0-1.3-.13,4.926,4.926,0,0,0-2.37.548,5.215,5.215,0,0,0-1.68,1.419,5.873,5.873,0,0,0-.981,1.968,7.944,7.944,0,0,0-.321,2.228,7.33,7.33,0,0,0,.378,2.342,6.23,6.23,0,0,0,1.086,2,5.193,5.193,0,0,0,1.709,1.373,4.843,4.843,0,0,0,2.239.507,5.926,5.926,0,0,0,1.32-.16,5.278,5.278,0,0,0,1.3-.492,4.54,4.54,0,0,0,1.142-.867,4.072,4.072,0,0,0,.841-1.318l3.875,2.287a5.985,5.985,0,0,1-1.374,2.025,8.507,8.507,0,0,1-2.1,1.5,11.53,11.53,0,0,1-5.121,1.244,9.217,9.217,0,0,1-4.091-.908,10.413,10.413,0,0,1-3.217-2.418,11.111,11.111,0,0,1-2.077-3.414A10.627,10.627,0,0,1,746.2,231.09Z" transform="translate(-728.019 -220.88)" fill="#fff"/>
          <path id="Path_127" data-name="Path 127" d="M801.472,229.954V241.7h-4.745v-20.54h3.7l9.578,12.065V221.158h4.743V241.7h-3.821Z" transform="translate(-757.439 -221.042)" fill="#fff"/>
        </g>
      </g>
    </g>
  </g>
</svg>
