<svg xmlns="http://www.w3.org/2000/svg" width="110.464" height="40.583" viewBox="0 0 110.464 40.583">
  <g id="Grupo_546" data-name="Grupo 546" transform="translate(0 -0.037)">
    <path id="Trazado_811" data-name="Trazado 811" d="M54.68,30.791V10.638h8.91a5.749,5.749,0,0,1,2.567.582,6.582,6.582,0,0,1,2.031,1.51,7.285,7.285,0,0,1,1.336,2.159,6.546,6.546,0,0,1,.484,2.424,6.764,6.764,0,0,1-.982,3.564,5.6,5.6,0,0,1-2.658,2.333l4.6,7.551h-4.4L62.457,24H58.591v6.8Zm3.911-10.224h4.916a2.106,2.106,0,0,0,1-.249,2.722,2.722,0,0,0,.808-.7,3.572,3.572,0,0,0,.543-1.042,4.093,4.093,0,0,0,.2-1.276A3.684,3.684,0,0,0,65.832,16a3.462,3.462,0,0,0-.611-1.034,2.8,2.8,0,0,0-.876-.68,2.354,2.354,0,0,0-1.012-.242H58.591Z" fill="#fff"/>
    <path id="Trazado_812" data-name="Trazado 812" d="M72.333,20.567A10.421,10.421,0,0,1,73,16.92a9.623,9.623,0,0,1,9.3-6.4,9.172,9.172,0,0,1,4.81,1.223,7.772,7.772,0,0,1,3.02,3.179L87.11,17a5.232,5.232,0,0,0-.959-1.435,4.83,4.83,0,0,0-1.223-.921,5.641,5.641,0,0,0-1.359-.5,6.844,6.844,0,0,0-1.4-.151,5.294,5.294,0,0,0-2.568.6,5.608,5.608,0,0,0-1.812,1.51,6.793,6.793,0,0,0-1.117,2.2,8.049,8.049,0,0,0-.37,2.4,7.892,7.892,0,0,0,.423,2.567,6.916,6.916,0,0,0,1.208,2.175,6.138,6.138,0,0,0,1.872,1.51,5.164,5.164,0,0,0,2.4.566,6.341,6.341,0,0,0,1.42-.173,5.312,5.312,0,0,0,1.4-.536,5.431,5.431,0,0,0,1.231-.959,4.236,4.236,0,0,0,.914-1.405l3.209,1.843a6.059,6.059,0,0,1-1.382,2,8.8,8.8,0,0,1-2.016,1.464,9.9,9.9,0,0,1-2.394.906,10.325,10.325,0,0,1-2.5.318,8.631,8.631,0,0,1-3.949-.914,10.315,10.315,0,0,1-3.073-2.371,10.837,10.837,0,0,1-2.016-3.352A10.409,10.409,0,0,1,72.333,20.567Z" fill="#fff"/>
    <path id="Trazado_813" data-name="Trazado 813" d="M96.941,17.879V30.791H93.022V10.638h3.02l10.5,13.229v-13.2h3.919V30.791h-3.179Z" fill="#fff"/>
    <path id="Trazado_814" data-name="Trazado 814" d="M45.589,11.235a1.426,1.426,0,0,0-.755-.793,1.37,1.37,0,0,0-.6-.136,1.4,1.4,0,0,0-1.2.8,24.888,24.888,0,0,1-1.231,2.265,20.205,20.205,0,0,0-38.878,10.5,25.762,25.762,0,0,0-2.794,4.6A1.4,1.4,0,0,0,.8,30.33a1.455,1.455,0,0,0,.6.129,1.406,1.406,0,0,0,1.261-.793A23.148,23.148,0,0,1,3.887,27.4a20.2,20.2,0,0,0,39.15-7.015,20.494,20.494,0,0,0-.3-3.488,25.227,25.227,0,0,0,2.793-4.6A1.371,1.371,0,0,0,45.589,11.235Zm-5.338,9.151A17.42,17.42,0,0,1,5.925,24.577a25.894,25.894,0,0,1,13.259-8,38.99,38.99,0,0,1,8.691-1.3l-4.168,4.145L25.67,21.4l7.551-7.551L24.636,5.232,22.65,7.21,27.936,12.5a41.213,41.213,0,0,0-9.393,1.412A31.428,31.428,0,0,0,8.462,18.529a25.173,25.173,0,0,0-3.02,2.521v-.664A17.412,17.412,0,0,1,39.76,16.195,25.859,25.859,0,0,1,26.5,24.184a38.546,38.546,0,0,1-8.691,1.329l4.145-4.191-1.97-1.97L12.434,26.9l8.608,8.6,1.97-1.97-5.247-5.286A40.918,40.918,0,0,0,27.18,26.9a31.528,31.528,0,0,0,10.065-4.652,26.466,26.466,0,0,0,3.021-2.521A6.355,6.355,0,0,0,40.251,20.386Z" fill="#4956fa"/>
  </g>
</svg>
