<svg id="Capa_1" data-name="Capa 1" xmlns="http://www.w3.org/2000/svg" viewBox="0 0 146.32 53.52"><defs><style>.cls-1{fill:#fff;}.cls-2{fill:#4956fa;}</style></defs><title>logo-negativo</title><path class="cls-1" d="M72.42,40.54V13.85h11.8a7.61,7.61,0,0,1,3.4.77,8.72,8.72,0,0,1,2.69,2,9.66,9.66,0,0,1,1.77,2.86,8.66,8.66,0,0,1,.64,3.21,8.94,8.94,0,0,1-1.3,4.72A7.41,7.41,0,0,1,87.9,30.5l6.09,10H88.17l-5.45-8.95H77.6v9ZM77.6,27h6.51a2.79,2.79,0,0,0,1.33-.33,3.61,3.61,0,0,0,1.07-.92,4.75,4.75,0,0,0,.72-1.38,5.44,5.44,0,0,0,.26-1.69,4.87,4.87,0,0,0-.3-1.73,4.56,4.56,0,0,0-.81-1.37,3.68,3.68,0,0,0-1.16-.9,3.1,3.1,0,0,0-1.34-.32H77.6Z"/><path class="cls-1" d="M95.8,27a13.78,13.78,0,0,1,.88-4.83,13,13,0,0,1,6.71-7.32A12.87,12.87,0,0,1,109,13.7a12.14,12.14,0,0,1,6.37,1.62,10.29,10.29,0,0,1,4,4.21l-4,2.74a6.93,6.93,0,0,0-1.27-1.9,6.39,6.39,0,0,0-1.62-1.22,7.5,7.5,0,0,0-1.8-.66,9.1,9.1,0,0,0-1.85-.2,7,7,0,0,0-3.4.79,7.42,7.42,0,0,0-2.4,2A9,9,0,0,0,101.55,24a10.69,10.69,0,0,0-.49,3.18,10.49,10.49,0,0,0,.56,3.4,9.18,9.18,0,0,0,1.6,2.88,8.13,8.13,0,0,0,2.48,2,6.84,6.84,0,0,0,3.18.75,8.39,8.39,0,0,0,1.88-.23,7,7,0,0,0,1.86-.71A7.2,7.2,0,0,0,114.25,34a5.6,5.6,0,0,0,1.21-1.86l4.25,2.44a8,8,0,0,1-1.83,2.65,11.71,11.71,0,0,1-2.67,1.94,13.14,13.14,0,0,1-3.17,1.2,13.71,13.71,0,0,1-3.31.42,11.41,11.41,0,0,1-5.23-1.21,13.66,13.66,0,0,1-4.07-3.14A14.36,14.36,0,0,1,96.76,32,13.77,13.77,0,0,1,95.8,27Z"/><path class="cls-1" d="M128.39,23.44v17.1H123.2V13.85h4l13.91,17.52V13.89h5.19V40.54h-4.21Z"/><path class="cls-2" d="M60.38,14.64a1.89,1.89,0,0,0-1-1.05,1.82,1.82,0,0,0-.79-.18A1.86,1.86,0,0,0,57,14.47a33.15,33.15,0,0,1-1.63,3A26.76,26.76,0,0,0,3.88,31.37a34.11,34.11,0,0,0-3.7,6.09,1.86,1.86,0,0,0,.88,2.47,1.93,1.93,0,0,0,.79.17,1.86,1.86,0,0,0,1.67-1.05,31,31,0,0,1,1.63-3A26.75,26.75,0,0,0,57,26.76a27.09,27.09,0,0,0-.4-4.62,33.41,33.41,0,0,0,3.7-6.09A1.82,1.82,0,0,0,60.38,14.64ZM53.31,26.76A23.07,23.07,0,0,1,7.85,32.31c4.25-5,10.12-8.54,17.56-10.59A51.64,51.64,0,0,1,36.92,20L31.4,25.49,34,28.1l10-10L32.63,6.69,30,9.31l7,7a54.66,54.66,0,0,0-12.44,1.87A41.64,41.64,0,0,0,11.21,24.3a33.34,33.34,0,0,0-4,3.34c0-.29,0-.59,0-.88a23.06,23.06,0,0,1,45.45-5.55c-4.24,5-10.12,8.53-17.56,10.58a51,51,0,0,1-11.51,1.76L29.08,28l-2.61-2.61-10,10,11.4,11.39,2.61-2.61-6.95-7A54.21,54.21,0,0,0,36,35.38a41.78,41.78,0,0,0,13.33-6.16,35,35,0,0,0,4-3.34C53.3,26.17,53.31,26.46,53.31,26.76Z"/></svg>