<?xml version="1.0" encoding="utf-8"?>
<!-- Generator: Adobe Illustrator 23.0.1, SVG Export Plug-In . SVG Version: 6.00 Build 0)  -->
<svg version="1.1" id="Capa_1" xmlns="http://www.w3.org/2000/svg" xmlns:xlink="http://www.w3.org/1999/xlink" x="0px" y="0px"
	 viewBox="0 0 100 100" style="enable-background:new 0 0 100 100;" xml:space="preserve">
<style type="text/css">
	.st0{fill-rule:evenodd;clip-rule:evenodd;fill:#000D2B;}
	.st1{fill:#D7D1C7;}
	.st2{fill:#BFB5AF;}
	.st3{fill:#F47E33;}
	.st4{fill:#35312E;}
	.st5{fill:#D8A780;}
	.st6{fill:#31CB9E;}
	.st7{fill:#3AB03E;}
	.st8{fill:#E2761B;stroke:#E2761B;stroke-linecap:round;stroke-linejoin:round;}
	.st9{fill:#E4761B;stroke:#E4761B;stroke-linecap:round;stroke-linejoin:round;}
	.st10{fill:#D7C1B3;stroke:#D7C1B3;stroke-linecap:round;stroke-linejoin:round;}
	.st11{fill:#233447;stroke:#233447;stroke-linecap:round;stroke-linejoin:round;}
	.st12{fill:#CD6116;stroke:#CD6116;stroke-linecap:round;stroke-linejoin:round;}
	.st13{fill:#E4751F;stroke:#E4751F;stroke-linecap:round;stroke-linejoin:round;}
	.st14{fill:#F6851B;stroke:#F6851B;stroke-linecap:round;stroke-linejoin:round;}
	.st15{fill:#C0AD9E;stroke:#C0AD9E;stroke-linecap:round;stroke-linejoin:round;}
	.st16{fill:#161616;stroke:#161616;stroke-linecap:round;stroke-linejoin:round;}
	.st17{fill:#763D16;stroke:#763D16;stroke-linecap:round;stroke-linejoin:round;}
	.st18{fill:#91EBFA;}
	.st19{fill:#5AA5FF;}
	.st20{fill:#64D2FA;}
	.st21{fill:url(#_Path__1_);}
	.st22{fill:url(#_Path_2_1_);}
	.st23{fill:#272455;}
</style>
<path class="st0" d="M-228.53-225.67l-22.97,13.46l22.97,13.46l23.4-13.46L-228.53-225.67z M-224.76-153.81v26.92l31.2-17.8v-26.92
	L-224.76-153.81z M-201.35-203.74v26.92l-23.4,13.46v-26.92L-201.35-203.74z M-257.69-176.82l23.4,13.46v-26.92l-23.4-13.46V-176.82
	z M-257.69-140.35l23.4,13.46v-26.92l-23.4-13.46V-140.35L-257.69-140.35z"/>
<g>
	<path class="st1" d="M-68.79-166.77c0.15-1.62,0.24-3.18,0.24-4.85c0-25.96-21.06-47.02-47.02-47.02s-47.02,21.06-47.02,47.02
		C-162.58-171.42-69.52-169.21-68.79-166.77"/>
	<path class="st2" d="M-162.77-171.52c0,25.96,21.06,47.02,47.02,47.02s44.34-15.97,47.02-41.14
		C-68.72-165.84-162.77-173.13-162.77-171.52"/>
	<path class="st3" d="M-133.78-206.39c5.19,0,9.4,4.21,9.4,9.4s-4.21,9.4-9.4,9.4c-5.19,0-9.4-4.21-9.4-9.4
		S-138.97-206.39-133.78-206.39"/>
	<path class="st4" d="M-133.78-204.43c-4.11,0-7.44,3.33-7.44,7.44s3.33,7.44,7.44,7.44c4.11,0,7.44-3.33,7.44-7.44
		C-126.33-201.1-129.71-204.43-133.78-204.43 M-133.78-185.62c-6.27,0-11.36-5.09-11.36-11.36s5.09-11.36,11.36-11.36
		c6.27,0,11.36,5.09,11.36,11.36S-127.56-185.62-133.78-185.62"/>
	<path class="st3" d="M-103.22-206.83c8.14,0,14.74,6.6,14.74,14.74s-6.6,14.74-14.74,14.74s-14.74-6.6-14.74-14.74
		S-111.36-206.83-103.22-206.83"/>
	<g>
		<path class="st2" d="M-129.62-160.55l11.95-15.08l2.55,1.47l4.9,1.81l3.48-1.81l11.12-11.85l3.87,5.19l1.86-1.52h2.45l6.17,8.62
			l4.41-0.73l7.93,9.01"/>
		<path class="st2" d="M-121.78-168.04l-6.46-3.58l-9.4,2.45l-4.31-14.25h-7.74l-7.44,13.08l-5.44,0.2"/>
	</g>
	<g>
		<path class="st3" d="M-143.18-165.3c0,0-3.53,10.28-3.53,10.48c0,0.98,1.57,1.76,3.53,1.76s3.53-0.78,3.53-1.76
			C-139.7-154.96-143.18-165.3-143.18-165.3"/>
		<path class="st3" d="M-151.31-169.26c0,0-3.48,10.24-3.48,10.43c0,0.98,1.57,1.76,3.48,1.76s3.48-0.78,3.48-1.76
			C-147.83-159.03-151.31-169.26-151.31-169.26"/>
	</g>
	<g>
		<path class="st5" d="M-87.5-168.19c0,3.97-18.86,3.97-18.86,0c0-3.97,4.21-7.2,9.4-7.2C-91.76-175.39-87.5-172.2-87.5-168.19"/>
		<path class="st5" d="M-78.09-158.39c0,3.97-18.86,3.97-18.86,0c0-3.97,4.21-7.2,9.4-7.2C-82.31-165.64-78.09-162.41-78.09-158.39"
			/>
		<path class="st5" d="M-96.95-146.74c0,3.97-18.86,3.97-18.86,0c0-3.97,4.21-7.2,9.4-7.2C-101.21-153.93-96.95-150.7-96.95-146.74"
			/>
	</g>
	<path class="st1" d="M-115.02-126.51c-19.44,0-36.09-12.19-42.71-29.34c1.32,0,2.69,0.05,4.11,0.05c0.69,0.2,1.47,0.29,2.3,0.29
		c0.69,0,1.27-0.05,1.86-0.2c0.29,0,0.64,0,0.93,0.05c-0.1,0.29-0.1,0.39-0.1,0.49c0,2.2,2.35,3.77,5.53,3.77
		c3.13,0,4.9-1.96,5.04-4.06c0.49,0.05,1.52,0.54,2.01,0.59c13.22,1.42,14.1,3.82,14.1,3.92c0.05,0.2-0.29,1.22-2.94,3.04
		c-5.68,3.92-7.64,6.22-7.1,8.67c0.64,2.94,4.46,3.67,10.24,4.75c1.62,0.29,3.48,0.69,5.39,1.08c2.11,0.49,4.31,0.93,6.42,1.32
		c3.92,0.78,7.88,1.57,11.02,2.55C-103.85-127.54-109.34-126.51-115.02-126.51"/>
	<path class="st4" d="M-76.13-176.56l-4.21,0.73l-6.07-8.42h-1.96c1.26-2.4,1.91-5.08,1.91-7.79c0-9.21-7.49-16.7-16.7-16.7
		s-16.75,7.44-16.75,16.65c0,7.64,5.19,14.1,12.19,16.11l-0.24,0.24l-2.4,1.22l-3.92-1.42l-3.87-2.25l-5.44,6.86l-4.36-2.4
		l-8.37,2.15l-4.21-13.81h-10.28l-7.49,13.13l-2.3,0.05c0.29-24.59,20.42-44.47,45.06-44.47c24.83,0,45.06,20.23,45.06,45.06v1.42
		L-76.13-176.56z M-98.91-146.98c-0.69,0.49-3.23,1.27-7.44,1.27c-4.21,0-6.76-0.78-7.44-1.27c0.2-2.74,3.53-5,7.44-5
		S-99.1-149.72-98.91-146.98z M-87.5-163.68c3.92,0,7.25,2.25,7.44,5c-0.69,0.49-3.28,1.27-7.44,1.27s-6.76-0.78-7.44-1.27
		C-94.75-161.43-91.41-163.68-87.5-163.68z M-89.5-168.48c-0.69,0.49-3.28,1.27-7.44,1.27c-4.16,0-6.76-0.78-7.44-1.27
		c0.2-2.74,3.53-5,7.44-5S-89.7-171.22-89.5-168.48z M-92.49-185.08l-2.94-3.97l-9.11,9.75c-6.42-0.69-11.41-6.12-11.41-12.73
		c0-7.05,5.73-12.78,12.78-12.78s12.78,5.73,12.78,12.78C-90.39-189.56-91.13-187.15-92.49-185.08z M-94.6-131.75
		c-3.67-1.81-9.26-2.89-15.13-4.06c-2.06-0.39-4.21-0.83-6.27-1.27c-1.91-0.44-3.77-0.78-5.44-1.08c-2.64-0.49-5.83-1.13-6.86-1.71
		c0.34-0.54,1.42-1.81,5.24-4.41c1.37-0.93,5.53-3.77,4.41-7.4c-1.03-3.38-6.37-5.44-17.24-6.61c-0.98-0.1-2.01-0.2-3.09-0.29
		c-0.54-1.62-1.32-3.92-2.45-7.25l-1.86-5.44l-1.86,5.44c-0.64,1.81-1.13,3.28-1.57,4.55c-0.49-1.57-1.37-4.11-2.89-8.52l-1.71-5.53
		l-1.86,5.44c-2.55,7.44-3.28,9.65-3.48,10.48h-2.25c-0.8-2.9-1.32-5.87-1.57-8.86l4.51-0.15l7.44-13.03h5.14l4.46,14.64l10.48-2.69
		l2.4,1.32l-5.09,6.42l3.09,2.45l10.87-13.76l1.27,0.73l5.88,2.15l2.55-1.32c-0.49,1.03-0.78,2.15-0.78,3.33s0.73,3.67,6.32,4.6
		c1.78,0.29,3.08,1.82,3.09,3.62v6.37c-0.78-0.54-1.67-1.03-2.64-1.37h0.05c-2.15-0.69-4.16-1.71-4.8-3.82
		c-0.49,1.71-1.86,2.69-3.62,3.38c-4.55,1.22-7.84,4.65-7.84,8.72c0,1.47,1.13,4.95,11.36,4.95c10.28,0,11.36-3.48,11.36-4.95v-7.69
		c0.69,0.24,1.47,0.44,2.4,0.59c1.78,0.29,3.08,1.82,3.09,3.62v4.41c0,1.03,0.73,1.96,1.76,2.06c1.18,0.1,2.15-0.83,2.15-1.96v-4.51
		c0-1.8,1.31-3.33,3.09-3.62c5.58-0.93,6.32-3.38,6.32-4.6c0-3.28-2.15-6.12-5.34-7.74h0.05c-0.05,0-0.1-0.05-0.2-0.05
		c-0.54-0.29-1.18-0.49-1.76-0.69c-0.88-0.44-1.67-1.03-2.2-1.76c-0.24-3.48-2.84-6.42-6.56-7.84h-0.05
		c-0.24-0.1-0.49-0.15-0.73-0.24c-1.86-0.69-3.48-1.71-4.02-3.53c-0.59,2.01-2.3,3.04-4.51,3.72c-0.15,0.05-0.34,0.1-0.49,0.2
		l6.12-6.51l3.67,4.95l2.94-2.35h0.73l6.37,8.77l4.51-0.78l6.61,7.49C-73.2-150.46-82.16-138.31-94.6-131.75z M-144.5-155.16
		l1.32-3.97l1.32,3.97C-142.72-154.9-143.64-154.9-144.5-155.16z M-152.58-159.32c0.29-0.88,0.73-2.3,1.27-3.82
		c0.54,1.57,1.03,2.99,1.27,3.87C-150.92-159.27-151.75-159.32-152.58-159.32z M-115.56-126.56c-19.15,0-35.56-12-42.07-28.9
		c1.27,0,2.64,0.05,4.02,0.05c0.73,0.2,1.49,0.3,2.25,0.29c0.64,0,1.27-0.05,1.81-0.2c0.31-0.01,0.62,0.01,0.93,0.05
		c-0.1,0.29-0.1,0.39-0.1,0.49c0,2.15,2.3,3.72,5.49,3.72c3.09,0,5.34-1.47,5.44-3.53c0.49,0.05,1.03,0.1,1.52,0.15
		c13.03,1.42,13.91,3.77,13.91,3.87c0.05,0.2-0.24,1.22-2.89,2.99c-5.53,3.82-7.44,6.12-6.95,8.52c0.59,2.89,4.36,3.62,10.09,4.7
		c1.62,0.29,3.43,0.64,5.29,1.08c2.06,0.44,4.26,0.88,6.37,1.32c3.82,0.78,7.74,1.57,10.87,2.5
		C-104.7-127.53-110.11-126.55-115.56-126.56z M-115.56-220.59c-26.99,0-48.97,21.99-48.97,48.97s21.99,48.97,48.97,48.97
		s48.97-21.99,48.97-48.97S-88.57-220.59-115.56-220.59z"/>
</g>
<g>
	<path class="st6" d="M-358.1-17.03l36.82,21.09c0.92,0.55,2.11,0.26,2.67-0.66c0.18-0.31,0.28-0.66,0.28-1.01v-38.85
		c0.01-1.07-0.84-1.94-1.9-1.95c-0.37,0-0.73,0.1-1.04,0.29L-358.1-17.03z"/>
	<path class="st6" d="M-322.06-47.47l-25.17-18.51c-0.88-0.67-2.14-0.5-2.81,0.37c-0.16,0.21-0.28,0.45-0.34,0.7l-9.19,41.23
		l37.29-20.62c0.91-0.47,1.27-1.59,0.8-2.5c-0.14-0.27-0.34-0.49-0.58-0.67"/>
	<path class="st6" d="M-347.26,31.9l25.2-18.51c0.85-0.61,1.04-1.78,0.44-2.63c-0.17-0.24-0.39-0.43-0.64-0.57l-37.3-20.62
		l9.19,41.23c0.25,1.07,1.33,1.73,2.39,1.47c0.26-0.06,0.51-0.18,0.73-0.34"/>
	<path class="st6" d="M-367.67-17.79l9.57-44.78c0.2-1.03-0.47-2.03-1.5-2.23c-0.5-0.1-1.03,0.01-1.45,0.3l-24.52,18.81
		c-1.26,0.97-1.99,2.46-1.99,4.05V6.07c-0.03,1.61,0.71,3.14,1.99,4.12l24.4,18.73c0.86,0.6,2.05,0.38,2.64-0.48
		c0.29-0.42,0.4-0.94,0.3-1.45L-367.67-17.79z"/>
</g>
<path class="st7" d="M-232.17-27.47c4.02-1.97,6.56-6.06,6.55-10.53c0-6.47-5.23-11.71-11.68-11.71s-11.68,5.24-11.68,11.71
	c-0.01,4.48,2.54,8.56,6.56,10.53V-13h10.25L-232.17-27.47 M-237.3,6.14c-20.61,0-37.38-16.82-37.38-37.5s16.77-37.5,37.38-37.5
	c16.82,0,31.08,11.2,35.76,26.56h12.88c-4.97-22.35-24.86-39.06-48.64-39.06c-27.53,0-49.84,22.39-49.84,50s22.32,50,49.84,50
	c23.78,0,43.67-16.71,48.64-39.06h-12.88C-206.22-5.06-220.48,6.14-237.3,6.14"/>
<g>
	<polygon class="st8" points="-296.46,-230.78 -334.57,-202.48 -327.52,-219.18 	"/>
	<g>
		<polygon class="st9" points="-384.43,-230.78 -346.63,-202.21 -353.33,-219.18 		"/>
		<polygon class="st9" points="-310.17,-165.17 -320.32,-149.62 -298.6,-143.65 -292.36,-164.83 		"/>
		<polygon class="st9" points="-388.45,-164.83 -382.25,-143.65 -360.53,-149.62 -370.68,-165.17 		"/>
		<polygon class="st9" points="-361.76,-191.45 -367.81,-182.29 -346.25,-181.34 -347.01,-204.51 		"/>
		<polygon class="st9" points="-319.13,-191.45 -334.07,-204.78 -334.57,-181.34 -313.04,-182.29 		"/>
		<polygon class="st9" points="-360.53,-149.62 -347.59,-155.94 -358.77,-164.68 		"/>
		<polygon class="st9" points="-333.3,-155.94 -320.32,-149.62 -322.12,-164.68 		"/>
	</g>
	<g>
		<polygon class="st10" points="-320.32,-149.62 -333.3,-155.94 -332.27,-147.48 -332.38,-143.92 		"/>
		<polygon class="st10" points="-360.53,-149.62 -348.47,-143.92 -348.54,-147.48 -347.59,-155.94 		"/>
	</g>
	<polygon class="st11" points="-348.28,-170.27 -359.08,-173.45 -351.46,-176.93 	"/>
	<polygon class="st11" points="-332.61,-170.27 -329.43,-176.93 -321.77,-173.45 	"/>
	<g>
		<polygon class="st12" points="-360.53,-149.62 -358.69,-165.17 -370.68,-164.83 		"/>
		<polygon class="st12" points="-322.16,-165.17 -320.32,-149.62 -310.17,-164.83 		"/>
		<polygon class="st12" points="-313.04,-182.29 -334.57,-181.34 -332.57,-170.27 -329.39,-176.93 -321.74,-173.45 		"/>
		<polygon class="st12" points="-359.08,-173.45 -351.42,-176.93 -348.28,-170.27 -346.25,-181.34 -367.81,-182.29 		"/>
	</g>
	<g>
		<polygon class="st13" points="-367.81,-182.29 -358.77,-164.68 -359.08,-173.45 		"/>
		<polygon class="st13" points="-321.74,-173.45 -322.12,-164.68 -313.04,-182.29 		"/>
		<polygon class="st13" points="-346.25,-181.34 -348.28,-170.27 -345.75,-157.21 -345.17,-174.4 		"/>
		<polygon class="st13" points="-334.57,-181.34 -335.6,-174.44 -335.14,-157.21 -332.57,-170.27 		"/>
	</g>
	<polygon class="st14" points="-332.57,-170.27 -335.14,-157.21 -333.3,-155.94 -322.12,-164.68 -321.74,-173.45 	"/>
	<polygon class="st14" points="-359.08,-173.45 -358.77,-164.68 -347.59,-155.94 -345.75,-157.21 -348.28,-170.27 	"/>
	<polygon class="st15" points="-332.38,-143.92 -332.27,-147.48 -333.22,-148.32 -347.66,-148.32 -348.54,-147.48 -348.47,-143.92 
		-360.53,-149.62 -356.32,-146.18 -347.78,-140.24 -333.11,-140.24 -324.53,-146.18 -320.32,-149.62 	"/>
	<polygon class="st16" points="-333.3,-155.94 -335.14,-157.21 -345.75,-157.21 -347.59,-155.94 -348.54,-147.48 -347.66,-148.32 
		-333.22,-148.32 -332.27,-147.48 	"/>
	<g>
		<polygon class="st17" points="-294.85,-200.64 -291.59,-216.27 -296.46,-230.78 -333.3,-203.44 -319.13,-191.45 -299.1,-185.59 
			-294.66,-190.76 -296.57,-192.14 -293.51,-194.93 -295.88,-196.77 -292.82,-199.11 		"/>
		<polygon class="st17" points="-389.26,-216.27 -386,-200.64 -388.07,-199.11 -385.01,-196.77 -387.34,-194.93 -384.28,-192.14 
			-386.19,-190.76 -381.79,-185.59 -361.76,-191.45 -347.59,-203.44 -384.43,-230.78 		"/>
	</g>
	<polygon class="st14" points="-299.1,-185.59 -319.13,-191.45 -313.04,-182.29 -322.12,-164.68 -310.17,-164.83 -292.36,-164.83 	
		"/>
	<polygon class="st14" points="-361.76,-191.45 -381.79,-185.59 -388.45,-164.83 -370.68,-164.83 -358.77,-164.68 -367.81,-182.29 	
		"/>
	<polygon class="st14" points="-334.57,-181.34 -333.3,-203.44 -327.48,-219.18 -353.33,-219.18 -347.59,-203.44 -346.25,-181.34 
		-345.79,-174.37 -345.75,-157.21 -335.14,-157.21 -335.06,-174.37 	"/>
</g>
<g id="Layer_2">
	<g id="Layer_1-2">
		<polygon id="Shape" class="st18" points="-71.73,17.95 -156.17,17.95 -143.54,-2.49 -71.73,-2.49 		"/>
		<polygon id="Shape-2" class="st19" points="-154.25,-80.67 -71.43,-80.67 -83.37,-60.34 -154.25,-60.34 		"/>
		<polygon id="Shape-3" class="st20" points="-156.17,17.95 -110.34,-60.34 -83.37,-60.34 -129.11,17.95 		"/>
		
			<linearGradient id="_Path__1_" gradientUnits="userSpaceOnUse" x1="-106.034" y1="90.794" x2="-117.0504" y2="105.065" gradientTransform="matrix(1 0 0 -1 0 102)">
			<stop  offset="0" style="stop-color:#29ABE2;stop-opacity:0"/>
			<stop  offset="1" style="stop-color:#28AAC8;stop-opacity:0.6"/>
		</linearGradient>
		<polygon id="_Path_" class="st21" points="-88.32,-2.49 -114.83,17.95 -129.11,17.95 -117.17,-2.49 		"/>
		
			<linearGradient id="_Path_2_1_" gradientUnits="userSpaceOnUse" x1="8129.8042" y1="148.352" x2="8134.3804" y2="163.9249" gradientTransform="matrix(-1 0 0 -1 8028.25 102)">
			<stop  offset="0" style="stop-color:#5AB4FF;stop-opacity:0"/>
			<stop  offset="1" style="stop-color:#5A96BE;stop-opacity:0.6"/>
		</linearGradient>
		<polygon id="_Path_2" class="st22" points="-122.06,-40.28 -89.63,-49.6 -83.37,-60.34 -110.34,-60.34 		"/>
	</g>
</g>
<g>
	<path class="st23" d="M8.89,45.35h0.08c1.42-2.56,3.87-3.7,6.76-3.7h1.42v7.12c-1.02-0.57-1.99-0.69-3.13-0.69
		c-4.11,0-5.13,2.73-5.13,6.31v8.42H1.48V41.93h7.41V45.35z"/>
	<rect x="20.99" y="41.93" class="st23" width="7.41" height="20.88"/>
	<path class="st23" d="M41.37,44.29h0.08c1.34-2.08,3.87-3.05,6.31-3.05c6.23,0,10.54,5.21,10.54,11.19
		c0,6.02-4.27,11.07-10.46,11.07c-2.4,0-4.88-0.86-6.47-2.69v11.44l-7.41,3.13V41.93h7.41V44.29z M41.12,52.39
		c0,2.65,1.75,4.68,4.76,4.68c3.01,0,4.76-2.04,4.76-4.68c0-2.56-1.75-4.72-4.76-4.72C42.87,47.67,41.12,49.82,41.12,52.39"/>
	<rect x="62.23" y="41.93" class="st23" width="7.41" height="20.88"/>
	<path class="st23" d="M98.52,52.39c0,7.08-5.86,11.11-12.57,11.11c-6.67,0-12.58-3.99-12.58-11.11c0-7.12,5.86-11.15,12.58-11.15
		C92.66,41.24,98.52,45.26,98.52,52.39 M81.18,52.39c0,2.65,1.75,4.68,4.76,4.68c3.01,0,4.76-2.04,4.76-4.68
		c0-2.56-1.75-4.72-4.76-4.72C82.93,47.67,81.18,49.82,81.18,52.39"/>
	<polygon class="st23" points="28.38,36.12 21.14,39.04 21.14,32.14 28.39,29.22 	"/>
	<polygon class="st23" points="69.55,36.12 62.31,39.04 62.31,32.14 69.56,29.22 	"/>
</g>
</svg>
