<?xml version="1.0" encoding="utf-8"?>
<!-- Generator: Adobe Illustrator 23.0.1, SVG Export Plug-In . SVG Version: 6.00 Build 0)  -->
<svg version="1.1" id="Capa_1" xmlns="http://www.w3.org/2000/svg" xmlns:xlink="http://www.w3.org/1999/xlink" x="0px" y="0px"
	 viewBox="0 0 100 100" style="enable-background:new 0 0 100 100;" xml:space="preserve">
<style type="text/css">
	.st0{fill-rule:evenodd;clip-rule:evenodd;fill:#000D2B;}
	.st1{fill:#D7D1C7;}
	.st2{fill:#BFB5AF;}
	.st3{fill:#F47E33;}
	.st4{fill:#35312E;}
	.st5{fill:#D8A780;}
	.st6{fill:#31CB9E;}
	.st7{fill:#3AB03E;}
	.st8{fill:#E2761B;stroke:#E2761B;stroke-linecap:round;stroke-linejoin:round;}
	.st9{fill:#E4761B;stroke:#E4761B;stroke-linecap:round;stroke-linejoin:round;}
	.st10{fill:#D7C1B3;stroke:#D7C1B3;stroke-linecap:round;stroke-linejoin:round;}
	.st11{fill:#233447;stroke:#233447;stroke-linecap:round;stroke-linejoin:round;}
	.st12{fill:#CD6116;stroke:#CD6116;stroke-linecap:round;stroke-linejoin:round;}
	.st13{fill:#E4751F;stroke:#E4751F;stroke-linecap:round;stroke-linejoin:round;}
	.st14{fill:#F6851B;stroke:#F6851B;stroke-linecap:round;stroke-linejoin:round;}
	.st15{fill:#C0AD9E;stroke:#C0AD9E;stroke-linecap:round;stroke-linejoin:round;}
	.st16{fill:#161616;stroke:#161616;stroke-linecap:round;stroke-linejoin:round;}
	.st17{fill:#763D16;stroke:#763D16;stroke-linecap:round;stroke-linejoin:round;}
</style>
<path class="st0" d="M-228.53-225.67l-22.97,13.46l22.97,13.46l23.4-13.46L-228.53-225.67z M-224.76-153.81v26.92l31.2-17.8v-26.92
	L-224.76-153.81z M-201.35-203.74v26.92l-23.4,13.46v-26.92L-201.35-203.74z M-257.69-176.82l23.4,13.46v-26.92l-23.4-13.46V-176.82
	z M-257.69-140.35l23.4,13.46v-26.92l-23.4-13.46V-140.35L-257.69-140.35z"/>
<g>
	<path class="st1" d="M96.77,54.66c0.15-1.62,0.24-3.18,0.24-4.85C97.02,23.86,75.96,2.8,50,2.8S2.98,23.86,2.98,49.81
		C2.98,50.01,96.04,52.21,96.77,54.66"/>
	<path class="st2" d="M2.79,49.91c0,25.96,21.06,47.02,47.02,47.02s44.34-15.97,47.02-41.14C96.84,55.59,2.79,48.3,2.79,49.91"/>
	<path class="st3" d="M31.78,15.04c5.19,0,9.4,4.21,9.4,9.4s-4.21,9.4-9.4,9.4s-9.4-4.21-9.4-9.4S26.59,15.04,31.78,15.04"/>
	<path class="st4" d="M31.78,17c-4.11,0-7.44,3.33-7.44,7.44s3.33,7.44,7.44,7.44s7.44-3.33,7.44-7.44
		C39.23,20.33,35.85,17,31.78,17 M31.78,35.81c-6.27,0-11.36-5.09-11.36-11.36s5.09-11.36,11.36-11.36s11.36,5.09,11.36,11.36
		S38,35.81,31.78,35.81"/>
	<path class="st3" d="M62.34,14.6c8.14,0,14.74,6.6,14.74,14.74s-6.6,14.74-14.74,14.74S47.6,37.48,47.6,29.34S54.2,14.6,62.34,14.6
		"/>
	<g>
		<path class="st2" d="M35.94,60.88L47.89,45.8l2.55,1.47l4.9,1.81l3.48-1.81l11.12-11.85l3.87,5.19l1.86-1.52h2.45l6.17,8.62
			l4.41-0.73l7.93,9.01"/>
		<path class="st2" d="M43.78,53.39l-6.46-3.58l-9.4,2.45L23.6,38.01h-7.74L8.42,51.09l-5.44,0.2"/>
	</g>
	<g>
		<path class="st3" d="M22.38,56.13c0,0-3.53,10.28-3.53,10.48c0,0.98,1.57,1.76,3.53,1.76s3.53-0.78,3.53-1.76
			C25.86,66.47,22.38,56.13,22.38,56.13"/>
		<path class="st3" d="M14.25,52.17c0,0-3.48,10.24-3.48,10.43c0,0.98,1.57,1.76,3.48,1.76s3.48-0.78,3.48-1.76
			C17.73,62.4,14.25,52.17,14.25,52.17"/>
	</g>
	<g>
		<path class="st5" d="M78.06,53.24c0,3.97-18.86,3.97-18.86,0s4.21-7.2,9.4-7.2S78.06,49.23,78.06,53.24"/>
		<path class="st5" d="M87.47,63.04c0,3.97-18.86,3.97-18.86,0s4.21-7.2,9.4-7.2C83.25,55.79,87.47,59.02,87.47,63.04"/>
		<path class="st5" d="M68.61,74.69c0,3.97-18.86,3.97-18.86,0c0-3.97,4.21-7.2,9.4-7.2S68.61,70.73,68.61,74.69"/>
	</g>
	<path class="st1" d="M50.54,94.92c-19.44,0-36.09-12.19-42.71-29.34c1.32,0,2.69,0.05,4.11,0.05c0.69,0.2,1.47,0.29,2.3,0.29
		c0.69,0,1.27-0.05,1.86-0.2c0.29,0,0.64,0,0.93,0.05c-0.1,0.29-0.1,0.39-0.1,0.49c0,2.2,2.35,3.77,5.53,3.77
		c3.13,0,4.9-1.96,5.04-4.06c0.49,0.05,1.52,0.54,2.01,0.59c13.22,1.42,14.1,3.82,14.1,3.92c0.05,0.2-0.29,1.22-2.94,3.04
		c-5.68,3.92-7.64,6.22-7.1,8.67c0.64,2.94,4.46,3.67,10.24,4.75c1.62,0.29,3.48,0.69,5.39,1.08c2.11,0.49,4.31,0.93,6.42,1.32
		c3.92,0.78,7.88,1.57,11.02,2.55C61.71,93.89,56.22,94.92,50.54,94.92"/>
	<path class="st4" d="M89.42,44.87l-4.21,0.73l-6.07-8.42h-1.96c1.26-2.4,1.91-5.08,1.91-7.79c0-9.21-7.49-16.7-16.7-16.7
		s-16.75,7.44-16.75,16.65c0,7.64,5.19,14.1,12.19,16.11l-0.24,0.24l-2.4,1.22l-3.92-1.42l-3.87-2.25l-5.44,6.86l-4.36-2.4
		l-8.37,2.15l-4.21-13.81H14.74L7.24,49.18l-2.3,0.05C5.24,24.64,25.37,4.76,50,4.76c24.83,0,45.06,20.23,45.06,45.06v1.42
		L89.42,44.87z M66.65,74.45c-0.69,0.49-3.23,1.27-7.44,1.27s-6.76-0.78-7.44-1.27c0.2-2.74,3.53-5,7.44-5S66.46,71.71,66.65,74.45z
		 M78.06,57.75c3.92,0,7.25,2.25,7.44,5c-0.69,0.49-3.28,1.27-7.44,1.27s-6.76-0.78-7.44-1.27C70.81,60,74.14,57.75,78.06,57.75z
		 M76.05,52.95c-0.69,0.49-3.28,1.27-7.44,1.27s-6.76-0.78-7.44-1.27c0.2-2.74,3.53-5,7.44-5S75.86,50.21,76.05,52.95z M73.07,36.35
		l-2.94-3.97l-9.11,9.75C54.6,41.44,49.61,36,49.61,29.39c0-7.05,5.73-12.78,12.78-12.78s12.78,5.73,12.78,12.78
		C75.17,31.87,74.43,34.28,73.07,36.35z M70.96,89.68c-3.67-1.81-9.26-2.89-15.13-4.06c-2.06-0.39-4.21-0.83-6.27-1.27
		c-1.91-0.44-3.77-0.78-5.44-1.08c-2.64-0.49-5.83-1.13-6.86-1.71c0.34-0.54,1.42-1.81,5.24-4.41c1.37-0.93,5.53-3.77,4.41-7.4
		c-1.03-3.38-6.37-5.44-17.24-6.61c-0.98-0.1-2.01-0.2-3.09-0.29c-0.54-1.62-1.32-3.92-2.45-7.25l-1.86-5.44l-1.86,5.44
		c-0.64,1.81-1.13,3.28-1.57,4.55c-0.49-1.57-1.37-4.11-2.89-8.52l-1.71-5.53l-1.86,5.44c-2.55,7.44-3.28,9.65-3.48,10.48H6.66
		c-0.8-2.9-1.32-5.87-1.57-8.86L9.6,53l7.44-13.03h5.14l4.46,14.64l10.48-2.69l2.4,1.32l-5.09,6.42l3.09,2.45l10.87-13.76l1.27,0.73
		l5.88,2.15l2.55-1.32c-0.49,1.03-0.78,2.15-0.78,3.33s0.73,3.67,6.32,4.6c1.78,0.29,3.08,1.82,3.09,3.62v6.37
		c-0.78-0.54-1.67-1.03-2.64-1.37h0.05c-2.15-0.69-4.16-1.71-4.8-3.82c-0.49,1.71-1.86,2.69-3.62,3.38
		c-4.55,1.22-7.84,4.65-7.84,8.72c0,1.47,1.13,4.95,11.36,4.95c10.28,0,11.36-3.48,11.36-4.95v-7.69c0.69,0.24,1.47,0.44,2.4,0.59
		c1.78,0.29,3.08,1.82,3.09,3.62v4.41c0,1.03,0.73,1.96,1.76,2.06c1.18,0.1,2.15-0.83,2.15-1.96v-4.51c0-1.8,1.31-3.33,3.09-3.62
		c5.58-0.93,6.32-3.38,6.32-4.6c0-3.28-2.15-6.12-5.34-7.74h0.05c-0.05,0-0.1-0.05-0.2-0.05c-0.54-0.29-1.18-0.49-1.76-0.69
		c-0.88-0.44-1.67-1.03-2.2-1.76c-0.24-3.48-2.84-6.42-6.56-7.84h-0.05c-0.24-0.1-0.49-0.15-0.73-0.24
		c-1.86-0.69-3.48-1.71-4.02-3.53c-0.59,2.01-2.3,3.04-4.51,3.72c-0.15,0.05-0.34,0.1-0.49,0.2l6.12-6.51l3.67,4.95l2.94-2.35h0.73
		l6.37,8.77l4.51-0.78l6.61,7.49C92.36,70.97,83.4,83.12,70.96,89.68z M21.06,66.27l1.32-3.97l1.32,3.97
		C22.84,66.53,21.92,66.53,21.06,66.27z M12.97,62.11c0.29-0.88,0.73-2.3,1.27-3.82c0.54,1.57,1.03,2.99,1.27,3.87
		C14.64,62.16,13.81,62.11,12.97,62.11z M50,94.87c-19.15,0-35.56-12-42.07-28.9c1.27,0,2.64,0.05,4.02,0.05
		c0.73,0.2,1.49,0.3,2.25,0.29c0.64,0,1.27-0.05,1.81-0.2c0.31-0.01,0.62,0.01,0.93,0.05c-0.1,0.29-0.1,0.39-0.1,0.49
		c0,2.15,2.3,3.72,5.49,3.72c3.09,0,5.34-1.47,5.44-3.53c0.49,0.05,1.03,0.1,1.52,0.15c13.03,1.42,13.91,3.77,13.91,3.87
		c0.05,0.2-0.24,1.22-2.89,2.99c-5.53,3.82-7.44,6.12-6.95,8.52c0.59,2.89,4.36,3.62,10.09,4.7c1.62,0.29,3.43,0.64,5.29,1.08
		c2.06,0.44,4.26,0.88,6.37,1.32c3.82,0.78,7.74,1.57,10.87,2.5C60.86,93.9,55.45,94.88,50,94.87z M50,0.84
		c-26.99,0-48.97,21.99-48.97,48.97S23.01,98.79,50,98.79S98.97,76.8,98.97,49.81S76.99,0.84,50,0.84z"/>
</g>
<g>
	<path class="st6" d="M-358.1-17.03l36.82,21.09c0.92,0.55,2.11,0.26,2.67-0.66c0.18-0.31,0.28-0.66,0.28-1.01v-38.85
		c0.01-1.07-0.84-1.94-1.9-1.95c-0.37,0-0.73,0.1-1.04,0.29L-358.1-17.03z"/>
	<path class="st6" d="M-322.06-47.47l-25.17-18.51c-0.88-0.67-2.14-0.5-2.81,0.37c-0.16,0.21-0.28,0.45-0.34,0.7l-9.19,41.23
		l37.29-20.62c0.91-0.47,1.27-1.59,0.8-2.5c-0.14-0.27-0.34-0.49-0.58-0.67"/>
	<path class="st6" d="M-347.26,31.9l25.2-18.51c0.85-0.61,1.04-1.78,0.44-2.63c-0.17-0.24-0.39-0.43-0.64-0.57l-37.3-20.62
		l9.19,41.23c0.25,1.07,1.33,1.73,2.39,1.47c0.26-0.06,0.51-0.18,0.73-0.34"/>
	<path class="st6" d="M-367.67-17.79l9.57-44.78c0.2-1.03-0.47-2.03-1.5-2.23c-0.5-0.1-1.03,0.01-1.45,0.3l-24.52,18.81
		c-1.26,0.97-1.99,2.46-1.99,4.05V6.07c-0.03,1.61,0.71,3.14,1.99,4.12l24.4,18.73c0.86,0.6,2.05,0.38,2.64-0.48
		c0.29-0.42,0.4-0.94,0.3-1.45L-367.67-17.79z"/>
</g>
<path class="st7" d="M-232.17-27.47c4.02-1.97,6.56-6.06,6.55-10.53c0-6.47-5.23-11.71-11.68-11.71s-11.68,5.24-11.68,11.71
	c-0.01,4.48,2.54,8.56,6.56,10.53V-13h10.25L-232.17-27.47 M-237.3,6.14c-20.61,0-37.38-16.82-37.38-37.5s16.77-37.5,37.38-37.5
	c16.82,0,31.08,11.2,35.76,26.56h12.88c-4.97-22.35-24.86-39.06-48.64-39.06c-27.53,0-49.84,22.39-49.84,50s22.32,50,49.84,50
	c23.78,0,43.67-16.71,48.64-39.06h-12.88C-206.22-5.06-220.48,6.14-237.3,6.14"/>
<g>
	<polygon class="st8" points="-296.46,-230.78 -334.57,-202.48 -327.52,-219.18 	"/>
	<g>
		<polygon class="st9" points="-384.43,-230.78 -346.63,-202.21 -353.33,-219.18 		"/>
		<polygon class="st9" points="-310.17,-165.17 -320.32,-149.62 -298.6,-143.65 -292.36,-164.83 		"/>
		<polygon class="st9" points="-388.45,-164.83 -382.25,-143.65 -360.53,-149.62 -370.68,-165.17 		"/>
		<polygon class="st9" points="-361.76,-191.45 -367.81,-182.29 -346.25,-181.34 -347.01,-204.51 		"/>
		<polygon class="st9" points="-319.13,-191.45 -334.07,-204.78 -334.57,-181.34 -313.04,-182.29 		"/>
		<polygon class="st9" points="-360.53,-149.62 -347.59,-155.94 -358.77,-164.68 		"/>
		<polygon class="st9" points="-333.3,-155.94 -320.32,-149.62 -322.12,-164.68 		"/>
	</g>
	<g>
		<polygon class="st10" points="-320.32,-149.62 -333.3,-155.94 -332.27,-147.48 -332.38,-143.92 		"/>
		<polygon class="st10" points="-360.53,-149.62 -348.47,-143.92 -348.54,-147.48 -347.59,-155.94 		"/>
	</g>
	<polygon class="st11" points="-348.28,-170.27 -359.08,-173.45 -351.46,-176.93 	"/>
	<polygon class="st11" points="-332.61,-170.27 -329.43,-176.93 -321.77,-173.45 	"/>
	<g>
		<polygon class="st12" points="-360.53,-149.62 -358.69,-165.17 -370.68,-164.83 		"/>
		<polygon class="st12" points="-322.16,-165.17 -320.32,-149.62 -310.17,-164.83 		"/>
		<polygon class="st12" points="-313.04,-182.29 -334.57,-181.34 -332.57,-170.27 -329.39,-176.93 -321.74,-173.45 		"/>
		<polygon class="st12" points="-359.08,-173.45 -351.42,-176.93 -348.28,-170.27 -346.25,-181.34 -367.81,-182.29 		"/>
	</g>
	<g>
		<polygon class="st13" points="-367.81,-182.29 -358.77,-164.68 -359.08,-173.45 		"/>
		<polygon class="st13" points="-321.74,-173.45 -322.12,-164.68 -313.04,-182.29 		"/>
		<polygon class="st13" points="-346.25,-181.34 -348.28,-170.27 -345.75,-157.21 -345.17,-174.4 		"/>
		<polygon class="st13" points="-334.57,-181.34 -335.6,-174.44 -335.14,-157.21 -332.57,-170.27 		"/>
	</g>
	<polygon class="st14" points="-332.57,-170.27 -335.14,-157.21 -333.3,-155.94 -322.12,-164.68 -321.74,-173.45 	"/>
	<polygon class="st14" points="-359.08,-173.45 -358.77,-164.68 -347.59,-155.94 -345.75,-157.21 -348.28,-170.27 	"/>
	<polygon class="st15" points="-332.38,-143.92 -332.27,-147.48 -333.22,-148.32 -347.66,-148.32 -348.54,-147.48 -348.47,-143.92 
		-360.53,-149.62 -356.32,-146.18 -347.78,-140.24 -333.11,-140.24 -324.53,-146.18 -320.32,-149.62 	"/>
	<polygon class="st16" points="-333.3,-155.94 -335.14,-157.21 -345.75,-157.21 -347.59,-155.94 -348.54,-147.48 -347.66,-148.32 
		-333.22,-148.32 -332.27,-147.48 	"/>
	<g>
		<polygon class="st17" points="-294.85,-200.64 -291.59,-216.27 -296.46,-230.78 -333.3,-203.44 -319.13,-191.45 -299.1,-185.59 
			-294.66,-190.76 -296.57,-192.14 -293.51,-194.93 -295.88,-196.77 -292.82,-199.11 		"/>
		<polygon class="st17" points="-389.26,-216.27 -386,-200.64 -388.07,-199.11 -385.01,-196.77 -387.34,-194.93 -384.28,-192.14 
			-386.19,-190.76 -381.79,-185.59 -361.76,-191.45 -347.59,-203.44 -384.43,-230.78 		"/>
	</g>
	<polygon class="st14" points="-299.1,-185.59 -319.13,-191.45 -313.04,-182.29 -322.12,-164.68 -310.17,-164.83 -292.36,-164.83 	
		"/>
	<polygon class="st14" points="-361.76,-191.45 -381.79,-185.59 -388.45,-164.83 -370.68,-164.83 -358.77,-164.68 -367.81,-182.29 	
		"/>
	<polygon class="st14" points="-334.57,-181.34 -333.3,-203.44 -327.48,-219.18 -353.33,-219.18 -347.59,-203.44 -346.25,-181.34 
		-345.79,-174.37 -345.75,-157.21 -335.14,-157.21 -335.06,-174.37 	"/>
</g>
</svg>
