<?xml version="1.0" encoding="utf-8"?>
<!-- Generator: Adobe Illustrator 23.0.1, SVG Export Plug-In . SVG Version: 6.00 Build 0)  -->
<svg version="1.1" id="Capa_1" xmlns="http://www.w3.org/2000/svg" xmlns:xlink="http://www.w3.org/1999/xlink" x="0px" y="0px"
	 viewBox="0 0 100 100" style="enable-background:new 0 0 100 100;" xml:space="preserve">
<style type="text/css">
	.st0{fill-rule:evenodd;clip-rule:evenodd;fill:#000D2B;}
	.st1{fill:#D7D1C7;}
	.st2{fill:#BFB5AF;}
	.st3{fill:#F47E33;}
	.st4{fill:#35312E;}
	.st5{fill:#D8A780;}
	.st6{fill:#31CB9E;}
	.st7{fill:#3AB03E;}
	.st8{fill:#E2761B;stroke:#E2761B;stroke-linecap:round;stroke-linejoin:round;}
	.st9{fill:#E4761B;stroke:#E4761B;stroke-linecap:round;stroke-linejoin:round;}
	.st10{fill:#D7C1B3;stroke:#D7C1B3;stroke-linecap:round;stroke-linejoin:round;}
	.st11{fill:#233447;stroke:#233447;stroke-linecap:round;stroke-linejoin:round;}
	.st12{fill:#CD6116;stroke:#CD6116;stroke-linecap:round;stroke-linejoin:round;}
	.st13{fill:#E4751F;stroke:#E4751F;stroke-linecap:round;stroke-linejoin:round;}
	.st14{fill:#F6851B;stroke:#F6851B;stroke-linecap:round;stroke-linejoin:round;}
	.st15{fill:#C0AD9E;stroke:#C0AD9E;stroke-linecap:round;stroke-linejoin:round;}
	.st16{fill:#161616;stroke:#161616;stroke-linecap:round;stroke-linejoin:round;}
	.st17{fill:#763D16;stroke:#763D16;stroke-linecap:round;stroke-linejoin:round;}
</style>
<path class="st0" d="M326.65-24.85l-97.59,57.19l97.59,57.19l99.44-57.19L326.65-24.85z M342.7,280.48v114.38l132.58-75.63V204.83
	L342.7,280.48z M442.14,68.31v114.39L342.7,239.9V125.5L442.14,68.31z M202.76,182.71l99.44,57.19V125.5l-99.44-57.19V182.71z
	 M202.76,337.67l99.44,57.19V280.48l-99.44-57.19V337.67L202.76,337.67z"/>
<g>
	<path class="st1" d="M-620.15,123.78c0.72-7.93,1.2-15.62,1.2-23.78c0-127.33-103.3-230.63-230.63-230.63
		S-1080.21-27.33-1080.21,100C-1080.21,100.96-623.75,111.77-620.15,123.78"/>
	<path class="st2" d="M-1081.17,100.48c0,127.33,103.3,230.63,230.63,230.63s217.53-78.32,230.63-201.8
		C-619.81,128.35-1081.17,92.55-1081.17,100.48"/>
	<path class="st3" d="M-938.95-70.57c25.47,0,46.13,20.66,46.13,46.13s-20.66,46.13-46.13,46.13c-25.47,0-46.13-20.66-46.13-46.13
		S-964.42-70.57-938.95-70.57"/>
	<path class="st4" d="M-938.95-60.96c-20.17,0-36.52,16.35-36.52,36.52s16.35,36.52,36.52,36.52s36.52-16.35,36.52-36.52
		C-902.43-44.63-919.01-60.96-938.95-60.96 M-938.95,31.29c-30.75,0-55.74-24.99-55.74-55.74s24.99-55.74,55.74-55.74
		s55.74,24.99,55.74,55.74S-908.44,31.29-938.95,31.29"/>
	<path class="st3" d="M-789.04-72.73c39.94,0,72.31,32.37,72.31,72.31s-32.38,72.31-72.31,72.31s-72.31-32.37-72.31-72.31
		S-828.98-72.73-789.04-72.73"/>
	<g>
		<path class="st2" d="M-918.53,154.29l58.62-73.99l12.49,7.21l24.02,8.89l17.06-8.89l54.53-58.14l18.98,25.47l9.13-7.45h12.01
			l30.27,42.28l21.62-3.6l38.92,44.2"/>
		<path class="st2" d="M-880.09,117.54L-911.8,100l-46.13,12.01l-21.14-69.91h-37.96l-36.52,64.14l-26.67,0.96"/>
	</g>
	<g>
		<path class="st3" d="M-985.08,130.99c0,0-17.3,50.45-17.3,51.41c0,4.8,7.69,8.65,17.3,8.65c9.61,0,17.3-3.84,17.3-8.65
			C-968.02,181.68-985.08,130.99-985.08,130.99"/>
		<path class="st3" d="M-1024.96,111.53c0,0-17.06,50.21-17.06,51.17c0,4.8,7.69,8.65,17.06,8.65c9.37,0,17.06-3.84,17.06-8.65
			C-1007.9,161.74-1024.96,111.53-1024.96,111.53"/>
	</g>
	<g>
		<path class="st5" d="M-711.92,116.82c0,19.46-92.49,19.46-92.49,0s20.66-35.32,46.13-35.32
			C-732.82,81.5-711.92,97.12-711.92,116.82"/>
		<path class="st5" d="M-665.8,164.87c0,19.46-92.49,19.46-92.49,0s20.66-35.32,46.13-35.32
			C-686.46,129.31-665.8,145.17-665.8,164.87"/>
		<path class="st5" d="M-758.29,222.04c0,19.46-92.49,19.46-92.49,0s20.66-35.32,46.13-35.32
			C-779.19,186.73-758.29,202.58-758.29,222.04"/>
	</g>
	<path class="st1" d="M-846.94,321.26c-95.38,0-177.06-59.82-209.49-143.9c6.49,0,13.21,0.24,20.18,0.24
		c3.36,0.96,7.21,1.44,11.29,1.44c3.36,0,6.25-0.24,9.13-0.96c1.44,0,3.12,0,4.56,0.24c-0.48,1.44-0.48,1.92-0.48,2.4
		c0,10.81,11.53,18.5,27.15,18.5c15.38,0,24.02-9.61,24.74-19.94c2.4,0.24,7.45,2.64,9.85,2.88c64.87,6.97,69.19,18.74,69.19,19.22
		c0.24,0.96-1.44,6.01-14.41,14.89c-27.87,19.22-37.48,30.51-34.84,42.52c3.12,14.41,21.86,18.02,50.21,23.3
		c7.93,1.44,17.06,3.36,26.43,5.29c10.33,2.4,21.14,4.56,31.47,6.49c19.22,3.84,38.68,7.69,54.05,12.49
		C-792.16,316.22-819.07,321.26-846.94,321.26"/>
	<path class="st4" d="M-656.19,75.74l-20.66,3.6l-29.79-41.32h-9.61c6.16-11.79,9.38-24.9,9.37-38.2
		c0-45.17-36.76-81.92-81.92-81.92c-45.17,0-82.16,36.52-82.16,81.68c0,37.48,25.47,69.19,59.82,79.04l-1.2,1.2l-11.77,6.01
		l-19.22-6.97l-18.98-11.05l-26.67,33.63l-21.38-11.77l-41.08,10.57l-20.66-67.75h-50.45l-36.76,64.38l-11.29,0.24
		c1.44-120.6,100.18-218.14,221.02-218.14c121.8,0,221.02,99.22,221.02,221.02v6.97L-656.19,75.74z M-767.9,220.84
		c-3.36,2.4-15.86,6.25-36.52,6.25s-33.15-3.84-36.52-6.25c0.96-13.45,17.3-24.5,36.52-24.5
		C-785.2,196.34-768.86,207.39-767.9,220.84z M-711.92,138.92c19.22,0,35.56,11.05,36.52,24.5c-3.36,2.4-16.1,6.25-36.52,6.25
		s-33.15-3.84-36.52-6.25C-747.48,149.97-731.14,138.92-711.92,138.92z M-721.77,115.38c-3.36,2.4-16.1,6.25-36.52,6.25
		s-33.15-3.84-36.52-6.25c0.96-13.45,17.3-24.5,36.52-24.5C-739.07,90.87-722.73,101.92-721.77,115.38z M-736.43,33.93l-14.41-19.46
		l-44.68,47.81C-827,58.92-851.5,32.25-851.5-0.18c0-34.59,28.11-62.7,62.7-62.7c34.59,0,62.7,28.11,62.7,62.7
		C-726.13,11.96-729.72,23.82-736.43,33.93z M-746.76,295.56c-18.02-8.89-45.41-14.17-74.23-19.94
		c-10.09-1.92-20.66-4.08-30.75-6.25c-9.37-2.16-18.5-3.84-26.67-5.29c-12.97-2.4-28.59-5.53-33.63-8.41
		c1.68-2.64,6.97-8.89,25.71-21.62c6.73-4.56,27.15-18.5,21.62-36.28c-5.05-16.58-31.23-26.67-84.57-32.43
		c-4.8-0.48-9.85-0.96-15.14-1.44c-2.64-7.93-6.49-19.22-12.01-35.56l-9.13-26.67l-9.13,26.67c-3.12,8.89-5.53,16.1-7.69,22.34
		c-2.4-7.69-6.73-20.18-14.17-41.8l-8.41-27.15l-9.13,26.67c-12.49,36.52-16.1,47.33-17.06,51.41h-11.05
		c-3.92-14.22-6.49-28.78-7.69-43.48l22.1-0.72l36.52-63.9h25.23l21.86,71.83l51.41-13.21l11.77,6.49l-24.99,31.47l15.14,12.01
		l53.33-67.51l6.25,3.6l28.83,10.57l12.49-6.49c-2.4,5.05-3.84,10.57-3.84,16.34c0,5.77,3.6,18.02,30.99,22.58
		c8.71,1.43,15.11,8.95,15.14,17.78v31.23c-3.84-2.64-8.17-5.05-12.97-6.73h0.24c-10.57-3.36-20.42-8.41-23.54-18.74
		c-2.4,8.41-9.13,13.21-17.78,16.58c-22.34,6.01-38.44,22.82-38.44,42.76c0,7.21,5.53,24.26,55.74,24.26
		c50.45,0,55.74-17.06,55.74-24.26v-37.72c3.36,1.2,7.21,2.16,11.77,2.88c8.71,1.43,15.11,8.95,15.14,17.78v21.62
		c0,5.05,3.6,9.61,8.65,10.09c5.77,0.48,10.57-4.08,10.57-9.61v-22.1c0.02-8.83,6.42-16.35,15.14-17.78
		c27.39-4.56,30.99-16.58,30.99-22.58c0-16.1-10.57-30.03-26.19-37.96h0.24c-0.24,0-0.48-0.24-0.96-0.24
		c-2.64-1.44-5.77-2.4-8.65-3.36c-4.32-2.16-8.17-5.05-10.81-8.65c-1.2-17.06-13.93-31.47-32.19-38.44h-0.24
		c-1.2-0.48-2.4-0.72-3.6-1.2c-9.13-3.36-17.06-8.41-19.7-17.3c-2.88,9.85-11.29,14.89-22.1,18.26c-0.72,0.24-1.68,0.48-2.4,0.96
		L-753,44.98l18.02,24.26l14.41-11.53h3.6l31.23,43l22.1-3.84l32.43,36.76C-641.77,203.78-685.74,263.36-746.76,295.56z
		 M-991.56,180.72l6.49-19.46l6.49,19.46C-982.82,182-987.33,182-991.56,180.72z M-1031.2,160.3c1.44-4.32,3.6-11.29,6.25-18.74
		c2.64,7.69,5.05,14.65,6.25,18.98C-1023.03,160.54-1027.12,160.3-1031.2,160.3z M-849.58,321.02
		c-93.93,0-174.42-58.86-206.37-141.74c6.25,0,12.97,0.24,19.7,0.24c3.6,1,7.32,1.48,11.05,1.44c3.12,0,6.25-0.24,8.89-0.96
		c1.53-0.03,3.05,0.05,4.56,0.24c-0.48,1.44-0.48,1.92-0.48,2.4c0,10.57,11.29,18.26,26.91,18.26c15.14,0,26.19-7.21,26.67-17.3
		c2.4,0.24,5.05,0.48,7.45,0.72c63.9,6.97,68.23,18.5,68.23,18.98c0.24,0.96-1.2,6.01-14.17,14.65
		c-27.15,18.74-36.52,30.03-34.11,41.8c2.88,14.17,21.38,17.78,49.49,23.06c7.93,1.44,16.82,3.12,25.95,5.29
		c10.09,2.16,20.9,4.32,31.23,6.49c18.74,3.84,37.96,7.69,53.33,12.25C-796.3,316.25-822.83,321.05-849.58,321.02z M-849.58-140.24
		c-132.37,0-240.24,107.87-240.24,240.24s107.87,240.24,240.24,240.24S-609.34,232.37-609.34,100S-717.21-140.24-849.58-140.24z"/>
</g>
<g>
	<path class="st6" d="M44.97,50.63l36.82,21.09c0.92,0.55,2.11,0.26,2.67-0.66c0.18-0.31,0.28-0.66,0.28-1.01V31.19
		c0.01-1.07-0.84-1.94-1.9-1.95c-0.37,0-0.73,0.1-1.04,0.29L44.97,50.63z"/>
	<path class="st6" d="M81.01,20.19L55.84,1.68c-0.88-0.67-2.14-0.5-2.81,0.37c-0.16,0.21-0.28,0.45-0.34,0.7L43.5,43.98l37.29-20.62
		c0.91-0.47,1.27-1.59,0.8-2.5c-0.14-0.27-0.34-0.49-0.58-0.67"/>
	<path class="st6" d="M55.81,99.56l25.2-18.51c0.85-0.61,1.04-1.78,0.44-2.63c-0.17-0.24-0.39-0.43-0.64-0.57L43.5,57.24l9.19,41.23
		c0.25,1.07,1.33,1.73,2.39,1.47c0.26-0.06,0.51-0.18,0.73-0.34"/>
	<path class="st6" d="M35.4,49.88l9.57-44.78c0.2-1.03-0.47-2.03-1.5-2.23c-0.5-0.1-1.03,0.01-1.45,0.3L17.51,21.97
		c-1.26,0.97-1.99,2.46-1.99,4.05v47.71c-0.03,1.61,0.71,3.14,1.99,4.12l24.4,18.73c0.86,0.6,2.05,0.38,2.64-0.48
		c0.29-0.42,0.4-0.94,0.3-1.45L35.4,49.88z"/>
</g>
<path class="st7" d="M-232.17-27.47c4.02-1.97,6.56-6.06,6.55-10.53c0-6.47-5.23-11.71-11.68-11.71s-11.68,5.24-11.68,11.71
	c-0.01,4.48,2.54,8.56,6.56,10.53V-13h10.25L-232.17-27.47 M-237.3,6.14c-20.61,0-37.38-16.82-37.38-37.5s16.77-37.5,37.38-37.5
	c16.82,0,31.08,11.2,35.76,26.56h12.88c-4.97-22.35-24.86-39.06-48.64-39.06c-27.53,0-49.84,22.39-49.84,50s22.32,50,49.84,50
	c23.78,0,43.67-16.71,48.64-39.06h-12.88C-206.22-5.06-220.48,6.14-237.3,6.14"/>
<g>
	<polygon class="st8" points="39.39,177.36 -60.11,251.26 -41.71,207.66 	"/>
	<g>
		<polygon class="st9" points="-190.31,177.36 -91.61,251.96 -109.11,207.66 		"/>
		<polygon class="st9" points="3.59,348.66 -22.91,389.26 33.79,404.86 50.09,349.56 		"/>
		<polygon class="st9" points="-200.81,349.56 -184.61,404.86 -127.91,389.26 -154.41,348.66 		"/>
		<polygon class="st9" points="-131.11,280.06 -146.91,303.96 -90.61,306.46 -92.61,245.96 		"/>
		<polygon class="st9" points="-19.81,280.06 -58.81,245.26 -60.11,306.46 -3.91,303.96 		"/>
		<polygon class="st9" points="-127.91,389.26 -94.11,372.76 -123.31,349.96 		"/>
		<polygon class="st9" points="-56.81,372.76 -22.91,389.26 -27.61,349.96 		"/>
	</g>
	<g>
		<polygon class="st10" points="-22.91,389.26 -56.81,372.76 -54.11,394.86 -54.41,404.16 		"/>
		<polygon class="st10" points="-127.91,389.26 -96.41,404.16 -96.61,394.86 -94.11,372.76 		"/>
	</g>
	<polygon class="st11" points="-95.91,335.36 -124.11,327.06 -104.21,317.96 	"/>
	<polygon class="st11" points="-55.01,335.36 -46.71,317.96 -26.71,327.06 	"/>
	<g>
		<polygon class="st12" points="-127.91,389.26 -123.11,348.66 -154.41,349.56 		"/>
		<polygon class="st12" points="-27.71,348.66 -22.91,389.26 3.59,349.56 		"/>
		<polygon class="st12" points="-3.91,303.96 -60.11,306.46 -54.91,335.36 -46.61,317.96 -26.61,327.06 		"/>
		<polygon class="st12" points="-124.11,327.06 -104.11,317.96 -95.91,335.36 -90.61,306.46 -146.91,303.96 		"/>
	</g>
	<g>
		<polygon class="st13" points="-146.91,303.96 -123.31,349.96 -124.11,327.06 		"/>
		<polygon class="st13" points="-26.61,327.06 -27.61,349.96 -3.91,303.96 		"/>
		<polygon class="st13" points="-90.61,306.46 -95.91,335.36 -89.31,369.46 -87.81,324.56 		"/>
		<polygon class="st13" points="-60.11,306.46 -62.81,324.46 -61.61,369.46 -54.91,335.36 		"/>
	</g>
	<polygon class="st14" points="-54.91,335.36 -61.61,369.46 -56.81,372.76 -27.61,349.96 -26.61,327.06 	"/>
	<polygon class="st14" points="-124.11,327.06 -123.31,349.96 -94.11,372.76 -89.31,369.46 -95.91,335.36 	"/>
	<polygon class="st15" points="-54.41,404.16 -54.11,394.86 -56.61,392.66 -94.31,392.66 -96.61,394.86 -96.41,404.16 
		-127.91,389.26 -116.91,398.26 -94.61,413.76 -56.31,413.76 -33.91,398.26 -22.91,389.26 	"/>
	<polygon class="st16" points="-56.81,372.76 -61.61,369.46 -89.31,369.46 -94.11,372.76 -96.61,394.86 -94.31,392.66 
		-56.61,392.66 -54.11,394.86 	"/>
	<g>
		<polygon class="st17" points="43.59,256.06 52.09,215.26 39.39,177.36 -56.81,248.76 -19.81,280.06 32.49,295.36 44.09,281.86 
			39.09,278.26 47.09,270.96 40.89,266.16 48.89,260.06 		"/>
		<polygon class="st17" points="-202.91,215.26 -194.41,256.06 -199.81,260.06 -191.81,266.16 -197.91,270.96 -189.91,278.26 
			-194.91,281.86 -183.41,295.36 -131.11,280.06 -94.11,248.76 -190.31,177.36 		"/>
	</g>
	<polygon class="st14" points="32.49,295.36 -19.81,280.06 -3.91,303.96 -27.61,349.96 3.59,349.56 50.09,349.56 	"/>
	<polygon class="st14" points="-131.11,280.06 -183.41,295.36 -200.81,349.56 -154.41,349.56 -123.31,349.96 -146.91,303.96 	"/>
	<polygon class="st14" points="-60.11,306.46 -56.81,248.76 -41.61,207.66 -109.11,207.66 -94.11,248.76 -90.61,306.46 
		-89.41,324.66 -89.31,369.46 -61.61,369.46 -61.41,324.66 	"/>
</g>
</svg>
