<svg id="Capa_1" data-name="Capa 1" xmlns="http://www.w3.org/2000/svg" viewBox="0 0 314 684.5"><defs><style>.cls-1{fill:#404fff;}.cls-1,.cls-3,.cls-4,.cls-5,.cls-6{stroke:#000;}.cls-2{fill:#696969;}.cls-3,.cls-5,.cls-6,.cls-8{fill:none;}.cls-3{stroke-miterlimit:10;}.cls-4,.cls-7{fill:#fff;}.cls-5{stroke-dasharray:2 0;}</style></defs><title>esquemas-1</title><g id="Artboard_3" data-name="Artboard 3"><g id="iPhone_6_7_8_1" data-name="iPhone 6 7 8 1"><circle id="Ellipse_108" data-name="Ellipse 108" class="cls-1" cx="76.21" cy="396.06" r="36.07"/><g id="Skin_in_the_game" data-name="Skin in the game"><g id="Group_438" data-name="Group 438"><path id="Path_428" data-name="Path 428" class="cls-2" d="M99.28,310.76l.48-1a4.69,4.69,0,0,0,3,1.05c1.57,0,2.25-.61,2.25-1.4,0-2.23-5.51-.82-5.51-4.2,0-1.41,1.09-2.6,3.48-2.6a5.28,5.28,0,0,1,2.93.8l-.43,1a4.69,4.69,0,0,0-2.5-.74c-1.55,0-2.21.65-2.21,1.44,0,2.23,5.51.84,5.51,4.18,0,1.39-1.1,2.58-3.51,2.58A5.41,5.41,0,0,1,99.28,310.76Z"/><path id="Path_429" data-name="Path 429" class="cls-2" d="M110.68,308.59l-1.43,1.33v1.88H108v-9.65h1.25v6.19l3.75-3.43h1.51l-2.9,2.85,3.19,4h-1.54Z"/><path id="Path_430" data-name="Path 430" class="cls-2" d="M115.68,302.78a.82.82,0,0,1,.82-.82h0a.78.78,0,0,1,.84.75h0v0a.85.85,0,0,1-.93.75.86.86,0,0,1-.76-.75Zm.23,2.13h1.24v6.89h-1.24Z"/><path id="Path_431" data-name="Path 431" class="cls-2" d="M126.08,307.84v4h-1.25V308c0-1.35-.67-2-1.86-2a2,2,0,0,0-2.18,1.9,2.54,2.54,0,0,0,0,.39v3.55h-1.25v-6.95h1.2v1a3,3,0,0,1,2.48-1.1,2.67,2.67,0,0,1,2.88,2.44,2.33,2.33,0,0,1,0,.59Z"/><path id="Path_432" data-name="Path 432" class="cls-2" d="M131.68,302.78a.82.82,0,0,1,.82-.82h0a.78.78,0,0,1,.84.75h0v0a.85.85,0,0,1-.93.75.86.86,0,0,1-.76-.75Zm.22,2.13h1.25v6.89H131.9Z"/><path id="Path_433" data-name="Path 433" class="cls-2" d="M142.06,307.84v4h-1.25V308c0-1.35-.67-2-1.86-2a2,2,0,0,0-2.19,1.9c0,.13,0,.26,0,.39v3.55h-1.25v-6.95h1.16v1a3,3,0,0,1,2.48-1.1,2.65,2.65,0,0,1,2.9,3Z"/><path id="Path_434" data-name="Path 434" class="cls-2" d="M151.74,311.41a2.38,2.38,0,0,1-1.5.48,2,2,0,0,1-2.18-1.8,2.16,2.16,0,0,1,0-.36V306h-1.18v-1h1.17v-1.54h1.25v1.51h2v1h-2v3.73a1,1,0,0,0,.83,1.15h0a1,1,0,0,0,.25,0,1.54,1.54,0,0,0,1-.33Z"/><path id="Path_435" data-name="Path 435" class="cls-2" d="M159.79,307.84v4h-1.25V308c0-1.35-.67-2-1.86-2a2,2,0,0,0-2.19,1.9c0,.13,0,.26,0,.39v3.55h-1.25v-9.65h1.25V306a3,3,0,0,1,2.43-1,2.67,2.67,0,0,1,2.87,2.45A2.16,2.16,0,0,1,159.79,307.84Z"/><path id="Path_436" data-name="Path 436" class="cls-2" d="M168.34,308.77h-5.59a2.36,2.36,0,0,0,2.5,2,2.57,2.57,0,0,0,2-.84l.69.81a3.75,3.75,0,0,1-5.3.05,3.8,3.8,0,0,1-1.12-2.45,3.38,3.38,0,0,1,3.23-3.51H165a3.32,3.32,0,0,1,3.42,3.22h0c0,.11,0,.21,0,.32A1.81,1.81,0,0,1,168.34,308.77Zm-5.59-.9h4.42a2.22,2.22,0,0,0-4.42,0Z"/><path id="Path_437" data-name="Path 437" class="cls-2" d="M180.19,304.91v5.95c0,2.44-1.24,3.54-3.58,3.54a5.11,5.11,0,0,1-3.29-1l.6-1a4.25,4.25,0,0,0,2.65.9c1.63,0,2.37-.76,2.37-2.32v-.57a3.18,3.18,0,0,1-2.48,1.06,3.33,3.33,0,0,1,0-6.66,3.07,3.07,0,0,1,2.54,1.13v-1ZM179,308.17a2.38,2.38,0,1,0-2.53,2.22h.31A2.37,2.37,0,0,0,179,308.17Z"/><path id="Path_438" data-name="Path 438" class="cls-2" d="M188,307.64v4.16h-1.19v-.91a2.57,2.57,0,0,1-2.26,1c-1.56,0-2.55-.83-2.55-2s.72-2,2.77-2h2v-.25c0-1.06-.61-1.67-1.85-1.67a3.4,3.4,0,0,0-2.18.75l-.52-.94a4.63,4.63,0,0,1,2.85-.88C187,304.85,188,305.76,188,307.64Zm-1.25,2v-1h-1.93c-1.23,0-1.58.48-1.58,1.07s.57,1.12,1.52,1.12a2,2,0,0,0,2-1.14Z"/><path id="Path_439" data-name="Path 439" class="cls-2" d="M201.78,307.84v4h-1.25V308c0-1.35-.65-2-1.78-2a2,2,0,0,0-2.08,1.9,2.54,2.54,0,0,0,0,.39v3.55h-1.24V308c0-1.35-.65-2-1.78-2a2,2,0,0,0-2.08,1.9,2.54,2.54,0,0,0,0,.39v3.55h-1.25v-7h1.2v1a2.78,2.78,0,0,1,2.38-1.09,2.53,2.53,0,0,1,2.39,1.27,3.11,3.11,0,0,1,2.65-1.27C200.68,304.85,201.78,305.81,201.78,307.84Z"/><path id="Path_440" data-name="Path 440" class="cls-2" d="M210.32,308.77h-5.59a2.35,2.35,0,0,0,2.5,2,2.6,2.6,0,0,0,2-.84l.69.81a3.76,3.76,0,0,1-6.43-2.4,3.38,3.38,0,0,1,3.23-3.51H207a3.32,3.32,0,0,1,3.42,3.22h0c0,.11,0,.21,0,.32S210.33,308.65,210.32,308.77Zm-5.59-.9h4.42a2.22,2.22,0,0,0-4.42,0Z"/></g></g><g id="Originator_Risk_Management" data-name="Originator Risk Management"><g id="Group_439" data-name="Group 439"><path id="Path_441" data-name="Path 441" class="cls-2" d="M100.37,491.13a4.84,4.84,0,1,1,5,4.64h-.18a4.62,4.62,0,0,1-4.84-4.38C100.38,491.3,100.37,491.22,100.37,491.13Zm8.37,0a3.54,3.54,0,1,0-3.58,3.5h.06a3.42,3.42,0,0,0,3.52-3.32A.54.54,0,0,0,108.74,491.13Z"/><path id="Path_442" data-name="Path 442" class="cls-2" d="M115.55,488.73v1.21h-.29a2.06,2.06,0,0,0-2.18,1.93,2.71,2.71,0,0,0,0,.4v3.43h-1.24v-6.89H113V490A2.61,2.61,0,0,1,115.55,488.73Z"/><path id="Path_443" data-name="Path 443" class="cls-2" d="M116.86,486.66a.82.82,0,0,1,.82-.82h0a.81.81,0,1,1-.85.82Zm.23,2.13h1.24v6.89h-1.24Z"/><path id="Path_444" data-name="Path 444" class="cls-2" d="M127.3,488.79v6c0,2.43-1.23,3.53-3.57,3.53a5.11,5.11,0,0,1-3.29-1l.6-1a4.19,4.19,0,0,0,2.65.9c1.62,0,2.37-.75,2.37-2.31v-.55a3.19,3.19,0,0,1-2.49,1.07,3.34,3.34,0,0,1-.36-6.67h.36a3.09,3.09,0,0,1,2.55,1.13v-1.07Zm-1.22,3.26a2.37,2.37,0,1,0-2.48,2.24h.12a2.2,2.2,0,0,0,2.36-2A.74.74,0,0,0,126.08,492.05Z"/><path id="Path_445" data-name="Path 445" class="cls-2" d="M129.46,486.66a.82.82,0,0,1,.82-.82h0a.79.79,0,0,1,.84.75h0v0a.85.85,0,0,1-.93.75.86.86,0,0,1-.76-.75Zm.22,2.13h1.25v6.89h-1.25Z"/><path id="Path_446" data-name="Path 446" class="cls-2" d="M139.85,491.72v4H138.6V491.9c0-1.35-.68-2-1.86-2a2,2,0,0,0-2.19,1.78,2.18,2.18,0,0,0,0,.51v3.55h-1.25v-6.89h1.19v1a3,3,0,0,1,2.49-1.1,2.66,2.66,0,0,1,2.87,2.45h0A2.26,2.26,0,0,1,139.85,491.72Z"/><path id="Path_447" data-name="Path 447" class="cls-2" d="M147.62,491.52v4.16h-1.18v-.91a2.54,2.54,0,0,1-2.26,1c-1.56,0-2.55-.83-2.55-2s.71-2,2.77-2h2v-.25c0-1-.61-1.66-1.84-1.66a3.49,3.49,0,0,0-2.19.74l-.52-.94a4.63,4.63,0,0,1,2.85-.88C146.56,488.73,147.62,489.64,147.62,491.52Zm-1.25,2v-1h-1.92c-1.23,0-1.59.48-1.59,1.07s.58,1.12,1.53,1.12a2,2,0,0,0,2-1.14Z"/><path id="Path_448" data-name="Path 448" class="cls-2" d="M153.81,495.28a2.45,2.45,0,0,1-1.51.48,2,2,0,0,1-2.17-1.81,1.36,1.36,0,0,1,0-.35v-3.78H149v-1h1.17v-1.51h1.25v1.51h2v1h-2v3.73a1,1,0,0,0,.83,1.15h.24a1.54,1.54,0,0,0,1-.33Z"/><path id="Path_449" data-name="Path 449" class="cls-2" d="M154.45,492.24a3.58,3.58,0,1,1,3.64,3.52H158a3.42,3.42,0,0,1-3.57-3.26A2.26,2.26,0,0,1,154.45,492.24Zm5.9,0a2.32,2.32,0,1,0-2.32,2.43,2.27,2.27,0,0,0,2.33-2.19h0a1.85,1.85,0,0,0,0-.23Z"/><path id="Path_450" data-name="Path 450" class="cls-2" d="M167,488.73v1.21h-.28a2.06,2.06,0,0,0-2.18,1.93,2.71,2.71,0,0,0,0,.4v3.43h-1.25v-6.89h1.19V490A2.63,2.63,0,0,1,167,488.73Z"/><path id="Path_451" data-name="Path 451" class="cls-2" d="M178.43,495.68l-2-2.79h-2.75v2.77h-1.3v-9.1h3.55c2.36,0,3.79,1.2,3.79,3.17a2.86,2.86,0,0,1-2,2.88l2.16,3.05Zm0-5.93c0-1.3-.87-2-2.53-2h-2.22v4.1h2.21c1.63,0,2.5-.8,2.5-2.1Z"/><path id="Path_452" data-name="Path 452" class="cls-2" d="M181.39,486.66a.82.82,0,0,1,.82-.82h0a.79.79,0,0,1,.84.75h0v0a.85.85,0,0,1-.93.75.86.86,0,0,1-.76-.75Zm.23,2.13h1.24v6.89h-1.24Z"/><path id="Path_453" data-name="Path 453" class="cls-2" d="M184.37,495l.52-1a4.55,4.55,0,0,0,2.42.71c1.16,0,1.64-.35,1.64-.94,0-1.54-4.36-.2-4.36-3,0-1.23,1.11-2.06,2.88-2.06a4.94,4.94,0,0,1,2.5.62l-.53,1a3.51,3.51,0,0,0-2-.55c-1.09,0-1.62.4-1.62,1,0,1.63,4.37.3,4.37,3,0,1.25-1.15,2-3,2A5,5,0,0,1,184.37,495Z"/><path id="Path_454" data-name="Path 454" class="cls-2" d="M194.43,492.47,193,493.8v1.88h-1.24V486H193v6.19l3.76-3.43h1.51l-2.9,2.85,3.19,4H197Z"/><path id="Path_455" data-name="Path 455" class="cls-2" d="M211.88,495.68v-6.63l-3.29,5.53H208l-3.31-5.49v6.59h-1.25v-9.1h1.07l3.79,6.4,3.75-6.4h1.07v9.1Z"/><path id="Path_456" data-name="Path 456" class="cls-2" d="M221.14,491.52v4.16H220v-.91a2.53,2.53,0,0,1-2.26,1c-1.56,0-2.55-.83-2.55-2s.72-2,2.77-2h2v-.25c0-1-.61-1.66-1.85-1.66a3.44,3.44,0,0,0-2.18.74l-.52-.94a4.62,4.62,0,0,1,2.84-.88C220.07,488.73,221.14,489.64,221.14,491.52Zm-1.25,2v-1H218c-1.23,0-1.58.48-1.58,1.07s.57,1.12,1.52,1.12a2,2,0,0,0,2-1.14Z"/><path id="Path_457" data-name="Path 457" class="cls-2" d="M230,491.72v4h-1.25V491.9c0-1.35-.68-2-1.86-2a2,2,0,0,0-2.19,1.9c0,.13,0,.26,0,.39v3.55h-1.25v-6.89h1.23v1a3,3,0,0,1,2.49-1.1,2.67,2.67,0,0,1,2.84,2.5h0A2.5,2.5,0,0,1,230,491.72Z"/><path id="Path_458" data-name="Path 458" class="cls-2" d="M237.76,491.52v4.16h-1.18v-.91a2.53,2.53,0,0,1-2.26,1c-1.56,0-2.55-.83-2.55-2s.72-2,2.78-2h2v-.25c0-1-.61-1.66-1.85-1.66a3.49,3.49,0,0,0-2.19.74l-.51-.94a4.62,4.62,0,0,1,2.84-.88C236.68,488.73,237.76,489.64,237.76,491.52Zm-1.25,2v-1h-1.92c-1.23,0-1.59.48-1.59,1.07s.58,1.12,1.53,1.12a2,2,0,0,0,2-1.14Z"/><path id="Path_459" data-name="Path 459" class="cls-2" d="M246.68,488.79v6c0,2.43-1.24,3.53-3.58,3.53a5.13,5.13,0,0,1-3.29-1l.6-1a4.25,4.25,0,0,0,2.65.9c1.63,0,2.37-.75,2.37-2.31v-.55a3.17,3.17,0,0,1-2.49,1.07,3.34,3.34,0,0,1-.36-6.67h.36a3.08,3.08,0,0,1,2.55,1.13v-1.07Zm-1.23,3.26a2.37,2.37,0,1,0-2.37,2.36h0a2.37,2.37,0,0,0,2.37-2.36Z"/><path id="Path_460" data-name="Path 460" class="cls-2" d="M255.29,492.65h-5.61a2.35,2.35,0,0,0,2.49,2,2.59,2.59,0,0,0,2-.83l.69.8a3.75,3.75,0,0,1-5.3.05,3.8,3.8,0,0,1-1.12-2.45,3.38,3.38,0,0,1,3.23-3.51h.23a3.32,3.32,0,0,1,3.41,3.23v.31A2.68,2.68,0,0,1,255.29,492.65Zm-5.59-.89h4.42a2.22,2.22,0,0,0-4.42,0Z"/><path id="Path_461" data-name="Path 461" class="cls-2" d="M268.48,491.72v4h-1.25V491.9c0-1.35-.65-2-1.78-2a2.05,2.05,0,0,0-2.07,2c0,.08,0,.17,0,.25v3.55h-1.25v-3.82c0-1.35-.65-2-1.78-2a2,2,0,0,0-2.08,1.9,2.54,2.54,0,0,0,0,.39v3.55H257v-6.89h1.2v1a2.78,2.78,0,0,1,2.38-1.09,2.53,2.53,0,0,1,2.39,1.27,3.11,3.11,0,0,1,2.65-1.27C267.34,488.73,268.48,489.69,268.48,491.72Z"/><path id="Path_462" data-name="Path 462" class="cls-2" d="M277,492.65h-5.59a2.35,2.35,0,0,0,2.5,2,2.63,2.63,0,0,0,2-.83l.69.8a3.76,3.76,0,0,1-6.43-2.4,3.38,3.38,0,0,1,3.23-3.51h.23a3.32,3.32,0,0,1,3.42,3.22h0c0,.11,0,.21,0,.32A1.81,1.81,0,0,1,277,492.65Zm-5.59-.89h4.42a2.22,2.22,0,0,0-4.42,0Z"/><path id="Path_463" data-name="Path 463" class="cls-2" d="M285.32,491.72v4h-1.25V491.9c0-1.35-.68-2-1.86-2a2.05,2.05,0,0,0-2.2,1.88h0a2.71,2.71,0,0,0,0,.4v3.55h-1.24v-6.89H280v1a3,3,0,0,1,2.49-1.1,2.66,2.66,0,0,1,2.87,2.45h0A2.26,2.26,0,0,1,285.32,491.72Z"/><path id="Path_464" data-name="Path 464" class="cls-2" d="M291.5,495.28a2.32,2.32,0,0,1-1.5.48,2,2,0,0,1-2.18-1.8,2.16,2.16,0,0,1,0-.36v-3.78h-1.14v-1h1.17v-1.51h1.25v1.51h2v1h-2v3.73a1,1,0,0,0,.83,1.15h0a1,1,0,0,0,.25,0,1.54,1.54,0,0,0,1-.33Z"/></g></g><g id="Buyback_Guarantee" data-name="Buyback Guarantee"><g id="Group_440" data-name="Group 440"><path id="Path_465" data-name="Path 465" class="cls-2" d="M107.93,337c0,1.56-1.18,2.46-3.48,2.46h-4.34v-9.09h4.08c2.09,0,3.26.88,3.26,2.35a2.14,2.14,0,0,1-1.22,2A2.18,2.18,0,0,1,107.93,337Zm-6.52-5.63v3h2.66c1.33,0,2.08-.49,2.08-1.45s-.75-1.46-2.08-1.46Zm5.21,5.49c0-1.06-.78-1.52-2.22-1.52h-3v3h3c1.44,0,2.22-.39,2.22-1.44Z"/><path id="Path_466" data-name="Path 466" class="cls-2" d="M116.19,332.61v6.89H115v-1a2.81,2.81,0,0,1-2.34,1.12,2.73,2.73,0,0,1-3-2.41h0a2.91,2.91,0,0,1,0-.59v-4h1.25v3.79c0,1.35.68,2,1.86,2a2,2,0,0,0,2.15-1.84h0a1.7,1.7,0,0,0,0-.45v-3.51Z"/><path id="Path_467" data-name="Path 467" class="cls-2" d="M124.68,332.61l-3.34,7.58c-.61,1.45-1.4,1.91-2.45,1.91a2.56,2.56,0,0,1-1.77-.64l.53-.93a1.81,1.81,0,0,0,1.24.5c.59,0,1-.27,1.31-1.06l.22-.48-3-6.88h1.26l2.4,5.51,2.38-5.51Z"/><path id="Path_468" data-name="Path 468" class="cls-2" d="M133,336.05a3.36,3.36,0,0,1-3.18,3.53h-.3a2.93,2.93,0,0,1-2.46-1.17v1.09h-1.2v-9.65h1.25v3.8a2.92,2.92,0,0,1,2.41-1.11,3.35,3.35,0,0,1,3.49,3.21C133,335.85,133,336,133,336.05Zm-1.26,0a2.32,2.32,0,1,0-2.33,2.43,2.27,2.27,0,0,0,2.31-2.21h0a1.48,1.48,0,0,0,0-.21Z"/><path id="Path_469" data-name="Path 469" class="cls-2" d="M140.1,335.34v4.16h-1.19v-.91a2.57,2.57,0,0,1-2.26,1c-1.56,0-2.55-.84-2.55-2s.72-2,2.77-2h2v-.24c0-1.06-.61-1.67-1.85-1.67a3.46,3.46,0,0,0-2.18.74l-.52-.93a4.53,4.53,0,0,1,2.84-.89C139,332.54,140.1,333.41,140.1,335.34Zm-1.25,2.07v-1h-1.93c-1.23,0-1.58.48-1.58,1.07s.57,1.11,1.52,1.11A2,2,0,0,0,138.85,337.41Z"/><path id="Path_470" data-name="Path 470" class="cls-2" d="M141.81,336.05a3.45,3.45,0,0,1,3.37-3.52h.27a3.07,3.07,0,0,1,2.81,1.47l-.95.61a2.13,2.13,0,0,0-1.87-1,2.42,2.42,0,0,0,0,4.84,2.13,2.13,0,0,0,1.87-1l.95.59a3.08,3.08,0,0,1-2.81,1.49,3.45,3.45,0,0,1-3.63-3.26A1.77,1.77,0,0,1,141.81,336.05Z"/><path id="Path_471" data-name="Path 471" class="cls-2" d="M152.46,336.29,151,337.61v1.89h-1.25v-9.65H151V336l3.76-3.43h1.5l-2.9,2.85,3.19,4h-1.53Z"/><path id="Path_472" data-name="Path 472" class="cls-2" d="M167.77,334.9H169v3.51a5.41,5.41,0,0,1-3.44,1.15,4.66,4.66,0,0,1-.43-9.31h.43a4.51,4.51,0,0,1,3.5,1.41l-.81.8a3.6,3.6,0,0,0-2.64-1,3.5,3.5,0,0,0,0,7,3.79,3.79,0,0,0,2.13-.59Z"/><path id="Path_473" data-name="Path 473" class="cls-2" d="M177.74,332.61v6.89h-1.18v-1a2.81,2.81,0,0,1-2.34,1.12,2.72,2.72,0,0,1-3-2.39h0a3.11,3.11,0,0,1,0-.61v-4h1.24v3.79c0,1.35.68,2,1.86,2a2,2,0,0,0,2.16-1.83,1.76,1.76,0,0,0,0-.46v-3.51Z"/><path id="Path_474" data-name="Path 474" class="cls-2" d="M185.58,335.34v4.16H184.4v-.91a2.57,2.57,0,0,1-2.26,1c-1.56,0-2.55-.84-2.55-2s.71-2,2.77-2h2v-.24c0-1.06-.61-1.67-1.84-1.67a3.49,3.49,0,0,0-2.19.74l-.52-.93a4.58,4.58,0,0,1,2.85-.89C184.52,332.54,185.58,333.41,185.58,335.34Zm-1.25,2.07v-1h-1.92c-1.23,0-1.59.48-1.59,1.07s.58,1.11,1.53,1.11a2,2,0,0,0,2-1.18Z"/><path id="Path_475" data-name="Path 475" class="cls-2" d="M191.6,332.54v1.21h-.28a2.06,2.06,0,0,0-2.19,1.91,3,3,0,0,0,0,.42v3.43H187.9v-6.9h1.19v1.16A2.63,2.63,0,0,1,191.6,332.54Z"/><path id="Path_476" data-name="Path 476" class="cls-2" d="M198.58,335.34v4.16H197.4v-.91a2.57,2.57,0,0,1-2.26,1c-1.56,0-2.55-.84-2.55-2s.71-2,2.77-2h2v-.24c0-1.06-.61-1.67-1.84-1.67a3.49,3.49,0,0,0-2.19.74l-.52-.93a4.58,4.58,0,0,1,2.85-.89C197.52,332.54,198.58,333.41,198.58,335.34Zm-1.25,2.07v-1h-1.92c-1.24,0-1.59.48-1.59,1.07s.58,1.11,1.53,1.11a2,2,0,0,0,2-1.18Z"/><path id="Path_477" data-name="Path 477" class="cls-2" d="M207.43,335.53v4h-1.24v-3.82c0-1.36-.68-2-1.86-2a2,2,0,0,0-2.2,1.77,3,3,0,0,0,0,.52v3.55H200.9v-6.94h1.19v1a3,3,0,0,1,2.49-1.11,2.66,2.66,0,0,1,2.87,2.45h0A2.24,2.24,0,0,1,207.43,335.53Z"/><path id="Path_478" data-name="Path 478" class="cls-2" d="M213.62,339.1a2.38,2.38,0,0,1-1.5.48,2,2,0,0,1-2.18-1.8,2.16,2.16,0,0,1,0-.36v-3.78h-1.17v-1h1.17v-1.51h1.25v1.51h2v1h-2v3.77a1,1,0,0,0,.83,1.14,1,1,0,0,0,.25,0,1.57,1.57,0,0,0,1-.32Z"/><path id="Path_479" data-name="Path 479" class="cls-2" d="M221.1,336.47h-5.59a2.33,2.33,0,0,0,2.49,2,2.56,2.56,0,0,0,2-.83l.69.81a3.75,3.75,0,0,1-5.3.05,3.82,3.82,0,0,1-1.12-2.46,3.38,3.38,0,0,1,3.25-3.51h.21a3.32,3.32,0,0,1,3.41,3.23h0c0,.11,0,.21,0,.32S221.11,336.35,221.1,336.47Zm-5.59-.9h4.42a2.22,2.22,0,0,0-4.42,0Z"/><path id="Path_480" data-name="Path 480" class="cls-2" d="M229.05,336.47h-5.59a2.35,2.35,0,0,0,2.5,2,2.56,2.56,0,0,0,2-.83l.69.81a3.75,3.75,0,0,1-5.3.05,3.82,3.82,0,0,1-1.12-2.46,3.38,3.38,0,0,1,3.23-3.51h.22a3.32,3.32,0,0,1,3.42,3.21c0,.11,0,.23,0,.34A1.72,1.72,0,0,1,229.05,336.47Zm-5.59-.9h4.42a2.22,2.22,0,0,0-4.42,0Z"/></g></g><g id="Scoring"><g id="Group_441" data-name="Group 441"><path id="Path_481" data-name="Path 481" class="cls-2" d="M99.5,229.58l.48-1a4.7,4.7,0,0,0,3,1.06c1.57,0,2.25-.61,2.25-1.41,0-2.22-5.51-.82-5.51-4.2,0-1.4,1.09-2.6,3.48-2.6a5.29,5.29,0,0,1,2.93.81l-.43,1a4.6,4.6,0,0,0-2.5-.74c-1.55,0-2.21.65-2.21,1.44,0,2.22,5.51.83,5.51,4.17,0,1.4-1.11,2.59-3.52,2.59A5.47,5.47,0,0,1,99.5,229.58Z"/><path id="Path_482" data-name="Path 482" class="cls-2" d="M107.58,227.17a3.45,3.45,0,0,1,3.37-3.52h.27a3.07,3.07,0,0,1,2.81,1.47l-1,.61a2.13,2.13,0,0,0-1.87-1,2.43,2.43,0,0,0,0,4.85,2.13,2.13,0,0,0,1.87-1l1,.59a3.07,3.07,0,0,1-2.81,1.49,3.45,3.45,0,0,1-3.63-3.26A1.93,1.93,0,0,1,107.58,227.17Z"/><path id="Path_483" data-name="Path 483" class="cls-2" d="M114.9,227.17a3.58,3.58,0,1,1,3.63,3.53h0a3.42,3.42,0,0,1-3.58-3.27h0A2.26,2.26,0,0,1,114.9,227.17Zm5.9,0a2.32,2.32,0,1,0-2.32,2.32,2.32,2.32,0,0,0,2.32-2.32Z"/><path id="Path_484" data-name="Path 484" class="cls-2" d="M127.5,223.66v1.21h-.29A2.06,2.06,0,0,0,125,226.8a2.71,2.71,0,0,0,0,.4v3.43h-1.25v-6.89H125v1.15A2.63,2.63,0,0,1,127.5,223.66Z"/><path id="Path_485" data-name="Path 485" class="cls-2" d="M128.81,221.6a.82.82,0,0,1,.82-.82h0a.79.79,0,0,1,.84.75h0v0a.85.85,0,0,1-.93.75.86.86,0,0,1-.76-.75Zm.22,2.13h1.25v6.89H129Z"/><path id="Path_486" data-name="Path 486" class="cls-2" d="M139.2,226.65v4H138v-3.82c0-1.36-.68-2-1.86-2a2,2,0,0,0-2.19,1.78,2.18,2.18,0,0,0,0,.51v3.55h-1.23v-6.89h1.19v1a3,3,0,0,1,2.49-1.11,2.67,2.67,0,0,1,2.86,2.46,2.27,2.27,0,0,1,0,.52Z"/><path id="Path_487" data-name="Path 487" class="cls-2" d="M148.14,223.73v6c0,2.43-1.23,3.54-3.57,3.54a5.11,5.11,0,0,1-3.29-1l.6-1a4.25,4.25,0,0,0,2.65.9c1.62,0,2.36-.76,2.36-2.32v-.54a3.11,3.11,0,0,1-2.48,1.06,3.34,3.34,0,0,1-.36-6.67,3.86,3.86,0,0,1,2.91,1.13v-1.06ZM146.92,227a2.37,2.37,0,1,0-2.48,2.24h.11a2.2,2.2,0,0,0,2.37-2h0a1.62,1.62,0,0,0,0-.22Z"/></g></g><g id="KYC"><g id="Group_442" data-name="Group 442"><path id="Path_488" data-name="Path 488" class="cls-2" d="M103.29,254.15l-1.61,1.69v2.35h-1.3v-9.1h1.3v5.08l4.94-5.08h1.48l-3.89,4.1,4.14,5h-1.57Z"/><path id="Path_489" data-name="Path 489" class="cls-2" d="M112.54,255v3.15h-1.29V255l-3.57-5.93h1.4l2.91,4.8,2.92-4.8h1.29Z"/><path id="Path_490" data-name="Path 490" class="cls-2" d="M116.33,253.64a4.61,4.61,0,0,1,4.55-4.66h.27a4.49,4.49,0,0,1,3.46,1.41l-.84.82a3.34,3.34,0,0,0-2.56-1.08,3.5,3.5,0,1,0,0,7h0a3.39,3.39,0,0,0,2.56-1.09l.84.81a4.5,4.5,0,0,1-3.47,1.43,4.61,4.61,0,0,1-4.8-4.39A2.26,2.26,0,0,1,116.33,253.64Z"/></g></g><g id="Collection"><g id="Group_443" data-name="Group 443"><path id="Path_491" data-name="Path 491" class="cls-2" d="M99.59,280.41a4.62,4.62,0,0,1,4.54-4.67h.28a4.47,4.47,0,0,1,3.46,1.42L107,278a3.34,3.34,0,0,0-2.56-1.08,3.5,3.5,0,1,0,0,7,3.39,3.39,0,0,0,2.56-1.09l.85.82a4.5,4.5,0,0,1-3.47,1.43,4.6,4.6,0,0,1-4.8-4.37A2.81,2.81,0,0,1,99.59,280.41Z"/><path id="Path_492" data-name="Path 492" class="cls-2" d="M108.62,281.55a3.59,3.59,0,1,1,3.66,3.52h-.07a3.43,3.43,0,0,1-3.58-3.27A2.09,2.09,0,0,1,108.62,281.55Zm5.9,0a2.32,2.32,0,1,0-2.32,2.32,2.32,2.32,0,0,0,2.32-2.32Z"/><path id="Path_493" data-name="Path 493" class="cls-2" d="M117.51,275.35h1.25V285h-1.25Z"/><path id="Path_494" data-name="Path 494" class="cls-2" d="M121.14,275.35h1.25V285h-1.25Z"/><path id="Path_495" data-name="Path 495" class="cls-2" d="M131,282h-5.59a2.33,2.33,0,0,0,2.49,2,2.56,2.56,0,0,0,2-.83l.69.81a3.76,3.76,0,0,1-5.31,0,3.81,3.81,0,0,1-1.11-2.43,3.39,3.39,0,0,1,3.25-3.51h.21a3.32,3.32,0,0,1,3.41,3.23h0c0,.11,0,.21,0,.32S131,281.85,131,282Zm-5.59-.9h4.42a2.22,2.22,0,0,0-4.42,0Z"/><path id="Path_496" data-name="Path 496" class="cls-2" d="M132.09,281.55a3.45,3.45,0,0,1,3.37-3.52h.27a3,3,0,0,1,2.8,1.47l-.94.61a2.15,2.15,0,0,0-1.88-1,2.43,2.43,0,0,0,0,4.85,2.15,2.15,0,0,0,1.88-1l.94.6a3,3,0,0,1-2.8,1.48,3.44,3.44,0,0,1-3.63-3.25A1.93,1.93,0,0,1,132.09,281.55Z"/><path id="Path_497" data-name="Path 497" class="cls-2" d="M144.11,284.59a2.33,2.33,0,0,1-1.51.48,2,2,0,0,1-2.17-1.81,1.93,1.93,0,0,1,0-.34v-3.79h-1.17v-1h1.17v-1.51h1.26v1.51h2v1h-2v3.73a1,1,0,0,0,.83,1.15h0a1,1,0,0,0,.25,0,1.61,1.61,0,0,0,1-.32Z"/><path id="Path_498" data-name="Path 498" class="cls-2" d="M145.4,276a.85.85,0,1,1,.89.81h0a.82.82,0,0,1-.84-.78h0Zm.22,2.14h1.25V285h-1.25Z"/><path id="Path_499" data-name="Path 499" class="cls-2" d="M148.61,281.55a3.58,3.58,0,1,1,3.64,3.52h-.05a3.43,3.43,0,0,1-3.58-3.27A2.09,2.09,0,0,1,148.61,281.55Zm5.9,0A2.32,2.32,0,1,0,152.2,284a2.27,2.27,0,0,0,2.32-2.2A1.69,1.69,0,0,0,154.51,281.55Z"/><path id="Path_500" data-name="Path 500" class="cls-2" d="M164,281v4h-1.25V281.2c0-1.35-.67-2-1.86-2a2,2,0,0,0-2.19,1.78,2.18,2.18,0,0,0,0,.51V285H157.5v-6.93h1.18v1a2.92,2.92,0,0,1,2.48-1.11,2.67,2.67,0,0,1,2.9,2.42h0A2.49,2.49,0,0,1,164,281Z"/></g></g><line id="Line_1233" data-name="Line 1233" class="cls-3" x1="74.69" y1="659.91" x2="74.69" y2="432.4"/><g id="CREDITORS"><g id="Group_444" data-name="Group 444"><path id="Path_501" data-name="Path 501" d="M200.15,395a4.62,4.62,0,0,1,8-2.85l-1.24,1.15a2.69,2.69,0,1,0,0,3.37l1.24,1.15a4.61,4.61,0,0,1-8-2.85Z"/><path id="Path_502" data-name="Path 502" d="M214.82,399.16l-1.61-2.34h-1.79v2.34h-1.94v-8.39h3.63c2.24,0,3.65,1.16,3.65,3a2.72,2.72,0,0,1-1.73,2.65l1.88,2.7ZM213,392.35h-1.58v2.93H213c1.19,0,1.79-.56,1.79-1.47S214.19,392.35,213,392.35Z"/><path id="Path_503" data-name="Path 503" d="M224.8,397.6v1.56h-6.5v-8.39h6.38v1.56h-4.41v1.82h3.89v1.51h-3.89v1.94Z"/><path id="Path_504" data-name="Path 504" d="M226.35,390.77h3.81c2.75,0,4.63,1.65,4.63,4.19s-1.88,4.2-4.63,4.2h-3.81Zm3.71,6.8a2.61,2.61,0,0,0,.33-5.21h-2.1v5.21Z"/><path id="Path_505" data-name="Path 505" d="M236.26,390.77h1.94v8.39h-1.94Z"/><path id="Path_506" data-name="Path 506" d="M241.93,392.35h-2.68v-1.58h7.31v1.58h-2.68v6.81h-2Z"/><path id="Path_507" data-name="Path 507" d="M247,395a4.6,4.6,0,1,1,4.85,4.34h-.25a4.36,4.36,0,0,1-4.59-4.09h0C247,395.13,247,395,247,395Zm7.22,0a2.63,2.63,0,1,0-2.62,2.69,2.56,2.56,0,0,0,2.63-2.48h0a1.48,1.48,0,0,1,0-.21Z"/><path id="Path_508" data-name="Path 508" d="M263,399.16l-1.62-2.34h-1.79v2.34h-1.94v-8.39h3.63c2.25,0,3.65,1.16,3.65,3a2.72,2.72,0,0,1-1.73,2.65l1.89,2.7Zm-1.83-6.81h-1.58v2.93h1.58c1.19,0,1.79-.56,1.79-1.47S262.33,392.35,261.14,392.35Z"/><path id="Path_509" data-name="Path 509" d="M265.78,398.34l.66-1.47a5,5,0,0,0,2.77.88c1.15,0,1.62-.39,1.62-.9,0-1.57-4.88-.49-4.88-3.61,0-1.43,1.15-2.62,3.53-2.62a5.61,5.61,0,0,1,2.92.75l-.6,1.47a4.63,4.63,0,0,0-2.33-.66c-1.15,0-1.59.43-1.59,1,0,1.55,4.88.48,4.88,3.56,0,1.41-1.16,2.61-3.56,2.61A6.06,6.06,0,0,1,265.78,398.34Z"/></g></g><circle id="Ellipse_110" data-name="Ellipse 110" class="cls-4" cx="77.06" cy="280.22" r="3.07"/><circle id="Ellipse_111" data-name="Ellipse 111" class="cls-4" cx="77.06" cy="197.48" r="3.07"/><circle id="Ellipse_112" data-name="Ellipse 112" class="cls-4" cx="77.06" cy="225.44" r="3.07"/><circle id="Ellipse_113" data-name="Ellipse 113" class="cls-4" cx="77.06" cy="253.53" r="3.07"/><circle id="Ellipse_114" data-name="Ellipse 114" class="cls-4" cx="74.69" cy="489.48" r="3.07"/><circle id="Ellipse_115" data-name="Ellipse 115" class="cls-4" cx="74.69" cy="519.48" r="3.07"/><circle id="Ellipse_116" data-name="Ellipse 116" class="cls-4" cx="74.69" cy="547.48" r="3.07"/><circle id="Ellipse_117" data-name="Ellipse 117" class="cls-4" cx="74.69" cy="572.48" r="3.07"/><path id="Rectangle_1142" data-name="Rectangle 1142" class="cls-3" d="M197.44,376.17H275.9a18.26,18.26,0,0,1,18.26,18.24h0a18.27,18.27,0,0,1-18.26,18.27H197.44a18.28,18.28,0,0,1-18.26-18.27h0A18.27,18.27,0,0,1,197.44,376.17Z"/><path id="Rectangle_1143" data-name="Rectangle 1143" class="cls-3" d="M39.44,13.17H117.9a18.26,18.26,0,0,1,18.26,18.24h0A18.27,18.27,0,0,1,117.9,49.68H39.44A18.29,18.29,0,0,1,21.18,31.41h0A18.27,18.27,0,0,1,39.44,13.17Z"/><path id="Rectangle_1144" data-name="Rectangle 1144" class="cls-3" d="M40.44,112.17H118.9a18.26,18.26,0,0,1,18.26,18.24h0a18.27,18.27,0,0,1-18.26,18.27H40.44a18.28,18.28,0,0,1-18.26-18.27h0A18.27,18.27,0,0,1,40.44,112.17Z"/><g id="Group_354" data-name="Group 354"><line id="Line_872" data-name="Line 872" class="cls-5" x1="77.18" y1="147.15" x2="77.18" y2="358.91"/><line id="Line_873" data-name="Line 873" class="cls-6" x1="69.18" y1="351.91" x2="77.18" y2="358.91"/><line id="Line_874" data-name="Line 874" class="cls-6" x1="84.18" y1="351.91" x2="77.18" y2="358.91"/></g><g id="Interest_rate" data-name="Interest rate"><g id="Group_445" data-name="Group 445"><path id="Path_510" data-name="Path 510" class="cls-2" d="M100.05,193.31h1.3v9.1h-1.3Z"/><path id="Path_511" data-name="Path 511" class="cls-2" d="M110.43,198.41v4h-1.25v-3.82c0-1.35-.67-2-1.85-2a2.05,2.05,0,0,0-2.2,1.88h0a2.71,2.71,0,0,0,0,.4v3.53h-1.25v-6.89h1.2v1a3,3,0,0,1,2.48-1.11,2.64,2.64,0,0,1,2.86,3Z"/><path id="Path_512" data-name="Path 512" class="cls-2" d="M116.62,202a2.45,2.45,0,0,1-1.51.48,2,2,0,0,1-2.17-1.81,1.36,1.36,0,0,1,0-.35v-3.78h-1.17v-1h1.17V194h1.25v1.51h2v1h-2v3.73a1,1,0,0,0,.83,1.15h0a1,1,0,0,0,.25,0,1.54,1.54,0,0,0,1-.33Z"/><path id="Path_513" data-name="Path 513" class="cls-2" d="M124.1,199.41h-5.6a2.36,2.36,0,0,0,2.5,2,2.57,2.57,0,0,0,2-.84l.69.81a3.75,3.75,0,0,1-5.3.05,3.82,3.82,0,0,1-1.12-2.46,3.39,3.39,0,0,1,3.2-3.56h.22a3.33,3.33,0,0,1,3.41,3.23h0c0,.11,0,.22,0,.32A1.36,1.36,0,0,1,124.1,199.41Zm-5.6-.9h4.43a2.23,2.23,0,0,0-4.43,0Z"/><path id="Path_514" data-name="Path 514" class="cls-2" d="M129.56,195.41v1.21h-.29a2.06,2.06,0,0,0-2.18,1.93,2.71,2.71,0,0,0,0,.4v3.46h-1.25v-6.89h1.2v1.16A2.62,2.62,0,0,1,129.56,195.41Z"/><path id="Path_515" data-name="Path 515" class="cls-2" d="M137.22,199.41h-5.54a2.36,2.36,0,0,0,2.5,2,2.57,2.57,0,0,0,2-.84l.69.81a3.75,3.75,0,0,1-5.3.05,3.82,3.82,0,0,1-1.12-2.46,3.39,3.39,0,0,1,3.25-3.51h.21a3.32,3.32,0,0,1,3.41,3.23h0c0,.11,0,.21,0,.32A1.92,1.92,0,0,1,137.22,199.41Zm-5.59-.9h4.43a2.23,2.23,0,0,0-4.43,0Z"/><path id="Path_516" data-name="Path 516" class="cls-2" d="M138.11,201.68l.52-1a4.42,4.42,0,0,0,2.42.72c1.15,0,1.63-.35,1.63-.94,0-1.54-4.35-.21-4.35-3,0-1.23,1.1-2.07,2.87-2.07a4.88,4.88,0,0,1,2.51.63l-.53,1a3.51,3.51,0,0,0-2-.55c-1.09,0-1.63.4-1.63.95,0,1.62,4.37.3,4.37,3,0,1.24-1.14,2-3,2A5,5,0,0,1,138.11,201.68Z"/><path id="Path_517" data-name="Path 517" class="cls-2" d="M149.37,202a2.45,2.45,0,0,1-1.51.48,2,2,0,0,1-2.17-1.81,1.36,1.36,0,0,1,0-.35v-3.78H144.5v-1h1.18V194h1.24v1.51h2v1h-2v3.73a1,1,0,0,0,.83,1.15h0a1,1,0,0,0,.25,0,1.54,1.54,0,0,0,1-.33Z"/><path id="Path_518" data-name="Path 518" class="cls-2" d="M158.08,195.41v1.21h-.29a2.06,2.06,0,0,0-2.18,1.93,2.71,2.71,0,0,0,0,.4v3.46h-1.25v-6.89h1.2v1.16A2.62,2.62,0,0,1,158.08,195.41Z"/><path id="Path_519" data-name="Path 519" class="cls-2" d="M165.06,198.25v4.16h-1.19v-.91a2.57,2.57,0,0,1-2.26,1c-1.56,0-2.55-.83-2.55-2s.72-2,2.77-2h2v-.24c0-1.06-.61-1.67-1.85-1.67a3.46,3.46,0,0,0-2.18.74l-.52-.93a4.58,4.58,0,0,1,2.85-.89,2.5,2.5,0,0,1,2.91,2A2.55,2.55,0,0,1,165.06,198.25Zm-1.25,2v-1h-1.92c-1.24,0-1.59.48-1.59,1.07s.57,1.12,1.52,1.12a2,2,0,0,0,2-1.14Z"/><path id="Path_520" data-name="Path 520" class="cls-2" d="M171.25,202a2.45,2.45,0,0,1-1.51.48,2,2,0,0,1-2.18-1.8,2.16,2.16,0,0,1,0-.36v-3.78h-1.18v-1h1.17V194h1.25v1.51h2v1h-2v3.73a1,1,0,0,0,.83,1.15h0a1,1,0,0,0,.25,0,1.6,1.6,0,0,0,1-.33Z"/><path id="Path_521" data-name="Path 521" class="cls-2" d="M178.68,199.41h-5.59a2.35,2.35,0,0,0,2.5,2,2.6,2.6,0,0,0,2-.84l.68.81a3.75,3.75,0,0,1-5.3.05,3.82,3.82,0,0,1-1.12-2.46,3.39,3.39,0,0,1,3.25-3.51h.21a3.32,3.32,0,0,1,3.42,3.22c0,.11,0,.22,0,.33A.69.69,0,0,1,178.68,199.41Zm-5.59-.9h4.42a2.22,2.22,0,0,0-4.42,0Z"/></g></g><g id="Geographical_diversification" data-name="Geographical diversification"><g id="Group_446" data-name="Group 446"><path id="Path_522" data-name="Path 522" class="cls-2" d="M107.41,518.81h1.27v3.6a5.41,5.41,0,0,1-3.44,1.15,4.65,4.65,0,0,1,.4-9.29,4.6,4.6,0,0,1,3.12,1.39l-.81.81a3.57,3.57,0,0,0-2.64-1.06,3.5,3.5,0,0,0,0,7,3.79,3.79,0,0,0,2.13-.59Z"/><path id="Path_523" data-name="Path 523" class="cls-2" d="M117.16,520.41h-5.59a2.35,2.35,0,0,0,2.5,2,2.57,2.57,0,0,0,2-.84l.69.81a3.77,3.77,0,0,1-6.43-2.41,3.38,3.38,0,0,1,3.2-3.56h.25a3.32,3.32,0,0,1,3.42,3.22c0,.11,0,.22,0,.33A1.71,1.71,0,0,1,117.16,520.41Zm-5.59-.9H116a2.22,2.22,0,0,0-4.42,0Z"/><path id="Path_524" data-name="Path 524" class="cls-2" d="M118.28,520a3.58,3.58,0,1,1,3.63,3.53h0a3.44,3.44,0,0,1-3.59-3.26Zm5.9,0a2.32,2.32,0,1,0-2.32,2.32,2.32,2.32,0,0,0,2.32-2.32Z"/><path id="Path_525" data-name="Path 525" class="cls-2" d="M133.76,516.52v6c0,2.43-1.23,3.54-3.57,3.54a5.11,5.11,0,0,1-3.29-1l.6-1a4.25,4.25,0,0,0,2.65.9c1.62,0,2.37-.76,2.37-2.32v-.54a3.21,3.21,0,0,1-2.49,1.06,3.34,3.34,0,0,1-.36-6.67,2.16,2.16,0,0,1,.36,0,3.12,3.12,0,0,1,2.55,1.14v-1.07Zm-1.22,3.26a2.37,2.37,0,1,0-2.48,2.24h.12a2.19,2.19,0,0,0,2.36-2,1.92,1.92,0,0,0,0-.24Z"/><path id="Path_526" data-name="Path 526" class="cls-2" d="M139.85,516.41v1.21h-.29a2.06,2.06,0,0,0-2.18,1.93,2.71,2.71,0,0,0,0,.4v3.46h-1.25v-6.89h1.2v1.16A2.62,2.62,0,0,1,139.85,516.41Z"/><path id="Path_527" data-name="Path 527" class="cls-2" d="M146.83,519.25v4.16h-1.15v-.91a2.57,2.57,0,0,1-2.26,1c-1.56,0-2.54-.83-2.54-2s.71-2,2.76-2h2v-.24c0-1.06-.61-1.67-1.84-1.67a3.44,3.44,0,0,0-2.18.74l-.53-.93a4.58,4.58,0,0,1,2.85-.89,2.48,2.48,0,0,1,2.87,2A2.11,2.11,0,0,1,146.83,519.25Zm-1.25,2v-1h-1.9c-1.24,0-1.59.48-1.59,1.07s.57,1.12,1.52,1.12a2,2,0,0,0,2-1.14Z"/><path id="Path_528" data-name="Path 528" class="cls-2" d="M156.28,520a3.35,3.35,0,0,1-3.16,3.53h-.32a3,3,0,0,1-2.41-1.12v3.56h-1.25v-9.41h1.2v1.09a2.94,2.94,0,0,1,2.47-1.16,3.35,3.35,0,0,1,3.48,3.21C156.29,519.76,156.28,519.86,156.28,520ZM155,520a2.32,2.32,0,1,0-2.34,2.45,2.27,2.27,0,0,0,2.35-2.19h0A2.17,2.17,0,0,0,155,520Z"/><path id="Path_529" data-name="Path 529" class="cls-2" d="M164.55,519.41v4H163.3v-3.82c0-1.35-.68-2-1.86-2a2,2,0,0,0-2.19,1.78,2.18,2.18,0,0,0,0,.51v3.53H158v-9.65h1.25v3.73a3,3,0,0,1,2.43-1,2.68,2.68,0,0,1,2.87,2.48,2.17,2.17,0,0,1,0,.44Z"/><path id="Path_530" data-name="Path 530" class="cls-2" d="M166.68,514.41a.82.82,0,0,1,.82-.82h0a.8.8,0,0,1,.78.84.81.81,0,0,1-1.62,0Zm.22,2.13h1.25v6.87H166.9Z"/><path id="Path_531" data-name="Path 531" class="cls-2" d="M169.85,520a3.45,3.45,0,0,1,3.37-3.52h.27a3.07,3.07,0,0,1,2.81,1.47l-1,.61a2.13,2.13,0,0,0-1.87-1,2.43,2.43,0,0,0,0,4.85,2.16,2.16,0,0,0,1.87-1l1,.6a3.1,3.1,0,0,1-2.81,1.48,3.45,3.45,0,0,1-3.63-3.26A1.93,1.93,0,0,1,169.85,520Z"/><path id="Path_532" data-name="Path 532" class="cls-2" d="M183.37,519.25v4.16h-1.18v-.91a2.57,2.57,0,0,1-2.26,1c-1.56,0-2.55-.83-2.55-2s.71-2,2.77-2h2v-.24c0-1.06-.61-1.67-1.84-1.67a3.49,3.49,0,0,0-2.19.74l-.52-.93a4.58,4.58,0,0,1,2.85-.89,2.49,2.49,0,0,1,2.92,2.74Zm-1.25,2v-1H180.2c-1.23,0-1.59.48-1.59,1.07s.58,1.12,1.53,1.12a2,2,0,0,0,2-1.14Z"/><path id="Path_533" data-name="Path 533" class="cls-2" d="M185.68,513.76h1.24v9.65h-1.24Z"/><path id="Path_534" data-name="Path 534" class="cls-2" d="M199.31,513.76v9.65h-1.2v-1.09a2.9,2.9,0,0,1-2.45,1.17,3.52,3.52,0,0,1,0-7,2.93,2.93,0,0,1,2.4,1.11v-3.8Zm-1.24,6.2a2.32,2.32,0,1,0-2.32,2.32,2.32,2.32,0,0,0,2.32-2.32Z"/><path id="Path_535" data-name="Path 535" class="cls-2" d="M201.45,514.41a.82.82,0,0,1,.82-.82h0a.79.79,0,0,1,.84.75h0v0a.85.85,0,0,1-.93.75.86.86,0,0,1-.76-.75Zm.23,2.13h1.24v6.87h-1.24Z"/><path id="Path_536" data-name="Path 536" class="cls-2" d="M211.4,516.52l-3,6.89h-1.27l-3-6.89h1.3L207.8,522l2.42-5.52Z"/><path id="Path_537" data-name="Path 537" class="cls-2" d="M218.57,520.41H213a2.36,2.36,0,0,0,2.5,2,2.57,2.57,0,0,0,2-.84l.69.81a3.75,3.75,0,0,1-5.3,0,3.82,3.82,0,0,1-1.12-2.46,3.39,3.39,0,0,1,3.25-3.51h.21a3.32,3.32,0,0,1,3.41,3.23h0V520A2.73,2.73,0,0,1,218.57,520.41Zm-5.59-.9h4.42a2.22,2.22,0,0,0-4.42,0Z"/><path id="Path_538" data-name="Path 538" class="cls-2" d="M224,516.41v1.21h-.29a2.06,2.06,0,0,0-2.18,1.93,2.71,2.71,0,0,0,0,.4v3.46h-1.25v-6.89h1.2v1.16A2.62,2.62,0,0,1,224,516.41Z"/><path id="Path_539" data-name="Path 539" class="cls-2" d="M224.75,522.68l.52-1a4.43,4.43,0,0,0,2.41.73c1.15,0,1.64-.35,1.64-.94,0-1.54-4.36-.21-4.36-3,0-1.23,1.11-2.07,2.87-2.07a4.88,4.88,0,0,1,2.51.63l-.53,1a3.51,3.51,0,0,0-2-.55c-1.09,0-1.62.4-1.62,1,0,1.62,4.36.3,4.36,3,0,1.24-1.14,2-3,2A5,5,0,0,1,224.75,522.68Z"/><path id="Path_540" data-name="Path 540" class="cls-2" d="M231.91,514.41a.82.82,0,0,1,.82-.82h0a.79.79,0,0,1,.84.76v0a.85.85,0,0,1-.93.75.86.86,0,0,1-.76-.75Zm.22,2.13h1.25v6.87h-1.25Z"/><path id="Path_541" data-name="Path 541" class="cls-2" d="M238.22,513.69a2.19,2.19,0,0,1,1.4.4l-.38.95a1.54,1.54,0,0,0-1-.33c-.74,0-1.12.42-1.12,1.21v.6h2v1h-2v5.89h-1.25v-5.86H234.7v-1h1.17v-.61a2.07,2.07,0,0,1,1.86-2.26A1.6,1.6,0,0,1,238.22,513.69Zm3,.7a.86.86,0,0,1,.8-.9.85.85,0,1,1,.1,1.7h-.06a.81.81,0,0,1-.88-.73h0v-.05Zm.22,2.13h1.24v6.89h-1.25Z"/><path id="Path_542" data-name="Path 542" class="cls-2" d="M244.38,520a3.45,3.45,0,0,1,3.37-3.52H248a3.07,3.07,0,0,1,2.81,1.47l-1,.61a2.13,2.13,0,0,0-1.87-1,2.43,2.43,0,0,0,0,4.85,2.16,2.16,0,0,0,1.87-1l1,.6a3.1,3.1,0,0,1-2.81,1.48,3.45,3.45,0,0,1-3.63-3.26A1.93,1.93,0,0,1,244.38,520Z"/><path id="Path_543" data-name="Path 543" class="cls-2" d="M257.9,519.25v4.16h-1.22v-.91a2.58,2.58,0,0,1-2.27,1c-1.56,0-2.54-.83-2.54-2s.71-2,2.77-2h2v-.24c0-1.06-.61-1.67-1.84-1.67a3.44,3.44,0,0,0-2.18.74l-.53-.93a4.58,4.58,0,0,1,2.85-.89,2.51,2.51,0,0,1,2.94,2A2.61,2.61,0,0,1,257.9,519.25Zm-1.25,2v-1h-1.92c-1.24,0-1.59.48-1.59,1.07s.57,1.12,1.52,1.12a2,2,0,0,0,2-1.14Z"/><path id="Path_544" data-name="Path 544" class="cls-2" d="M264.09,523a2.45,2.45,0,0,1-1.51.48,2,2,0,0,1-2.18-1.8,2.16,2.16,0,0,1,0-.36v-3.78h-1.17v-1h1.17V515h1.29v1.51h2v1h-2v3.73a1,1,0,0,0,.82,1.14l.18,0a1.58,1.58,0,0,0,1-.33Z"/><path id="Path_545" data-name="Path 545" class="cls-2" d="M265.37,514.41a.82.82,0,0,1,.82-.82h0a.79.79,0,0,1,.84.76v0a.85.85,0,0,1-.93.75.86.86,0,0,1-.76-.75Zm.23,2.13h1.24v6.87H265.6Z"/><path id="Path_546" data-name="Path 546" class="cls-2" d="M268.58,520a3.59,3.59,0,1,1,3.65,3.53h-.05a3.44,3.44,0,0,1-3.59-3.28h0A1.93,1.93,0,0,1,268.58,520Zm5.91,0a2.32,2.32,0,1,0-2.32,2.32,2.32,2.32,0,0,0,2.32-2.32Z"/><path id="Path_547" data-name="Path 547" class="cls-2" d="M284,519.41v4h-1.25v-3.82c0-1.35-.68-2-1.86-2a2.05,2.05,0,0,0-2.2,1.88h0a2.71,2.71,0,0,0,0,.4v3.53h-1.24v-6.89h1.2v1a3,3,0,0,1,2.49-1.11,2.68,2.68,0,0,1,2.87,2.48h0A2.27,2.27,0,0,1,284,519.41Z"/></g></g><g id="Non-custodian_Escrow" data-name="Non-custodian Escrow"><g id="Group_447" data-name="Group 447"><path id="Path_548" data-name="Path 548" class="cls-2" d="M108.93,594.31v9.1h-1.06l-5.46-6.79v6.79h-1.3v-9.1h1.06l5.46,6.79v-6.79Z"/><path id="Path_549" data-name="Path 549" class="cls-2" d="M110.85,600a3.58,3.58,0,1,1,3.63,3.53h0a3.42,3.42,0,0,1-3.57-3.28A2.09,2.09,0,0,1,110.85,600Zm5.9,0a2.32,2.32,0,1,0-2.32,2.32,2.32,2.32,0,0,0,2.32-2.32Z"/><path id="Path_550" data-name="Path 550" class="cls-2" d="M126.28,599.41v4H125v-3.82c0-1.35-.68-2-1.86-2a2,2,0,0,0-2.19,1.89,2.67,2.67,0,0,0,0,.4v3.53h-1.24v-6.89h1.19v1a3,3,0,0,1,2.49-1.11,2.68,2.68,0,0,1,2.88,2.47A2.37,2.37,0,0,1,126.28,599.41Z"/><path id="Path_551" data-name="Path 551" class="cls-2" d="M128.15,599.3h3.53v1.11h-3.49Z"/><path id="Path_552" data-name="Path 552" class="cls-2" d="M133.06,600a3.46,3.46,0,0,1,3.33-3.56h.3a3.11,3.11,0,0,1,2.81,1.47l-1,.61a2.2,2.2,0,0,0-1.87-1,2.43,2.43,0,0,0,0,4.85,2.16,2.16,0,0,0,1.87-1l1,.6a3.06,3.06,0,0,1-2.81,1.48,3.45,3.45,0,0,1-3.62-3.27C133.07,600.08,133.06,600,133.06,600Z"/><path id="Path_553" data-name="Path 553" class="cls-2" d="M147.54,596.52v6.89h-1.18v-1a2.81,2.81,0,0,1-2.34,1.12,2.72,2.72,0,0,1-3-2.39h0a3.11,3.11,0,0,1,0-.61v-4h1.24v3.82c0,1.35.68,2,1.86,2a2,2,0,0,0,2.16-1.83,1.76,1.76,0,0,0,0-.46V596.5Z"/><path id="Path_554" data-name="Path 554" class="cls-2" d="M149.05,602.68l.52-1a4.42,4.42,0,0,0,2.42.72c1.16,0,1.64-.35,1.64-.94,0-1.54-4.36-.21-4.36-3,0-1.23,1.11-2.07,2.88-2.07a4.94,4.94,0,0,1,2.5.63l-.53,1a3.51,3.51,0,0,0-2-.55c-1.09,0-1.62.4-1.62,1,0,1.62,4.37.3,4.37,3,0,1.24-1.15,2-3,2A5,5,0,0,1,149.05,602.68Z"/><path id="Path_555" data-name="Path 555" class="cls-2" d="M160.31,603a2.45,2.45,0,0,1-1.51.48,2,2,0,0,1-2.17-1.81,1.36,1.36,0,0,1,0-.35v-3.78h-1.17v-1h1.17V595h1.25v1.51h2v1h-2v3.73a1,1,0,0,0,.83,1.15h.24a1.54,1.54,0,0,0,1-.33Z"/><path id="Path_556" data-name="Path 556" class="cls-2" d="M161,600a3.58,3.58,0,1,1,3.63,3.53h-.05a3.42,3.42,0,0,1-3.57-3.28A2.09,2.09,0,0,1,161,600Zm5.9,0a2.32,2.32,0,1,0-2.32,2.32,2.32,2.32,0,0,0,2.32-2.32Z"/><path id="Path_557" data-name="Path 557" class="cls-2" d="M176.34,593.76v9.65h-1.2v-1.09a2.9,2.9,0,0,1-2.45,1.17,3.52,3.52,0,0,1,0-7,2.93,2.93,0,0,1,2.4,1.11v-3.8ZM175.1,600a2.32,2.32,0,1,0-2.32,2.32A2.32,2.32,0,0,0,175.1,600Z"/><path id="Path_558" data-name="Path 558" class="cls-2" d="M178.48,594.41a.82.82,0,0,1,.82-.82h0a.78.78,0,0,1,.84.76v0a.85.85,0,0,1-.93.75.86.86,0,0,1-.76-.75Zm.22,2.13H180v6.87h-1.27Z"/><path id="Path_559" data-name="Path 559" class="cls-2" d="M187.79,599.25v4.16h-1.18v-.91a2.57,2.57,0,0,1-2.26,1c-1.56,0-2.55-.83-2.55-2s.71-2,2.77-2h2v-.24c0-1.06-.61-1.67-1.84-1.67a3.49,3.49,0,0,0-2.19.74l-.52-.93a4.58,4.58,0,0,1,2.85-.89,2.5,2.5,0,0,1,2.9,2A2.28,2.28,0,0,1,187.79,599.25Zm-1.25,2v-1h-1.92c-1.23,0-1.59.48-1.59,1.07s.58,1.12,1.53,1.12A2,2,0,0,0,186.54,601.3Z"/><path id="Path_560" data-name="Path 560" class="cls-2" d="M196.68,599.41v4h-1.24v-3.82c0-1.35-.68-2-1.86-2a2.05,2.05,0,0,0-2.2,1.88h0a2.71,2.71,0,0,0,0,.4v3.53h-1.24v-6.89h1.19v1a3,3,0,0,1,2.44-1.11,2.65,2.65,0,0,1,2.91,2.39,2.49,2.49,0,0,1,0,.61Z"/><path id="Path_561" data-name="Path 561" class="cls-2" d="M209.24,602.28v1.13h-6.56v-9.1h6.42v1.1H204v2.8h4.56v1.1H204v2.94Z"/><path id="Path_562" data-name="Path 562" class="cls-2" d="M210.2,602.68l.52-1a4.42,4.42,0,0,0,2.42.72c1.16,0,1.64-.35,1.64-.94,0-1.54-4.36-.21-4.36-3,0-1.23,1.11-2.07,2.88-2.07a4.88,4.88,0,0,1,2.51.63l-.54,1a3.51,3.51,0,0,0-2-.55c-1.09,0-1.62.4-1.62,1,0,1.62,4.37.3,4.37,3,0,1.24-1.15,2-3,2A5,5,0,0,1,210.2,602.68Z"/><path id="Path_563" data-name="Path 563" class="cls-2" d="M217,600a3.45,3.45,0,0,1,3.37-3.52h.27a3.07,3.07,0,0,1,2.81,1.47l-1,.61a2.13,2.13,0,0,0-1.87-1,2.43,2.43,0,0,0,0,4.85,2.16,2.16,0,0,0,1.87-1l1,.6a3.1,3.1,0,0,1-2.81,1.48A3.45,3.45,0,0,1,217,600.2,1.93,1.93,0,0,1,217,600Z"/><path id="Path_564" data-name="Path 564" class="cls-2" d="M228.68,596.41v1.21h-.29a2.06,2.06,0,0,0-2.18,1.93,2.71,2.71,0,0,0,0,.4v3.46H225v-6.89h1.2v1.16A2.62,2.62,0,0,1,228.68,596.41Z"/><path id="Path_565" data-name="Path 565" class="cls-2" d="M229.55,600a3.58,3.58,0,1,1,3.63,3.53h0a3.42,3.42,0,0,1-3.58-3.27h0A2.26,2.26,0,0,1,229.55,600Zm5.9,0a2.32,2.32,0,1,0-2.32,2.32,2.32,2.32,0,0,0,2.32-2.32Z"/><path id="Path_566" data-name="Path 566" class="cls-2" d="M248.68,596.52l-2.58,6.89h-1.2l-2-5.23-2,5.23h-1.22l-2.56-6.89h1.18l2,5.49,2.08-5.49h1.06l2,5.51,2-5.51Z"/></g></g><g id="Competitive_returns" data-name="Competitive returns"><g id="Group_448" data-name="Group 448"><path id="Path_567" data-name="Path 567" class="cls-2" d="M100.37,546.86a4.61,4.61,0,0,1,4.55-4.66h.27a4.53,4.53,0,0,1,3.46,1.41l-.85.82a3.38,3.38,0,0,0-2.56-1.08,3.5,3.5,0,0,0,0,7,3.35,3.35,0,0,0,2.56-1.1l.85.82a4.5,4.5,0,0,1-3.47,1.43,4.58,4.58,0,0,1-4.8-4.36h0A2.62,2.62,0,0,1,100.37,546.86Z"/><path id="Path_568" data-name="Path 568" class="cls-2" d="M109.4,548a3.59,3.59,0,1,1,3.65,3.53H113a3.42,3.42,0,0,1-3.58-3.27h0A2.26,2.26,0,0,1,109.4,548Zm5.9,0a2.32,2.32,0,1,0-2.32,2.32A2.32,2.32,0,0,0,115.3,548Z"/><path id="Path_569" data-name="Path 569" class="cls-2" d="M129.73,547.41v4h-1.24v-3.82c0-1.35-.65-2-1.78-2a2,2,0,0,0-2.09,1.9c0,.13,0,.26,0,.39v3.53h-1.25v-3.82c0-1.35-.65-2-1.78-2a2,2,0,0,0-2.09,1.9c0,.13,0,.26,0,.39v3.53h-1.25v-6.89h1.2v1a2.78,2.78,0,0,1,2.38-1.1,2.54,2.54,0,0,1,2.39,1.28,3.09,3.09,0,0,1,2.65-1.28C128.59,544.41,129.73,545.41,129.73,547.41Z"/><path id="Path_570" data-name="Path 570" class="cls-2" d="M139.17,548a3.35,3.35,0,0,1-3.16,3.53h-.32a3,3,0,0,1-2.41-1.08V554H132v-9.41h1.19v1.09a2.91,2.91,0,0,1,2.45-1.24,3.35,3.35,0,0,1,3.5,3.19h0C139.18,547.72,139.18,547.84,139.17,548Zm-1.26,0a2.32,2.32,0,1,0-2.33,2.45,2.24,2.24,0,0,0,2.33-2.45Z"/><path id="Path_571" data-name="Path 571" class="cls-2" d="M147.1,548.41h-5.59a2.35,2.35,0,0,0,2.5,2,2.6,2.6,0,0,0,2-.84l.69.81a3.77,3.77,0,0,1-6.43-2.41,3.38,3.38,0,0,1,3.2-3.56h.21a3.32,3.32,0,0,1,3.42,3.22h0c0,.11,0,.22,0,.33A2.26,2.26,0,0,1,147.1,548.41Zm-5.59-.9h4.42a2.22,2.22,0,0,0-4.42,0Z"/><path id="Path_572" data-name="Path 572" class="cls-2" d="M152.73,551a2.45,2.45,0,0,1-1.51.48,2,2,0,0,1-2.17-1.81,1.36,1.36,0,0,1,0-.35v-3.78h-1.17v-1H149V543h1.25v1.51h2v1h-2v3.73a1,1,0,0,0,.83,1.15h0a1,1,0,0,0,.25,0,1.54,1.54,0,0,0,1-.33Z"/><path id="Path_573" data-name="Path 573" class="cls-2" d="M154,542.41a.86.86,0,0,1,.8-.9.85.85,0,0,1,.1,1.7h0a.8.8,0,0,1-.84-.78h0Zm.22,2.13h1.25v6.87h-1.25Z"/><path id="Path_574" data-name="Path 574" class="cls-2" d="M161.74,551a2.45,2.45,0,0,1-1.51.48,2,2,0,0,1-2.17-1.81,1.36,1.36,0,0,1,0-.35v-3.78h-1.17v-1h1.17V543h1.25v1.51h2v1h-2v3.73a1,1,0,0,0,.83,1.15h0a1,1,0,0,0,.25,0,1.54,1.54,0,0,0,1-.33Z"/><path id="Path_575" data-name="Path 575" class="cls-2" d="M163,542.41a.86.86,0,0,1,.8-.9.85.85,0,1,1,.1,1.7h-.06a.8.8,0,0,1-.83-.78h0Zm.22,2.13h1.25v6.87h-1.25Z"/><path id="Path_576" data-name="Path 576" class="cls-2" d="M173,544.52l-3,6.89h-1.29l-3-6.89H167l2.36,5.52,2.42-5.52Z"/><path id="Path_577" data-name="Path 577" class="cls-2" d="M180.15,548.41h-5.59a2.34,2.34,0,0,0,2.49,2,2.57,2.57,0,0,0,2-.84l.69.81a3.75,3.75,0,0,1-5.3,0,3.82,3.82,0,0,1-1.12-2.46,3.39,3.39,0,0,1,3.25-3.51h.21a3.32,3.32,0,0,1,3.41,3.23h0c0,.11,0,.21,0,.32S180.16,548.26,180.15,548.41Zm-5.59-.9H179a2.22,2.22,0,0,0-4.42,0Z"/><path id="Path_578" data-name="Path 578" class="cls-2" d="M189.1,544.41v1.21h-.28a2.06,2.06,0,0,0-2.18,1.93,2.71,2.71,0,0,0,0,.4v3.46H185.4v-6.89h1.2v1.16A2.6,2.6,0,0,1,189.1,544.41Z"/><path id="Path_579" data-name="Path 579" class="cls-2" d="M196.77,548.41h-5.59a2.35,2.35,0,0,0,2.5,2,2.57,2.57,0,0,0,2-.84l.69.81a3.75,3.75,0,0,1-5.3,0A3.82,3.82,0,0,1,190,548a3.38,3.38,0,0,1,3.23-3.51h.22a3.32,3.32,0,0,1,3.42,3.22c0,.11,0,.22,0,.33A1.81,1.81,0,0,1,196.77,548.41Zm-5.59-.9h4.42a2.22,2.22,0,0,0-4.42,0Z"/><path id="Path_580" data-name="Path 580" class="cls-2" d="M202.4,551a2.33,2.33,0,0,1-1.51.48,2,2,0,0,1-2.17-1.81,1.36,1.36,0,0,1,0-.35v-3.78h-1.17v-1h1.14V543h1.25v1.51h2v1h-2v3.73a1,1,0,0,0,.83,1.15h0a1,1,0,0,0,.25,0,1.54,1.54,0,0,0,1-.33Z"/><path id="Path_581" data-name="Path 581" class="cls-2" d="M210.33,544.52v6.89h-1.18v-1a2.81,2.81,0,0,1-2.34,1.12,2.72,2.72,0,0,1-3-2.39,3.11,3.11,0,0,1,0-.61v-4h1.24v3.82c0,1.35.68,2,1.86,2a2,2,0,0,0,2.16-1.83,1.76,1.76,0,0,0,0-.46V544.5Z"/><path id="Path_582" data-name="Path 582" class="cls-2" d="M216.42,544.41v1.21h-.29a2.06,2.06,0,0,0-2.18,1.93,2.71,2.71,0,0,0,0,.4v3.46h-1.28v-6.89h1.2v1.16A2.62,2.62,0,0,1,216.42,544.41Z"/><path id="Path_583" data-name="Path 583" class="cls-2" d="M224.49,547.41v4h-1.25v-3.82c0-1.35-.67-2-1.86-2a2,2,0,0,0-2.19,1.9c0,.13,0,.26,0,.39v3.53H218v-6.89h1.2v1a3,3,0,0,1,2.53-1.11,2.66,2.66,0,0,1,2.83,2.49,2.18,2.18,0,0,1,0,.51Z"/><path id="Path_584" data-name="Path 584" class="cls-2" d="M225.93,550.68l.52-1a4.42,4.42,0,0,0,2.42.72c1.16,0,1.64-.35,1.64-.94,0-1.54-4.36-.21-4.36-3,0-1.23,1.11-2.07,2.88-2.07a4.88,4.88,0,0,1,2.51.63l-.54,1a3.51,3.51,0,0,0-2-.55c-1.09,0-1.62.4-1.62,1,0,1.62,4.37.3,4.37,3,0,1.24-1.15,2-3,2A5,5,0,0,1,225.93,550.68Z"/></g></g><g id="Liquidity"><g id="Group_449" data-name="Group 449"><path id="Path_585" data-name="Path 585" class="cls-2" d="M101.11,567.31h1.3v8h4.93v1.1h-6.23Z"/><path id="Path_586" data-name="Path 586" class="cls-2" d="M108.43,567.41a.86.86,0,0,1,.8-.9.85.85,0,1,1,.1,1.7h-.06a.8.8,0,0,1-.83-.78h0Zm.22,2.13h1.25v6.87h-1.22Z"/><path id="Path_587" data-name="Path 587" class="cls-2" d="M118.77,569.52v9.41h-1.24v-3.52a3,3,0,0,1-2.41,1.12,3.52,3.52,0,0,1,0-7,2.91,2.91,0,0,1,2.46,1.16V569.6ZM117.54,573a2.32,2.32,0,1,0-2.31,2.44,2.28,2.28,0,0,0,2.32-2.22h0a1.48,1.48,0,0,0,0-.21Z"/><path id="Path_588" data-name="Path 588" class="cls-2" d="M127.56,569.52v6.89h-1.18v-1a2.81,2.81,0,0,1-2.34,1.12,2.72,2.72,0,0,1-3-2.39,3.11,3.11,0,0,1,0-.61v-4h1.24v3.82c0,1.35.68,2,1.86,2a2,2,0,0,0,2.15-1.84h0a1.7,1.7,0,0,0,0-.45V569.5Z"/><path id="Path_589" data-name="Path 589" class="cls-2" d="M129.68,567.41a.82.82,0,0,1,.82-.82h0a.78.78,0,0,1,.84.76v0a.85.85,0,0,1-.93.75.86.86,0,0,1-.76-.75Zm.22,2.13h1.25v6.87H129.9Z"/><path id="Path_590" data-name="Path 590" class="cls-2" d="M140.07,566.76v9.65h-1.2v-1.09a2.9,2.9,0,0,1-2.45,1.17,3.52,3.52,0,0,1,0-7,2.93,2.93,0,0,1,2.4,1.11v-3.8Zm-1.24,6.2a2.32,2.32,0,1,0-2.32,2.32,2.32,2.32,0,0,0,2.32-2.32Z"/><path id="Path_591" data-name="Path 591" class="cls-2" d="M142.21,567.41a.82.82,0,0,1,.82-.82h0a.79.79,0,0,1,.84.75h0v0a.85.85,0,0,1-.93.75.86.86,0,0,1-.76-.75Zm.22,2.13h1.25v6.87h-1.25Z"/><path id="Path_592" data-name="Path 592" class="cls-2" d="M149.94,576a2.45,2.45,0,0,1-1.51.48,2,2,0,0,1-2.18-1.8,2.16,2.16,0,0,1,0-.36v-3.78h-1.17v-1h1.17V568h1.25v1.51h2v1h-2v3.73a1,1,0,0,0,.82,1.15h0a1.11,1.11,0,0,0,.26,0,1.64,1.64,0,0,0,1-.33Z"/><path id="Path_593" data-name="Path 593" class="cls-2" d="M157.41,569.52l-3.34,7.58c-.61,1.46-1.4,1.91-2.46,1.91a2.61,2.61,0,0,1-1.77-.64l.54-.93a1.77,1.77,0,0,0,1.23.5c.6,0,1-.27,1.32-1.06l.22-.48-3.05-6.88h1.3l2.41,5.51,2.38-5.51Z"/></g></g><circle id="Ellipse_118" data-name="Ellipse 118" class="cls-4" cx="77.06" cy="334.22" r="3.07"/><circle id="Ellipse_119" data-name="Ellipse 119" class="cls-4" cx="77.06" cy="307.53" r="3.07"/><g id="ERC-20_Token_Leverage" data-name="ERC-20 Token Leverage"><g id="Group_450" data-name="Group 450"><path id="Path_594" data-name="Path 594" class="cls-2" d="M107.68,632.28v1.13h-6.6v-9.1h6.42v1.1h-5.12v2.8h4.56v1.1h-4.56v2.94Z"/><path id="Path_595" data-name="Path 595" class="cls-2" d="M115.9,633.41l-2-2.8h-2.82v2.8h-1.3v-9.1h3.55c2.36,0,3.79,1.2,3.79,3.17a2.86,2.86,0,0,1-2,2.88l2.16,3Zm0-5.93c0-1.3-.87-2-2.53-2h-2.21v4.1h2.21c1.62,0,2.49-.8,2.49-2.1Z"/><path id="Path_596" data-name="Path 596" class="cls-2" d="M118.53,628.86a4.61,4.61,0,0,1,4.55-4.66h.27a4.49,4.49,0,0,1,3.46,1.41l-.85.82a3.34,3.34,0,0,0-2.56-1.08,3.5,3.5,0,1,0,0,7,3.35,3.35,0,0,0,2.56-1.1l.85.82a4.5,4.5,0,0,1-3.47,1.43,4.6,4.6,0,0,1-4.8-4.37A2.62,2.62,0,0,1,118.53,628.86Z"/><path id="Path_597" data-name="Path 597" class="cls-2" d="M128,629.3h3.49v1.11H128Z"/><path id="Path_598" data-name="Path 598" class="cls-2" d="M139.09,632.28v1.13h-6.53v-.88l3.7-3.58c1-.94,1.14-1.51,1.14-2.08,0-.94-.66-1.51-1.93-1.51a2.85,2.85,0,0,0-2.33,1l-.88-.77a4.16,4.16,0,0,1,3.32-1.37c1.9,0,3.12,1,3.12,2.53a3.69,3.69,0,0,1-1.49,2.86l-2.78,2.68Z"/><path id="Path_599" data-name="Path 599" class="cls-2" d="M140.12,628.86c0-3,1.59-4.65,3.72-4.65s3.7,1.69,3.7,4.65-1.58,4.65-3.7,4.65S140.12,631.82,140.12,628.86Zm6.12,0c0-2.33-1-3.5-2.4-3.5s-2.42,1.17-2.42,3.5,1,3.5,2.42,3.5S146.24,631.19,146.24,628.86Z"/><path id="Path_600" data-name="Path 600" class="cls-2" d="M154.84,625.41h-3.16v-1.1h7.52v1.1h-3.12v8H154.8Z"/><path id="Path_601" data-name="Path 601" class="cls-2" d="M159.13,630a3.58,3.58,0,1,1,3.63,3.53h0a3.42,3.42,0,0,1-3.58-3.27h0A2.26,2.26,0,0,1,159.13,630Zm5.9,0a2.32,2.32,0,1,0-2.32,2.32A2.32,2.32,0,0,0,165,630Z"/><path id="Path_602" data-name="Path 602" class="cls-2" d="M170.68,630.2l-1.43,1.32v1.89H168v-9.65h1.25V630l3.75-3.43h1.51l-2.83,2.89,3.19,4h-1.59Z"/><path id="Path_603" data-name="Path 603" class="cls-2" d="M181.94,630.41h-5.59a2.35,2.35,0,0,0,2.5,2,2.6,2.6,0,0,0,2-.84l.69.81a3.77,3.77,0,0,1-6.43-2.41,3.39,3.39,0,0,1,3.25-3.51h.21a3.32,3.32,0,0,1,3.42,3.22c0,.11,0,.22,0,.33A1.81,1.81,0,0,1,181.94,630.41Zm-5.59-.9h4.42a2.22,2.22,0,0,0-4.42,0Z"/><path id="Path_604" data-name="Path 604" class="cls-2" d="M190.24,629.41v4H189v-3.82c0-1.35-.68-2-1.86-2a2,2,0,0,0-2.19,1.78,2.18,2.18,0,0,0,0,.51v3.53h-1.27v-6.89h1.19v1a3,3,0,0,1,2.51-1.11,2.68,2.68,0,0,1,2.88,2.47,2.37,2.37,0,0,1,0,.53Z"/><path id="Path_605" data-name="Path 605" class="cls-2" d="M196.23,624.31h1.3v8h4.93v1.1h-6.23Z"/><path id="Path_606" data-name="Path 606" class="cls-2" d="M209.88,630.41h-5.59a2.35,2.35,0,0,0,2.5,2,2.55,2.55,0,0,0,2-.84l.69.81a3.75,3.75,0,0,1-5.3,0,3.82,3.82,0,0,1-1.12-2.46,3.39,3.39,0,0,1,3.25-3.51h.21a3.32,3.32,0,0,1,3.41,3.23h0V630A2.57,2.57,0,0,0,209.88,630.41Zm-5.59-.9h4.39a2.22,2.22,0,0,0-4.42,0Z"/><path id="Path_607" data-name="Path 607" class="cls-2" d="M217.6,626.52l-3,6.89h-1.28l-3-6.89h1.3L214,632l2.42-5.52Z"/><path id="Path_608" data-name="Path 608" class="cls-2" d="M224.78,630.41h-5.59a2.35,2.35,0,0,0,2.49,2,2.57,2.57,0,0,0,2-.84l.69.81a3.75,3.75,0,0,1-5.3,0A3.82,3.82,0,0,1,218,630a3.39,3.39,0,0,1,3.25-3.51h.21a3.32,3.32,0,0,1,3.41,3.23h0c0,.11,0,.21,0,.32S224.79,630.26,224.78,630.41Zm-5.59-.9h4.42a2.22,2.22,0,0,0-4.42,0Z"/><path id="Path_609" data-name="Path 609" class="cls-2" d="M230.24,626.41v1.21H230a2.06,2.06,0,0,0-2.18,1.93,2.71,2.71,0,0,0,0,.4v3.46h-1.25v-6.89h1.2v1.16A2.61,2.61,0,0,1,230.24,626.41Z"/><path id="Path_610" data-name="Path 610" class="cls-2" d="M237.22,629.25v4.16H236v-.91a2.58,2.58,0,0,1-2.27,1c-1.56,0-2.55-.83-2.55-2s.72-2,2.77-2h2v-.24c0-1.06-.61-1.67-1.85-1.67a3.46,3.46,0,0,0-2.18.74l-.52-.93a4.58,4.58,0,0,1,2.85-.89,2.5,2.5,0,0,1,2.91,2A2.55,2.55,0,0,1,237.22,629.25Zm-1.25,2v-1h-1.92c-1.24,0-1.59.48-1.59,1.07s.57,1.12,1.52,1.12A2,2,0,0,0,236,631.3Z"/><path id="Path_611" data-name="Path 611" class="cls-2" d="M246.16,626.52v6c0,2.43-1.23,3.54-3.57,3.54a5.11,5.11,0,0,1-3.29-1l.59-1a4.27,4.27,0,0,0,2.66.9c1.62,0,2.36-.76,2.36-2.32v-.54a3.11,3.11,0,0,1-2.48,1.06,3.34,3.34,0,0,1-.36-6.67,2.16,2.16,0,0,1,.36,0,3.12,3.12,0,0,1,2.55,1.14v-1.07Zm-1.22,3.26a2.38,2.38,0,1,0-2.53,2.22h.31A2.37,2.37,0,0,0,244.94,629.78Z"/><path id="Path_612" data-name="Path 612" class="cls-2" d="M254.74,630.41h-5.59a2.35,2.35,0,0,0,2.5,2,2.6,2.6,0,0,0,2-.84l.69.81a3.77,3.77,0,0,1-6.43-2.41,3.39,3.39,0,0,1,3.25-3.51h.21a3.32,3.32,0,0,1,3.42,3.22c0,.11,0,.22,0,.33S254.75,630.26,254.74,630.41Zm-5.59-.9h4.42a2.22,2.22,0,0,0-4.42,0Z"/></g></g><g id="Secondary_Market" data-name="Secondary Market"><g id="Group_451" data-name="Group 451"><path id="Path_613" data-name="Path 613" class="cls-2" d="M100.28,664.41l.48-1a4.69,4.69,0,0,0,3,1.05c1.57,0,2.25-.61,2.25-1.41,0-2.22-5.51-.81-5.51-4.19,0-1.41,1.09-2.6,3.48-2.6a5.28,5.28,0,0,1,2.93.8l-.43,1a4.6,4.6,0,0,0-2.5-.74c-1.55,0-2.21.65-2.21,1.44,0,2.23,5.51.84,5.51,4.18,0,1.39-1.11,2.58-3.52,2.58A5.41,5.41,0,0,1,100.28,664.41Z"/><path id="Path_614" data-name="Path 614" class="cls-2" d="M115.2,662.41h-5.59a2.35,2.35,0,0,0,2.5,2,2.6,2.6,0,0,0,2-.84l.68.81a3.75,3.75,0,0,1-5.3,0,3.82,3.82,0,0,1-1.12-2.46,3.39,3.39,0,0,1,3.25-3.51h.21a3.32,3.32,0,0,1,3.42,3.22c0,.11,0,.22,0,.33S115.21,662.26,115.2,662.41Zm-5.59-.9H114a2.22,2.22,0,0,0-4.42,0Z"/><path id="Path_615" data-name="Path 615" class="cls-2" d="M116.32,662a3.45,3.45,0,0,1,3.37-3.52H120a3.07,3.07,0,0,1,2.81,1.47l-1,.61a2.13,2.13,0,0,0-1.87-1,2.43,2.43,0,0,0,0,4.85,2.16,2.16,0,0,0,1.87-1l1,.6a3.1,3.1,0,0,1-2.81,1.48,3.45,3.45,0,0,1-3.63-3.26A1.93,1.93,0,0,1,116.32,662Z"/><path id="Path_616" data-name="Path 616" class="cls-2" d="M123.68,662a3.58,3.58,0,1,1,3.63,3.53h0a3.42,3.42,0,0,1-3.57-3.28A2.09,2.09,0,0,1,123.68,662Zm5.9,0a2.32,2.32,0,1,0-2.32,2.32,2.32,2.32,0,0,0,2.32-2.32Z"/><path id="Path_617" data-name="Path 617" class="cls-2" d="M139.07,661.41v4h-1.25v-3.82c0-1.35-.68-2-1.86-2a2,2,0,0,0-2.19,1.9c0,.13,0,.26,0,.39v3.53h-1.25v-6.89h1.15v1a3,3,0,0,1,2.49-1.11,2.66,2.66,0,0,1,2.91,2.39A2.48,2.48,0,0,1,139.07,661.41Z"/><path id="Path_618" data-name="Path 618" class="cls-2" d="M147.92,655.76v9.65h-1.24v-1.09a2.89,2.89,0,0,1-2.45,1.17,3.52,3.52,0,0,1,0-7,2.92,2.92,0,0,1,2.4,1.11v-3.8Zm-1.23,6.2a2.32,2.32,0,1,0-2.32,2.44,2.28,2.28,0,0,0,2.32-2.22h0a1.48,1.48,0,0,0,0-.21Z"/><path id="Path_619" data-name="Path 619" class="cls-2" d="M155.75,661.25v4.16h-1.19v-.91a2.57,2.57,0,0,1-2.26,1c-1.56,0-2.55-.83-2.55-2s.72-2,2.77-2h2v-.24c0-1.06-.61-1.67-1.85-1.67a3.48,3.48,0,0,0-2.18.74l-.52-.93a4.58,4.58,0,0,1,2.85-.89,2.5,2.5,0,0,1,2.91,2A2.55,2.55,0,0,1,155.75,661.25Zm-1.25,2v-1h-1.93c-1.23,0-1.58.48-1.58,1.07s.57,1.12,1.52,1.12A2,2,0,0,0,154.5,663.3Z"/><path id="Path_620" data-name="Path 620" class="cls-2" d="M161.77,658.41v1.21h-.29a2.05,2.05,0,0,0-2.18,1.92,2.81,2.81,0,0,0,0,.41v3.46h-1.25v-6.89h1.2v1.16A2.62,2.62,0,0,1,161.77,658.41Z"/><path id="Path_621" data-name="Path 621" class="cls-2" d="M169.68,658.52l-3.34,7.58c-.61,1.46-1.4,1.91-2.46,1.91a2.6,2.6,0,0,1-1.76-.64l.56-1a1.78,1.78,0,0,0,1.23.5c.6,0,1-.27,1.32-1.06l.22-.48-3-6.88h1.23l2.4,5.51,2.38-5.51Z"/><path id="Path_622" data-name="Path 622" class="cls-2" d="M183,665.41v-6.63l-3.29,5.52h-.6l-3.28-5.48v6.59h-1.25v-9.1h1.07l3.78,6.4,3.75-6.4h1.06v9.1Z"/><path id="Path_623" data-name="Path 623" class="cls-2" d="M192.22,661.25v4.16H191v-.91a2.57,2.57,0,0,1-2.26,1c-1.56,0-2.55-.83-2.55-2s.72-2,2.77-2h2v-.24c0-1.06-.61-1.67-1.85-1.67a3.46,3.46,0,0,0-2.18.74l-.52-.93a4.55,4.55,0,0,1,2.84-.89,2.5,2.5,0,0,1,2.91,2A2.55,2.55,0,0,1,192.22,661.25Zm-1.24,2v-1h-1.93c-1.23,0-1.58.48-1.58,1.07s.57,1.12,1.52,1.12A2,2,0,0,0,191,663.3Z"/><path id="Path_624" data-name="Path 624" class="cls-2" d="M198.24,658.41v1.21H198a2.06,2.06,0,0,0-2.18,1.93,2.71,2.71,0,0,0,0,.4v3.46h-1.25v-6.89h1.19v1.16A2.64,2.64,0,0,1,198.24,658.41Z"/><path id="Path_625" data-name="Path 625" class="cls-2" d="M202.46,662.2,201,663.52v1.89h-1.25v-9.65H201V662l3.75-3.43h1.51l-2.9,2.85,3.19,4H205Z"/><path id="Path_626" data-name="Path 626" class="cls-2" d="M213.68,662.41h-5.59a2.35,2.35,0,0,0,2.5,2,2.6,2.6,0,0,0,2-.84l.68.81a3.75,3.75,0,0,1-5.3,0,3.82,3.82,0,0,1-1.12-2.46,3.39,3.39,0,0,1,3.25-3.51h.21a3.32,3.32,0,0,1,3.42,3.22c0,.11,0,.22,0,.33S213.68,662.26,213.68,662.41Zm-5.59-.9h4.42a2.22,2.22,0,0,0-4.42,0Z"/><path id="Path_627" data-name="Path 627" class="cls-2" d="M219.33,665a2.45,2.45,0,0,1-1.51.48,2,2,0,0,1-2.17-1.81,1.36,1.36,0,0,1,0-.35v-3.78h-1.17v-1h1.21V657h1.25v1.51h2v1h-2v3.73c0,.74.38,1.16,1.07,1.16a1.54,1.54,0,0,0,1-.33Z"/></g></g><g id="Value_Proposition" data-name="Value Proposition"><g id="Group_452" data-name="Group 452"><path id="Path_628" data-name="Path 628" d="M107.57,458.41l-3.94,9.1h-2.08l-3.87-9.1H100l2.77,6.5,2.81-6.5Z"/><path id="Path_629" data-name="Path 629" d="M113.85,463.5v4H112v-.87a2.3,2.3,0,0,1-2.13,1c-1.64,0-2.61-.91-2.61-2.12s.87-2.09,3-2.09h1.61c0-.87-.52-1.38-1.61-1.38a3.28,3.28,0,0,0-2,.65l-.73-1.41a5.34,5.34,0,0,1,3-.85C112.62,460.41,113.85,461.41,113.85,463.5Zm-2,1.78v-.72h-1.39c-1,0-1.25.35-1.25.82s.43.85,1.15.85a1.49,1.49,0,0,0,1.46-1Z"/><path id="Path_630" data-name="Path 630" d="M115.68,457.84h2v9.65h-2Z"/><path id="Path_631" data-name="Path 631" d="M126.68,460.49v7h-2v-.83A3,3,0,0,1,119.5,465a3.62,3.62,0,0,1,0-.57v-4h2v3.66c0,1.17.52,1.69,1.42,1.69s1.61-.6,1.61-1.89v-3.46Z"/><path id="Path_632" data-name="Path 632" d="M135.34,464.56h-5.29a1.86,1.86,0,0,0,2,1.41,2.32,2.32,0,0,0,1.75-.68l1.08,1.17a3.66,3.66,0,0,1-2.88,1.13c-2.42,0-4-1.52-4-3.6a3.56,3.56,0,0,1,3.52-3.6h.21a3.46,3.46,0,0,1,3.64,3.29,1.93,1.93,0,0,1,0,.34A4.89,4.89,0,0,1,135.34,464.56ZM130,463.41h3.45a1.75,1.75,0,0,0-3.45,0Z"/><path id="Path_633" data-name="Path 633" d="M148.44,461.69c0,2-1.52,3.29-4,3.29h-1.76v2.51h-2.11v-9.08h3.94C146.92,458.41,148.44,459.65,148.44,461.69Zm-2.13,0c0-1-.65-1.59-1.94-1.59h-1.69v3.16h1.71C145.68,463.26,146.31,462.68,146.31,461.69Z"/><path id="Path_634" data-name="Path 634" d="M154.14,460.41v1.87h-.46a1.72,1.72,0,0,0-1.87,1.56,2.54,2.54,0,0,0,0,.39v3.3h-2v-7h1.93v.88A2.84,2.84,0,0,1,154.14,460.41Z"/><path id="Path_635" data-name="Path 635" d="M154.76,464a3.85,3.85,0,1,1,4.1,3.59h-.25a3.61,3.61,0,0,1-3.84-3.36C154.77,464.15,154.76,464.07,154.76,464Zm5.63,0a1.8,1.8,0,1,0-1.78,1.94,1.77,1.77,0,0,0,1.79-1.75h0A1.15,1.15,0,0,0,160.39,464Z"/><path id="Path_636" data-name="Path 636" d="M171.41,464a3.38,3.38,0,0,1-3.17,3.59h-.31a2.75,2.75,0,0,1-2.11-.84V470h-2v-9.52h1.93v.81a2.72,2.72,0,0,1,2.2-.91,3.39,3.39,0,0,1,3.47,3.31h0A2.81,2.81,0,0,1,171.41,464Zm-2,0a1.75,1.75,0,1,0,0,.19A1.15,1.15,0,0,0,169.36,464Z"/><path id="Path_637" data-name="Path 637" d="M172.25,464a3.85,3.85,0,1,1,4.1,3.59h-.26a3.6,3.6,0,0,1-3.83-3.35C172.26,464.15,172.25,464.07,172.25,464Zm5.63,0a1.8,1.8,0,1,0-1.79,1.94,1.77,1.77,0,0,0,1.8-1.74h0a.66.66,0,0,0,0-.2Z"/><path id="Path_638" data-name="Path 638" d="M180.6,466.84l.68-1.46a4.77,4.77,0,0,0,2.43.68c.94,0,1.29-.25,1.29-.64,0-1.14-4.23,0-4.23-2.77,0-1.32,1.2-2.26,3.24-2.26a5.68,5.68,0,0,1,2.69.61l-.67,1.44a3.91,3.91,0,0,0-2-.52c-.91,0-1.3.29-1.3.65,0,1.2,4.23,0,4.23,2.8,0,1.3-1.21,2.22-3.31,2.22A6.15,6.15,0,0,1,180.6,466.84Z"/><path id="Path_639" data-name="Path 639" d="M187.94,458.41a1.15,1.15,0,0,1,1.17-1.14h.1a1.13,1.13,0,0,1,1.25,1h0a.22.22,0,0,1,0,.08,1.17,1.17,0,0,1-1.17,1.17h-.09a1.16,1.16,0,0,1-1.26-1h0S187.94,458.44,187.94,458.41Zm.24,2.1h2v7h-2Z"/><path id="Path_640" data-name="Path 640" d="M196.61,467.15a2.89,2.89,0,0,1-1.65.44,2.31,2.31,0,0,1-2.6-2,2.44,2.44,0,0,1,0-.54v-2.87h-1.08v-1.56h1.08V459h2v1.7h1.74v1.56h-1.74v2.85a.81.81,0,0,0,.69.91h.18a1.26,1.26,0,0,0,.82-.26Z"/><path id="Path_641" data-name="Path 641" d="M197.5,458.41a1.18,1.18,0,0,1,1.19-1.14h.08a1.14,1.14,0,0,1,1.26,1h0v.08a1.27,1.27,0,0,1-2.53,0Zm.25,2.1h2v7h-2Z"/><path id="Path_642" data-name="Path 642" d="M201.14,464a3.85,3.85,0,1,1,4.1,3.59H205a3.61,3.61,0,0,1-3.84-3.36C201.15,464.15,201.14,464.07,201.14,464Zm5.63,0a1.79,1.79,0,1,0-1.78,1.94,1.76,1.76,0,0,0,1.79-1.73A1.48,1.48,0,0,0,206.77,464Z"/><path id="Path_643" data-name="Path 643" d="M217.33,463.48v4h-2v-3.69c0-1.13-.52-1.65-1.42-1.65a1.65,1.65,0,0,0-1.68,1.62,2.26,2.26,0,0,0,0,.26v3.46h-2v-7h1.94v.82a3.05,3.05,0,0,1,2.31-.92,2.7,2.7,0,0,1,2.84,3.1Z"/></g></g><circle id="Ellipse_120" data-name="Ellipse 120" class="cls-4" cx="74.69" cy="599.48" r="3.07"/><circle id="Ellipse_121" data-name="Ellipse 121" class="cls-4" cx="74.69" cy="627.48" r="3.07"/><circle id="Ellipse_122" data-name="Ellipse 122" class="cls-4" cx="74.69" cy="661.48" r="3.07"/><g id="Underwriting_policies" data-name="Underwriting policies"><g id="Group_453" data-name="Group 453"><path id="Path_644" data-name="Path 644" d="M99.74,174.48v-5.07h2.11v5c0,1.73.75,2.44,2,2.44s2-.71,2-2.44v-5h2.08v5.09c0,2.68-1.54,4.17-4.12,4.17S99.74,177.16,99.74,174.48Z"/><path id="Path_645" data-name="Path 645" d="M117.07,174.48v4h-2v-3.69c0-1.13-.52-1.65-1.42-1.65a1.66,1.66,0,0,0-1.69,1.62,2.26,2.26,0,0,0,0,.26v3.46h-2v-7h1.94v.82a3.09,3.09,0,0,1,2.31-.92,2.74,2.74,0,0,1,2.87,2.62A2.57,2.57,0,0,1,117.07,174.48Z"/><path id="Path_646" data-name="Path 646" d="M126.11,168.84v9.65h-1.94v-.81a2.69,2.69,0,0,1-2.18.91,3.6,3.6,0,0,1,0-7.2,2.65,2.65,0,0,1,2.09.85v-3.4Zm-2,6.15a1.8,1.8,0,1,0-1.78,1.94,1.77,1.77,0,0,0,1.8-1.74h0a1.33,1.33,0,0,0,0-.2Z"/><path id="Path_647" data-name="Path 647" d="M134.79,175.56H129.5a1.88,1.88,0,0,0,2,1.41,2.38,2.38,0,0,0,1.76-.68l1.08,1.17a3.68,3.68,0,0,1-2.89,1.13c-2.42,0-4-1.52-4-3.6a3.56,3.56,0,0,1,3.52-3.6h.21a3.46,3.46,0,0,1,3.64,3.29,1.93,1.93,0,0,1,0,.34A4.89,4.89,0,0,1,134.79,175.56Zm-5.32-1.15h3.45a1.75,1.75,0,0,0-3.45,0Z"/><path id="Path_648" data-name="Path 648" d="M140.52,171.41v1.87h-.45a1.72,1.72,0,0,0-1.87,1.56,2.54,2.54,0,0,0,0,.39v3.3h-2v-7h1.94v.88A2.81,2.81,0,0,1,140.52,171.41Z"/><path id="Path_649" data-name="Path 649" d="M153.21,171.49l-2.53,7h-2l-1.57-4.34-1.63,4.34h-2l-2.52-7h1.91l1.65,4.74,1.72-4.74H148l1.67,4.74,1.7-4.74Z"/><path id="Path_650" data-name="Path 650" d="M158.5,171.41v1.87h-.45a1.72,1.72,0,0,0-1.87,1.56,2.54,2.54,0,0,0,0,.39v3.3h-2v-7h1.94v.88A2.8,2.8,0,0,1,158.5,171.41Z"/><path id="Path_651" data-name="Path 651" d="M159.47,169.41a1.15,1.15,0,0,1,1.17-1.14h.1a1.13,1.13,0,0,1,1.25,1h0a.22.22,0,0,1,0,.08,1.17,1.17,0,0,1-1.17,1.17h-.09a1.14,1.14,0,0,1-1.25-1h0S159.47,169.44,159.47,169.41Zm.24,2.1h2v7h-2Z"/><path id="Path_652" data-name="Path 652" d="M168.14,178.15a2.89,2.89,0,0,1-1.65.44,2.31,2.31,0,0,1-2.6-2,2.44,2.44,0,0,1,0-.54v-2.87h-1.08v-1.56h1.08V170h2v1.7h1.81v1.56h-1.74v2.85a.81.81,0,0,0,.69.91h.18a1.26,1.26,0,0,0,.82-.26Z"/><path id="Path_653" data-name="Path 653" d="M169,169.41a1.18,1.18,0,0,1,1.19-1.14h.07a1.15,1.15,0,0,1,1.27,1v.09a1.26,1.26,0,0,1-1.37,1.15,1.27,1.27,0,0,1-1.16-1.15Zm.25,2.1h2v7h-2Z"/><path id="Path_654" data-name="Path 654" d="M180.34,174.48v4h-2v-3.69c0-1.13-.52-1.65-1.42-1.65a1.66,1.66,0,0,0-1.69,1.62,2.26,2.26,0,0,0,0,.26v3.46h-2v-7h1.94v.82a3.09,3.09,0,0,1,2.31-.92,2.74,2.74,0,0,1,2.87,2.62A2.57,2.57,0,0,1,180.34,174.48Z"/><path id="Path_655" data-name="Path 655" d="M189.47,171.49v5.83c0,2.6-1.4,3.79-3.93,3.79a5.74,5.74,0,0,1-3.43-1l.81-1.45a4.22,4.22,0,0,0,2.47.79c1.43,0,2.05-.65,2.05-1.91v-.3a2.89,2.89,0,0,1-2.21.87,3.38,3.38,0,1,1,0-6.76h0a2.82,2.82,0,0,1,2.32,1v-.9Zm-2,3.28a1.84,1.84,0,1,0-1.95,1.71h.11a1.7,1.7,0,0,0,1.84-1.55h0Z"/><path id="Path_656" data-name="Path 656" d="M202.68,175a3.38,3.38,0,0,1-3.17,3.59h-.31a2.75,2.75,0,0,1-2.11-.84V181h-2v-9.52H197v.81a2.72,2.72,0,0,1,2.2-.91,3.39,3.39,0,0,1,3.46,3.32h0A2.62,2.62,0,0,1,202.68,175Zm-2.05,0a2.16,2.16,0,1,0,0,.16.86.86,0,0,0,0-.16Z"/><path id="Path_657" data-name="Path 657" d="M203.48,175a3.85,3.85,0,1,1,4.1,3.59h-.25a3.62,3.62,0,0,1-3.84-3.36A1.93,1.93,0,0,1,203.48,175Zm5.63,0a1.79,1.79,0,1,0-1.78,1.94,1.76,1.76,0,0,0,1.79-1.73.74.74,0,0,0,0-.21Z"/><path id="Path_658" data-name="Path 658" d="M212.52,168.84h2v9.65h-2Z"/><path id="Path_659" data-name="Path 659" d="M216.18,169.41a1.18,1.18,0,0,1,1.19-1.14h.08a1.14,1.14,0,0,1,1.26,1h0v.08a1.27,1.27,0,0,1-2.53,0Zm.25,2.1h2v7h-2Z"/><path id="Path_660" data-name="Path 660" d="M219.82,175a3.63,3.63,0,0,1,3.66-3.59h.2a3.21,3.21,0,0,1,3.14,1.78l-1.58.85a1.7,1.7,0,0,0-1.57-1,1.94,1.94,0,0,0,0,3.88,1.72,1.72,0,0,0,1.57-1l1.58.85a3.26,3.26,0,0,1-3.14,1.77,3.62,3.62,0,0,1-3.85-3.37C219.83,175.11,219.82,175.05,219.82,175Z"/><path id="Path_661" data-name="Path 661" d="M227.78,169.41a1.18,1.18,0,0,1,1.19-1.14H229a1.15,1.15,0,0,1,1.26,1h0v.07a1.26,1.26,0,0,1-1.41,1.1,1.27,1.27,0,0,1-1.11-1.1Zm.25,2.1h2v7h-2Z"/><path id="Path_662" data-name="Path 662" d="M238.75,175.56h-5.29a1.88,1.88,0,0,0,2,1.41,2.38,2.38,0,0,0,1.76-.68l1.08,1.17a3.68,3.68,0,0,1-2.89,1.13c-2.42,0-4-1.52-4-3.6a3.56,3.56,0,0,1,3.52-3.6h.21a3.46,3.46,0,0,1,3.64,3.27h0a2.16,2.16,0,0,1,0,.36A4.89,4.89,0,0,1,238.75,175.56Zm-5.32-1.15h3.45a1.75,1.75,0,0,0-3.45,0Z"/><path id="Path_663" data-name="Path 663" d="M239.47,177.84l.67-1.46a4.87,4.87,0,0,0,2.43.68c.94,0,1.29-.25,1.29-.64,0-1.14-4.22,0-4.22-2.77,0-1.32,1.19-2.26,3.23-2.26a5.68,5.68,0,0,1,2.69.61l-.67,1.44a3.91,3.91,0,0,0-2-.52c-.91,0-1.3.29-1.3.65,0,1.2,4.23,0,4.23,2.8,0,1.3-1.21,2.22-3.3,2.22A6.15,6.15,0,0,1,239.47,177.84Z"/></g></g><g id="isologotypo"><path id="Path_245" data-name="Path 245" class="cls-7" d="M74.78,399.89V389.18h4.73a3,3,0,0,1,1.36.31,3.48,3.48,0,0,1,1.08.82,3.55,3.55,0,0,1,.74,1.14,3.43,3.43,0,0,1,.26,1.3,3.58,3.58,0,0,1-.51,1.89A3,3,0,0,1,81,395.87l2.44,4H81.12l-2.22-3.6H76.84v3.59Zm2.06-5.41h2.6a1.11,1.11,0,0,0,.54-.14,1.28,1.28,0,0,0,.43-.37,1.44,1.44,0,0,0,.28-.55,2,2,0,0,0,.12-.68,2,2,0,0,0-.13-.69,1.72,1.72,0,0,0-.33-.55,1.25,1.25,0,0,0-.46-.36,1.13,1.13,0,0,0-.54-.13H76.84Z"/><path id="Path_246" data-name="Path 246" class="cls-7" d="M84.15,394.46a5.85,5.85,0,0,1,.36-1.94,5.24,5.24,0,0,1,2.7-3,5.12,5.12,0,0,1,2.22-.47,4.85,4.85,0,0,1,2.55.65,4.1,4.1,0,0,1,1.61,1.69l-1.6,1.1a2.57,2.57,0,0,0-.51-.74,2.37,2.37,0,0,0-.65-.49,3.28,3.28,0,0,0-.74-.27,3.72,3.72,0,0,0-.74-.08,2.82,2.82,0,0,0-1.37.32,3,3,0,0,0-1,.82,3.49,3.49,0,0,0-.57,1.14,4.25,4.25,0,0,0,0,2.64,3.81,3.81,0,0,0,.64,1.15,3,3,0,0,0,1,.8,2.67,2.67,0,0,0,1.27.3,3.2,3.2,0,0,0,.75-.09,2.89,2.89,0,0,0,1.4-.79,2.42,2.42,0,0,0,.48-.74l1.7,1a3.43,3.43,0,0,1-.74,1.06,4.35,4.35,0,0,1-1.07.74,5.55,5.55,0,0,1-2.61.65,4.49,4.49,0,0,1-2.1-.48,5.58,5.58,0,0,1-1.64-1.26,6.08,6.08,0,0,1-1.06-1.76A5.49,5.49,0,0,1,84.15,394.46Z"/><path id="Path_247" data-name="Path 247" class="cls-7" d="M97.23,393v6.86H95.15V389.18h1.62l5.57,7v-7h2.08v10.71h-1.66Z"/><path id="Path_248" data-name="Path 248" class="cls-7" d="M69.94,389.5a.73.73,0,0,0-.94-.45.69.69,0,0,0-.42.38c-.19.42-.4.84-.63,1.24a10.74,10.74,0,0,0-20.65,5.58,13.8,13.8,0,0,0-1.48,2.44.73.73,0,0,0,.34,1h0a.73.73,0,0,0,1-.34h0q.3-.61.66-1.2a10.74,10.74,0,0,0,20.64-5.58,13.8,13.8,0,0,0,1.48-2.44.71.71,0,0,0,0-.57Zm-2.83,4.87a9.25,9.25,0,0,1-18.23,2.22,13.82,13.82,0,0,1,7-4.25,20.65,20.65,0,0,1,4.62-.7l-2.22,2.22,1,1.05,4-4-4.57-4.57-1.05,1.05,2.79,2.79a22.79,22.79,0,0,0-5,.74,16.79,16.79,0,0,0-5.34,2.48,12.86,12.86,0,0,0-1.61,1.34v-.36a9.25,9.25,0,0,1,18.22-2.23,13.62,13.62,0,0,1-7,4.25,20.62,20.62,0,0,1-4.62.74l2.23-2.23-1-1.05-4,4,4.57,4.57L58,401.38l-2.79-2.78a22.79,22.79,0,0,0,5-.74,17,17,0,0,0,5.34-2.48A13.78,13.78,0,0,0,67.11,394Z"/></g><g id="Ellipse_123" data-name="Ellipse 123"><circle id="Ellipse_179" data-name="Ellipse 179" class="cls-7" cx="74.68" cy="463.41" r="8"/><circle id="Ellipse_180" data-name="Ellipse 180" class="cls-6" cx="74.68" cy="463.41" r="7.5"/></g><g id="ORIGINATORS"><g id="Group_454" data-name="Group 454"><path id="Path_664" data-name="Path 664" d="M36.32,130a4.6,4.6,0,1,1,4.86,4.33h-.27a4.34,4.34,0,0,1-4.58-4.09C36.33,130.14,36.32,130.05,36.32,130Zm7.22,0a2.63,2.63,0,1,0-2.63,2.69,2.59,2.59,0,0,0,2.64-2.51h0V130Z"/><path id="Path_665" data-name="Path 665" d="M52.33,134.17l-1.65-2.34H48.89v2.34H47v-8.4h3.63c2.24,0,3.65,1.17,3.65,3a2.72,2.72,0,0,1-1.73,2.65l1.88,2.7Zm-1.83-6.76H48.92v2.92H50.5c1.19,0,1.79-.55,1.79-1.46S51.68,127.41,50.5,127.41Z"/><path id="Path_666" data-name="Path 666" d="M55.8,125.77h1.94v8.4H55.8Z"/><path id="Path_667" data-name="Path 667" d="M65.41,129.84h1.77v3.4a5.76,5.76,0,0,1-3.39,1.07,4.35,4.35,0,0,1-.59-8.68,5.69,5.69,0,0,1,4.11,1.45l-1.25,1.15a2.79,2.79,0,0,0-2.17-1,2.69,2.69,0,1,0,0,5.38,3.21,3.21,0,0,0,1.52-.36Z"/><path id="Path_668" data-name="Path 668" d="M69,125.77h1.94v8.4H69Z"/><path id="Path_669" data-name="Path 669" d="M80.62,125.77v8.4H79l-4.19-5.1v5.1H72.92v-8.4h1.61l4.17,5.1v-5.1Z"/><path id="Path_670" data-name="Path 670" d="M88.15,132.41h-3.9l-.75,1.8h-2l3.75-8.4h1.91l3.76,8.4h-2Zm-.62-1.48-1.33-3.21-1.33,3.21Z"/><path id="Path_671" data-name="Path 671" d="M93.13,127.41H90.44v-1.64h7.32v1.64H95.07v6.81H93.13Z"/><path id="Path_672" data-name="Path 672" d="M98.16,130A4.6,4.6,0,1,1,103,134.3h-.27a4.34,4.34,0,0,1-4.58-4.09C98.17,130.14,98.16,130.05,98.16,130Zm7.22,0a2.63,2.63,0,1,0-2.63,2.69,2.59,2.59,0,0,0,2.64-2.51h0a1.09,1.09,0,0,1,0-.18Z"/><path id="Path_673" data-name="Path 673" d="M114.16,134.17l-1.62-2.34h-1.78v2.34h-2v-8.4h3.64c2.24,0,3.64,1.17,3.64,3a2.73,2.73,0,0,1-1.72,2.65l1.88,2.7Zm-1.82-6.76h-1.58v2.92h1.58c1.19,0,1.79-.55,1.79-1.46S113.53,127.41,112.34,127.41Z"/><path id="Path_674" data-name="Path 674" d="M117,133.34l.66-1.46a5,5,0,0,0,2.77.87c1.15,0,1.62-.38,1.62-.9,0-1.57-4.88-.49-4.88-3.61,0-1.42,1.15-2.61,3.54-2.61a5.59,5.59,0,0,1,2.91.74l-.6,1.48a4.62,4.62,0,0,0-2.32-.66c-1.15,0-1.6.43-1.6,1,0,1.54,4.88.48,4.88,3.56,0,1.4-1.16,2.6-3.56,2.6A6,6,0,0,1,117,133.34Z"/></g></g><g id="BORROWERS"><g id="Group_455" data-name="Group 455"><path id="Path_675" data-name="Path 675" d="M45.38,34c0,1.45-1.16,2.29-3.36,2.29H37.68v-8.4h4.1c2.1,0,3.18.88,3.18,2.19a2,2,0,0,1-1.12,1.84A2.06,2.06,0,0,1,45.38,34Zm-5.77-4.64v2h1.93c.94,0,1.46-.34,1.46-1s-.52-1-1.46-1Zm3.81,4.44c0-.71-.54-1-1.55-1H39.61v2.08h2.26c1-.05,1.55-.37,1.55-1.08Z"/><path id="Path_676" data-name="Path 676" d="M46.33,32.06a4.34,4.34,0,0,1,4.34-4.35h.25a4.35,4.35,0,1,1,.59,8.68h-.59a4.34,4.34,0,0,1-4.58-4.09C46.34,32.23,46.33,32.14,46.33,32.06Zm7.22,0a2.63,2.63,0,1,0-2.63,2.69,2.56,2.56,0,0,0,2.64-2.49h0A1.34,1.34,0,0,0,53.55,32.06Z"/><path id="Path_677" data-name="Path 677" d="M62.33,36.26l-1.65-2.34H58.93v2.34h-2v-8.4h3.64c2.24,0,3.64,1.17,3.64,3a2.73,2.73,0,0,1-1.72,2.65l1.88,2.7Zm-1.82-6.85H58.93v3h1.58c1.19,0,1.79-.55,1.79-1.46S61.68,29.41,60.51,29.41Z"/><path id="Path_678" data-name="Path 678" d="M71.15,36.26l-1.62-2.34H67.75v2.34h-2v-8.4h3.64c2.24,0,3.64,1.17,3.64,3a2.73,2.73,0,0,1-1.72,2.65l1.88,2.7Zm-1.82-6.85H67.75v3h1.58c1.19,0,1.79-.55,1.79-1.46S70.52,29.41,69.33,29.41Z"/><path id="Path_679" data-name="Path 679" d="M74.1,32.06A4.6,4.6,0,1,1,79,36.4h-.27a4.34,4.34,0,0,1-4.57-4.1C74.11,32.23,74.1,32.14,74.1,32.06Zm7.22,0a2.63,2.63,0,1,0-2.64,2.69,2.57,2.57,0,0,0,2.65-2.48h0A1.48,1.48,0,0,0,81.32,32.06Z"/><path id="Path_680" data-name="Path 680" d="M97.16,27.86l-2.74,8.4H92.33l-1.85-5.68-1.9,5.68H86.5l-2.76-8.4h2l1.94,5.91,2-5.91h1.8l1.92,6,2-6Z"/><path id="Path_681" data-name="Path 681" d="M104.75,34.7v1.56h-6.5v-8.4h6.35v1.55h-4.42v1.83h3.9v1.51h-3.9v1.94Z"/><path id="Path_682" data-name="Path 682" d="M111.68,36.26l-1.62-2.34h-1.78v2.34h-2v-8.4h3.64c2.24,0,3.64,1.17,3.64,3a2.73,2.73,0,0,1-1.72,2.65l1.88,2.7Zm-1.85-6.85h-1.58v3h1.58c1.19,0,1.79-.55,1.79-1.46s-.6-1.54-1.79-1.54Z"/><path id="Path_683" data-name="Path 683" d="M114.46,35.41l.66-1.46a5,5,0,0,0,2.77.87c1.15,0,1.62-.38,1.62-.89,0-1.58-4.88-.5-4.88-3.61,0-1.43,1.15-2.62,3.54-2.62a5.59,5.59,0,0,1,2.91.74l-.6,1.48a4.72,4.72,0,0,0-2.32-.66c-1.15,0-1.6.43-1.6,1,0,1.55,4.88.48,4.88,3.56,0,1.4-1.16,2.6-3.56,2.6A6,6,0,0,1,114.46,35.41Z"/></g></g><g id="Group_356" data-name="Group 356"><line id="Line_872-2" data-name="Line 872-2" class="cls-5" x1="77.68" y1="49.32" x2="77.68" y2="111.41"/><line id="Line_873-2" data-name="Line 873-2" class="cls-6" x1="69.68" y1="104.41" x2="77.68" y2="111.41"/><line id="Line_874-2" data-name="Line 874-2" class="cls-6" x1="84.68" y1="104.41" x2="77.68" y2="111.41"/></g><g id="Ellipse_124" data-name="Ellipse 124"><circle id="Ellipse_181" data-name="Ellipse 181" class="cls-7" cx="77.68" cy="173.41" r="8"/><circle id="Ellipse_182" data-name="Ellipse 182" class="cls-6" cx="77.68" cy="173.41" r="7.5"/></g><g id="Group_356-2" data-name="Group 356-2"><line id="Line_872-2-2" data-name="Line 872-2-2" class="cls-5" x1="179.18" y1="393.86" x2="126.15" y2="393.86"/><line id="Line_873-2-2" data-name="Line 873-2-2" class="cls-6" x1="133.15" y1="385.86" x2="126.15" y2="393.86"/><line id="Line_874-2-2" data-name="Line 874-2-2" class="cls-6" x1="133.15" y1="400.86" x2="126.15" y2="393.86"/></g></g></g><rect class="cls-8" width="314" height="684.34"/></svg>