<svg id="Capa_1" data-name="Capa 1" xmlns="http://www.w3.org/2000/svg" viewBox="0 0 314 412.68"><defs><style>.cls-1{fill:#696969;}.cls-2,.cls-3,.cls-6,.cls-8{fill:none;}.cls-2,.cls-3,.cls-4,.cls-5,.cls-6{stroke:#000;}.cls-3,.cls-6{stroke-miterlimit:10;}.cls-4,.cls-7{fill:#fff;}.cls-5{fill:#404fff;}.cls-6{stroke-width:0.5px;}</style></defs><title>esquemas-1</title><g id="Artboard_2" data-name="Artboard 2"><g id="Group_460" data-name="Group 460"><path id="Path_684" data-name="Path 684" class="cls-1" d="M98.47,292.3h1.3v8h4.92v1.11H98.47Z"/><path id="Path_685" data-name="Path 685" class="cls-1" d="M107.15,293.41H104v-1.13h7.53v1.13h-3.12v8h-1.29Z"/><path id="Path_686" data-name="Path 686" class="cls-1" d="M120.77,292.3l-4,9.1h-1.29l-4-9.1h1.4l3.28,7.48,3.3-7.48Z"/><path id="Path_687" data-name="Path 687" class="cls-1" d="M131.71,301.41l-2-2.79h-2.82v2.79h-1.3v-9.1h3.55c2.37,0,3.8,1.2,3.8,3.17a2.89,2.89,0,0,1-2,2.88l2.16,3.05Zm0-5.93c0-1.3-.87-2-2.54-2H127v4.1h2.14c1.7-.05,2.57-.81,2.57-2.11Z"/><path id="Path_688" data-name="Path 688" class="cls-1" d="M140.29,297.24v4.17H139.1v-.91a2.55,2.55,0,0,1-2.26,1c-1.56,0-2.55-.83-2.55-2s.72-2,2.77-2h2v-.25c0-1.05-.61-1.66-1.85-1.66a3.44,3.44,0,0,0-2.18.74l-.52-.94a4.61,4.61,0,0,1,2.85-.88,2.48,2.48,0,0,1,2.9,2A2.9,2.9,0,0,1,140.29,297.24ZM139,299.3v-1H137.1c-1.23,0-1.58.48-1.58,1.07s.57,1.12,1.52,1.12A2,2,0,0,0,139,299.3Z"/><path id="Path_689" data-name="Path 689" class="cls-1" d="M146.47,301a2.44,2.44,0,0,1-1.5.48,2,2,0,0,1-2.19-1.8,2.16,2.16,0,0,1,0-.36v-3.78h-1.17v-1h1.17V293H144v1.51h2v1h-2v3.73a1,1,0,0,0,.85,1.13h.22a1.56,1.56,0,0,0,1-.33Z"/><path id="Path_690" data-name="Path 690" class="cls-1" d="M147.76,292.41a.81.81,0,0,1,.82-.82h0a.79.79,0,0,1,.84.75h0v0a.85.85,0,0,1-.94.75h0a.84.84,0,0,1-.75-.75Zm.22,2.13h1.25v6.87H148Z"/><path id="Path_691" data-name="Path 691" class="cls-1" d="M151,298a3.59,3.59,0,0,1,3.52-3.66h0a3.59,3.59,0,0,1,.14,7.18h-.07a3.43,3.43,0,0,1-3.59-3.27Zm5.9,0a2.32,2.32,0,0,0-2.32-2.32h0a2.32,2.32,0,0,0-2.32,2.32h0a2.32,2.32,0,0,0,2.32,2.32h0a2.32,2.32,0,0,0,2.32-2.32Z"/></g><g id="Group_461" data-name="Group 461"><path id="Path_692" data-name="Path 692" class="cls-1" d="M98.47,323.28h1.3v9.13h-1.3Z"/><path id="Path_693" data-name="Path 693" class="cls-1" d="M108.85,328.41v4H107.6v-3.82c0-1.36-.67-2-1.86-2a2,2,0,0,0-2.19,1.78,1.67,1.67,0,0,0,0,.5v3.53h-1.25v-6.89h1.2v1A3,3,0,0,1,106,325.4a2.67,2.67,0,0,1,2.87,2.45A3.49,3.49,0,0,1,108.85,328.41Z"/><path id="Path_694" data-name="Path 694" class="cls-1" d="M115,332a2.49,2.49,0,0,1-1.51.48,2,2,0,0,1-2.18-1.8,2.16,2.16,0,0,1,0-.36v-3.79h-1.17v-1h1.17V324h1.25v1.51h2v1h-2v3.74a1,1,0,0,0,.83,1.14.7.7,0,0,0,.25,0,1.52,1.52,0,0,0,1-.32Z"/><path id="Path_695" data-name="Path 695" class="cls-1" d="M122.52,329.35h-5.6a2.34,2.34,0,0,0,2.5,2,2.57,2.57,0,0,0,2-.83l.69.81a3.75,3.75,0,0,1-6.42-2.41,3.38,3.38,0,0,1,3.25-3.51h.16a3.33,3.33,0,0,1,3.41,3.23h0c0,.11,0,.21,0,.32A1,1,0,0,1,122.52,329.35Zm-5.6-.9h4.43a2.23,2.23,0,0,0-4.43,0Z"/><path id="Path_696" data-name="Path 696" class="cls-1" d="M128,325.41v1.21h-.29a2.06,2.06,0,0,0-2.19,1.93,2.75,2.75,0,0,0,0,.4v3.46h-1.25v-6.89h1.2v1.16A2.61,2.61,0,0,1,128,325.41Z"/><path id="Path_697" data-name="Path 697" class="cls-1" d="M135.64,329.35H130.1a2.32,2.32,0,0,0,2.49,2,2.57,2.57,0,0,0,2-.83l.69.81a3.54,3.54,0,0,1-2.72,1.12,3.44,3.44,0,0,1-3.69-3.19h0c0-.12,0-.23,0-.34a3.38,3.38,0,0,1,3.24-3.51h.22a3.31,3.31,0,0,1,3.4,3.23h0c0,.11,0,.21,0,.32S135.67,329.22,135.64,329.35Zm-5.54-.94h4.42a2.22,2.22,0,0,0-2.42-2h0a2.22,2.22,0,0,0-2,2Z"/><path id="Path_698" data-name="Path 698" class="cls-1" d="M136.53,331.65l.52-1a4.42,4.42,0,0,0,2.42.72c1.15,0,1.63-.35,1.63-.94,0-1.55-4.35-.21-4.35-2.95,0-1.24,1.1-2.07,2.87-2.07a4.93,4.93,0,0,1,2.51.63l-.53,1a3.56,3.56,0,0,0-2-.55c-1.09,0-1.63.4-1.63.95,0,1.62,4.37.3,4.37,3,0,1.25-1.14,2.05-3,2.05A5.09,5.09,0,0,1,136.53,331.65Z"/><path id="Path_699" data-name="Path 699" class="cls-1" d="M147.79,332a2.49,2.49,0,0,1-1.51.48,2,2,0,0,1-2.18-1.8,2.16,2.16,0,0,1,0-.36v-3.79h-1.18v-1h1.18V324h1.24v1.51h2v1h-2v3.74a1,1,0,0,0,.83,1.14.7.7,0,0,0,.25,0,1.57,1.57,0,0,0,1-.32Z"/><path id="Path_700" data-name="Path 700" class="cls-1" d="M159.1,332.41l-2-2.8h-2.82v2.8H153v-9.1h3.55c2.37,0,3.8,1.19,3.8,3.17a2.88,2.88,0,0,1-2,2.87l2.16,3.06Zm0-5.93c0-1.3-.87-2-2.54-2h-2.21v4.09h2.21c1.59-.07,2.46-.82,2.46-2.16Z"/><path id="Path_701" data-name="Path 701" class="cls-1" d="M167.64,328.22v4.19h-1.19v-.91a2.58,2.58,0,0,1-2.26,1c-1.56,0-2.55-.84-2.55-2s.72-2,2.77-2h2v-.24c0-1.06-.61-1.67-1.85-1.67a3.44,3.44,0,0,0-2.18.74l-.52-.93a4.54,4.54,0,0,1,2.85-.89C166.57,325.41,167.64,326.33,167.64,328.22Zm-1.25,2v-1h-1.92c-1.24,0-1.59.48-1.59,1.07s.57,1.11,1.52,1.11A2,2,0,0,0,166.39,330.27Z"/><path id="Path_702" data-name="Path 702" class="cls-1" d="M173.83,332a2.49,2.49,0,0,1-1.51.48,2,2,0,0,1-2.19-1.8,2.16,2.16,0,0,1,0-.36v-3.79H169v-1h1.14V324h1.25v1.51h2v1h-2v3.74a1,1,0,0,0,.83,1.14,1.07,1.07,0,0,0,.25,0,1.57,1.57,0,0,0,1-.32Z"/><path id="Path_703" data-name="Path 703" class="cls-1" d="M181.3,329.35h-5.59a2.34,2.34,0,0,0,2.5,2,2.62,2.62,0,0,0,2-.83l.69.81a3.54,3.54,0,0,1-2.72,1.12,3.45,3.45,0,0,1-3.7-3.18c0-.12,0-.24,0-.35a3.38,3.38,0,0,1,3.25-3.51h.21a3.33,3.33,0,0,1,3.42,3.22c0,.11,0,.22,0,.33S181.31,329.23,181.3,329.35Zm-5.59-.9h4.39a2.22,2.22,0,0,0-2.42-2h0a2.22,2.22,0,0,0-2,2Z"/></g><g id="Group_462" data-name="Group 462"><path id="Path_704" data-name="Path 704" class="cls-1" d="M98.47,354.73h3.83c2.92,0,4.91,1.85,4.91,4.55s-2,4.55-4.91,4.55H98.47Zm3.75,8a3.43,3.43,0,0,0,3.68-3.16h0a3.43,3.43,0,0,0-3.16-3.68h0a2.26,2.26,0,0,0-.52,0H99.77v6.84Z"/><path id="Path_705" data-name="Path 705" class="cls-1" d="M115.44,356.94v6.89h-1.18v-1a2.83,2.83,0,0,1-2.34,1.12,2.71,2.71,0,0,1-3-2.39h0a2.08,2.08,0,0,1,0-.61v-4h1.24v3.82c0,1.35.68,2,1.86,2a2,2,0,0,0,2.15-1.83h0a1.76,1.76,0,0,0,0-.46v-3.56Z"/><path id="Path_706" data-name="Path 706" class="cls-1" d="M121.53,356.88v1.2h-.29a2.06,2.06,0,0,0-2.16,2,2.3,2.3,0,0,0,0,.37v3.43h-1.25V357h1.2v1.16A2.6,2.6,0,0,1,121.53,356.88Z"/><path id="Path_707" data-name="Path 707" class="cls-1" d="M128.51,359.67v4.16h-1.19v-.91a2.58,2.58,0,0,1-2.26,1c-1.56,0-2.55-.83-2.55-2s.72-2,2.77-2h2v-.25c0-1.06-.61-1.67-1.85-1.67a3.4,3.4,0,0,0-2.18.75l-.52-.94a4.61,4.61,0,0,1,2.85-.88C127.44,356.88,128.51,357.79,128.51,359.67Zm-1.25,2.05v-1h-1.92c-1.24,0-1.59.48-1.59,1.07s.57,1.12,1.52,1.12A2,2,0,0,0,127.26,361.72Z"/><path id="Path_708" data-name="Path 708" class="cls-1" d="M134.7,363.41a2.49,2.49,0,0,1-1.51.48,2,2,0,0,1-2.19-1.8,2.16,2.16,0,0,1,0-.36V358h-1.17v-1H131v-1.54h1.25v1.51h2v1h-2v3.73a1,1,0,0,0,.82,1.15h0a1.13,1.13,0,0,0,.26,0,1.64,1.64,0,0,0,1-.33Z"/><path id="Path_709" data-name="Path 709" class="cls-1" d="M136,354.81a.81.81,0,0,1,.82-.82h0a.79.79,0,0,1,.84.75h0v0a.85.85,0,0,1-.94.75h0a.84.84,0,0,1-.75-.75Zm.22,2.13h1.25v6.89H136.2Z"/><path id="Path_710" data-name="Path 710" class="cls-1" d="M139.19,360.41a3.59,3.59,0,0,1,3.52-3.66h0a3.59,3.59,0,0,1,.14,7.18h-.07a3.43,3.43,0,0,1-3.59-3.27Zm5.91,0a2.33,2.33,0,0,0-2.17-2.48h0a2.33,2.33,0,0,0-2.48,2.17,1.5,1.5,0,0,0,0,.3,2.33,2.33,0,1,0,4.65.31Z"/><path id="Path_711" data-name="Path 711" class="cls-1" d="M154.62,359.87v4h-1.24V360c0-1.35-.68-2-1.86-2a2,2,0,0,0-2.2,1.88h0a1.8,1.8,0,0,0,0,.4v3.55H148.1V357h1.19v1a3,3,0,0,1,2.48-1.1,2.65,2.65,0,0,1,2.86,2.46h0A2.54,2.54,0,0,1,154.62,359.87Z"/></g><line id="Line_752" data-name="Line 752" class="cls-2" x1="78.1" y1="49.41" x2="78.1" y2="95.41"/><line id="Line_753" data-name="Line 753" class="cls-2" x1="70.1" y1="88.41" x2="78.1" y2="95.41"/><line id="Line_754" data-name="Line 754" class="cls-2" x1="85.1" y1="88.41" x2="78.1" y2="95.41"/><line id="Line_758" data-name="Line 758" class="cls-3" x1="78.6" y1="389.91" x2="78.48" y2="229.91"/><circle id="Ellipse_142" data-name="Ellipse 142" class="cls-4" cx="78.48" cy="328.22" r="3.07"/><circle id="Ellipse_143" data-name="Ellipse 143" class="cls-4" cx="78.48" cy="297.67" r="3.07"/><circle id="Ellipse_144" data-name="Ellipse 144" class="cls-4" cx="78.48" cy="357.44" r="3.07"/><circle id="Ellipse_149" data-name="Ellipse 149" class="cls-4" cx="78.48" cy="389.44" r="3.07"/><g id="Group_463" data-name="Group 463"><path id="Path_712" data-name="Path 712" class="cls-1" d="M104.26,392.56H99.43l-1,2.27H97.1l4.12-9.1h1.28l4.14,9.1h-1.37Zm-.45-1-2-4.46-2,4.46Z"/><path id="Path_713" data-name="Path 713" class="cls-1" d="M119.24,390.87v4H118V391c0-1.35-.65-2-1.78-2a2,2,0,0,0-2.09,1.9,1.7,1.7,0,0,0,0,.39v3.55h-1.25V391c0-1.35-.64-2-1.78-2a2,2,0,0,0-2.08,1.91,1.62,1.62,0,0,0,0,.38v3.55H107.8V388H109v1a2.78,2.78,0,0,1,2.38-1.09,2.54,2.54,0,0,1,2.4,1.27,3.1,3.1,0,0,1,2.65-1.27C118.1,387.88,119.24,388.84,119.24,390.87Z"/><path id="Path_714" data-name="Path 714" class="cls-1" d="M120.94,391.41a3.59,3.59,0,0,1,3.52-3.66h0a3.59,3.59,0,0,1,.14,7.18h-.07a3.43,3.43,0,0,1-3.59-3.27Zm5.9,0a2.32,2.32,0,0,0-2.32-2.32h0a2.32,2.32,0,0,0-2.32,2.32h0a2.32,2.32,0,0,0,2.32,2.32h0A2.32,2.32,0,0,0,126.84,391.41Z"/><path id="Path_715" data-name="Path 715" class="cls-1" d="M133.54,387.88v1.2h-.29a2.06,2.06,0,0,0-2.17,1.95,2.48,2.48,0,0,0,0,.38v3.43h-1.25V388h1.2v1.16A2.62,2.62,0,0,1,133.54,387.88Z"/><path id="Path_716" data-name="Path 716" class="cls-1" d="M139.23,394.41a2.37,2.37,0,0,1-1.51.48,2,2,0,0,1-2.18-1.8,2.16,2.16,0,0,1,0-.36V389h-1.17v-1h1.17v-1.54h1.25v1.51h2v1h-2v3.73a1,1,0,0,0,.82,1.15h0a.76.76,0,0,0,.26,0,1.58,1.58,0,0,0,1-.33Z"/><path id="Path_717" data-name="Path 717" class="cls-1" d="M140.52,385.81a.82.82,0,0,1,.82-.82h0a.81.81,0,0,1,.78.84h0a.83.83,0,0,1-.84.78A.81.81,0,0,1,140.52,385.81Zm.22,2.13H142v6.89h-1.25Z"/><path id="Path_718" data-name="Path 718" class="cls-1" d="M149.48,393.8v1H143.7V394l4.07-5.05h-4v-1h5.59v.82l-4.07,5Z"/><path id="Path_719" data-name="Path 719" class="cls-1" d="M156.6,390.67v4.16h-1.18v-.91a2.61,2.61,0,0,1-2.27,1c-1.55,0-2.54-.83-2.54-2s.71-2,2.77-2h2v-.25c0-1.06-.61-1.67-1.84-1.67a3.4,3.4,0,0,0-2.19.75l-.52-.94a4.61,4.61,0,0,1,2.85-.88C155.53,387.88,156.6,388.79,156.6,390.67Zm-1.25,2.05v-1h-1.92c-1.24,0-1.59.48-1.59,1.07s.57,1.12,1.52,1.12A2,2,0,0,0,155.35,392.72Z"/><path id="Path_720" data-name="Path 720" class="cls-1" d="M162.79,394.41a2.49,2.49,0,0,1-1.51.48,2,2,0,0,1-2.18-1.8,2.16,2.16,0,0,1,0-.36V389h-1.17v-1h1.17v-1.54h1.24v1.51h2v1h-2v3.73a1,1,0,0,0,.82,1.15h0a.76.76,0,0,0,.26,0,1.58,1.58,0,0,0,1-.33Z"/><path id="Path_721" data-name="Path 721" class="cls-1" d="M164.1,385.81a.81.81,0,0,1,.82-.82h0a.81.81,0,0,1,.77.84h0a.81.81,0,0,1-.85.76A.8.8,0,0,1,164.1,385.81Zm.23,2.13h1.24v6.89H164.3Z"/><path id="Path_722" data-name="Path 722" class="cls-1" d="M167.29,391.41a3.58,3.58,0,0,1,7.16-.13h0a3.6,3.6,0,0,1-3.52,3.64h-.06a3.42,3.42,0,0,1-3.58-3.26Zm5.9,0a2.32,2.32,0,0,0-2.43-2.21h0a2.32,2.32,0,0,0-2.21,2.43h0a2.33,2.33,0,0,0,2.32,2.21,2.26,2.26,0,0,0,2.32-2.19h0A1.76,1.76,0,0,0,173.19,391.41Z"/><path id="Path_723" data-name="Path 723" class="cls-1" d="M182.72,390.87v4h-1.25V391c0-1.35-.68-2-1.86-2a2,2,0,0,0-2.19,1.78,1.67,1.67,0,0,0,0,.5v3.55h-1.25V388h1.19v1a3,3,0,0,1,2.49-1.1,2.67,2.67,0,0,1,2.87,2.45A2.72,2.72,0,0,1,182.72,390.87Z"/><path id="Path_724" data-name="Path 724" class="cls-1" d="M187.66,394.1l.52-1a4.37,4.37,0,0,0,2.41.72c1.16,0,1.64-.35,1.64-.94,0-1.54-4.35-.2-4.35-3,0-1.23,1.1-2.06,2.87-2.06a4.92,4.92,0,0,1,2.51.62l-.53,1a3.56,3.56,0,0,0-2-.55c-1.09,0-1.63.4-1.63,1,0,1.63,4.37.3,4.37,3,0,1.25-1.14,2-3,2A4.89,4.89,0,0,1,187.66,394.1Z"/><path id="Path_725" data-name="Path 725" class="cls-1" d="M194.4,391.41a3.44,3.44,0,0,1,3.36-3.52H198a3.06,3.06,0,0,1,2.81,1.46l-.95.62a2.16,2.16,0,0,0-1.87-1,2.42,2.42,0,0,0-2.27,2.58h0a2.43,2.43,0,0,0,2.27,2.27,2.18,2.18,0,0,0,1.87-1l.95.6a3.1,3.1,0,0,1-2.81,1.48,3.46,3.46,0,0,1-3.64-3.26Z"/><path id="Path_726" data-name="Path 726" class="cls-1" d="M208.91,390.87v4h-1.25V391c0-1.35-.67-2-1.85-2a2,2,0,0,0-2.2,1.88h0a1.8,1.8,0,0,0,0,.4v3.55h-1.25V385.2h1.25v3.74a3,3,0,0,1,2.43-1,2.65,2.65,0,0,1,2.86,2.46h0A3.68,3.68,0,0,1,208.91,390.87Z"/><path id="Path_727" data-name="Path 727" class="cls-1" d="M217.47,391.8h-5.59a2.33,2.33,0,0,0,2.49,2,2.58,2.58,0,0,0,2-.84l.69.81a3.75,3.75,0,0,1-6.42-2.4,3.37,3.37,0,0,1,3.23-3.51h.23a3.33,3.33,0,0,1,3.41,3.23c0,.1,0,.2,0,.31S217.48,391.68,217.47,391.8Zm-5.59-.9h4.42a2.22,2.22,0,0,0-2.42-2h0A2.22,2.22,0,0,0,211.88,390.9Z"/><path id="Path_728" data-name="Path 728" class="cls-1" d="M225.72,385.18v9.65h-1.2v-1.09a2.91,2.91,0,0,1-2.42,1.17A3.53,3.53,0,0,1,219,391h0a3.52,3.52,0,0,1,3.13-3.12,2.91,2.91,0,0,1,2.4,1.1v-3.8Zm-1.23,6.23a2.33,2.33,0,0,0-2.43-2.23h0a2.34,2.34,0,0,0-2.23,2.43h0a2.34,2.34,0,0,0,2.34,2.23,2.28,2.28,0,0,0,2.32-2.24v-.19Z"/><path id="Path_729" data-name="Path 729" class="cls-1" d="M234.51,387.94v6.89h-1.18v-1A2.84,2.84,0,0,1,231,395a2.71,2.71,0,0,1-3-2.39h0a2.08,2.08,0,0,1,0-.61v-4h1.25v3.82c0,1.35.68,2,1.86,2a2,2,0,0,0,2.14-1.84h0a1.7,1.7,0,0,0,0-.45v-3.56Z"/><path id="Path_730" data-name="Path 730" class="cls-1" d="M236.89,385.18h1.21v9.65h-1.25Z"/><path id="Path_731" data-name="Path 731" class="cls-1" d="M246.72,391.8H241.1a2.33,2.33,0,0,0,2.49,2,2.57,2.57,0,0,0,2-.84l.69.81a3.75,3.75,0,0,1-5.3.05,3.8,3.8,0,0,1-1.12-2.45,3.37,3.37,0,0,1,3.23-3.51h.23a3.33,3.33,0,0,1,3.41,3.23c0,.1,0,.2,0,.31A2.67,2.67,0,0,1,246.72,391.8Zm-5.59-.9h4.42a2.22,2.22,0,0,0-2.42-2h0a2.22,2.22,0,0,0-2,2Z"/></g><g id="Group_464" data-name="Group 464"><path id="Path_732" data-name="Path 732" d="M95.61,267.86a5,5,0,0,1,5.27-4.71h0a5,5,0,0,1,3.4,1.62L102.94,266a3,3,0,0,0-2.29-1.06,2.91,2.91,0,0,0-2.91,2.91h0a2.91,2.91,0,0,0,2.91,2.91h0a2.92,2.92,0,0,0,2.29-1.08l1.35,1.25a5,5,0,0,1-7.07.31,5,5,0,0,1-1.61-3.39Z"/><path id="Path_733" data-name="Path 733" d="M112.43,265.41v7H110.5v-.83a2.85,2.85,0,0,1-2.17.93,2.82,2.82,0,0,1-3-2.57,2.72,2.72,0,0,1,0-.57v-4h2V269c0,1.17.52,1.69,1.42,1.69s1.61-.6,1.61-1.89v-3.41Z"/><path id="Path_734" data-name="Path 734" d="M113.64,271.76l.67-1.46a4.81,4.81,0,0,0,2.43.68c.94,0,1.29-.25,1.29-.64,0-1.14-4.22,0-4.22-2.77,0-1.32,1.19-2.26,3.23-2.26a5.73,5.73,0,0,1,2.69.61l-.63,1.49a3.91,3.91,0,0,0-2-.52c-.91,0-1.3.28-1.3.65,0,1.19,4.23,0,4.23,2.79,0,1.3-1.21,2.22-3.3,2.22A6.06,6.06,0,0,1,113.64,271.76Z"/><path id="Path_735" data-name="Path 735" d="M125.73,272.07a2.93,2.93,0,0,1-1.65.44,2.32,2.32,0,0,1-2.61-2,2,2,0,0,1,0-.54v-2.87h-1.07v-1.56h1.07v-1.7h2v1.7h1.74v1.56h-1.74V270a.8.8,0,0,0,.69.91h.18a1.29,1.29,0,0,0,.82-.26Z"/><path id="Path_736" data-name="Path 736" d="M126.1,268.91a3.85,3.85,0,0,1,7.68-.5h0a3.85,3.85,0,0,1-3.59,4.09H130a3.61,3.61,0,0,1-3.84-3.36A1.93,1.93,0,0,1,126.1,268.91Zm5.63,0a1.8,1.8,0,0,0-1.6-2h0a1.79,1.79,0,0,0-2,1.6h0a1.21,1.21,0,0,0,0,.38,1.8,1.8,0,0,0,1.6,2h0a1.81,1.81,0,0,0,2-1.6A2.41,2.41,0,0,0,131.73,268.91Z"/><path id="Path_737" data-name="Path 737" d="M147,268.41v4h-2v-3.69c0-1.13-.51-1.65-1.33-1.65s-1.55.58-1.55,1.83v3.51h-2v-3.69c0-1.13-.48-1.65-1.32-1.65s-1.54.58-1.54,1.83v3.51h-2v-7h1.86v.8a2.82,2.82,0,0,1,2.2-.91,2.61,2.61,0,0,1,2.3,1.15,3.09,3.09,0,0,1,2.5-1.14C145.79,265.31,147,266.27,147,268.41Z"/><path id="Path_738" data-name="Path 738" d="M148.56,263.31a1.15,1.15,0,0,1,1.16-1.14h.1a1.15,1.15,0,0,1,1.26,1h0v.07a1.18,1.18,0,0,1-1.16,1.18h-.1a1.15,1.15,0,0,1-1.25-1h0A.28.28,0,0,1,148.56,263.31Zm.24,2.11h2v7h-2Z"/><path id="Path_739" data-name="Path 739" d="M158.48,270.85v1.56h-6.25v-1.22L155.8,267h-3.47v-1.57h6v1.22l-3.56,4.21Z"/><path id="Path_740" data-name="Path 740" d="M166,268.41v4H164.1v-.87a2.28,2.28,0,0,1-2.13,1c-1.63,0-2.61-.91-2.61-2.11s.87-2.1,3-2.1H164c0-.87-.52-1.38-1.61-1.38a3.28,3.28,0,0,0-2,.65l-.73-1.41a5.29,5.29,0,0,1,3-.85C164.73,265.31,166,266.3,166,268.41Zm-2,1.78v-.72h-1.39c-.94,0-1.24.36-1.24.82s.42.85,1.14.85a1.5,1.5,0,0,0,1.46-.94Z"/><path id="Path_741" data-name="Path 741" d="M175.41,268.91a3.39,3.39,0,0,1-3.17,3.6h-.31a2.73,2.73,0,0,1-2.2-.91v.81H167.8v-9.65h2v3.4a2.69,2.69,0,0,1,2.11-.85,3.4,3.4,0,0,1,3.5,3.29h0A1.61,1.61,0,0,1,175.41,268.91Zm-2,0a1.8,1.8,0,0,0-1.93-1.64h0a1.79,1.79,0,0,0,.16,3.58,1.77,1.77,0,0,0,1.79-1.73,1.48,1.48,0,0,0,0-.21Z"/><path id="Path_742" data-name="Path 742" d="M176.77,262.76h2v9.65h-2Z"/><path id="Path_743" data-name="Path 743" d="M187.49,269.48H182.2a1.87,1.87,0,0,0,2,1.41,2.41,2.41,0,0,0,1.76-.68l1.08,1.17a3.69,3.69,0,0,1-2.89,1.13c-2.42,0-4-1.52-4-3.6a3.55,3.55,0,0,1,3.51-3.6h.22a3.47,3.47,0,0,1,3.64,3.29v.34A4.89,4.89,0,0,1,187.49,269.48Zm-5.32-1.18h3.45a1.76,1.76,0,0,0-2-1.43h0A1.74,1.74,0,0,0,182.17,268.3Z"/><path id="Path_744" data-name="Path 744" d="M200.59,266.61c0,2-1.52,3.29-4,3.29h-1.83v2.51H192.7v-9.1h3.94C199.1,263.31,200.59,264.57,200.59,266.61Zm-2.13,0c0-1-.65-1.59-1.93-1.59h-1.72v3.16h1.72C197.81,268.18,198.46,267.6,198.46,266.61Z"/><path id="Path_745" data-name="Path 745" d="M208.1,268.41v4h-1.9v-.87a2.28,2.28,0,0,1-2.13,1c-1.64,0-2.61-.91-2.61-2.11s.87-2.1,3-2.1h1.61c0-.87-.52-1.38-1.61-1.38a3.41,3.41,0,0,0-2,.65l-.72-1.41a5.22,5.22,0,0,1,3-.85C206.83,265.31,208.1,266.3,208.1,268.41Zm-2,1.78v-.72h-1.39c-1,0-1.25.36-1.25.82s.43.85,1.15.85a1.5,1.5,0,0,0,1.43-.94Z"/><path id="Path_746" data-name="Path 746" d="M214.24,265.31v1.87h-.45a1.71,1.71,0,0,0-1.87,1.55,1.79,1.79,0,0,0,0,.4v3.28h-2v-7h1.94v.92A2.77,2.77,0,0,1,214.24,265.31Z"/><path id="Path_747" data-name="Path 747" d="M221.6,268.41v4h-1.9v-.87a2.28,2.28,0,0,1-2.13,1c-1.64,0-2.61-.91-2.61-2.11s.87-2.1,3-2.1h1.61c0-.87-.52-1.38-1.61-1.38a3.28,3.28,0,0,0-2,.65l-.73-1.41a5.29,5.29,0,0,1,3-.85C220.37,265.31,221.6,266.3,221.6,268.41Zm-2,1.78v-.72h-1.39c-1,0-1.25.36-1.25.82s.43.85,1.15.85a1.5,1.5,0,0,0,1.46-.94Z"/><path id="Path_748" data-name="Path 748" d="M235.25,268.41v4h-2v-3.69c0-1.13-.5-1.65-1.32-1.65s-1.55.58-1.55,1.83v3.51h-2v-3.69c0-1.13-.48-1.65-1.32-1.65s-1.54.58-1.54,1.83v3.51h-2v-7h1.94v.8a2.82,2.82,0,0,1,2.2-.91,2.61,2.61,0,0,1,2.3,1.15,3.1,3.1,0,0,1,2.52-1.15C234.1,265.31,235.25,266.27,235.25,268.41Z"/><path id="Path_749" data-name="Path 749" d="M244,269.48h-5.29a1.87,1.87,0,0,0,2,1.41,2.41,2.41,0,0,0,1.76-.68l1.08,1.17a3.69,3.69,0,0,1-2.89,1.13c-2.42,0-4-1.52-4-3.6a3.55,3.55,0,0,1,3.51-3.6h.22A3.47,3.47,0,0,1,244,268.6v.34A4.89,4.89,0,0,1,244,269.48Zm-5.32-1.18h3.46a1.76,1.76,0,0,0-2-1.43h0a1.74,1.74,0,0,0-1.43,1.43Z"/><path id="Path_750" data-name="Path 750" d="M249.86,272.07a2.93,2.93,0,0,1-1.65.44,2.3,2.3,0,0,1-2.6-2h0a2,2,0,0,1,0-.55v-2.87h-1.08v-1.56h1.08v-1.7h2v1.7h1.74v1.56H247.6V270a.8.8,0,0,0,.69.91h.18a1.29,1.29,0,0,0,.82-.26Z"/><path id="Path_751" data-name="Path 751" d="M257.6,269.48h-5.29a1.85,1.85,0,0,0,2,1.41,2.35,2.35,0,0,0,1.75-.68l1,1.2a3.67,3.67,0,0,1-2.88,1.13c-2.42,0-4-1.52-4-3.6a3.55,3.55,0,0,1,3.51-3.6H254a3.47,3.47,0,0,1,3.64,3.29h0V269A1.74,1.74,0,0,1,257.6,269.48Zm-5.32-1.18h3.45a1.67,1.67,0,0,0-1.72-1.45A1.64,1.64,0,0,0,252.28,268.3Z"/><path id="Path_752" data-name="Path 752" d="M263.33,265.31v1.87h-.45a1.71,1.71,0,0,0-1.87,1.55,1.79,1.79,0,0,0,0,.4v3.28h-2v-7H261v.92A2.77,2.77,0,0,1,263.33,265.31Z"/><path id="Path_753" data-name="Path 753" d="M263.89,271.76l.68-1.46A4.71,4.71,0,0,0,267,271c.93,0,1.29-.25,1.29-.64,0-1.14-4.23,0-4.23-2.77,0-1.32,1.2-2.26,3.24-2.26a5.73,5.73,0,0,1,2.69.61l-.68,1.45a3.91,3.91,0,0,0-2-.52c-.91,0-1.3.28-1.3.65,0,1.19,4.22,0,4.22,2.79,0,1.3-1.21,2.22-3.3,2.22A6.09,6.09,0,0,1,263.89,271.76Z"/></g><path id="Rectangle_1013" data-name="Rectangle 1013" class="cls-3" d="M37.86,13.17h78.46a18.27,18.27,0,0,1,18.26,18.24h0a18.28,18.28,0,0,1-18.26,18.27H37.86A18.27,18.27,0,0,1,19.6,31.41h0A18.26,18.26,0,0,1,37.86,13.17Z"/><g id="Group_465" data-name="Group 465"><path id="Path_754" data-name="Path 754" d="M43.8,34c0,1.45-1.16,2.29-3.36,2.29H36.1v-8.4h4.1c2.1,0,3.18.88,3.18,2.19a2,2,0,0,1-1.12,1.84A2.09,2.09,0,0,1,43.8,34ZM38,29.33v2H40c.94,0,1.46-.34,1.46-1s-.52-1-1.46-1Zm3.81,4.44c0-.71-.54-1-1.55-1H38v2.08h2.26C41.3,34.8,41.84,34.48,41.84,33.77Z"/><path id="Path_755" data-name="Path 755" d="M44.75,32.06a4.33,4.33,0,0,1,4.33-4.35h.26a4.34,4.34,0,0,1,4.63,4h0a4.35,4.35,0,0,1-4,4.64h-.59a4.33,4.33,0,0,1-4.58-4.09A2.09,2.09,0,0,1,44.75,32.06Zm7.22,0a2.63,2.63,0,1,0-2.63,2.69A2.56,2.56,0,0,0,52,32.26h0Z"/><path id="Path_756" data-name="Path 756" d="M60.75,36.26,59.1,33.92H57.35v2.34h-2v-8.4H59c2.24,0,3.64,1.17,3.64,3a2.73,2.73,0,0,1-1.72,2.65l1.88,2.7Zm-1.82-6.85H57.35v3h1.58c1.19,0,1.79-.55,1.79-1.46S60.1,29.41,58.93,29.41Z"/><path id="Path_757" data-name="Path 757" d="M69.57,36.26,68,33.92H66.17v2.34h-2v-8.4h3.64c2.24,0,3.64,1.17,3.64,3a2.73,2.73,0,0,1-1.72,2.65l1.88,2.7Zm-1.82-6.85H66.17v3h1.58c1.19,0,1.79-.55,1.79-1.46S68.94,29.41,67.75,29.41Z"/><path id="Path_758" data-name="Path 758" d="M72.52,32.06a4.6,4.6,0,0,1,4.34-4.85h0a4.6,4.6,0,1,1,.5,9.19H77.1a4.34,4.34,0,0,1-4.57-4.1A2.09,2.09,0,0,1,72.52,32.06Zm7.22,0a2.63,2.63,0,1,0-2.64,2.69,2.57,2.57,0,0,0,2.64-2.48h0v-.21Z"/><path id="Path_759" data-name="Path 759" d="M95.58,27.86l-2.74,8.4H90.75L88.9,30.58,87,36.26H84.92l-2.76-8.4h2l1.94,5.91,2-5.91h1.8l1.92,6,2-6Z"/><path id="Path_760" data-name="Path 760" d="M103.17,34.7v1.56h-6.5v-8.4H103v1.55H98.6v1.83h3.9v1.51H98.6v1.94Z"/><path id="Path_761" data-name="Path 761" d="M110.1,36.26l-1.62-2.34h-1.81v2.34h-2v-8.4h3.64c2.24,0,3.64,1.17,3.64,3a2.73,2.73,0,0,1-1.72,2.65l1.88,2.7Zm-1.85-6.85h-1.58v3h1.58c1.19,0,1.79-.55,1.79-1.46S109.44,29.41,108.25,29.41Z"/><path id="Path_762" data-name="Path 762" d="M112.88,35.41l.66-1.46a5,5,0,0,0,2.77.87c1.15,0,1.62-.38,1.62-.89,0-1.58-4.88-.5-4.88-3.61,0-1.43,1.15-2.62,3.54-2.62a5.61,5.61,0,0,1,2.91.74l-.6,1.48a4.78,4.78,0,0,0-2.32-.66c-1.15,0-1.6.43-1.6,1,0,1.55,4.88.48,4.88,3.56,0,1.4-1.16,2.6-3.56,2.6A6,6,0,0,1,112.88,35.41Z"/></g><path id="Rectangle_1015" data-name="Rectangle 1015" class="cls-3" d="M200.86,128.17h78.46a18.27,18.27,0,0,1,18.26,18.24h0a18.28,18.28,0,0,1-18.26,18.27H200.86a18.27,18.27,0,0,1-18.26-18.27h0A18.26,18.26,0,0,1,200.86,128.17Z"/><g id="Group_466" data-name="Group 466"><path id="Path_763" data-name="Path 763" d="M203.57,147a4.62,4.62,0,0,1,8-2.85l-1.24,1.15a2.64,2.64,0,1,0-2.12,4.37,2.72,2.72,0,0,0,2.12-1l1.24,1.15a4.61,4.61,0,0,1-8-2.85Z"/><path id="Path_764" data-name="Path 764" d="M218.24,151.16l-1.62-2.34h-1.78v2.34h-2v-8.39h3.64c2.24,0,3.64,1.16,3.64,3a2.73,2.73,0,0,1-1.72,2.65l1.88,2.7Zm-1.82-6.81h-1.58v2.93h1.58c1.19,0,1.79-.56,1.79-1.47s-.6-1.46-1.79-1.46Z"/><path id="Path_765" data-name="Path 765" d="M228.22,149.6v1.56h-6.51v-8.39h6.39v1.56h-4.42v1.82h3.9v1.51h-3.9v1.94Z"/><path id="Path_766" data-name="Path 766" d="M229.77,142.77h3.81c2.75,0,4.63,1.65,4.63,4.19s-1.88,4.2-4.63,4.2h-3.81Zm3.71,6.8a2.61,2.61,0,0,0,2.76-2.45h0a2.6,2.6,0,0,0-2.44-2.76,1.71,1.71,0,0,0-.32,0h-1.77v5.21Z"/><path id="Path_767" data-name="Path 767" d="M239.68,142.77h1.94v8.39h-1.94Z"/><path id="Path_768" data-name="Path 768" d="M245.35,144.35h-2.68v-1.58H250v1.58H247.3v6.81h-2Z"/><path id="Path_769" data-name="Path 769" d="M250.38,147a4.6,4.6,0,0,1,4.34-4.85h0a4.6,4.6,0,0,1,.5,9.19H255a4.34,4.34,0,0,1-4.59-4.09h0A2.09,2.09,0,0,1,250.38,147Zm7.22,0a2.63,2.63,0,1,0-2.62,2.69,2.56,2.56,0,0,0,2.62-2.48h0Z"/><path id="Path_770" data-name="Path 770" d="M266.39,151.16l-1.62-2.34H263v2.34H261v-8.39h3.63c2.24,0,3.65,1.16,3.65,3a2.75,2.75,0,0,1-1.73,2.65l1.88,2.7Zm-1.83-6.81H263v2.93h1.58c1.19,0,1.79-.56,1.79-1.47S265.75,144.35,264.56,144.35Z"/><path id="Path_771" data-name="Path 771" d="M269.2,150.34l.66-1.47a4.9,4.9,0,0,0,2.77.88c1.15,0,1.62-.39,1.62-.9,0-1.57-4.88-.49-4.88-3.61,0-1.43,1.15-2.62,3.53-2.62a5.65,5.65,0,0,1,2.92.75l-.6,1.47a4.69,4.69,0,0,0-2.33-.66c-1.15,0-1.59.43-1.59,1,0,1.55,4.88.48,4.88,3.56,0,1.41-1.16,2.61-3.56,2.61A6,6,0,0,1,269.2,150.34Z"/></g><circle id="Ellipse_159" data-name="Ellipse 159" class="cls-5" cx="79.26" cy="149.69" r="48.7"/><circle id="Ellipse_160" data-name="Ellipse 160" class="cls-6" cx="79.26" cy="149.69" r="48.7"/><path id="Path_245" data-name="Path 245" class="cls-7" d="M77.32,156.87V142.41h6.39a3.91,3.91,0,0,1,1.84.42,4.61,4.61,0,0,1,1.46,1.1,5.24,5.24,0,0,1,1,1.54,5,5,0,0,1,.35,1.75,4.78,4.78,0,0,1-.7,2.55,4.09,4.09,0,0,1-1.9,1.66l3.3,5.44H85.89l-3-4.85H80.1v4.85Zm2.78-7.31h3.52a1.56,1.56,0,0,0,.73-.19,2.14,2.14,0,0,0,.58-.5,2.26,2.26,0,0,0,.38-.74,2.64,2.64,0,0,0,.14-.92,2.51,2.51,0,0,0-.6-1.68,1.83,1.83,0,0,0-.63-.48,1.51,1.51,0,0,0-.72-.18H80.1Z"/><path id="Path_246" data-name="Path 246" class="cls-7" d="M90,149.54a7.32,7.32,0,0,1,.48-2.62,7,7,0,0,1,3.64-4,6.88,6.88,0,0,1,3-.63,6.61,6.61,0,0,1,3.45.87,5.61,5.61,0,0,1,2.17,2.28l-2.16,1.49a3.88,3.88,0,0,0-.69-1,3.18,3.18,0,0,0-.88-.66,4,4,0,0,0-1-.36,4.86,4.86,0,0,0-1-.11,3.73,3.73,0,0,0-1.85.43,4,4,0,0,0-1.3,1.11,4.64,4.64,0,0,0-.77,1.54,5.59,5.59,0,0,0,0,3.57,4.92,4.92,0,0,0,.86,1.55,4.16,4.16,0,0,0,1.35,1.08,3.66,3.66,0,0,0,1.72.4,4.27,4.27,0,0,0,1-.12,3.59,3.59,0,0,0,1-.39,3.69,3.69,0,0,0,.89-.68,3.14,3.14,0,0,0,.65-1l2.3,1.32a4.66,4.66,0,0,1-1,1.44,6.51,6.51,0,0,1-1.44,1,7.73,7.73,0,0,1-3.52.87,6.15,6.15,0,0,1-2.83-.65,7.34,7.34,0,0,1-2.21-1.7,7.74,7.74,0,0,1-1.44-2.38A7.25,7.25,0,0,1,90,149.54Z"/><path id="Path_247" data-name="Path 247" class="cls-7" d="M107.64,147.6v9.27h-2.81V142.41H107l7.53,9.49v-9.49h2.81v14.46H115.1Z"/><path id="Path_248" data-name="Path 248" class="cls-7" d="M70.79,142.84a1,1,0,0,0-1.84-.1,17.46,17.46,0,0,1-.85,1.67,14.5,14.5,0,0,0-27.88,7.53,18.84,18.84,0,0,0-2,3.3,1,1,0,0,0,.46,1.34h0a1,1,0,0,0,1.33-.47h0a15.79,15.79,0,0,1,.88-1.62A14.49,14.49,0,0,0,59.57,163h0a14.49,14.49,0,0,0,9.2-16,18.84,18.84,0,0,0,2-3.3,1,1,0,0,0,0-.77ZM67,149.41a12.49,12.49,0,0,1-12.47,12.51h0a12.49,12.49,0,0,1-12.15-9.51,18.57,18.57,0,0,1,9.52-5.74,27.86,27.86,0,0,1,6.23-.95l-3,3,1.42,1.41,5.41-5.42-6.17-6.18L54.34,140l3.76,3.77a30,30,0,0,0-6.73,1,22.63,22.63,0,0,0-7.22,3.34A18,18,0,0,0,42,149.87v-.48a12.49,12.49,0,0,1,24.61-3,18.47,18.47,0,0,1-9.5,5.73,27.54,27.54,0,0,1-6.23,1l3-3-1.41-1.42L47,154.13l6.17,6.17,1.42-1.42-3.77-3.76a30.25,30.25,0,0,0,6.74-1,22.68,22.68,0,0,0,7.21-3.34A20.81,20.81,0,0,0,67,149c0,.11,0,.27,0,.44Z"/><circle id="Ellipse_183" data-name="Ellipse 183" class="cls-7" cx="79.1" cy="212.41" r="34"/><circle id="Ellipse_184" data-name="Ellipse 184" class="cls-2" cx="79.1" cy="212.41" r="33.5"/><g id="Group_467" data-name="Group 467"><path id="Path_772" data-name="Path 772" d="M65.1,208.73v1.43h-6v-7.7h5.82v1.43h-4v1.67H64.5V207H60.92v1.78Z"/><path id="Path_773" data-name="Path 773" d="M65.83,209.61l.57-1.23a4,4,0,0,0,2.06.57c.79,0,1.08-.21,1.08-.54,0-1-3.57,0-3.57-2.34,0-1.12,1-1.91,2.74-1.91a4.88,4.88,0,0,1,2.28.51l-.58,1.22a3.3,3.3,0,0,0-1.7-.44c-.77,0-1.1.25-1.1.55,0,1,3.57,0,3.57,2.37,0,1.1-1,1.88-2.79,1.88A5.18,5.18,0,0,1,65.83,209.61Z"/><path id="Path_774" data-name="Path 774" d="M71.8,207.2a3,3,0,0,1,3.09-3h.21a2.72,2.72,0,0,1,2.65,1.5l-1.33.72a1.48,1.48,0,0,0-1.33-.82,1.64,1.64,0,0,0,0,3.28,1.47,1.47,0,0,0,1.33-.81l1.33.72a2.75,2.75,0,0,1-2.65,1.5,3,3,0,0,1-3.29-2.79C71.8,207.4,71.8,207.3,71.8,207.2Z"/><path id="Path_775" data-name="Path 775" d="M82.41,204.16v1.58H82a1.44,1.44,0,0,0-1.58,1.31,1.3,1.3,0,0,0,0,.34v2.79H78.74v-5.92h1.64V205A2.37,2.37,0,0,1,82.41,204.16Z"/><path id="Path_776" data-name="Path 776" d="M82.94,207.2a3.26,3.26,0,1,1,3.51,3H86.2A3,3,0,0,1,83,207.47,2.44,2.44,0,0,1,82.94,207.2Zm4.77,0a1.52,1.52,0,0,0-1.63-1.4h0a1.51,1.51,0,0,0-1.39,1.63h0a1.51,1.51,0,0,0,1.52,1.4,1.49,1.49,0,0,0,1.51-1.48h0Z"/><path id="Path_777" data-name="Path 777" d="M99.93,204.24l-2.15,5.92H96.1l-1.33-3.67-1.37,3.67H91.75l-2.14-5.92h1.62l1.4,4,1.45-4h1.45l1.41,4,1.44-4Z"/></g><g id="Group_468" data-name="Group 468"><path id="Path_778" data-name="Path 778" d="M54.36,220.31a4.24,4.24,0,0,1,7.35-2.62l-1.14,1.06a2.48,2.48,0,1,0,0,3.11l1.14,1.06a4.24,4.24,0,0,1-7.35-2.61Z"/><path id="Path_779" data-name="Path 779" d="M62.1,221.2a3.26,3.26,0,1,1,3.46,3h-.2a3,3,0,0,1-3.25-2.73C62.1,221.41,62.1,221.31,62.1,221.2Zm4.76,0a1.52,1.52,0,0,0-1.63-1.4h0a1.52,1.52,0,0,0-1.4,1.63h0a1.52,1.52,0,0,0,1.53,1.4,1.5,1.5,0,0,0,1.55-1.43h0a1.48,1.48,0,0,0,0-.21Z"/><path id="Path_780" data-name="Path 780" d="M75.84,220.77v3.39H74.1V221c0-1-.44-1.4-1.2-1.4A1.42,1.42,0,0,0,71.46,221a1.49,1.49,0,0,0,0,.21v2.92H69.77v-5.92h1.64v.7a2.56,2.56,0,0,1,2-.78,2.32,2.32,0,0,1,2.49,2.13A2.57,2.57,0,0,1,75.84,220.77Z"/><path id="Path_781" data-name="Path 781" d="M81.2,223.88a2.44,2.44,0,0,1-1.39.37,2,2,0,0,1-2.2-1.78,1.29,1.29,0,0,1,0-.34V219.7h-.92v-1.29h.92V217h1.71v1.45h1.48v1.32H79.31v2.4a.7.7,0,0,0,.6.78h.14a1.09,1.09,0,0,0,.69-.22Z"/><path id="Path_782" data-name="Path 782" d="M85.85,218.16v1.58h-.39a1.44,1.44,0,0,0-1.58,1.31,1.3,1.3,0,0,0,0,.34v2.79H82.17v-5.92h1.64V219A2.38,2.38,0,0,1,85.85,218.16Z"/><path id="Path_783" data-name="Path 783" d="M92.1,220.78v3.38H90.5v-.75a2,2,0,0,1-1.81.83c-1.38,0-2.21-.77-2.21-1.79s.74-1.77,2.54-1.77h1.37c0-.74-.44-1.17-1.37-1.17a2.81,2.81,0,0,0-1.7.55l-.62-1.2a4.52,4.52,0,0,1,2.55-.71C91,218.16,92.1,219,92.1,220.78Zm-1.71,1.51v-.6H89.21c-.8,0-1.06.29-1.06.69s.37.71,1,.71a1.28,1.28,0,0,0,1.21-.8Z"/><path id="Path_784" data-name="Path 784" d="M93.25,221.2a3,3,0,0,1,3.09-3h.21a2.72,2.72,0,0,1,2.65,1.5l-1.33.72a1.48,1.48,0,0,0-1.33-.82,1.64,1.64,0,0,0,0,3.28,1.47,1.47,0,0,0,1.33-.81l1.33.72a2.75,2.75,0,0,1-2.65,1.5,3,3,0,0,1-3.29-2.79C93.25,221.4,93.25,221.3,93.25,221.2Z"/><path id="Path_785" data-name="Path 785" d="M104.1,223.88a2.48,2.48,0,0,1-1.4.37,2,2,0,0,1-2.2-1.78,1.29,1.29,0,0,1,0-.34V219.7h-.92v-1.29h.92V217h1.71v1.45h1.48v1.32H102.2v2.4a.7.7,0,0,0,.6.78h.14a1.09,1.09,0,0,0,.69-.22Z"/></g><circle id="Ellipse_185" data-name="Ellipse 185" class="cls-7" cx="78.1" cy="268.41" r="8"/><circle id="Ellipse_186" data-name="Ellipse 186" class="cls-2" cx="78.1" cy="268.41" r="7.5"/><line id="Line_752-2" data-name="Line 752-2" class="cls-2" x1="181.6" y1="146.91" x2="135.6" y2="146.91"/><line id="Line_753-2" data-name="Line 753-2" class="cls-2" x1="142.6" y1="138.91" x2="135.6" y2="146.91"/><line id="Line_754-2" data-name="Line 754-2" class="cls-2" x1="142.6" y1="153.91" x2="135.6" y2="146.91"/></g><rect class="cls-8" width="314" height="412.68"/></svg>