<svg id="Capa_1" data-name="Capa 1" xmlns="http://www.w3.org/2000/svg" viewBox="0 0 891 369.52"><defs><style>.cls-1,.cls-8{isolation:isolate;}.cls-2{fill:#f24136;}.cls-3{fill:#4155ff;}.cls-4{fill:#85bf6b;}.cls-10,.cls-11,.cls-13,.cls-15,.cls-17,.cls-19,.cls-5,.cls-6,.cls-7,.cls-9{fill:none;}.cls-15,.cls-5{stroke:#f24136;}.cls-10,.cls-5,.cls-6,.cls-7,.cls-9{stroke-miterlimit:10;}.cls-10,.cls-13,.cls-15,.cls-17,.cls-5{stroke-width:2px;}.cls-13,.cls-15,.cls-17,.cls-5{stroke-dasharray:3 3;}.cls-11,.cls-6{stroke:#000;}.cls-10,.cls-7{stroke:#85bf6b;}.cls-7{stroke-width:1.5px;}.cls-8{fill:#e6e6e6;opacity:0.62;}.cls-13,.cls-9{stroke:#4155ff;}.cls-12{fill:#afafaf;}.cls-14{fill:#d87d3a;}.cls-16{fill:#969696;}.cls-17{stroke:#d87d3a;}.cls-18{fill:#fff;}</style></defs><title>esquemas-03</title><g id="Artboard_22" data-name="Artboard 22"><g id="REQUEST_DATE" data-name="REQUEST DATE" class="cls-1"><g class="cls-1"><path d="M23,129.5,21.25,127H19.32v2.54H17.21v-9.1h3.94c2.43,0,4,1.26,4,3.3a3,3,0,0,1-1.87,2.87l2,2.93Zm-2-7.39H19.32v3.18H21c1.29,0,1.94-.6,1.94-1.59S22.32,122.11,21,122.11Z"/><path d="M33.81,127.81v1.69h-7v-9.1h6.87v1.69H28.86v2h4.22v1.64H28.86v2.11Z"/><path d="M45.3,130.47a3.05,3.05,0,0,1-2.45,1.12c-1.35,0-2.3-.49-3.71-2A4.66,4.66,0,0,1,34.89,125a4.72,4.72,0,0,1,5-4.71,4.71,4.71,0,0,1,5,4.71,4.59,4.59,0,0,1-3.25,4.45,1.69,1.69,0,0,0,1.29.63,2,2,0,0,0,1.48-.67Zm-5.43-2.61A2.91,2.91,0,1,0,37,125,2.77,2.77,0,0,0,39.87,127.86Z"/><path d="M46.36,125.5v-5.1h2.1v5c0,1.73.76,2.44,2,2.44s2-.71,2-2.44v-5H54.6v5.1c0,2.67-1.53,4.16-4.12,4.16S46.36,128.17,46.36,125.5Z"/><path d="M63.73,127.81v1.69h-7v-9.1h6.88v1.69H58.77v2H63v1.64H58.77v2.11Z"/><path d="M64.69,128.6,65.4,127a5.35,5.35,0,0,0,3,.94c1.24,0,1.75-.41,1.75-1,0-1.7-5.29-.53-5.29-3.91,0-1.55,1.25-2.84,3.83-2.84a6.11,6.11,0,0,1,3.16.81l-.65,1.6a5.13,5.13,0,0,0-2.52-.72c-1.25,0-1.73.47-1.73,1,0,1.68,5.29.52,5.29,3.86,0,1.52-1.26,2.83-3.86,2.83A6.42,6.42,0,0,1,64.69,128.6Z"/><path d="M75.45,122.11H72.54V120.4h7.93v1.71H77.56v7.39H75.45Z"/><path d="M85.28,120.4h4.13c3,0,5,1.79,5,4.55s-2,4.55-5,4.55H85.28Zm4,7.37a2.82,2.82,0,1,0,0-5.64H87.38v5.64Z"/><path d="M101.88,127.55H97.65l-.8,2H94.69l4.06-9.1h2.08l4.07,9.1h-2.21Zm-.66-1.6-1.45-3.48L98.33,126Z"/><path d="M107.28,122.11h-2.92V120.4h7.93v1.71h-2.91v7.39h-2.1Z"/><path d="M120.47,127.81v1.69h-7v-9.1h6.88v1.69h-4.78v2h4.22v1.64h-4.22v2.11Z"/></g></g><g id="EXPIRATION_DATE" data-name="EXPIRATION DATE" class="cls-1"><g class="cls-1"><path class="cls-2" d="M280.35,319.28V321H273.3v-9.1h6.88v1.69H275.4v2h4.22v1.64H275.4v2.11Z"/><path class="cls-2" d="M287.67,321l-2.2-3.16L283.31,321H280.9l3.36-4.63-3.19-4.47h2.39l2.09,2.95,2.05-2.95h2.28l-3.17,4.39L290.1,321Z"/><path class="cls-2" d="M298.82,315.17c0,2-1.52,3.29-3.95,3.29H293V321h-2.11v-9.1h3.94C297.3,311.87,298.82,313.13,298.82,315.17Zm-2.13,0c0-1-.65-1.59-1.94-1.59H293v3.16h1.71C296,316.74,296.69,316.16,296.69,315.17Z"/><path class="cls-2" d="M300.32,311.87h2.1V321h-2.1Z"/><path class="cls-2" d="M310.38,321l-1.76-2.54h-1.93V321h-2.11v-9.1h3.94c2.43,0,4,1.26,4,3.3A2.94,2.94,0,0,1,310.6,318l2,2.93Zm-2-7.39h-1.71v3.18h1.71c1.29,0,1.94-.6,1.94-1.59S309.69,313.58,308.4,313.58Z"/><path class="cls-2" d="M320.13,319h-4.22l-.81,2h-2.16l4.06-9.1h2.08l4.07,9.1h-2.21Zm-.66-1.6L318,313.93l-1.44,3.49Z"/><path class="cls-2" d="M325.53,313.58h-2.92v-1.71h7.93v1.71h-2.91V321h-2.1Z"/><path class="cls-2" d="M331.67,311.87h2.11V321h-2.11Z"/><path class="cls-2" d="M335.37,316.42a5,5,0,1,1,5,4.7A4.71,4.71,0,0,1,335.37,316.42Zm7.82,0a2.85,2.85,0,1,0-2.84,2.91A2.77,2.77,0,0,0,343.19,316.42Z"/><path class="cls-2" d="M355.26,311.87V321h-1.73L349,315.44V321h-2.08v-9.1h1.74l4.53,5.52v-5.52Z"/><path class="cls-2" d="M361.09,311.87h4.14c3,0,5,1.79,5,4.55s-2.05,4.55-5,4.55h-4.14Zm4,7.37a2.82,2.82,0,1,0,0-5.64H363.2v5.64Z"/><path class="cls-2" d="M377.69,319h-4.22l-.81,2H370.5l4.06-9.1h2.08l4.07,9.1H378.5Zm-.66-1.6-1.44-3.49-1.45,3.49Z"/><path class="cls-2" d="M383.09,313.58h-2.91v-1.71h7.93v1.71H385.2V321h-2.11Z"/><path class="cls-2" d="M396.28,319.28V321h-7v-9.1h6.88v1.69h-4.79v2h4.23v1.64h-4.23v2.11Z"/></g></g><g id="LENDING_DATE" data-name="LENDING DATE" class="cls-1"><g class="cls-1"><path class="cls-3" d="M259.86,54.59H262V62h4.56v1.71h-6.67Z"/><path class="cls-3" d="M274.76,62v1.69h-7.05v-9.1h6.88v1.69H269.8v2H274V59.9H269.8V62Z"/><path class="cls-3" d="M284.78,54.59v9.1h-1.73l-4.54-5.52v5.52h-2.08v-9.1h1.75l4.52,5.53V54.59Z"/><path class="cls-3" d="M286.94,54.59h4.13c3,0,5,1.8,5,4.56s-2,4.54-5,4.54h-4.13ZM291,62a2.83,2.83,0,1,0,0-5.65H289V62Z"/><path class="cls-3" d="M297.68,54.59h2.1v9.1h-2.1Z"/><path class="cls-3" d="M310.29,54.59v9.1h-1.73L304,58.17v5.52h-2.08v-9.1h1.74l4.53,5.53V54.59Z"/><path class="cls-3" d="M318.59,59h1.93v3.69a6.24,6.24,0,0,1-3.68,1.16,4.71,4.71,0,1,1,0-9.41A4.85,4.85,0,0,1,320.69,56l-1.36,1.25a3.08,3.08,0,0,0-2.35-1,2.92,2.92,0,1,0,0,5.83,3.38,3.38,0,0,0,1.63-.39Z"/><path class="cls-3" d="M326.15,54.59h4.13c3,0,5,1.8,5,4.56s-2,4.54-5,4.54h-4.13Zm4,7.38a2.83,2.83,0,1,0,0-5.65h-1.93V62Z"/><path class="cls-3" d="M342.75,61.74h-4.23l-.8,1.95h-2.16l4.05-9.1h2.08l4.07,9.1h-2.21Zm-.67-1.59-1.44-3.49-1.44,3.49Z"/><path class="cls-3" d="M348.14,56.31h-2.91V54.59h7.93v1.72h-2.91v7.38h-2.11Z"/><path class="cls-3" d="M361.34,62v1.69h-7v-9.1h6.88v1.69h-4.79v2h4.23V59.9h-4.23V62Z"/></g></g><g id="INSTALLMENTS" class="cls-1"><g class="cls-1"><path class="cls-4" d="M478,54.47h2.1v9.1H478Z"/><path class="cls-4" d="M490.63,54.47v9.1H488.9L484.36,58v5.53h-2.08v-9.1H484L488.55,60V54.47Z"/><path class="cls-4" d="M492.07,62.67l.72-1.59a5.32,5.32,0,0,0,3,1c1.25,0,1.75-.41,1.75-1,0-1.7-5.29-.53-5.29-3.91,0-1.55,1.25-2.84,3.84-2.84a6.07,6.07,0,0,1,3.16.81l-.65,1.6a5.19,5.19,0,0,0-2.53-.72c-1.24,0-1.72.47-1.72,1,0,1.68,5.29.52,5.29,3.86,0,1.52-1.26,2.82-3.86,2.82A6.53,6.53,0,0,1,492.07,62.67Z"/><path class="cls-4" d="M502.83,56.18h-2.91V54.47h7.93v1.71h-2.91v7.39h-2.11Z"/><path class="cls-4" d="M514.52,61.62H510.3l-.81,2h-2.16l4.06-9.1h2.08l4.07,9.1h-2.21Zm-.66-1.6-1.44-3.49L511,60Z"/><path class="cls-4" d="M518.49,54.47h2.1v7.38h4.57v1.72h-6.67Z"/><path class="cls-4" d="M526.34,54.47h2.1v7.38H533v1.72h-6.67Z"/><path class="cls-4" d="M542.47,63.57V58.11l-2.68,4.5h-.95l-2.66-4.38v5.34h-2v-9.1h1.74l3.41,5.65,3.35-5.65h1.73l0,9.1Z"/><path class="cls-4" d="M553.65,61.88v1.69h-7v-9.1h6.87v1.69H548.7v2h4.22v1.64H548.7v2.11Z"/><path class="cls-4" d="M563.67,54.47v9.1H562L557.41,58v5.53h-2.08v-9.1h1.74L561.59,60V54.47Z"/><path class="cls-4" d="M567.72,56.18H564.8V54.47h7.93v1.71h-2.91v7.39h-2.1Z"/><path class="cls-4" d="M573.09,62.67l.71-1.59a5.35,5.35,0,0,0,3,1c1.25,0,1.76-.41,1.76-1,0-1.7-5.29-.53-5.29-3.91,0-1.55,1.25-2.84,3.83-2.84a6,6,0,0,1,3.16.81l-.65,1.6a5.13,5.13,0,0,0-2.52-.72c-1.25,0-1.73.47-1.73,1,0,1.68,5.29.52,5.29,3.86,0,1.52-1.26,2.82-3.86,2.82A6.49,6.49,0,0,1,573.09,62.67Z"/></g></g><g id="REPAYMENT_DATE" data-name="REPAYMENT DATE" class="cls-1"><g class="cls-1"><path d="M571.92,182.69l-1.76-2.53h-1.94v2.53h-2.1v-9.1h3.94c2.43,0,4,1.27,4,3.31a3,3,0,0,1-1.87,2.87l2,2.92Zm-2-7.38h-1.72v3.17h1.72c1.29,0,1.94-.6,1.94-1.58S571.23,175.31,569.94,175.31Z"/><path d="M582.72,181v1.69h-7.05v-9.1h6.88v1.69h-4.78v2H582v1.64h-4.22V181Z"/><path d="M592.29,176.9c0,2-1.52,3.29-4,3.29H586.5v2.5h-2.1v-9.1h3.93C590.77,173.59,592.29,174.86,592.29,176.9Zm-2.14,0c0-1-.65-1.59-1.93-1.59H586.5v3.16h1.72C589.5,178.47,590.15,177.88,590.15,176.9Z"/><path d="M599.32,180.74h-4.23l-.8,1.95h-2.16l4.06-9.1h2.08l4.07,9.1h-2.22Zm-.66-1.59-1.45-3.49-1.44,3.49Z"/><path d="M607.09,179.47v3.22H605v-3.25l-3.53-5.85h2.24l2.43,4,2.43-4h2.07Z"/><path d="M619.7,182.69v-5.46l-2.68,4.5h-1l-2.66-4.38v5.34h-2v-9.1h1.74l3.41,5.66,3.35-5.66h1.73l0,9.1Z"/><path d="M630.88,181v1.69h-7v-9.1h6.87v1.69h-4.78v2h4.23v1.64h-4.23V181Z"/><path d="M640.91,173.59v9.1h-1.73l-4.54-5.52v5.52h-2.08v-9.1h1.74l4.53,5.53v-5.53Z"/><path d="M645,175.31H642v-1.72H650v1.72h-2.92v7.38H645Z"/><path d="M654.78,173.59h4.13c3,0,5,1.8,5,4.56s-2,4.54-5,4.54h-4.13Zm4,7.38a2.83,2.83,0,1,0,0-5.65h-1.93V181Z"/><path d="M671.38,180.74h-4.23l-.8,1.95h-2.16l4-9.1h2.08l4.07,9.1h-2.21Zm-.67-1.59-1.44-3.49-1.44,3.49Z"/><path d="M676.77,175.31h-2.91v-1.72h7.93v1.72h-2.91v7.38h-2.11Z"/><path d="M690,181v1.69h-7.05v-9.1h6.88v1.69H685v2h4.22v1.64H685V181Z"/></g></g><line id="Line_678" data-name="Line 678" class="cls-5" x1="67.1" y1="290.04" x2="333.1" y2="290.04"/><line id="Line_680" data-name="Line 680" class="cls-6" x1="68.1" y1="155.34" x2="309.39" y2="155.34"/><g id="_1" data-name=" 1" class="cls-1"><g class="cls-1"><path class="cls-4" d="M412.17,93.17v10.5h-2.43V95.12h-2.1v-2Z"/></g></g><g id="_2" data-name=" 2" class="cls-1"><g class="cls-1"><path class="cls-4" d="M527.94,101.69v2H520V102.1l4-3.83c.93-.88,1.09-1.42,1.09-1.93,0-.83-.57-1.31-1.68-1.31a2.57,2.57,0,0,0-2.17,1l-1.77-1.14a4.89,4.89,0,0,1,4.17-2c2.34,0,3.89,1.2,3.89,3.11,0,1-.28,2-1.75,3.31l-2.41,2.28Z"/></g></g><g id="_3" data-name=" 3" class="cls-1"><g class="cls-1"><path class="cls-4" d="M631.94,100.46c0,1.77-1.36,3.39-4.35,3.39a7.2,7.2,0,0,1-4-1.12l.94-1.86a5.12,5.12,0,0,0,3,.94c1.22,0,2-.49,2-1.35s-.59-1.29-2-1.29h-1.11v-1.6l2.16-2.45h-4.47v-2h7.35v1.58l-2.37,2.7A3,3,0,0,1,631.94,100.46Z"/></g></g><circle id="Ellipse_109" data-name="Ellipse 109" class="cls-7" cx="409.64" cy="98.45" r="15.23"/><circle id="Ellipse_110" data-name="Ellipse 110" class="cls-7" cx="523.28" cy="98.45" r="15.23"/><circle id="Ellipse_111" data-name="Ellipse 111" class="cls-7" cx="627.37" cy="98.45" r="15.23"/><rect id="Rectangle_950" data-name="Rectangle 950" class="cls-8" x="309.39" y="132.75" width="318.29" height="22.59"/><line id="Line_687" data-name="Line 687" class="cls-9" x1="309.39" y1="155.34" x2="624.1" y2="155.34"/><line id="Line_688" data-name="Line 688" class="cls-10" x1="409.99" y1="123.86" x2="409.99" y2="155.34"/><line id="Line_689" data-name="Line 689" class="cls-10" x1="523.89" y1="123.86" x2="523.89" y2="155.34"/><line id="Line_690" data-name="Line 690" class="cls-10" x1="628.68" y1="123.86" x2="628.68" y2="155.34"/><line id="Line_691" data-name="Line 691" class="cls-9" x1="308.87" y1="96.64" x2="308.87" y2="155.34"/><line id="Line_692" data-name="Line 692" class="cls-11" x1="302.03" y1="149.33" x2="308.87" y2="156.17"/><line id="Line_693" data-name="Line 693" class="cls-11" x1="308.87" y1="155.03" x2="302.03" y2="161.87"/><rect id="Rectangle_1044" data-name="Rectangle 1044" class="cls-3" x="303.58" y="92.23" width="10.26" height="10.26" rx="2" transform="translate(21.58 246.81) rotate(-45)"/><g id="Rectangle_1045" data-name="Rectangle 1045"><rect class="cls-12" x="623.59" y="150.37" width="10.26" height="10.26" rx="2" transform="translate(74.19 490.12) rotate(-45)"/><rect class="cls-11" x="624.09" y="150.87" width="9.26" height="9.26" rx="1.5" transform="translate(74.19 490.12) rotate(-45)"/></g><rect id="Rectangle_1046" data-name="Rectangle 1046" class="cls-2" x="327.6" y="284.42" width="10.26" height="10.26" rx="2" transform="translate(-107.29 320.08) rotate(-45)"/><path id="Path_250" data-name="Path 250" class="cls-13" d="M480.1,228.44H707.05"/><rect id="Rectangle_1047" data-name="Rectangle 1047" class="cls-14" x="701.44" y="222.82" width="10.26" height="10.26" rx="2" transform="translate(45.77 566.38) rotate(-45)"/><g id="DUE_DATE" data-name="DUE DATE" class="cls-1"><g class="cls-1"><path class="cls-14" d="M673.63,249.15h4.13c3,0,5,1.79,5,4.55s-2,4.55-5,4.55h-4.13Zm4,7.37a2.82,2.82,0,1,0,0-5.64h-1.92v5.64Z"/><path class="cls-14" d="M684.29,254.24v-5.09h2.11v5c0,1.73.75,2.45,2,2.45s2-.72,2-2.45v-5h2.08v5.09c0,2.68-1.53,4.16-4.12,4.16S684.29,256.92,684.29,254.24Z"/><path class="cls-14" d="M701.66,256.56v1.69h-7v-9.1h6.88v1.69h-4.78v2h4.22v1.64h-4.22v2.11Z"/><path class="cls-14" d="M707,249.15h4.14c3,0,5,1.79,5,4.55s-2,4.55-5,4.55H707Zm4,7.37a2.82,2.82,0,1,0,0-5.64h-1.92v5.64Z"/><path class="cls-14" d="M723.62,256.3h-4.23l-.81,1.95h-2.15l4.05-9.1h2.08l4.07,9.1h-2.21Zm-.67-1.6-1.44-3.49-1.44,3.49Z"/><path class="cls-14" d="M729,250.86H726.1v-1.71H734v1.71h-2.91v7.39H729Z"/><path class="cls-14" d="M742.21,256.56v1.69h-7.05v-9.1H742v1.69h-4.79v2h4.23v1.64h-4.23v2.11Z"/></g></g><line id="Line_1246" data-name="Line 1246" class="cls-15" x1="67.1" y1="158.2" x2="67.1" y2="292.2"/><line id="Line_1247" data-name="Line 1247" class="cls-13" x1="480.1" y1="155.2" x2="480.1" y2="228.2"/><g id="DEFAULT_DATE" data-name="DEFAULT DATE" class="cls-1"><g class="cls-1"><path class="cls-16" d="M769.68,249.15h4.13c3,0,5,1.79,5,4.55s-2,4.55-5,4.55h-4.13Zm4,7.37a2.82,2.82,0,1,0,0-5.64h-1.92v5.64Z"/><path class="cls-16" d="M787.46,256.56v1.69h-7v-9.1h6.87v1.69h-4.78v2h4.23v1.64h-4.23v2.11Z"/><path class="cls-16" d="M791.25,250.84v2.4h4.21v1.69h-4.21v3.32h-2.11v-9.1H796v1.69Z"/><path class="cls-16" d="M803.06,256.3h-4.22l-.81,1.95h-2.16l4.06-9.1H802l4.07,9.1h-2.21Zm-.66-1.6L801,251.21l-1.45,3.49Z"/><path class="cls-16" d="M806.76,254.24v-5.09h2.1v5c0,1.73.76,2.45,2,2.45s2-.72,2-2.45v-5H815v5.09c0,2.68-1.54,4.16-4.12,4.16S806.76,256.92,806.76,254.24Z"/><path class="cls-16" d="M817.08,249.15h2.1v7.38h4.57v1.72h-6.67Z"/><path class="cls-16" d="M826,250.86h-2.91v-1.71H831v1.71h-2.91v7.39H826Z"/><path class="cls-16" d="M835.8,249.15h4.13c3,0,5,1.79,5,4.55s-2,4.55-5,4.55H835.8Zm4,7.37a2.82,2.82,0,1,0,0-5.64H837.9v5.64Z"/><path class="cls-16" d="M852.4,256.3h-4.23l-.8,1.95h-2.16l4-9.1h2.08l4.07,9.1H853.2Zm-.67-1.6-1.44-3.49-1.44,3.49Z"/><path class="cls-16" d="M857.79,250.86h-2.91v-1.71h7.93v1.71H859.9v7.39h-2.11Z"/><path class="cls-16" d="M871,256.56v1.69h-7v-9.1h6.88v1.69H866v2h4.22v1.64H866v2.11Z"/></g></g><path id="Path_334" data-name="Path 334" class="cls-17" d="M706.57,228.44H820.05"/><g id="Rectangle_1159" data-name="Rectangle 1159"><rect class="cls-18" x="814.73" y="222.82" width="10.26" height="10.26" rx="2" transform="translate(78.95 646.49) rotate(-45)"/><rect class="cls-11" x="815.23" y="223.32" width="9.26" height="9.26" rx="1.5" transform="translate(78.95 646.49) rotate(-45)"/></g><g id="Requested" class="cls-1"><g class="cls-1"><path d="M158.78,184.69,157,182.16h-1.93v2.53H153v-9.1h3.94c2.43,0,4,1.27,4,3.31a3,3,0,0,1-1.87,2.87l2,2.92Zm-2-7.38h-1.71v3.17h1.71c1.29,0,1.94-.6,1.94-1.58S158.09,177.31,156.8,177.31Z"/><path d="M169.2,181.77h-5.29a1.87,1.87,0,0,0,2,1.4,2.37,2.37,0,0,0,1.75-.67l1.08,1.17a3.68,3.68,0,0,1-2.89,1.13c-2.41,0-4-1.52-4-3.6a3.56,3.56,0,0,1,3.73-3.6,3.45,3.45,0,0,1,3.64,3.62A5.28,5.28,0,0,1,169.2,181.77Zm-5.31-1.18h3.44a1.74,1.74,0,0,0-3.44,0Z"/><path d="M177.69,177.7v9.52h-2V184a2.68,2.68,0,0,1-2.1.85,3.6,3.6,0,0,1,0-7.2,2.7,2.7,0,0,1,2.19.91v-.81Zm-2,3.5a1.8,1.8,0,1,0-1.79,1.93A1.78,1.78,0,0,0,175.71,181.2Z"/><path d="M186.61,177.7v7h-1.92v-.83a2.86,2.86,0,0,1-2.17.94c-1.76,0-3-1-3-3.15v-4h2v3.65c0,1.17.52,1.69,1.42,1.69s1.61-.59,1.61-1.88V177.7Z"/><path d="M195.31,181.77H190a1.85,1.85,0,0,0,2,1.4,2.37,2.37,0,0,0,1.75-.67l1.08,1.17A3.65,3.65,0,0,1,192,184.8c-2.42,0-4-1.52-4-3.6a3.56,3.56,0,0,1,3.73-3.6,3.46,3.46,0,0,1,3.64,3.62C195.35,181.38,195.32,181.6,195.31,181.77ZM190,180.59h3.45a1.75,1.75,0,0,0-3.45,0Z"/><path d="M196,184l.68-1.45a4.8,4.8,0,0,0,2.43.68c.94,0,1.29-.25,1.29-.64,0-1.15-4.23,0-4.23-2.77,0-1.33,1.2-2.26,3.24-2.26a5.74,5.74,0,0,1,2.69.61l-.68,1.44a4,4,0,0,0-2-.52c-.91,0-1.3.29-1.3.65,0,1.2,4.22,0,4.22,2.8,0,1.3-1.2,2.22-3.3,2.22A6,6,0,0,1,196,184Z"/><path d="M208.11,184.36a2.86,2.86,0,0,1-1.65.44,2.31,2.31,0,0,1-2.61-2.51v-2.87h-1.08v-1.56h1.08v-1.71h2v1.71h1.74v1.56h-1.74v2.84a.82.82,0,0,0,.87.93,1.36,1.36,0,0,0,.82-.26Z"/><path d="M215.85,181.77h-5.29a1.85,1.85,0,0,0,2,1.4,2.37,2.37,0,0,0,1.75-.67l1.08,1.17a3.65,3.65,0,0,1-2.88,1.13c-2.42,0-4-1.52-4-3.6a3.56,3.56,0,0,1,3.73-3.6,3.46,3.46,0,0,1,3.64,3.62C215.89,181.38,215.86,181.6,215.85,181.77Zm-5.32-1.18H214a1.75,1.75,0,0,0-3.45,0Z"/><path d="M224.36,175.05v9.64h-1.93v-.8a2.7,2.7,0,0,1-2.19.91,3.6,3.6,0,0,1,0-7.2,2.67,2.67,0,0,1,2.09.84v-3.39Zm-2,6.15a1.79,1.79,0,1,0-1.78,1.93A1.77,1.77,0,0,0,222.37,181.2Z"/></g></g><g id="Ongoing" class="cls-1"><g class="cls-1"><path class="cls-3" d="M331.25,178.15a5,5,0,1,1,5,4.7A4.71,4.71,0,0,1,331.25,178.15Zm7.82,0a2.85,2.85,0,1,0-2.84,2.91A2.78,2.78,0,0,0,339.07,178.15Z"/><path class="cls-3" d="M349.8,178.69v4h-2V179c0-1.13-.52-1.65-1.42-1.65s-1.68.6-1.68,1.89v3.45h-2v-7h1.93v.82a3.07,3.07,0,0,1,2.32-.92A2.74,2.74,0,0,1,349.8,178.69Z"/><path class="cls-3" d="M358.92,175.7v5.82c0,2.6-1.4,3.8-3.92,3.8a5.71,5.71,0,0,1-3.43-1l.8-1.46a4.19,4.19,0,0,0,2.47.8c1.43,0,2.06-.65,2.06-1.92v-.29a2.91,2.91,0,0,1-2.21.87,3.38,3.38,0,1,1,0-6.76,2.79,2.79,0,0,1,2.31,1v-.9Zm-2,3.28a1.84,1.84,0,1,0-1.83,1.71A1.7,1.7,0,0,0,356.92,179Z"/><path class="cls-3" d="M360.29,179.2a3.85,3.85,0,1,1,3.85,3.6A3.6,3.6,0,0,1,360.29,179.2Zm5.63,0a1.8,1.8,0,1,0-1.78,1.93A1.77,1.77,0,0,0,365.92,179.2Z"/><path class="cls-3" d="M369.08,173.59a1.16,1.16,0,0,1,1.26-1.13,1.14,1.14,0,0,1,1.26,1.1,1.26,1.26,0,0,1-2.52,0Zm.24,2.11h2v7h-2Z"/><path class="cls-3" d="M380.39,178.69v4h-2V179c0-1.13-.52-1.65-1.42-1.65s-1.68.6-1.68,1.89v3.45h-2v-7h1.93v.82a3.07,3.07,0,0,1,2.32-.92A2.74,2.74,0,0,1,380.39,178.69Z"/><path class="cls-3" d="M389.51,175.7v5.82c0,2.6-1.4,3.8-3.92,3.8a5.76,5.76,0,0,1-3.44-1l.81-1.46a4.19,4.19,0,0,0,2.47.8c1.43,0,2.05-.65,2.05-1.92v-.29a2.89,2.89,0,0,1-2.21.87,3.38,3.38,0,1,1,0-6.76,2.8,2.8,0,0,1,2.32,1v-.9Zm-2,3.28a1.84,1.84,0,1,0-1.83,1.71A1.7,1.7,0,0,0,387.51,179Z"/></g></g><g id="In_debt" data-name="In debt" class="cls-1"><g class="cls-1"><path class="cls-14" d="M734.68,205.15h2.11v9.1h-2.11Z"/><path class="cls-14" d="M746,210.24v4h-2v-3.7c0-1.13-.52-1.65-1.41-1.65s-1.68.6-1.68,1.89v3.46h-2v-7h1.94v.82a3,3,0,0,1,2.31-.92A2.74,2.74,0,0,1,746,210.24Z"/><path class="cls-14" d="M758.59,204.6v9.65h-1.94v-.81a2.7,2.7,0,0,1-2.19.91,3.6,3.6,0,0,1,0-7.2,2.71,2.71,0,0,1,2.1.84V204.6Zm-2,6.15a1.8,1.8,0,1,0-1.78,1.94A1.77,1.77,0,0,0,756.6,210.75Z"/><path class="cls-14" d="M767.27,211.32H762a1.86,1.86,0,0,0,2,1.4,2.4,2.4,0,0,0,1.76-.67l1.08,1.17a3.68,3.68,0,0,1-2.89,1.13c-2.42,0-4-1.52-4-3.6a3.56,3.56,0,0,1,3.73-3.6,3.47,3.47,0,0,1,3.64,3.63C767.31,210.93,767.28,211.15,767.27,211.32ZM762,210.14h3.45a1.75,1.75,0,0,0-3.45,0Z"/><path class="cls-14" d="M776.28,210.75a3.4,3.4,0,0,1-3.49,3.6,2.72,2.72,0,0,1-2.19-.91v.81h-1.94V204.6h2V208a2.71,2.71,0,0,1,2.1-.84A3.4,3.4,0,0,1,776.28,210.75Zm-2,0a1.79,1.79,0,1,0-1.79,1.94A1.77,1.77,0,0,0,774.23,210.75Z"/><path class="cls-14" d="M782.14,213.91a2.86,2.86,0,0,1-1.65.44,2.31,2.31,0,0,1-2.61-2.51V209H776.8v-1.56h1.08v-1.7h2v1.7h1.74V209h-1.74v2.85a.81.81,0,0,0,.87.92,1.36,1.36,0,0,0,.82-.26Z"/></g></g><g id="Rectangle_1161" data-name="Rectangle 1161"><rect x="61.36" y="150.59" width="10.26" height="10.26" rx="2" transform="translate(-90.64 92.63) rotate(-45)"/><rect class="cls-11" x="61.86" y="151.09" width="9.26" height="9.26" rx="1.5" transform="translate(-90.64 92.63) rotate(-45)"/></g></g><rect class="cls-19" x="0.39" width="890.61" height="369.52"/></svg>