<svg xmlns="http://www.w3.org/2000/svg" xmlns:xlink="http://www.w3.org/1999/xlink" width="766" height="259" viewBox="0 0 766 259">
  <defs>
    <clipPath id="clip-iPhone_6_7_8_3">
      <rect width="766" height="259"/>
    </clipPath>
  </defs>
  <g id="iPhone_6_7_8_3" data-name="iPhone 6/7/8 – 3" clip-path="url(#clip-iPhone_6_7_8_3)">
    <text id="REQUESTED" transform="translate(14 107.804)" font-size="13" font-family="Montserrat-Bold, Montserrat" font-weight="700"><tspan x="0" y="0">REQUESTED</tspan></text>
    <text id="EXPIRATION" transform="translate(311.625 235.273)" fill="#f24136" font-size="17" font-family="Montserrat-Bold, Montserrat" font-weight="700"><tspan x="0" y="0">EXPIRATION</tspan></text>
    <text id="ON_GOING" data-name="ON GOING" transform="translate(275.18 26)" fill="#4155ff" font-size="13" font-family="Montserrat-Bold, Montserrat" font-weight="700"><tspan x="0" y="0">ON GOING</tspan></text>
    <text id="Installments" transform="translate(373.338 131.873)" fill="#85bf6b" font-size="13" font-family="Montserrat-Bold, Montserrat" font-weight="700"><tspan x="0" y="0">Installments</tspan></text>
    <text id="FINAL_TIME" data-name="FINAL TIME" transform="translate(591.438 132.16)" font-size="13" font-family="Montserrat-Bold, Montserrat" font-weight="700"><tspan x="0" y="0">FINAL TIME</tspan></text>
    <line id="Line_678" data-name="Line 678" x2="209.577" transform="translate(156.923 204.344)" fill="none" stroke="#f24136" stroke-miterlimit="10" stroke-width="2" stroke-dasharray="3 3"/>
    <line id="Line_680" data-name="Line 680" x2="153.869" transform="translate(156.923 105.648)" fill="none" stroke="#000" stroke-miterlimit="10" stroke-width="1"/>
    <text id="_1" data-name="1" transform="translate(408.934 53.977)" font-size="15" font-family="Montserrat-Bold, Montserrat" font-weight="700"><tspan x="0" y="0">1</tspan></text>
    <text id="_2" data-name="2" transform="translate(520.911 53.977)" font-size="15" font-family="Montserrat-Bold, Montserrat" font-weight="700"><tspan x="0" y="0">2</tspan></text>
    <text id="_3" data-name="3" transform="translate(625.001 53.977)" font-size="15" font-family="Montserrat-Bold, Montserrat" font-weight="700"><tspan x="0" y="0">3</tspan></text>
    <ellipse id="Ellipse_109" data-name="Ellipse 109" cx="15.231" cy="15.231" rx="15.231" ry="15.231" transform="translate(395.805 33.522)" fill="none" stroke="#000" stroke-miterlimit="10" stroke-width="1"/>
    <ellipse id="Ellipse_110" data-name="Ellipse 110" cx="15.231" cy="15.231" rx="15.231" ry="15.231" transform="translate(509.449 33.522)" fill="none" stroke="#000" stroke-miterlimit="10" stroke-width="1"/>
    <ellipse id="Ellipse_111" data-name="Ellipse 111" cx="15.231" cy="15.231" rx="15.231" ry="15.231" transform="translate(613.539 33.522)" fill="none" stroke="#000" stroke-miterlimit="10" stroke-width="1"/>
    <path id="Path_233" data-name="Path 233" d="M123.1,0h90.39" transform="translate(-63.878 131.89)" fill="none" stroke="#000" stroke-width="1"/>
    <path id="Path_232" data-name="Path 232" d="M708.19,870.507a7.328,7.328,0,0,0-7.307,7.307v83.677a7.329,7.329,0,0,0,7.307,7.309" transform="translate(-551.268 -764.457)" fill="none" stroke="#000" stroke-miterlimit="10" stroke-width="1"/>
    <rect id="Rectangle_950" data-name="Rectangle 950" width="318.291" height="22.591" transform="translate(310.792 83.058)" fill="#e6e6e6" opacity="0.618"/>
    <line id="Line_687" data-name="Line 687" x2="314.708" transform="translate(310.792 105.648)" fill="none" stroke="#4155ff" stroke-miterlimit="10" stroke-width="1"/>
    <line id="Line_688" data-name="Line 688" y2="31.481" transform="translate(411.393 74.168)" fill="none" stroke="#85bf6b" stroke-miterlimit="10" stroke-width="2"/>
    <line id="Line_689" data-name="Line 689" y2="31.481" transform="translate(525.292 74.168)" fill="none" stroke="#85bf6b" stroke-miterlimit="10" stroke-width="2"/>
    <line id="Line_690" data-name="Line 690" y2="31.481" transform="translate(630.083 74.168)" fill="none" stroke="#85bf6b" stroke-miterlimit="10" stroke-width="2"/>
    <line id="Line_691" data-name="Line 691" y2="58.705" transform="translate(310.267 46.944)" fill="none" stroke="#4155ff" stroke-miterlimit="10" stroke-width="1"/>
    <line id="Line_692" data-name="Line 692" x2="6.84" y2="6.84" transform="translate(303.427 99.636)" fill="none" stroke="#000" stroke-width="1"/>
    <line id="Line_693" data-name="Line 693" x1="6.84" y2="6.84" transform="translate(303.427 105.336)" fill="none" stroke="#000" stroke-width="1"/>
    <g id="Rectangle_1043" data-name="Rectangle 1043" transform="translate(47.637 132.029) rotate(-45)" stroke="#000" stroke-width="1">
      <rect width="10.261" height="10.261" rx="2" stroke="none"/>
      <rect x="0.5" y="0.5" width="9.261" height="9.261" rx="1.5" fill="none"/>
    </g>
    <rect id="Rectangle_1044" data-name="Rectangle 1044" width="10.261" height="10.261" rx="2" transform="translate(302.857 47.664) rotate(-45)" fill="#4155ff"/>
    <g id="Rectangle_1045" data-name="Rectangle 1045" transform="translate(622.869 105.808) rotate(-45)" fill="#afafaf" stroke="#000" stroke-width="1">
      <rect width="10.261" height="10.261" rx="2" stroke="none"/>
      <rect x="0.5" y="0.5" width="9.261" height="9.261" rx="1.5" fill="none"/>
    </g>
    <rect id="Rectangle_1046" data-name="Rectangle 1046" width="10.261" height="10.261" rx="2" transform="translate(358.872 203.854) rotate(-45)" fill="#f24136"/>
    <path id="Path_250" data-name="Path 250" d="M-5.962,0H551.88" transform="translate(156.088 158.74)" fill="none" stroke="#d87d3a" stroke-width="2" stroke-dasharray="3 3"/>
    <rect id="Rectangle_1047" data-name="Rectangle 1047" width="10.261" height="10.261" rx="2" transform="translate(700.713 158.251) rotate(-45)" fill="#d87d3a"/>
    <text id="DUE_TIME" data-name="DUE TIME" transform="translate(661.951 188.551)" fill="#d87d3a" font-size="17" font-family="Montserrat-Bold, Montserrat" font-weight="700"><tspan x="0" y="0">DUE TIME</tspan></text>
  </g>
</svg>
