<svg xmlns="http://www.w3.org/2000/svg" width="79.562" height="79.103" viewBox="0 0 79.562 79.103">
  <g id="Group_357" data-name="Group 357" transform="translate(-2753.763 143.582)">
    <path id="Path_323" data-name="Path 323" d="M2818.287-84.8v4.21a1.154,1.154,0,0,1-1.154,1.155h-36.252a1.154,1.154,0,0,1-1.154-1.155v-36.278a1.154,1.154,0,0,1,1.154-1.155h36.252a1.154,1.154,0,0,1,1.154,1.155l.083,16.16" transform="translate(13.954 13.954)" fill="#ffc400" stroke="#fff" stroke-linecap="round" stroke-linejoin="round" stroke-width="2"/>
    <path id="Path_325" data-name="Path 325" stroke="#fffbef" d="M2800.968-118.022v20.495a1.147,1.147,0,0,1-1.144,1.15h-20.1" fill="none" transform="translate(14 14)" stroke-linecap="round" stroke-linejoin="round" stroke-width="2" stroke-dasharray="5 5"/>
    <path id="Path_324" data-name="Path 324" d="M2792.161-82.538h-35.6a1.8,1.8,0,0,1-1.8-1.8v-56.45a1.8,1.8,0,0,1,1.8-1.8h5.6" fill="none" stroke="#fff" stroke-linecap="round" stroke-linejoin="round" stroke-width="2"/>
    <path id="Path_326" data-name="Path 326" d="M2776.4-142.582h35.137a1.8,1.8,0,0,1,1.8,1.8v35.479" transform="translate(1.477)" fill="none" stroke="#fff" stroke-linecap="round" stroke-linejoin="round" stroke-width="2"/>
  </g>
</svg>
