<svg xmlns="http://www.w3.org/2000/svg" width="75.687" height="75.936" viewBox="0 0 75.687 75.936">
  <g id="Group_251" data-name="Group 251" transform="translate(-301.905 -319.157)">
    <rect id="Rectangle_946" data-name="Rectangle 946" width="19.12" height="19.12" rx="1.682" transform="translate(350.552 347.633) rotate(90)" stroke-width="2" stroke="#fff" stroke-linecap="round" stroke-linejoin="round" fill="none"/>
    <line id="Line_664" data-name="Line 664" y1="7.711" x2="7.711" transform="translate(349.946 339.541)" fill="none" stroke="#fff" stroke-linecap="round" stroke-linejoin="round" stroke-width="2"/>
    <path id="Path_216" data-name="Path 216" d="M355.154,320.157h6.126a2.213,2.213,0,0,1,2.213,2.213v14.693a2.213,2.213,0,0,1-2.213,2.213H346.584a2.213,2.213,0,0,1-2.213-2.213V322.37a2.213,2.213,0,0,1,2.213-2.213h1.653" transform="translate(13.099 0)" fill="#ffc400" stroke="#fff" stroke-linecap="round" stroke-linejoin="round" stroke-width="2"/>
    <path id="Path_217" data-name="Path 217" d="M302.9,369.07v-2.894a2.213,2.213,0,0,1,2.213-2.213h11.864a2.213,2.213,0,0,1,2.213,2.213v11.864a2.213,2.213,0,0,1-2.213,2.213H305.118a2.213,2.213,0,0,1-2.213-2.213v-2.054" transform="translate(0 13.839)" fill="#ffc400" stroke="#fff" stroke-linecap="round" stroke-linejoin="round" stroke-width="2"/>
    <path id="Path_218" data-name="Path 218" d="M356.249,356.193h-7.514a2.213,2.213,0,0,1-2.213-2.213v-8.3a2.213,2.213,0,0,1,2.213-2.213h8.3a2.213,2.213,0,0,1,2.213,2.213v5.748" transform="translate(13.779 7.364)" fill="none" stroke="#fff" stroke-linecap="round" stroke-linejoin="round" stroke-width="2"/>
    <path id="Path_219" data-name="Path 219" d="M327.013,373.69v-7.514a2.213,2.213,0,0,1,2.213-2.213h8.3a2.213,2.213,0,0,1,2.213,2.213v8.3a2.213,2.213,0,0,1-2.213,2.213h-6.7" transform="translate(7.616 13.839)" fill="none" stroke="#fff" stroke-linecap="round" stroke-linejoin="round" stroke-width="2"/>
    <path id="Path_220" data-name="Path 220" d="M318.34,326.139V333.1a2.213,2.213,0,0,1-2.213,2.213h-8.3a2.213,2.213,0,0,1-2.213-2.213v-8.3a2.213,2.213,0,0,1,2.213-2.213h6.322" transform="translate(0.856 0.768)" fill="none" stroke="#fff" stroke-linecap="round" stroke-linejoin="round" stroke-width="2"/>
    <rect id="Rectangle_947" data-name="Rectangle 947" width="9.362" height="9.362" rx="1.682" transform="translate(320.878 352.513) rotate(90)" stroke-width="2" stroke="#fff" stroke-linecap="round" stroke-linejoin="round" fill="#ffc400"/>
    <rect id="Rectangle_948" data-name="Rectangle 948" width="9.362" height="9.362" rx="1.682" transform="translate(345.673 325.036) rotate(90)" stroke-width="2" stroke="#fff" stroke-linecap="round" stroke-linejoin="round" fill="none"/>
    <rect id="Rectangle_949" data-name="Rectangle 949" width="9.362" height="9.362" rx="1.682" transform="translate(374.709 382.848) rotate(90)" stroke-width="2" stroke="#fff" stroke-linecap="round" stroke-linejoin="round" fill="#ffc400"/>
    <line id="Line_665" data-name="Line 665" y1="11.864" x2="12.783" transform="translate(318.598 366.642)" fill="none" stroke="#fff" stroke-linecap="round" stroke-linejoin="round" stroke-width="2"/>
    <line id="Line_666" data-name="Line 666" x2="10.554" transform="translate(320.878 356.901)" fill="none" stroke="#fff" stroke-linecap="round" stroke-linejoin="round" stroke-width="2"/>
    <line id="Line_667" data-name="Line 667" x2="8.526" transform="translate(350.552 357.193)" fill="none" stroke="#fff" stroke-linecap="round" stroke-linejoin="round" stroke-width="2"/>
    <line id="Line_668" data-name="Line 668" x2="13.221" y2="12.839" transform="translate(318.984 335.689)" fill="none" stroke="#fff" stroke-linecap="round" stroke-linejoin="round" stroke-width="2"/>
    <line id="Line_669" data-name="Line 669" x2="15.87" y2="17.593" transform="translate(350.06 365.977)" fill="none" stroke="#fff" stroke-linecap="round" stroke-linejoin="round" stroke-width="2"/>
    <path id="Path_318" data-name="Path 318" d="M0,0V10.49" transform="translate(340.992 366.754)" fill="none" stroke="#fff" stroke-linecap="round" stroke-width="2"/>
    <line id="Line_671" data-name="Line 671" y2="13.235" transform="translate(340.992 334.398)" fill="none" stroke="#fff" stroke-linecap="round" stroke-linejoin="round" stroke-width="2"/>
  </g>
</svg>
