<svg xmlns="http://www.w3.org/2000/svg" width="73.75" height="77.478" viewBox="0 0 73.75 77.478">
  <g id="Group_351" data-name="Group 351" transform="translate(-1900.161 -312.042)">
    <path id="Path_251" data-name="Path 251" d="M1931.461,370.345a9.529,9.529,0,1,0-9.529-9.529,9.529,9.529,0,0,0,9.529,9.529" fill="#ffc400" stroke="#4352ff" stroke-linecap="round" stroke-miterlimit="10" stroke-width="2"/>
    <path id="Path_252" data-name="Path 252" d="M1944.489,365.714a9.53,9.53,0,1,0-5.056-16.4" fill="none" stroke="#4352ff" stroke-linecap="round" stroke-miterlimit="10" stroke-width="2"/>
    <path id="Path_253" data-name="Path 253" d="M1941.872,342.241a9.533,9.533,0,0,0-17.685,6.639" fill="none" stroke="#4352ff" stroke-linecap="round" stroke-miterlimit="10" stroke-width="2"/>
    <path id="Path_254" data-name="Path 254" d="M1901.342,348.88a36.056,36.056,0,0,0,71.569,8.654" fill="none" stroke="#4352ff" stroke-linecap="round" stroke-linejoin="round" stroke-width="2"/>
    <path id="Path_255" data-name="Path 255" d="M1960.342,324.682a36.074,36.074,0,0,0-56.481,14.042" fill="none" stroke="#4352ff" stroke-linecap="round" stroke-linejoin="round" stroke-width="2"/>
    <path id="Path_256" data-name="Path 256" d="M1960.889,313.042l.933,10.327a2.672,2.672,0,0,1-2.42,2.9l-10.328.933" fill="none" stroke="#4352ff" stroke-linecap="round" stroke-miterlimit="10" stroke-width="2"/>
  </g>
</svg>
