<svg xmlns="http://www.w3.org/2000/svg" width="74.051" height="74.051" viewBox="0 0 74.051 74.051">
  <g id="Group_350" data-name="Group 350" transform="translate(-2464.675 -313.69)">
    <path id="Path_249" data-name="Path 249" d="M2488.048,377.115l-19.526-19.527a9.719,9.719,0,0,1,0-13.745l26.3-26.306a9.722,9.722,0,0,1,13.746,0" fill="none" stroke="#4352ff" stroke-linecap="round" stroke-miterlimit="10" stroke-width="2"/>
    <path id="Path_250" data-name="Path 250" d="M2534.878,343.843a9.718,9.718,0,0,1,0,13.745l-26.3,26.306a9.72,9.72,0,0,1-13.746,0l-2.269-2.269" fill="none" stroke="#4352ff" stroke-linecap="round" stroke-miterlimit="10" stroke-width="2"/>
    <line id="Line_948" data-name="Line 948" x2="7.202" y2="7.202" transform="translate(2512.859 321.823)" fill="none" stroke="#4352ff" stroke-linecap="round" stroke-miterlimit="10" stroke-width="2"/>
    <rect id="Rectangle_1027" data-name="Rectangle 1027" width="7.682" height="7.682" rx="1.682" transform="translate(2492.558 338.077) rotate(45)" fill="#ffc400" stroke="#4352ff" stroke-miterlimit="10" stroke-width="2"/>
    <line id="Line_949" data-name="Line 949" y1="22.893" x2="21.43" transform="translate(2490.193 340.413)" fill="none" stroke="#4352ff" stroke-linecap="round" stroke-miterlimit="10" stroke-width="2"/>
    <rect id="Rectangle_1028" data-name="Rectangle 1028" width="7.682" height="7.682" rx="1.682" transform="translate(2509.876 355.395) rotate(45)" fill="#ffc400" stroke="#4352ff" stroke-miterlimit="10" stroke-width="2"/>
  </g>
</svg>
