<svg xmlns="http://www.w3.org/2000/svg" width="83.254" height="69.194" viewBox="0 0 83.254 69.194">
  <g id="Group_353" data-name="Group 353" transform="translate(-1907.709 150.128)">
    <path id="Path_317" data-name="Path 317" d="M1965.4-90.606v3.864a4.808,4.808,0,0,1-4.808,4.808h-47.072a4.807,4.807,0,0,1-4.808-4.808V-144.32a4.807,4.807,0,0,1,4.808-4.808h47.072a4.808,4.808,0,0,1,4.808,4.808v5.965" fill="none" stroke="#fff" stroke-linecap="round" stroke-linejoin="round" stroke-width="2"/>
    <rect id="Rectangle_1144" data-name="Rectangle 1144" width="8.879" height="8.879" rx="0.99" transform="translate(1928.956 -118.223)" fill="#ffc400" stroke="#fff" stroke-linecap="round" stroke-miterlimit="10" stroke-width="2"/>
    <line id="Line_1221" data-name="Line 1221" x2="9.121" transform="translate(1937.835 -113.784)" fill="none" stroke="#fff" stroke-linecap="round" stroke-miterlimit="10" stroke-width="2"/>
    <line id="Line_1222" data-name="Line 1222" x2="19.805" transform="translate(1954.38 -113.784)" fill="none" stroke="#fff" stroke-linecap="round" stroke-miterlimit="10" stroke-width="2"/>
    <rect id="Rectangle_1145" data-name="Rectangle 1145" width="8.879" height="8.879" rx="0.99" transform="translate(1941.668 -132.137)" fill="#ffc400" stroke="#fff" stroke-linecap="round" stroke-miterlimit="10" stroke-width="2"/>
    <line id="Line_1223" data-name="Line 1223" x2="9.121" transform="translate(1950.547 -127.698)" fill="none" stroke="#fff" stroke-linecap="round" stroke-miterlimit="10" stroke-width="2"/>
    <line id="Line_1224" data-name="Line 1224" x2="8.201" transform="translate(1967.091 -127.698)" fill="none" stroke="#fff" stroke-linecap="round" stroke-miterlimit="10" stroke-width="2"/>
    <rect id="Rectangle_1146" data-name="Rectangle 1146" width="8.879" height="8.879" rx="0.99" transform="translate(1942.843 -104.337)" fill="#ffc400" stroke="#fff" stroke-linecap="round" stroke-miterlimit="10" stroke-width="2"/>
    <line id="Line_1225" data-name="Line 1225" x2="9.121" transform="translate(1951.722 -99.897)" fill="none" stroke="#fff" stroke-linecap="round" stroke-miterlimit="10" stroke-width="2"/>
    <line id="Line_1226" data-name="Line 1226" x2="21.697" transform="translate(1968.266 -99.897)" fill="none" stroke="#fff" stroke-linecap="round" stroke-miterlimit="10" stroke-width="2"/>
  </g>
</svg>
