<svg xmlns="http://www.w3.org/2000/svg" xmlns:xlink="http://www.w3.org/1999/xlink" width="86" height="86" viewBox="0 0 86 86">
  <defs>
    <clipPath id="clip-Artboard_23">
      <rect width="86" height="86"/>
    </clipPath>
  </defs>
  <g id="Artboard_23" data-name="Artboard – 23" clip-path="url(#clip-Artboard_23)">
    <g id="Group_482" data-name="Group 482">
      <g id="Group_261" data-name="Group 261" transform="translate(-1459.238 -195.371)">
        <path id="Path_234" data-name="Path 234" d="M1520,229.1h10.753a2.367,2.367,0,0,1,2.367,2.367v37.71" fill="none" stroke="#fff" stroke-linecap="round" stroke-linejoin="round" stroke-width="2"/>
        <path id="Path_235" data-name="Path 235" d="M1473.241,269.077V231.465a2.367,2.367,0,0,1,2.367-2.367h12.582" fill="none" stroke="#fff" stroke-linecap="round" stroke-linejoin="round" stroke-width="2"/>
        <path id="Path_236" data-name="Path 236" d="M1477.305,269.189l-7.067-.014v4.285a2.8,2.8,0,0,0,2.8,2.8h59.971a2.8,2.8,0,0,0,2.8-2.8v-4.187l-27.147-.04a18.809,18.809,0,0,1-13.627-.021l-6.475-.013" fill="none" stroke="#fff" stroke-linecap="round" stroke-linejoin="round" stroke-width="2"/>
        <rect id="Rectangle_951" data-name="Rectangle 951" width="6.31" height="6.31" rx="1.682" transform="translate(1513.738 209.627) rotate(45)" fill="#ffc400" stroke="#fff" stroke-miterlimit="10" stroke-width="2"/>
        <rect id="Rectangle_952" data-name="Rectangle 952" width="6.31" height="6.31" rx="1.682" transform="translate(1503.905 198.371) rotate(45)" fill="#ffc400" stroke="#fff" stroke-miterlimit="10" stroke-width="2"/>
        <rect id="Rectangle_953" data-name="Rectangle 953" width="6.31" height="6.31" rx="1.682" transform="translate(1494.839 213.848) rotate(45)" fill="#ffc400" stroke="#fff" stroke-miterlimit="10" stroke-width="2"/>
        <line id="Line_694" data-name="Line 694" y1="22.293" transform="translate(1494.839 222.145)" fill="none" stroke="#fff" stroke-linecap="round" stroke-miterlimit="10" stroke-width="2"/>
        <line id="Line_695" data-name="Line 695" y1="31.15" transform="translate(1503.905 206.612)" fill="none" stroke="#fff" stroke-linecap="round" stroke-miterlimit="10" stroke-width="2"/>
        <line id="Line_696" data-name="Line 696" y1="18.399" transform="translate(1513.738 217.924)" fill="none" stroke="#fff" stroke-linecap="round" stroke-miterlimit="10" stroke-width="2"/>
      </g>
      <rect id="Rectangle_1264" data-name="Rectangle 1264" width="86" height="86" fill="none"/>
    </g>
  </g>
</svg>
