<svg xmlns="http://www.w3.org/2000/svg" xmlns:xlink="http://www.w3.org/1999/xlink" width="86" height="86" viewBox="0 0 86 86">
  <defs>
    <clipPath id="clip-Artboard_24">
      <rect width="86" height="86"/>
    </clipPath>
  </defs>
  <g id="Artboard_24" data-name="Artboard – 24" clip-path="url(#clip-Artboard_24)">
    <g id="Group_483" data-name="Group 483">
      <g id="Group_256" data-name="Group 256" transform="translate(-380.983 106.976)">
        <g id="Layer_2" data-name="Layer 2" transform="translate(398.151 -63.636)">
          <g id="Group_241" data-name="Group 241">
            <path id="_Path_2" data-name=" Path 2" d="M417.119-55.719H405.051a7.16,7.16,0,0,0-6.868,5.779,7.026,7.026,0,0,0,6.951,5.7h37.1V-49" transform="translate(-398.183 55.719)" fill="none" stroke="#fff" stroke-linecap="round" stroke-miterlimit="10" stroke-width="2"/>
          </g>
        </g>
        <path id="Path_214" data-name="Path 214" d="M442.957-43.046h4.024a3.186,3.186,0,0,1,3.186,3.187V-18.5a3.186,3.186,0,0,1-3.186,3.186H405.018a7.076,7.076,0,0,1-7.035-7.035V-47.479a6.5,6.5,0,0,1,.168-1.34,7.076,7.076,0,0,0,6.867,5.779h37.939Z" transform="translate(0 -9.038)" fill="none" stroke="#fff" stroke-linejoin="round" stroke-width="2"/>
        <rect id="Rectangle_942" data-name="Rectangle 942" width="4.441" height="4.441" rx="1.682" transform="translate(442.203 -42.197) rotate(45)" fill="none" stroke="#fff" stroke-miterlimit="10" stroke-width="2"/>
        <path id="Path_215" data-name="Path 215" d="M437.937-55.719h7.572a3.187,3.187,0,0,1,3.187,3.187v8.371" transform="translate(-6.492 -7.917)" fill="none" stroke="#fff" stroke-linecap="round" stroke-miterlimit="10" stroke-width="2"/>
        <g id="Group_242" data-name="Group 242" transform="translate(419.942 -100.403)">
          <rect id="Rectangle_943" data-name="Rectangle 943" width="5.989" height="5.989" rx="1.682" transform="translate(4.235 26.469) rotate(45)" fill="#ffc400" stroke="#fff" stroke-miterlimit="10" stroke-width="2"/>
          <line id="Line_661" data-name="Line 661" y1="27.076" transform="translate(4.235)" fill="none" stroke="#fff" stroke-linecap="round" stroke-miterlimit="10" stroke-width="2"/>
        </g>
        <g id="Group_243" data-name="Group 243" transform="translate(409.055 -104.437)">
          <rect id="Rectangle_944" data-name="Rectangle 944" width="5.989" height="5.989" rx="1.682" transform="translate(4.235 15.428) rotate(45)" fill="#ffc400" stroke="#fff" stroke-miterlimit="10" stroke-width="2"/>
          <line id="Line_662" data-name="Line 662" y1="15.309" transform="translate(4.235)" fill="none" stroke="#fff" stroke-linecap="round" stroke-miterlimit="10" stroke-width="2"/>
        </g>
        <g id="Group_244" data-name="Group 244" transform="translate(429.992 -92.712)">
          <rect id="Rectangle_945" data-name="Rectangle 945" width="5.989" height="5.989" rx="1.682" transform="translate(4.235 7.053) rotate(45)" fill="#ffc400" stroke="#fff" stroke-miterlimit="10" stroke-width="2"/>
          <line id="Line_663" data-name="Line 663" y1="6.934" transform="translate(4.235)" fill="none" stroke="#fff" stroke-linecap="round" stroke-miterlimit="10" stroke-width="2"/>
        </g>
      </g>
      <rect id="Rectangle_1264" data-name="Rectangle 1264" width="86" height="86" fill="none"/>
    </g>
  </g>
</svg>
