<svg xmlns="http://www.w3.org/2000/svg" width="575.905" height="422.417" viewBox="0 0 575.905 422.417">
  <g id="Group_354" data-name="Group 354" transform="translate(-727 -639)">
    <g id="Group_334" data-name="Group 334" transform="translate(727 648.623)">
      <path id="Rectangle_1092" data-name="Rectangle 1092" d="M0,0H78.764a30,30,0,0,1,30,30v78.764a0,0,0,0,1,0,0H0a0,0,0,0,1,0,0V0A0,0,0,0,1,0,0Z" transform="translate(316.547 151.877)" fill="none" stroke="#4150ff" stroke-miterlimit="10" stroke-width="2"/>
      <rect id="Rectangle_1093" data-name="Rectangle 1093" width="108.764" height="108.764" transform="translate(207.783 260.641)" fill="none" stroke="#4150ff" stroke-miterlimit="10" stroke-width="2"/>
      <rect id="Rectangle_1094" data-name="Rectangle 1094" width="108.764" height="108.764" transform="translate(316.547 260.641)" fill="none" stroke="#4150ff" stroke-miterlimit="10" stroke-width="2"/>
      <path id="Rectangle_1095" data-name="Rectangle 1095" d="M30,0h78.764a0,0,0,0,1,0,0V108.764a0,0,0,0,1,0,0H0a0,0,0,0,1,0,0V30A30,30,0,0,1,30,0Z" transform="translate(99.019 260.641)" fill="none" stroke="#4150ff" stroke-miterlimit="10" stroke-width="2"/>
      <rect id="Rectangle_1097" data-name="Rectangle 1097" width="108.764" height="108.764" transform="translate(259.518 208.906)" fill="none" stroke="#4150ff" stroke-miterlimit="10" stroke-width="2"/>
      <rect id="Rectangle_1098" data-name="Rectangle 1098" width="108.764" height="108.764" transform="translate(368.283 208.906)" fill="none" stroke="#4150ff" stroke-miterlimit="10" stroke-width="2"/>
      <path id="Rectangle_1099" data-name="Rectangle 1099" d="M30,0h78.764a0,0,0,0,1,0,0V108.764a0,0,0,0,1,0,0H0a0,0,0,0,1,0,0V30A30,30,0,0,1,30,0Z" transform="translate(150.754 208.906)" fill="none" stroke="#4150ff" stroke-miterlimit="10" stroke-width="2"/>
      <line id="Line_1102" data-name="Line 1102" y1="51.735" x2="51.735" transform="translate(425.312 317.67)" fill="none" stroke="#4150ff" stroke-miterlimit="10" stroke-width="2"/>
      <line id="Line_1103" data-name="Line 1103" y1="51.735" x2="51.735" transform="translate(99.019 317.67)" fill="none" stroke="#4150ff" stroke-miterlimit="10" stroke-width="2"/>
      <line id="Line_1104" data-name="Line 1104" y1="51.735" x2="51.735" transform="translate(207.783 317.67)" fill="none" stroke="#4150ff" stroke-miterlimit="10" stroke-width="2"/>
      <line id="Line_1105" data-name="Line 1105" y1="51.735" x2="51.735" transform="translate(316.547 317.67)" fill="none" stroke="#4150ff" stroke-miterlimit="10" stroke-width="2"/>
      <line id="Line_1106" data-name="Line 1106" y1="51.735" x2="51.735" transform="translate(207.783 208.906)" fill="none" stroke="#4150ff" stroke-miterlimit="10" stroke-width="2"/>
      <line id="Line_1107" data-name="Line 1107" y1="51.735" x2="51.735" transform="translate(316.547 208.906)" fill="none" stroke="#4150ff" stroke-miterlimit="10" stroke-width="2"/>
      <line id="Line_1108" data-name="Line 1108" y1="51.735" x2="51.735" transform="translate(425.312 208.906)" fill="none" stroke="#4150ff" stroke-miterlimit="10" stroke-width="2"/>
      <line id="Line_1109" data-name="Line 1109" y1="51.735" x2="51.735" transform="translate(419.276 108.764)" fill="none" stroke="#4150ff" stroke-miterlimit="10" stroke-width="2"/>
      <line id="Line_1110" data-name="Line 1110" y1="51.735" x2="51.735" transform="translate(316.547 100.142)" fill="none" stroke="#4150ff" stroke-miterlimit="10" stroke-width="2"/>
      <line id="Line_1111" data-name="Line 1111" y1="51.735" x2="51.735" transform="translate(207.783 100.142)" fill="none" stroke="#4150ff" stroke-miterlimit="10" stroke-width="2"/>
      <line id="Line_1112" data-name="Line 1112" y1="51.735" x2="51.735" transform="translate(109.366 214.08)" fill="none" stroke="#4150ff" stroke-miterlimit="10" stroke-width="2"/>
      <line id="Line_1113" data-name="Line 1113" x2="503.166" transform="translate(17.245 369.406)" fill="none" stroke="#4150ff" stroke-miterlimit="10" stroke-width="2" stroke-dasharray="5 5"/>
      <line id="Line_1114" data-name="Line 1114" x2="503.166" transform="translate(36.45 343.538)" fill="none" stroke="#4150ff" stroke-miterlimit="10" stroke-width="2" stroke-dasharray="5 5"/>
      <line id="Line_1115" data-name="Line 1115" x2="503.166" transform="translate(55.494 317.67)" fill="none" stroke="#4150ff" stroke-miterlimit="10" stroke-width="2" stroke-dasharray="5 5"/>
      <line id="Line_1116" data-name="Line 1116" y2="152.775" transform="translate(99.019 216.631)" fill="none" stroke="#4150ff" stroke-miterlimit="10" stroke-width="2" stroke-dasharray="5 5"/>
      <line id="Line_1118" data-name="Line 1118" y2="152.775" transform="translate(150.754 164.895)" fill="none" stroke="#4150ff" stroke-miterlimit="10" stroke-width="2" stroke-dasharray="5 5"/>
      <line id="Line_1119" data-name="Line 1119" y2="152.775" transform="translate(207.783 113.16)" fill="none" stroke="#4150ff" stroke-miterlimit="10" stroke-width="2" stroke-dasharray="5 5"/>
      <path id="Path_314" data-name="Path 314" d="M0,177.181" transform="translate(233.651 167.539)" fill="none" stroke="#4150ff" stroke-width="2" stroke-dasharray="5 5"/>
      <line id="Line_1121" data-name="Line 1121" y2="152.775" transform="translate(259.519 61.132)" fill="none" stroke="#4150ff" stroke-miterlimit="10" stroke-width="2" stroke-dasharray="5 5"/>
      <line id="Line_1122" data-name="Line 1122" y2="275.203" transform="translate(316.547 94.202)" fill="none" stroke="#4150ff" stroke-miterlimit="10" stroke-width="2" stroke-dasharray="5 5"/>
      <line id="Line_1124" data-name="Line 1124" y2="275.203" transform="translate(368.283 42.79)" fill="none" stroke="#4150ff" stroke-miterlimit="10" stroke-width="2" stroke-dasharray="5 5"/>
      <line id="Line_1125" data-name="Line 1125" y2="152.775" transform="translate(425.312 216.631)" fill="none" stroke="#4150ff" stroke-miterlimit="10" stroke-width="2" stroke-dasharray="5 5"/>
      <line id="Line_1127" data-name="Line 1127" y1="134.763" x2="134.763" transform="translate(56.338 277.323)" fill="none" stroke="#4150ff" stroke-miterlimit="10" stroke-width="2" stroke-dasharray="5 5"/>
      <line id="Line_1128" data-name="Line 1128" y1="134.763" x2="134.763" transform="translate(274.164 277.323)" fill="none" stroke="#4150ff" stroke-miterlimit="10" stroke-width="2" stroke-dasharray="5 5"/>
      <line id="Line_1129" data-name="Line 1129" y1="134.763" x2="134.763" transform="translate(165.102 277.323)" fill="none" stroke="#4150ff" stroke-miterlimit="10" stroke-width="2" stroke-dasharray="5 5"/>
      <line id="Line_1130" data-name="Line 1130" y1="134.763" x2="134.763" transform="translate(382.631 277.323)" fill="none" stroke="#4150ff" stroke-miterlimit="10" stroke-width="2" stroke-dasharray="5 5"/>
      <path id="Rectangle_1102" data-name="Rectangle 1102" d="M0,0H78.764a30,30,0,0,1,30,30v78.764a0,0,0,0,1,0,0H0a0,0,0,0,1,0,0V0A0,0,0,0,1,0,0Z" transform="translate(368.283 100.142)" fill="none" stroke="#4150ff" stroke-miterlimit="10" stroke-width="2"/>
      <line id="Line_1131" data-name="Line 1131" y1="51.735" x2="51.735" transform="translate(310.512)" fill="none" stroke="#4150ff" stroke-miterlimit="10" stroke-width="2"/>
      <line id="Line_1132" data-name="Line 1132" y1="51.735" x2="51.735" transform="translate(214.681)" fill="none" stroke="#4150ff" stroke-miterlimit="10" stroke-width="2"/>
      <rect id="Rectangle_1103" data-name="Rectangle 1103" width="108.764" height="108.764" transform="translate(207.783 260.641)" fill="#4150ff" opacity="0.43"/>
      <rect id="Rectangle_1104" data-name="Rectangle 1104" width="108.764" height="108.764" transform="translate(316.547 260.641)" fill="#4150ff" opacity="0.43"/>
      <path id="Rectangle_1105" data-name="Rectangle 1105" d="M30,0h78.764a0,0,0,0,1,0,0V108.764a0,0,0,0,1,0,0H0a0,0,0,0,1,0,0V30A30,30,0,0,1,30,0Z" transform="translate(99.019 260.641)" fill="#4150ff" opacity="0.43"/>
      <path id="Rectangle_1106" data-name="Rectangle 1106" d="M0,0H78.764a30,30,0,0,1,30,30v78.764a0,0,0,0,1,0,0H0a0,0,0,0,1,0,0V0A0,0,0,0,1,0,0Z" transform="translate(316.547 151.877)" fill="#4150ff" opacity="0.43"/>
      <path id="Rectangle_1107" data-name="Rectangle 1107" d="M30,0H78.764a30,30,0,0,1,30,30v78.764a0,0,0,0,1,0,0H0a0,0,0,0,1,0,0V30A30,30,0,0,1,30,0Z" transform="translate(207.783 43.113)" fill="#4150ff" opacity="0.43"/>
      <line id="Line_1133" data-name="Line 1133" x2="503.166" transform="translate(0 395.273)" fill="none" stroke="#4150ff" stroke-miterlimit="10" stroke-width="2" stroke-dasharray="5 5"/>
      <line id="Line_1134" data-name="Line 1134" x2="503.166" transform="translate(72.739 291.803)" fill="none" stroke="#4150ff" stroke-miterlimit="10" stroke-width="2" stroke-dasharray="5 5"/>
      <path id="Rectangle_1143" data-name="Rectangle 1143" d="M30,0H78.764a30,30,0,0,1,30,30v78.764a0,0,0,0,1,0,0H0a0,0,0,0,1,0,0V30A30,30,0,0,1,30,0Z" transform="translate(207.783 43.112)" fill="none" stroke="#4155ff" stroke-width="2" opacity="0.998"/>
    </g>
    <path id="Path_316" data-name="Path 316" d="M25.868,0H82.9a25.868,25.868,0,0,1,25.868,25.868v82.9H0v-82.9A25.868,25.868,0,0,1,25.868,0Z" transform="translate(986.518 640)" fill="none" stroke="#4155ff" stroke-width="2" opacity="0.998"/>
  </g>
</svg>
