<svg xmlns="http://www.w3.org/2000/svg" width="111.195" height="40.688" viewBox="0 0 111.195 40.688">
  <g id="isologotypo" transform="translate(-7.231 -9.392)">
    <path id="Path_241" data-name="Path 241" d="M201,66.733V46.449h8.972a5.774,5.774,0,0,1,2.584.585,6.717,6.717,0,0,1,2.045,1.545,7.254,7.254,0,0,1,1.34,2.17,6.532,6.532,0,0,1,.486,2.442,6.734,6.734,0,0,1-.985,3.587,5.663,5.663,0,0,1-2.67,2.329l4.626,7.625h-4.43l-4.144-6.8h-3.882v6.8Zm3.945-10.255h4.942a2.07,2.07,0,0,0,1.014-.258,2.616,2.616,0,0,0,.815-.7,3.516,3.516,0,0,0,.542-1.042,4.124,4.124,0,0,0,.2-1.287,3.655,3.655,0,0,0-.23-1.315,3.391,3.391,0,0,0-.613-1.042,2.738,2.738,0,0,0-.886-.684,2.3,2.3,0,0,0-1.014-.244h-4.771Z" transform="translate(-138.738 -26.533)"/>
    <path id="Path_242" data-name="Path 242" d="M263.56,56.156a10.547,10.547,0,0,1,.67-3.672,10,10,0,0,1,1.96-3.24,9.852,9.852,0,0,1,3.141-2.315,9.7,9.7,0,0,1,4.229-.886,9.233,9.233,0,0,1,4.842,1.227,7.867,7.867,0,0,1,3.042,3.2l-3.027,2.09a5.223,5.223,0,0,0-.971-1.443,4.889,4.889,0,0,0-1.23-.929,5.581,5.581,0,0,0-1.369-.5,6.671,6.671,0,0,0-1.4-.156,5.356,5.356,0,0,0-2.587.6,5.68,5.68,0,0,0-1.826,1.559,6.833,6.833,0,0,0-1.088,2.164,8.235,8.235,0,0,0-.372,2.414A7.952,7.952,0,0,0,268,58.856a6.879,6.879,0,0,0,1.216,2.184,6.041,6.041,0,0,0,1.886,1.514,5.155,5.155,0,0,0,2.414.568,6.4,6.4,0,0,0,1.42-.17,5.456,5.456,0,0,0,1.42-.542,5.326,5.326,0,0,0,1.241-.957,4.371,4.371,0,0,0,.914-1.42l3.229,1.857a6.1,6.1,0,0,1-1.386,2.014,8.863,8.863,0,0,1-2.028,1.471,10.364,10.364,0,0,1-2.414.914,10.539,10.539,0,0,1-2.513.315,8.673,8.673,0,0,1-3.976-.914,10.384,10.384,0,0,1-3.1-2.386,11.108,11.108,0,0,1-2.028-3.343A10.432,10.432,0,0,1,263.56,56.156Z" transform="translate(-183.531 -26.24)"/>
    <path id="Path_243" data-name="Path 243" d="M340.842,53.735v13H336.9V46.45h3.056l10.571,13.314V46.478h3.942V66.733h-3.2Z" transform="translate(-236.042 -26.534)"/>
    <path id="Path_244" data-name="Path 244" d="M53.109,20.518a1.42,1.42,0,0,0-.721-.8,1.38,1.38,0,0,0-.6-.136,1.42,1.42,0,0,0-1.269.8A24.425,24.425,0,0,1,49.28,22.66,20.34,20.34,0,0,0,10.173,33.233a26.106,26.106,0,0,0-2.814,4.629,1.405,1.405,0,1,0,2.539,1.2,23.749,23.749,0,0,1,1.235-2.272A20.337,20.337,0,0,0,50.24,26.232,26.105,26.105,0,0,0,53.055,21.6a1.394,1.394,0,0,0,.054-1.085Zm-5.373,9.21a17.529,17.529,0,0,1-34.543,4.217A26.116,26.116,0,0,1,26.537,25.9a39.113,39.113,0,0,1,8.744-1.338l-4.195,4.2,1.988,1.988,7.6-7.611-8.659-8.662L30.03,16.466l5.288,5.282a41.586,41.586,0,0,0-9.449,1.42,31.808,31.808,0,0,0-10.13,4.686,25.844,25.844,0,0,0-3.047,2.539c0-.222-.014-.446-.014-.667A17.529,17.529,0,0,1,47.21,25.508a25.957,25.957,0,0,1-13.334,8.046,39.113,39.113,0,0,1-8.747,1.338l4.189-4.2L27.33,28.7l-7.594,7.611,8.659,8.662,1.988-1.988L25.1,37.7a41.632,41.632,0,0,0,9.449-1.42A31.808,31.808,0,0,0,44.677,31.6a25.884,25.884,0,0,0,3.047-2.539C47.73,29.28,47.735,29.5,47.735,29.728Z" transform="translate(0 0)" fill="#4155ff"/>
  </g>
</svg>
