<svg id="Capa_1" data-name="Capa 1" xmlns="http://www.w3.org/2000/svg" xmlns:xlink="http://www.w3.org/1999/xlink" viewBox="0 0 891 369.52"><defs><style>.cls-1,.cls-5,.cls-6,.cls-8,.cls-9{fill:none;}.cls-2{clip-path:url(#clip-path);}.cls-3{fill:#404fff;}.cls-3,.cls-5,.cls-6,.cls-7,.cls-8,.cls-9{stroke:#000;}.cls-4{fill:#696969;}.cls-5,.cls-6{stroke-miterlimit:10;}.cls-5{stroke-width:0.5px;}.cls-10,.cls-7{fill:#fff;}.cls-8{stroke-dasharray:2 0;}</style><clipPath id="clip-path"><rect class="cls-1" x="1.6" y="0.88" width="889" height="366"/></clipPath></defs><title>esquemas</title><rect class="cls-1" x="0.39" y="0.12" width="891" height="369.52"/><g class="cls-2"><g id="iPhone_6_7_8_1" data-name="iPhone 6 7 8 1"><circle id="Ellipse_108" data-name="Ellipse 108" class="cls-3" cx="574.76" cy="63.16" r="48.7"/><g id="Skin_in_the_game" data-name="Skin in the game"><path class="cls-4" d="M325.2,280.23l.48-1a4.69,4.69,0,0,0,3,1c1.57,0,2.25-.61,2.25-1.4,0-2.23-5.51-.82-5.51-4.2,0-1.41,1.09-2.6,3.48-2.6a5.41,5.41,0,0,1,2.93.8l-.43,1a4.8,4.8,0,0,0-2.5-.74c-1.55,0-2.21.65-2.21,1.44,0,2.23,5.51.84,5.51,4.18,0,1.39-1.11,2.58-3.52,2.58A5.33,5.33,0,0,1,325.2,280.23Z"/><path class="cls-4" d="M336.6,278.06l-1.43,1.33v1.88h-1.25v-9.65h1.25v6.19l3.75-3.43h1.51l-2.9,2.85,3.19,4h-1.54Z"/><path class="cls-4" d="M341.6,272.25a.82.82,0,0,1,.82-.82h0a.8.8,0,0,1,.84.76v0a.85.85,0,0,1-1.69,0Zm.23,2.13h1.24v6.89h-1.24Z"/><path class="cls-4" d="M352,277.31v4h-1.25v-3.82c0-1.35-.67-2-1.86-2a2,2,0,0,0-2.19,1.9,1.7,1.7,0,0,0,0,.39v3.55h-1.25v-6.95h1.2v1a3,3,0,0,1,2.48-1.1,2.68,2.68,0,0,1,2.88,2.45A2.82,2.82,0,0,1,352,277.31Z"/><path class="cls-4" d="M357.6,272.25a.82.82,0,0,1,.82-.82h0a.8.8,0,0,1,.84.76v0a.85.85,0,0,1-1.69,0Zm.22,2.13h1.25v6.89h-1.25Z"/><path class="cls-4" d="M368,277.31v4h-1.25v-3.82c0-1.35-.67-2-1.86-2a2,2,0,0,0-2.19,1.9,1.7,1.7,0,0,0,0,.39v3.55h-1.25v-6.95h1.16v1a2.93,2.93,0,0,1,2.48-1.1,2.68,2.68,0,0,1,2.9,3Z"/><path class="cls-4" d="M377.66,280.88a2.32,2.32,0,0,1-1.5.48,2,2,0,0,1-2.19-1.79,2.29,2.29,0,0,1,0-.37v-3.78H372.8v-1H374v-1.54h1.25v1.51h2v1h-2v3.73a1,1,0,0,0,.82,1.15.76.76,0,0,0,.26,0,1.58,1.58,0,0,0,1-.33Z"/><path class="cls-4" d="M385.71,277.31v4h-1.25v-3.82c0-1.35-.67-2-1.86-2a2,2,0,0,0-2.19,1.9,1.7,1.7,0,0,0,0,.39v3.55h-1.25v-9.65h1.25v3.74a3,3,0,0,1,2.43-1,2.67,2.67,0,0,1,2.86,2.46A3.08,3.08,0,0,1,385.71,277.31Z"/><path class="cls-4" d="M394.26,278.24h-5.59a2.35,2.35,0,0,0,2.5,2,2.57,2.57,0,0,0,2-.84l.69.81a3.75,3.75,0,0,1-6.42-2.4,3.37,3.37,0,0,1,3.23-3.51h.22a3.33,3.33,0,0,1,3.42,3.22c0,.11,0,.21,0,.32A2.71,2.71,0,0,1,394.26,278.24Zm-5.59-.9h4.42a2.22,2.22,0,0,0-4.42,0Z"/><path class="cls-4" d="M406.11,274.38v5.95c0,2.44-1.24,3.54-3.58,3.54a5.11,5.11,0,0,1-3.29-1l.6-1a4.23,4.23,0,0,0,2.65.9c1.63,0,2.37-.76,2.37-2.32v-.57a3.21,3.21,0,0,1-2.48,1.06,3.33,3.33,0,1,1,0-6.66,3.1,3.1,0,0,1,2.54,1.13v-1Zm-1.22,3.26a2.38,2.38,0,1,0-2.22,2.22A2.38,2.38,0,0,0,404.89,277.64Z"/><path class="cls-4" d="M414,277.11v4.16h-1.19v-.91a2.55,2.55,0,0,1-2.26,1c-1.56,0-2.55-.83-2.55-2s.72-2,2.77-2h2v-.25c0-1.06-.61-1.67-1.85-1.67a3.45,3.45,0,0,0-2.18.75l-.52-.94a4.61,4.61,0,0,1,2.85-.88C412.88,274.32,414,275.23,414,277.11Zm-1.25,2v-1h-1.93c-1.23,0-1.58.48-1.58,1.07s.57,1.12,1.52,1.12a2,2,0,0,0,2-1.14Z"/><path class="cls-4" d="M427.7,277.31v4h-1.25v-3.82c0-1.35-.65-2-1.78-2a2,2,0,0,0-2.09,1.91,1.64,1.64,0,0,0,0,.38v3.55h-1.24v-3.82c0-1.35-.65-2-1.78-2a2,2,0,0,0-2.09,1.91,1.64,1.64,0,0,0,0,.38v3.55h-1.25v-7h1.2v1a2.76,2.76,0,0,1,2.38-1.09,2.55,2.55,0,0,1,2.39,1.27,3.1,3.1,0,0,1,2.65-1.27C426.6,274.32,427.7,275.28,427.7,277.31Z"/><path class="cls-4" d="M436.24,278.24h-5.59a2.34,2.34,0,0,0,2.5,2,2.57,2.57,0,0,0,2-.84l.69.81a3.76,3.76,0,0,1-6.43-2.4,3.37,3.37,0,0,1,3.23-3.51h.23a3.33,3.33,0,0,1,3.42,3.22c0,.11,0,.21,0,.32S436.25,278.12,436.24,278.24Zm-5.59-.9h4.42a2.22,2.22,0,0,0-4.42,0Z"/></g><g id="Originator_Risk_Management" data-name="Originator Risk Management"><path class="cls-4" d="M602.29,171.6a4.84,4.84,0,1,1,5,4.65h-.18a4.61,4.61,0,0,1-4.84-4.38A2.44,2.44,0,0,1,602.29,171.6Zm8.37,0a3.54,3.54,0,1,0-3.58,3.5h.06a3.42,3.42,0,0,0,3.52-3.32Z"/><path class="cls-4" d="M617.47,169.2v1.21h-.29a2.05,2.05,0,0,0-2.18,1.93,1.79,1.79,0,0,0,0,.4v3.43h-1.24v-6.89H615v1.16A2.62,2.62,0,0,1,617.47,169.2Z"/><path class="cls-4" d="M618.78,167.13a.82.82,0,0,1,.82-.82h0a.81.81,0,1,1-.85.82Zm.23,2.13h1.24v6.89H619Z"/><path class="cls-4" d="M629.22,169.26v6c0,2.43-1.23,3.53-3.57,3.53a5.06,5.06,0,0,1-3.29-1l.6-1a4.11,4.11,0,0,0,2.65.9c1.62,0,2.37-.75,2.37-2.31v-.55a3.19,3.19,0,0,1-2.49,1.07,3.34,3.34,0,1,1-.37-6.67h.37a3.1,3.1,0,0,1,2.55,1.13v-1.07ZM628,172.52a2.37,2.37,0,1,0-2.49,2.25h.13a2.19,2.19,0,0,0,2.35-2A1.7,1.7,0,0,0,628,172.52Z"/><path class="cls-4" d="M631.38,167.13a.82.82,0,0,1,.82-.82h0a.8.8,0,0,1,.84.76v0a.85.85,0,0,1-1.69,0Zm.22,2.13h1.25v6.89H631.6Z"/><path class="cls-4" d="M641.77,172.19v4h-1.25v-3.82c0-1.35-.68-2-1.86-2a2,2,0,0,0-2.19,1.79,1.68,1.68,0,0,0,0,.5v3.55h-1.25v-6.89h1.19v1a3,3,0,0,1,2.49-1.1,2.67,2.67,0,0,1,2.87,2.45A3,3,0,0,1,641.77,172.19Z"/><path class="cls-4" d="M649.54,172v4.16h-1.18v-.91a2.54,2.54,0,0,1-2.26,1c-1.56,0-2.55-.83-2.55-2s.71-2,2.77-2h2V172c0-1.05-.61-1.66-1.84-1.66a3.47,3.47,0,0,0-2.19.74l-.52-.94a4.63,4.63,0,0,1,2.85-.88C648.48,169.2,649.54,170.11,649.54,172Zm-1.25,2v-1h-1.92c-1.23,0-1.59.48-1.59,1.07s.58,1.12,1.53,1.12a2,2,0,0,0,2-1.14Z"/><path class="cls-4" d="M655.73,175.75a2.35,2.35,0,0,1-1.51.48,2,2,0,0,1-2.18-1.8,2.16,2.16,0,0,1,0-.36v-3.78h-1.17v-1H652v-1.51h1.25v1.51h2v1h-2V174a1,1,0,0,0,.82,1.15,1,1,0,0,0,.25,0,1.58,1.58,0,0,0,1-.33Z"/><path class="cls-4" d="M656.37,172.71a3.58,3.58,0,1,1,3.64,3.52H660a3.42,3.42,0,0,1-3.58-3.25Zm5.9,0a2.32,2.32,0,1,0-2.32,2.43,2.24,2.24,0,0,0,2.32-2.19,1,1,0,0,0,0-.24Z"/><path class="cls-4" d="M669,169.2v1.21h-.28a2.05,2.05,0,0,0-2.18,1.93,1.79,1.79,0,0,0,0,.4v3.43h-1.25v-6.89h1.19v1.16A2.64,2.64,0,0,1,669,169.2Z"/><path class="cls-4" d="M680.35,176.15l-2-2.79H675.6v2.77h-1.3V167h3.55c2.36,0,3.79,1.2,3.79,3.17a2.88,2.88,0,0,1-2,2.88l2.16,3Zm0-5.93c0-1.3-.87-2-2.53-2H675.6v4.1h2.21c1.63,0,2.5-.8,2.5-2.1Z"/><path class="cls-4" d="M683.31,167.13a.82.82,0,0,1,.82-.82h0a.8.8,0,0,1,.84.76v0a.85.85,0,0,1-1.69,0Zm.23,2.13h1.24v6.89h-1.24Z"/><path class="cls-4" d="M686.29,175.42l.52-1a4.5,4.5,0,0,0,2.42.71c1.16,0,1.64-.35,1.64-.94,0-1.54-4.36-.2-4.36-3,0-1.23,1.11-2.06,2.88-2.06a5,5,0,0,1,2.5.62l-.53,1a3.53,3.53,0,0,0-2-.55c-1.09,0-1.62.4-1.62,1,0,1.63,4.37.3,4.37,3,0,1.25-1.15,2-3,2A4.93,4.93,0,0,1,686.29,175.42Z"/><path class="cls-4" d="M696.35,172.94l-1.43,1.33v1.88h-1.24V166.5h1.24v6.19l3.76-3.43h1.51l-2.9,2.85,3.19,4h-1.54Z"/><path class="cls-4" d="M713.8,176.15v-6.63l-3.29,5.53h-.6l-3.31-5.49v6.59h-1.25v-9.1h1.07l3.79,6.4,3.75-6.4H715v9.1Z"/><path class="cls-4" d="M723.06,172v4.16h-1.19v-.91a2.54,2.54,0,0,1-2.26,1c-1.56,0-2.55-.83-2.55-2s.72-2,2.77-2h2V172c0-1.05-.61-1.66-1.85-1.66a3.44,3.44,0,0,0-2.18.74l-.52-.94a4.58,4.58,0,0,1,2.84-.88C722,169.2,723.06,170.11,723.06,172Zm-1.25,2v-1h-1.93c-1.23,0-1.58.48-1.58,1.07s.57,1.12,1.52,1.12a2,2,0,0,0,2-1.14Z"/><path class="cls-4" d="M731.91,172.19v4h-1.25v-3.82c0-1.35-.68-2-1.86-2a2,2,0,0,0-2.19,1.9,1.7,1.7,0,0,0,0,.39v3.55h-1.25v-6.89h1.23v1a3,3,0,0,1,2.49-1.1,2.67,2.67,0,0,1,2.83,2.5A2.48,2.48,0,0,1,731.91,172.19Z"/><path class="cls-4" d="M739.68,172v4.16H738.5v-.91a2.54,2.54,0,0,1-2.26,1c-1.56,0-2.55-.83-2.55-2s.71-2,2.77-2h2V172c0-1.05-.61-1.66-1.84-1.66a3.47,3.47,0,0,0-2.19.74l-.51-.94a4.58,4.58,0,0,1,2.84-.88C738.6,169.2,739.68,170.11,739.68,172Zm-1.25,2v-1h-1.92c-1.23,0-1.59.48-1.59,1.07s.58,1.12,1.53,1.12a2,2,0,0,0,2-1.14Z"/><path class="cls-4" d="M748.6,169.26v6c0,2.43-1.24,3.53-3.58,3.53a5.11,5.11,0,0,1-3.29-1l.6-1a4.23,4.23,0,0,0,2.65.9c1.63,0,2.37-.75,2.37-2.31v-.55a3.19,3.19,0,0,1-2.49,1.07,3.34,3.34,0,1,1-.37-6.67h.37a3.1,3.1,0,0,1,2.55,1.13v-1.07Zm-1.23,3.26a2.37,2.37,0,1,0-2.37,2.37A2.38,2.38,0,0,0,747.37,172.52Z"/><path class="cls-4" d="M757.21,173.12H751.6a2.33,2.33,0,0,0,2.49,2,2.59,2.59,0,0,0,2-.83l.69.8a3.75,3.75,0,0,1-6.42-2.4,3.37,3.37,0,0,1,3.23-3.51h.23a3.33,3.33,0,0,1,3.41,3.23c0,.1,0,.21,0,.31A2.53,2.53,0,0,1,757.21,173.12Zm-5.59-.89H756a2.22,2.22,0,0,0-4.42,0Z"/><path class="cls-4" d="M770.4,172.19v4h-1.25v-3.82c0-1.35-.65-2-1.78-2a2.06,2.06,0,0,0-2.06,2.29v3.55h-1.25v-3.82c0-1.35-.65-2-1.78-2a2,2,0,0,0-2.09,1.91,1.64,1.64,0,0,0,0,.38v3.55H759v-6.89h1.2v1a2.78,2.78,0,0,1,2.38-1.09,2.55,2.55,0,0,1,2.39,1.27,3.1,3.1,0,0,1,2.65-1.27C769.26,169.2,770.4,170.16,770.4,172.19Z"/><path class="cls-4" d="M778.94,173.12h-5.59a2.34,2.34,0,0,0,2.5,2,2.66,2.66,0,0,0,2-.83l.69.8a3.76,3.76,0,0,1-6.43-2.4,3.37,3.37,0,0,1,3.23-3.51h.23A3.33,3.33,0,0,1,779,172.4c0,.11,0,.21,0,.32A2.71,2.71,0,0,1,778.94,173.12Zm-5.59-.89h4.42a2.22,2.22,0,0,0-4.42,0Z"/><path class="cls-4" d="M787.24,172.19v4H786v-3.82c0-1.35-.68-2-1.86-2a2,2,0,0,0-2.2,1.89,1.79,1.79,0,0,0,0,.4v3.55H780.7v-6.89h1.19v1a3,3,0,0,1,2.49-1.1,2.67,2.67,0,0,1,2.87,2.45A3,3,0,0,1,787.24,172.19Z"/><path class="cls-4" d="M793.42,175.75a2.32,2.32,0,0,1-1.5.48,2,2,0,0,1-2.19-1.79,2.28,2.28,0,0,1,0-.37v-3.78H788.6v-1h1.17v-1.51H791v1.51h2v1h-2V174a1,1,0,0,0,.82,1.15,1.13,1.13,0,0,0,.26,0,1.58,1.58,0,0,0,1-.33Z"/></g><g id="Buyback_Guarantee" data-name="Buyback Guarantee"><path class="cls-4" d="M333.85,306.51c0,1.56-1.18,2.46-3.48,2.46H326v-9.09h4.08c2.09,0,3.26.88,3.26,2.35a2.15,2.15,0,0,1-1.22,2A2.2,2.2,0,0,1,333.85,306.51Zm-6.52-5.63v3H330c1.33,0,2.08-.49,2.08-1.45S331.32,301,330,301Zm5.21,5.49c0-1.06-.78-1.52-2.22-1.52h-3v3h3c1.44,0,2.22-.39,2.22-1.44Z"/><path class="cls-4" d="M342.11,302.08V309h-1.18v-1a2.83,2.83,0,0,1-2.34,1.12,2.72,2.72,0,0,1-3-2.41,2.91,2.91,0,0,1,0-.59v-4h1.25v3.79c0,1.35.68,2,1.86,2a2,2,0,0,0,2.15-1.84,2.26,2.26,0,0,0,0-.45v-3.51Z"/><path class="cls-4" d="M350.6,302.08l-3.34,7.58c-.61,1.45-1.4,1.91-2.45,1.91a2.56,2.56,0,0,1-1.77-.64l.53-.93a1.79,1.79,0,0,0,1.24.5c.59,0,1-.27,1.31-1.06l.22-.48-3-6.88h1.26l2.4,5.51,2.38-5.51Z"/><path class="cls-4" d="M358.89,305.52a3.37,3.37,0,0,1-3.18,3.53h-.3a2.93,2.93,0,0,1-2.46-1.17V309h-1.2v-9.65H353v3.8a3,3,0,0,1,2.41-1.11,3.34,3.34,0,0,1,3.48,3.21Zm-1.26,0A2.32,2.32,0,1,0,355.3,308a2.26,2.26,0,0,0,2.31-2.21c0-.08,0-.15,0-.22Z"/><path class="cls-4" d="M366,304.81V309h-1.19v-.91a2.55,2.55,0,0,1-2.26,1c-1.56,0-2.55-.84-2.55-2s.72-2,2.77-2h2v-.24c0-1.06-.61-1.67-1.85-1.67a3.44,3.44,0,0,0-2.18.74l-.52-.93a4.59,4.59,0,0,1,2.84-.89C365,302,366,302.88,366,304.81Zm-1.25,2.07v-1h-1.93c-1.23,0-1.58.48-1.58,1.07s.57,1.11,1.52,1.11A2,2,0,0,0,364.77,306.88Z"/><path class="cls-4" d="M367.73,305.52a3.45,3.45,0,0,1,3.36-3.52h.28a3.07,3.07,0,0,1,2.81,1.47l-.95.61a2.13,2.13,0,0,0-1.87-1,2.42,2.42,0,0,0,0,4.84,2.13,2.13,0,0,0,1.87-1l.95.59a3.09,3.09,0,0,1-2.81,1.49,3.45,3.45,0,0,1-3.64-3.25Z"/><path class="cls-4" d="M378.38,305.76,377,307.08V309H375.7v-9.65H377v6.19l3.76-3.43h1.5l-2.9,2.85,3.19,4H381Z"/><path class="cls-4" d="M393.69,304.37h1.25v3.51A5.43,5.43,0,0,1,391.5,309a4.66,4.66,0,0,1-.43-9.31,3.09,3.09,0,0,1,.43,0,4.56,4.56,0,0,1,3.5,1.41l-.81.8a3.6,3.6,0,0,0-2.64-1,3.5,3.5,0,0,0,0,7,3.83,3.83,0,0,0,2.13-.59Z"/><path class="cls-4" d="M403.66,302.08V309h-1.18v-1a2.81,2.81,0,0,1-2.34,1.12,2.71,2.71,0,0,1-3-2.38,3.21,3.21,0,0,1,0-.62v-4h1.24v3.79c0,1.35.68,2,1.86,2a2,2,0,0,0,2.15-1.83,1.77,1.77,0,0,0,0-.46v-3.51Z"/><path class="cls-4" d="M411.5,304.81V309h-1.18v-.91a2.58,2.58,0,0,1-2.26,1c-1.56,0-2.55-.84-2.55-2s.71-2,2.77-2h2v-.24c0-1.06-.61-1.67-1.84-1.67a3.55,3.55,0,0,0-2.19.74l-.52-.93a4.64,4.64,0,0,1,2.85-.89C410.44,302,411.5,302.88,411.5,304.81Zm-1.25,2.07v-1h-1.92c-1.23,0-1.59.48-1.59,1.07s.58,1.11,1.53,1.11A2,2,0,0,0,410.25,306.88Z"/><path class="cls-4" d="M417.52,302v1.21h-.28a2,2,0,0,0-2.19,1.92,1.89,1.89,0,0,0,0,.41V309h-1.24v-6.9H415v1.16A2.62,2.62,0,0,1,417.52,302Z"/><path class="cls-4" d="M424.5,304.81V309h-1.18v-.91a2.58,2.58,0,0,1-2.26,1c-1.56,0-2.55-.84-2.55-2s.71-2,2.77-2h2v-.24c0-1.06-.61-1.67-1.84-1.67a3.55,3.55,0,0,0-2.19.74l-.52-.93a4.64,4.64,0,0,1,2.85-.89C423.44,302,424.5,302.88,424.5,304.81Zm-1.25,2.07v-1h-1.92c-1.24,0-1.59.48-1.59,1.07s.58,1.11,1.53,1.11A2,2,0,0,0,423.25,306.88Z"/><path class="cls-4" d="M433.35,305v4h-1.24v-3.82c0-1.36-.68-2-1.86-2a2,2,0,0,0-2.2,1.78,1.74,1.74,0,0,0,0,.51V309h-1.24v-6.94H428v1A3,3,0,0,1,430.5,302a2.68,2.68,0,0,1,2.87,2.46A2.72,2.72,0,0,1,433.35,305Z"/><path class="cls-4" d="M439.54,308.57a2.32,2.32,0,0,1-1.5.48,2,2,0,0,1-2.19-1.79,2.29,2.29,0,0,1,0-.37v-3.78h-1.17v-1h1.17V300.6h1.25v1.51h2v1h-2v3.77a1,1,0,0,0,.83,1.14,1,1,0,0,0,.25,0,1.57,1.57,0,0,0,1-.32Z"/><path class="cls-4" d="M447,305.94h-5.59a2.33,2.33,0,0,0,2.49,2,2.56,2.56,0,0,0,2-.83l.69.81a3.75,3.75,0,0,1-5.3.05,3.71,3.71,0,0,1-1.12-2.46,3.38,3.38,0,0,1,3.25-3.51h.21a3.33,3.33,0,0,1,3.41,3.23c0,.11,0,.21,0,.32Zm-5.59-.9h4.42a2.22,2.22,0,0,0-4.42,0Z"/><path class="cls-4" d="M455,305.94h-5.59a2.34,2.34,0,0,0,2.5,2,2.56,2.56,0,0,0,2-.83l.69.81a3.75,3.75,0,0,1-5.3.05,3.71,3.71,0,0,1-1.12-2.46,3.37,3.37,0,0,1,3.23-3.51h.22a3.33,3.33,0,0,1,3.42,3.22c0,.11,0,.22,0,.33A2.58,2.58,0,0,1,455,305.94Zm-5.59-.9h4.42a2.22,2.22,0,0,0-4.42,0Z"/></g><g id="Scoring"><path class="cls-4" d="M325.42,199.05l.48-1a4.68,4.68,0,0,0,3,1.06c1.57,0,2.25-.61,2.25-1.41,0-2.22-5.51-.82-5.51-4.2,0-1.4,1.09-2.6,3.48-2.6a5.34,5.34,0,0,1,2.93.81l-.43,1a4.71,4.71,0,0,0-2.5-.74c-1.55,0-2.21.65-2.21,1.44,0,2.22,5.51.83,5.51,4.17,0,1.4-1.11,2.59-3.52,2.59A5.38,5.38,0,0,1,325.42,199.05Z"/><path class="cls-4" d="M333.5,196.64a3.45,3.45,0,0,1,3.36-3.52h.28A3.07,3.07,0,0,1,340,194.6l-1,.61a2.16,2.16,0,0,0-1.87-1,2.43,2.43,0,0,0,0,4.85,2.13,2.13,0,0,0,1.87-1l1,.59a3.09,3.09,0,0,1-2.81,1.49,3.45,3.45,0,0,1-3.64-3.25Z"/><path class="cls-4" d="M340.82,196.64a3.58,3.58,0,1,1,3.63,3.53h0a3.43,3.43,0,0,1-3.59-3.26Zm5.9,0A2.32,2.32,0,1,0,344.4,199,2.32,2.32,0,0,0,346.72,196.64Z"/><path class="cls-4" d="M353.42,193.13v1.21h-.29a2.05,2.05,0,0,0-2.18,1.93,1.79,1.79,0,0,0,0,.4v3.43h-1.25v-6.89h1.2v1.15A2.64,2.64,0,0,1,353.42,193.13Z"/><path class="cls-4" d="M354.73,191.07a.82.82,0,0,1,.82-.82h0a.8.8,0,0,1,.84.76v0a.85.85,0,0,1-1.69,0Zm.22,2.13h1.25v6.89H355Z"/><path class="cls-4" d="M365.12,196.12v4h-1.25V196.3c0-1.36-.68-2-1.86-2a2,2,0,0,0-2.19,1.79,1.68,1.68,0,0,0,0,.5v3.55H358.6v-6.89h1.19v1a3,3,0,0,1,2.49-1.11,2.67,2.67,0,0,1,2.85,2.47A2.9,2.9,0,0,1,365.12,196.12Z"/><path class="cls-4" d="M374.06,193.2v6c0,2.43-1.23,3.54-3.57,3.54a5.06,5.06,0,0,1-3.29-1l.6-1a4.23,4.23,0,0,0,2.65.9c1.62,0,2.36-.76,2.36-2.32v-.54a3.14,3.14,0,0,1-2.48,1.06,3.34,3.34,0,0,1-.37-6.67h.37a3.16,3.16,0,0,1,2.55,1.13v-1.06Zm-1.22,3.26a2.37,2.37,0,1,0-2.49,2.25h.12a2.2,2.2,0,0,0,2.36-2A1.77,1.77,0,0,0,372.84,196.46Z"/></g><g id="KYC"><path class="cls-4" d="M329.21,223.62l-1.61,1.69v2.35h-1.3v-9.1h1.3v5.08l4.94-5.08H334l-3.89,4.1,4.14,5H332.7Z"/><path class="cls-4" d="M338.46,224.51v3.15h-1.29v-3.17l-3.57-5.93H335l2.91,4.8,2.92-4.8h1.29Z"/><path class="cls-4" d="M342.25,223.11a4.59,4.59,0,0,1,4.54-4.65,2.61,2.61,0,0,1,.28,0,4.52,4.52,0,0,1,3.46,1.41l-.84.82a3.39,3.39,0,0,0-2.56-1.08,3.5,3.5,0,0,0,0,7,3.4,3.4,0,0,0,2.56-1.09l.84.81a4.5,4.5,0,0,1-3.47,1.43,4.6,4.6,0,0,1-4.81-4.38Z"/></g><g id="Collection"><path class="cls-4" d="M325.51,249.88a4.59,4.59,0,0,1,4.53-4.66h.29a4.52,4.52,0,0,1,3.46,1.42l-.85.82a3.39,3.39,0,0,0-2.56-1.08,3.5,3.5,0,0,0,0,7,3.4,3.4,0,0,0,2.56-1.09l.85.82a4.5,4.5,0,0,1-3.47,1.43,4.6,4.6,0,0,1-4.81-4.36Z"/><path class="cls-4" d="M334.54,251a3.59,3.59,0,1,1,3.66,3.52h-.07a3.43,3.43,0,0,1-3.59-3.26Zm5.9,0a2.32,2.32,0,1,0-2.32,2.32A2.32,2.32,0,0,0,340.44,251Z"/><path class="cls-4" d="M343.43,244.82h1.25v9.65h-1.25Z"/><path class="cls-4" d="M347.06,244.82h1.25v9.65h-1.25Z"/><path class="cls-4" d="M356.89,251.44H351.3a2.33,2.33,0,0,0,2.49,2,2.56,2.56,0,0,0,2-.83l.69.81a3.76,3.76,0,0,1-6.42-2.41,3.38,3.38,0,0,1,3.25-3.51h.21a3.33,3.33,0,0,1,3.41,3.23c0,.11,0,.21,0,.32S356.9,251.32,356.89,251.44Zm-5.59-.9h4.42a2.22,2.22,0,0,0-4.42,0Z"/><path class="cls-4" d="M358,251a3.45,3.45,0,0,1,3.36-3.52h.28a3.06,3.06,0,0,1,2.8,1.47l-.94.61a2.16,2.16,0,0,0-1.88-1,2.43,2.43,0,0,0,0,4.85,2.16,2.16,0,0,0,1.88-1l.94.6a3.09,3.09,0,0,1-2.8,1.48,3.45,3.45,0,0,1-3.64-3.25Z"/><path class="cls-4" d="M370,254.06a2.35,2.35,0,0,1-1.51.48,2,2,0,0,1-2.18-1.81,1.93,1.93,0,0,1,0-.34V248.6h-1.17v-1h1.17v-1.51h1.26v1.51h2v1h-2v3.73a1,1,0,0,0,.82,1.15.76.76,0,0,0,.26,0,1.57,1.57,0,0,0,1-.32Z"/><path class="cls-4" d="M371.32,245.44a.85.85,0,1,1,.89.81h0a.81.81,0,0,1-.84-.78Zm.22,2.14h1.25v6.89h-1.25Z"/><path class="cls-4" d="M374.53,251a3.58,3.58,0,1,1,3.64,3.52h-.05a3.43,3.43,0,0,1-3.59-3.26Zm5.9,0a2.32,2.32,0,1,0-2.31,2.43,2.27,2.27,0,0,0,2.32-2.2A1.77,1.77,0,0,0,380.43,251Z"/><path class="cls-4" d="M390,250.5v4h-1.25v-3.83c0-1.35-.67-2-1.86-2a2,2,0,0,0-2.19,1.79,1.68,1.68,0,0,0,0,.5v3.55h-1.25v-6.93h1.18v1a2.9,2.9,0,0,1,2.48-1.11,2.66,2.66,0,0,1,2.89,2.42A2.48,2.48,0,0,1,390,250.5Z"/></g><circle id="Ellipse_109" data-name="Ellipse 109" class="cls-5" cx="574.76" cy="63.16" r="48.7"/><line id="Line_1233" data-name="Line 1233" class="cls-6" x1="576.61" y1="340.38" x2="576.61" y2="112.87"/><line id="Line_1234" data-name="Line 1234" class="cls-6" x1="302.98" y1="301.38" x2="302.98" y2="82.38"/><g id="CREDITORS"><path d="M779.07,64.43a4.62,4.62,0,0,1,8-2.85l-1.24,1.15a2.72,2.72,0,0,0-2.12-1,2.69,2.69,0,1,0,2.12,4.37l1.24,1.15a4.61,4.61,0,0,1-8-2.85Z"/><path d="M793.74,68.63l-1.61-2.34h-1.79v2.34H788.4V60.24H792c2.24,0,3.65,1.16,3.65,3A2.72,2.72,0,0,1,794,65.89l1.88,2.7Zm-1.82-6.81h-1.58v2.93h1.58c1.19,0,1.79-.56,1.79-1.47S793.11,61.82,791.92,61.82Z"/><path d="M803.72,67.07v1.56h-6.5V60.24h6.38V61.8h-4.41v1.82h3.89v1.51h-3.89v1.94Z"/><path d="M805.27,60.24h3.81c2.75,0,4.63,1.65,4.63,4.19s-1.88,4.2-4.63,4.2h-3.81ZM809,67a2.61,2.61,0,1,0,.32-5.21h-2.09V67Z"/><path d="M815.18,60.24h1.94v8.39h-1.94Z"/><path d="M820.85,61.82h-2.68V60.24h7.31v1.58H822.8v6.81h-2Z"/><path d="M825.88,64.43a4.6,4.6,0,1,1,4.84,4.34h-.24a4.34,4.34,0,0,1-4.59-4.09A2.26,2.26,0,0,1,825.88,64.43Zm7.22,0a2.63,2.63,0,1,0-2.62,2.69,2.55,2.55,0,0,0,2.62-2.48Z"/><path d="M841.89,68.63l-1.62-2.34h-1.79v2.34h-1.94V60.24h3.63c2.25,0,3.65,1.16,3.65,3a2.72,2.72,0,0,1-1.73,2.65l1.89,2.7Zm-1.83-6.81h-1.58v2.93h1.58c1.19,0,1.79-.56,1.79-1.47s-.6-1.46-1.79-1.46Z"/><path d="M844.7,67.81l.66-1.47a4.9,4.9,0,0,0,2.77.88c1.15,0,1.62-.39,1.62-.9,0-1.57-4.88-.49-4.88-3.61,0-1.43,1.15-2.62,3.53-2.62a5.65,5.65,0,0,1,2.92.75l-.6,1.47a4.79,4.79,0,0,0-2.33-.66c-1.15,0-1.59.43-1.59,1,0,1.55,4.88.48,4.88,3.56,0,1.41-1.16,2.61-3.56,2.61A5.94,5.94,0,0,1,844.7,67.81Z"/></g><circle id="Ellipse_110" data-name="Ellipse 110" class="cls-7" cx="302.98" cy="249.69" r="3.07"/><circle id="Ellipse_111" data-name="Ellipse 111" class="cls-7" cx="302.98" cy="166.95" r="3.07"/><circle id="Ellipse_112" data-name="Ellipse 112" class="cls-7" cx="302.98" cy="194.91" r="3.07"/><circle id="Ellipse_113" data-name="Ellipse 113" class="cls-7" cx="302.98" cy="223" r="3.07"/><circle id="Ellipse_114" data-name="Ellipse 114" class="cls-7" cx="576.61" cy="169.95" r="3.07"/><circle id="Ellipse_115" data-name="Ellipse 115" class="cls-7" cx="576.61" cy="199.95" r="3.07"/><circle id="Ellipse_116" data-name="Ellipse 116" class="cls-7" cx="576.61" cy="227.95" r="3.07"/><circle id="Ellipse_117" data-name="Ellipse 117" class="cls-7" cx="576.61" cy="252.95" r="3.07"/><path id="Rectangle_1142" data-name="Rectangle 1142" class="cls-6" d="M776.36,45.64h78.46a18.28,18.28,0,0,1,18.26,18.24h0a18.27,18.27,0,0,1-18.26,18.27H776.36A18.27,18.27,0,0,1,758.1,63.88h0A18.27,18.27,0,0,1,776.36,45.64Z"/><path id="Rectangle_1143" data-name="Rectangle 1143" class="cls-6" d="M34.36,45.64h78.46a18.28,18.28,0,0,1,18.26,18.24h0a18.27,18.27,0,0,1-18.26,18.27H34.36A18.27,18.27,0,0,1,16.1,63.88h0A18.27,18.27,0,0,1,34.36,45.64Z"/><path id="Rectangle_1144" data-name="Rectangle 1144" class="cls-6" d="M263.36,45.64h78.46a18.28,18.28,0,0,1,18.26,18.24h0a18.27,18.27,0,0,1-18.26,18.27H263.36A18.27,18.27,0,0,1,245.1,63.88h0A18.27,18.27,0,0,1,263.36,45.64Z"/><g id="Group_354" data-name="Group 354"><line id="Line_872" data-name="Line 872" class="cls-8" x1="360.1" y1="63.38" x2="511.1" y2="63.38"/><line id="Line_873" data-name="Line 873" class="cls-9" x1="504.1" y1="71.38" x2="511.1" y2="63.38"/><line id="Line_874" data-name="Line 874" class="cls-9" x1="504.1" y1="56.38" x2="511.1" y2="63.38"/></g><g id="Group_355" data-name="Group 355"><path id="Path_249" data-name="Path 249" class="cls-8" d="M757.83,63.38H639.1"/><line id="Line_876" data-name="Line 876" class="cls-9" x1="646.1" y1="55.38" x2="639.1" y2="63.38"/><line id="Line_877" data-name="Line 877" class="cls-9" x1="646.1" y1="70.38" x2="639.1" y2="63.38"/></g><g id="Interest_rate" data-name="Interest rate"><path class="cls-4" d="M326,162.78h1.3v9.1H326Z"/><path class="cls-4" d="M336.35,167.88v4H335.1v-3.82c0-1.35-.67-2-1.85-2a2,2,0,0,0-2.2,1.89,1.79,1.79,0,0,0,0,.4v3.53h-1.25V165H331v1a3,3,0,0,1,2.48-1.11,2.66,2.66,0,0,1,2.87,2.45A2.53,2.53,0,0,1,336.35,167.88Z"/><path class="cls-4" d="M342.54,171.48A2.35,2.35,0,0,1,341,172a2,2,0,0,1-2.18-1.8,2.16,2.16,0,0,1,0-.36V166h-1.17v-1h1.17v-1.54h1.25V165h2v1h-2v3.73a1,1,0,0,0,.82,1.15.76.76,0,0,0,.26,0,1.58,1.58,0,0,0,1-.33Z"/><path class="cls-4" d="M350,168.88h-5.6a2.35,2.35,0,0,0,2.5,2,2.57,2.57,0,0,0,2-.84l.69.81a3.75,3.75,0,0,1-5.3.05,3.71,3.71,0,0,1-1.12-2.46,3.39,3.39,0,0,1,3.19-3.56h.22a3.33,3.33,0,0,1,3.41,3.23c0,.11,0,.21,0,.32A1.36,1.36,0,0,1,350,168.88Zm-5.6-.9h4.43a2.23,2.23,0,0,0-4.43,0Z"/><path class="cls-4" d="M355.48,164.88v1.21h-.29A2.05,2.05,0,0,0,353,168a1.79,1.79,0,0,0,0,.4v3.46h-1.25V165H353v1.16A2.63,2.63,0,0,1,355.48,164.88Z"/><path class="cls-4" d="M363.14,168.88H357.6a2.35,2.35,0,0,0,2.5,2,2.57,2.57,0,0,0,2-.84l.69.81a3.75,3.75,0,0,1-5.3.05,3.71,3.71,0,0,1-1.12-2.46,3.38,3.38,0,0,1,3.25-3.51h.21a3.33,3.33,0,0,1,3.41,3.23c0,.11,0,.21,0,.32A2.59,2.59,0,0,1,363.14,168.88Zm-5.59-.9H362a2.23,2.23,0,0,0-4.43,0Z"/><path class="cls-4" d="M364,171.15l.52-1a4.42,4.42,0,0,0,2.42.72c1.15,0,1.63-.35,1.63-.94,0-1.54-4.35-.21-4.35-3,0-1.23,1.1-2.07,2.87-2.07a5,5,0,0,1,2.51.63l-.53,1a3.53,3.53,0,0,0-2-.55c-1.09,0-1.63.4-1.63.95,0,1.62,4.37.3,4.37,3,0,1.24-1.14,2-3,2A4.89,4.89,0,0,1,364,171.15Z"/><path class="cls-4" d="M375.29,171.48a2.35,2.35,0,0,1-1.51.48,2,2,0,0,1-2.18-1.8,2.16,2.16,0,0,1,0-.36V166h-1.18v-1h1.18v-1.54h1.24V165h2v1h-2v3.73a1,1,0,0,0,.82,1.15.76.76,0,0,0,.26,0,1.58,1.58,0,0,0,1-.33Z"/><path class="cls-4" d="M384,164.88v1.21h-.29a2.05,2.05,0,0,0-2.18,1.93,1.79,1.79,0,0,0,0,.4v3.46h-1.25V165h1.2v1.16A2.63,2.63,0,0,1,384,164.88Z"/><path class="cls-4" d="M391,167.72v4.16h-1.19V171a2.55,2.55,0,0,1-2.26,1c-1.56,0-2.55-.83-2.55-2s.72-2,2.77-2h2v-.24c0-1.06-.61-1.67-1.85-1.67a3.44,3.44,0,0,0-2.18.74l-.52-.93a4.56,4.56,0,0,1,2.85-.89A2.5,2.5,0,0,1,391,167.72Zm-1.25,2v-1h-1.92c-1.24,0-1.59.48-1.59,1.07s.57,1.12,1.52,1.12a2,2,0,0,0,2-1.14Z"/><path class="cls-4" d="M397.17,171.48a2.35,2.35,0,0,1-1.51.48,2,2,0,0,1-2.19-1.79,2.28,2.28,0,0,1,0-.37V166H392.3v-1h1.17v-1.54h1.25V165h2v1h-2v3.73a1,1,0,0,0,.82,1.15.76.76,0,0,0,.26,0,1.58,1.58,0,0,0,1-.33Z"/><path class="cls-4" d="M404.6,168.88H399a2.34,2.34,0,0,0,2.5,2,2.57,2.57,0,0,0,2-.84l.68.81a3.75,3.75,0,0,1-5.3.05,3.71,3.71,0,0,1-1.12-2.46,3.38,3.38,0,0,1,3.25-3.51h.21a3.33,3.33,0,0,1,3.42,3.22c0,.11,0,.22,0,.33A.73.73,0,0,1,404.6,168.88ZM399,168h4.42a2.22,2.22,0,0,0-4.42,0Z"/></g><g id="Geographical_diversification" data-name="Geographical diversification"><path class="cls-4" d="M609.33,199.28h1.27v3.6a5.43,5.43,0,0,1-3.44,1.15,4.65,4.65,0,1,1,3.52-7.9l-.81.81a3.62,3.62,0,0,0-2.64-1.06,3.5,3.5,0,0,0,0,7,3.83,3.83,0,0,0,2.13-.59Z"/><path class="cls-4" d="M619.08,200.88h-5.59a2.34,2.34,0,0,0,2.5,2,2.57,2.57,0,0,0,2-.84l.69.81a3.76,3.76,0,0,1-6.43-2.41,3.39,3.39,0,0,1,3.19-3.56h.26a3.33,3.33,0,0,1,3.42,3.22c0,.11,0,.22,0,.33A3.4,3.4,0,0,1,619.08,200.88Zm-5.59-.9h4.42a2.22,2.22,0,0,0-4.42,0Z"/><path class="cls-4" d="M620.2,200.43a3.58,3.58,0,1,1,3.63,3.53h0a3.43,3.43,0,0,1-3.59-3.26Zm5.9,0a2.32,2.32,0,1,0-2.32,2.32A2.32,2.32,0,0,0,626.1,200.43Z"/><path class="cls-4" d="M635.68,197v5.95c0,2.43-1.23,3.54-3.57,3.54a5.06,5.06,0,0,1-3.29-1l.6-1a4.23,4.23,0,0,0,2.65.9c1.62,0,2.37-.76,2.37-2.32v-.54a3.15,3.15,0,0,1-2.49,1.06,3.34,3.34,0,0,1-.37-6.67H632a3.13,3.13,0,0,1,2.55,1.14V197Zm-1.22,3.26A2.37,2.37,0,1,0,632,202.5h.13a2.19,2.19,0,0,0,2.35-2,1.93,1.93,0,0,0,0-.24Z"/><path class="cls-4" d="M641.77,196.88v1.21h-.29A2.05,2.05,0,0,0,639.3,200a1.79,1.79,0,0,0,0,.4v3.46h-1.25V197h1.2v1.16A2.63,2.63,0,0,1,641.77,196.88Z"/><path class="cls-4" d="M648.75,199.72v4.16H647.6V203a2.55,2.55,0,0,1-2.26,1c-1.56,0-2.54-.83-2.54-2s.71-2,2.76-2h2v-.24c0-1.06-.61-1.67-1.85-1.67a3.5,3.5,0,0,0-2.18.74l-.52-.93a4.62,4.62,0,0,1,2.85-.89A2.49,2.49,0,0,1,648.75,199.72Zm-1.25,2v-1h-1.9c-1.24,0-1.59.48-1.59,1.07s.57,1.12,1.52,1.12a2,2,0,0,0,2-1.14Z"/><path class="cls-4" d="M658.2,200.43A3.35,3.35,0,0,1,655,204h-.32a3,3,0,0,1-2.41-1.12v3.56h-1.25V197h1.2v1.09a2.92,2.92,0,0,1,2.46-1.16,3.34,3.34,0,0,1,3.48,3.21Zm-1.26,0a2.32,2.32,0,1,0-2.34,2.45,2.24,2.24,0,0,0,2.34-2.45Z"/><path class="cls-4" d="M666.47,199.88v4h-1.25v-3.82c0-1.35-.68-2-1.86-2a2,2,0,0,0-2.19,1.79,1.68,1.68,0,0,0,0,.5v3.53h-1.25v-9.65h1.25V198a3,3,0,0,1,2.43-1,2.67,2.67,0,0,1,2.86,2.48A3.23,3.23,0,0,1,666.47,199.88Z"/><path class="cls-4" d="M668.6,194.88a.82.82,0,0,1,.82-.82h0a.81.81,0,0,1-.06,1.62A.82.82,0,0,1,668.6,194.88Zm.22,2.13h1.25v6.87h-1.25Z"/><path class="cls-4" d="M671.77,200.43a3.45,3.45,0,0,1,3.36-3.52h.28a3.07,3.07,0,0,1,2.81,1.47l-1,.61a2.13,2.13,0,0,0-1.87-1,2.43,2.43,0,0,0,0,4.85,2.16,2.16,0,0,0,1.87-1l1,.6a3.1,3.1,0,0,1-2.81,1.48,3.45,3.45,0,0,1-3.64-3.25Z"/><path class="cls-4" d="M685.29,199.72v4.16h-1.18V203a2.58,2.58,0,0,1-2.26,1c-1.56,0-2.55-.83-2.55-2s.71-2,2.77-2h2v-.24c0-1.06-.61-1.67-1.84-1.67a3.55,3.55,0,0,0-2.19.74l-.52-.93a4.62,4.62,0,0,1,2.85-.89A2.5,2.5,0,0,1,685.29,199.72Zm-1.25,2v-1h-1.92c-1.23,0-1.59.48-1.59,1.07s.58,1.12,1.53,1.12a2,2,0,0,0,2-1.14Z"/><path class="cls-4" d="M687.6,194.23h1.24v9.65H687.6Z"/><path class="cls-4" d="M701.23,194.23v9.65H700v-1.09a2.9,2.9,0,0,1-2.45,1.17,3.52,3.52,0,0,1,0-7,2.94,2.94,0,0,1,2.4,1.11v-3.8Zm-1.24,6.2a2.32,2.32,0,1,0-2.32,2.32A2.32,2.32,0,0,0,700,200.43Z"/><path class="cls-4" d="M703.37,194.88a.82.82,0,0,1,.82-.82h0a.8.8,0,0,1,.84.76v0a.85.85,0,0,1-1.69,0Zm.23,2.13h1.24v6.87H703.6Z"/><path class="cls-4" d="M713.32,197l-3,6.89h-1.27l-3-6.89h1.3l2.37,5.52,2.42-5.52Z"/><path class="cls-4" d="M720.49,200.88H714.9a2.35,2.35,0,0,0,2.5,2,2.57,2.57,0,0,0,2-.84l.69.81a3.75,3.75,0,0,1-5.3.05,3.71,3.71,0,0,1-1.12-2.46,3.38,3.38,0,0,1,3.25-3.51h.21a3.33,3.33,0,0,1,3.41,3.23c0,.11,0,.21,0,.32A2.71,2.71,0,0,1,720.49,200.88Zm-5.59-.9h4.42a2.22,2.22,0,0,0-4.42,0Z"/><path class="cls-4" d="M726,196.88v1.21h-.29a2.05,2.05,0,0,0-2.18,1.93,1.79,1.79,0,0,0,0,.4v3.46h-1.25V197h1.2v1.16A2.63,2.63,0,0,1,726,196.88Z"/><path class="cls-4" d="M726.67,203.15l.52-1a4.38,4.38,0,0,0,2.41.73c1.15,0,1.64-.35,1.64-.94,0-1.54-4.36-.21-4.36-2.95,0-1.23,1.11-2.07,2.87-2.07a5,5,0,0,1,2.51.63l-.53,1a3.53,3.53,0,0,0-2-.55c-1.09,0-1.62.4-1.62.95,0,1.62,4.36.3,4.36,3,0,1.24-1.14,2-3,2A5,5,0,0,1,726.67,203.15Z"/><path class="cls-4" d="M733.83,194.88a.82.82,0,0,1,.82-.82h0a.8.8,0,0,1,.84.76v0a.85.85,0,0,1-1.69,0Zm.22,2.13h1.25v6.87h-1.25Z"/><path class="cls-4" d="M740.14,194.16a2.32,2.32,0,0,1,1.4.4l-.38.95a1.58,1.58,0,0,0-1-.33c-.74,0-1.12.42-1.12,1.21v.6h2v1h-2v5.89h-1.25V198h-1.17v-1h1.17v-.61a2.07,2.07,0,0,1,1.86-2.26A2,2,0,0,1,740.14,194.16Zm3,.7a.85.85,0,1,1,.9.8H744a.82.82,0,0,1-.89-.73v-.05Zm.22,2.13h1.24v6.89h-1.25Z"/><path class="cls-4" d="M746.3,200.43a3.45,3.45,0,0,1,3.36-3.52h.28a3.1,3.1,0,0,1,2.81,1.47l-1,.61a2.13,2.13,0,0,0-1.87-1,2.43,2.43,0,0,0,0,4.85,2.16,2.16,0,0,0,1.87-1l1,.6a3.1,3.1,0,0,1-2.81,1.48,3.45,3.45,0,0,1-3.64-3.25Z"/><path class="cls-4" d="M759.82,199.72v4.16H758.6V203a2.59,2.59,0,0,1-2.27,1c-1.56,0-2.54-.83-2.54-2s.71-2,2.77-2h2v-.24c0-1.06-.61-1.67-1.85-1.67a3.5,3.5,0,0,0-2.18.74l-.52-.93a4.62,4.62,0,0,1,2.85-.89A2.51,2.51,0,0,1,759.82,199.72Zm-1.25,2v-1h-1.92c-1.24,0-1.59.48-1.59,1.07s.57,1.12,1.52,1.12a2,2,0,0,0,2-1.14Z"/><path class="cls-4" d="M766,203.48a2.35,2.35,0,0,1-1.51.48,2,2,0,0,1-2.19-1.79,2.28,2.28,0,0,1,0-.37V198h-1.17v-1h1.17v-1.54h1.29V197h2v1h-2v3.73a1,1,0,0,0,.83,1.15h.17a1.58,1.58,0,0,0,1-.33Z"/><path class="cls-4" d="M767.29,194.88a.82.82,0,0,1,.82-.82h0a.8.8,0,0,1,.84.76v0a.85.85,0,0,1-1.69,0Zm.23,2.13h1.24v6.87h-1.24Z"/><path class="cls-4" d="M770.5,200.43a3.59,3.59,0,1,1,3.65,3.53h-.06a3.45,3.45,0,0,1-3.59-3.29Zm5.91,0a2.32,2.32,0,1,0-2.32,2.32A2.32,2.32,0,0,0,776.41,200.43Z"/><path class="cls-4" d="M785.94,199.88v4h-1.25v-3.82c0-1.35-.68-2-1.86-2a2,2,0,0,0-2.2,1.89,1.79,1.79,0,0,0,0,.4v3.53H779.4V197h1.2v1a3,3,0,0,1,2.49-1.11,2.68,2.68,0,0,1,2.86,2.48A3,3,0,0,1,785.94,199.88Z"/></g><g id="Non-custodian_Escrow" data-name="Non-custodian Escrow"><path class="cls-4" d="M610.85,274.78v9.1h-1.06l-5.46-6.79v6.79H603v-9.1h1.06l5.46,6.79v-6.79Z"/><path class="cls-4" d="M612.77,280.43A3.58,3.58,0,1,1,616.4,284h0a3.43,3.43,0,0,1-3.58-3.28Zm5.9,0a2.32,2.32,0,1,0-2.32,2.32A2.32,2.32,0,0,0,618.67,280.43Z"/><path class="cls-4" d="M628.2,279.88v4H627v-3.82c0-1.35-.68-2-1.86-2a2,2,0,0,0-2.2,1.89,1.79,1.79,0,0,0,0,.4v3.53h-1.24V277h1.19v1a3,3,0,0,1,2.49-1.11,2.68,2.68,0,0,1,2.87,2.47A2.35,2.35,0,0,1,628.2,279.88Z"/><path class="cls-4" d="M630.07,279.77h3.53v1.11h-3.49Z"/><path class="cls-4" d="M635,280.43a3.43,3.43,0,0,1,3.32-3.55h.3a3.07,3.07,0,0,1,2.81,1.47l-1,.61a2.13,2.13,0,0,0-1.87-1,2.43,2.43,0,0,0,0,4.85,2.16,2.16,0,0,0,1.87-1l1,.6a3.1,3.1,0,0,1-2.81,1.48,3.46,3.46,0,0,1-3.62-3.28Z"/><path class="cls-4" d="M649.46,277v6.89h-1.18v-1a2.81,2.81,0,0,1-2.34,1.12,2.71,2.71,0,0,1-3-2.39,3.11,3.11,0,0,1,0-.61v-4h1.24v3.82c0,1.35.68,2,1.86,2a2,2,0,0,0,2.15-1.83,1.77,1.77,0,0,0,0-.46V277Z"/><path class="cls-4" d="M651,283.15l.52-1a4.42,4.42,0,0,0,2.42.72c1.16,0,1.64-.35,1.64-.94,0-1.54-4.36-.21-4.36-2.95,0-1.23,1.11-2.07,2.88-2.07a5.08,5.08,0,0,1,2.5.63l-.53,1a3.53,3.53,0,0,0-2-.55c-1.09,0-1.62.4-1.62.95,0,1.62,4.37.3,4.37,3,0,1.24-1.15,2-3,2A4.94,4.94,0,0,1,651,283.15Z"/><path class="cls-4" d="M662.23,283.48a2.35,2.35,0,0,1-1.51.48,2,2,0,0,1-2.18-1.8,2.16,2.16,0,0,1,0-.36V278h-1.17v-1h1.17v-1.54h1.25V277h2v1h-2v3.73a1,1,0,0,0,.82,1.15,1,1,0,0,0,.25,0,1.58,1.58,0,0,0,1-.33Z"/><path class="cls-4" d="M662.87,280.43A3.58,3.58,0,1,1,666.5,284h0a3.43,3.43,0,0,1-3.58-3.28Zm5.9,0a2.32,2.32,0,1,0-2.32,2.32A2.32,2.32,0,0,0,668.77,280.43Z"/><path class="cls-4" d="M678.26,274.23v9.65h-1.2v-1.09a2.9,2.9,0,0,1-2.45,1.17,3.52,3.52,0,0,1,0-7,2.94,2.94,0,0,1,2.4,1.11v-3.8Zm-1.24,6.2a2.32,2.32,0,1,0-2.32,2.32A2.32,2.32,0,0,0,677,280.43Z"/><path class="cls-4" d="M680.4,274.88a.82.82,0,0,1,.82-.82h0a.8.8,0,0,1,.84.76v0a.85.85,0,0,1-1.69,0Zm.22,2.13h1.25v6.87H680.6Z"/><path class="cls-4" d="M689.71,279.72v4.16h-1.18V283a2.58,2.58,0,0,1-2.26,1c-1.56,0-2.55-.83-2.55-2s.71-2,2.77-2h2v-.24c0-1.06-.61-1.67-1.84-1.67a3.55,3.55,0,0,0-2.19.74l-.52-.93a4.62,4.62,0,0,1,2.85-.89A2.51,2.51,0,0,1,689.71,279.72Zm-1.25,2v-1h-1.92c-1.23,0-1.59.48-1.59,1.07s.58,1.12,1.53,1.12a2,2,0,0,0,2-1.19Z"/><path class="cls-4" d="M698.6,279.88v4h-1.24v-3.82c0-1.35-.68-2-1.86-2a2,2,0,0,0-2.2,1.89,1.79,1.79,0,0,0,0,.4v3.53h-1.24V277h1.19v1a3,3,0,0,1,2.44-1.11,2.67,2.67,0,0,1,2.91,2.41A2.92,2.92,0,0,1,698.6,279.88Z"/><path class="cls-4" d="M711.16,282.75v1.13H704.6v-9.1H711v1.1H705.9v2.8h4.56v1.1H705.9v2.94Z"/><path class="cls-4" d="M712.12,283.15l.52-1a4.42,4.42,0,0,0,2.42.72c1.16,0,1.64-.35,1.64-.94,0-1.54-4.36-.21-4.36-2.95,0-1.23,1.11-2.07,2.88-2.07a5,5,0,0,1,2.51.63l-.54,1a3.53,3.53,0,0,0-2-.55c-1.09,0-1.62.4-1.62.95,0,1.62,4.37.3,4.37,3,0,1.24-1.15,2-3,2A5,5,0,0,1,712.12,283.15Z"/><path class="cls-4" d="M718.87,280.43a3.45,3.45,0,0,1,3.36-3.52h.28a3.07,3.07,0,0,1,2.81,1.47l-1,.61a2.13,2.13,0,0,0-1.87-1,2.43,2.43,0,0,0,0,4.85,2.16,2.16,0,0,0,1.87-1l1,.6a3.1,3.1,0,0,1-2.81,1.48,3.45,3.45,0,0,1-3.64-3.25Z"/><path class="cls-4" d="M730.6,276.88v1.21h-.29a2.05,2.05,0,0,0-2.18,1.93,1.79,1.79,0,0,0,0,.4v3.46h-1.25V277h1.2v1.16A2.63,2.63,0,0,1,730.6,276.88Z"/><path class="cls-4" d="M731.47,280.43A3.58,3.58,0,1,1,735.1,284h0a3.43,3.43,0,0,1-3.59-3.26Zm5.9,0a2.32,2.32,0,1,0-2.32,2.32A2.32,2.32,0,0,0,737.37,280.43Z"/><path class="cls-4" d="M750.6,277,748,283.88h-1.2l-2-5.23-2,5.23H741.6L739,277h1.18l2,5.49L744.3,277h1.06l2,5.51,2-5.51Z"/></g><g id="Competitive_returns" data-name="Competitive returns"><path class="cls-4" d="M602.29,227.33a4.59,4.59,0,0,1,4.54-4.65,2.61,2.61,0,0,1,.28,0,4.52,4.52,0,0,1,3.46,1.41l-.85.82a3.39,3.39,0,0,0-2.56-1.08,3.5,3.5,0,0,0,0,7,3.36,3.36,0,0,0,2.56-1.1l.85.82A4.5,4.5,0,0,1,607.1,232a4.6,4.6,0,0,1-4.81-4.36Z"/><path class="cls-4" d="M611.32,228.43A3.59,3.59,0,1,1,615,232h-.06a3.43,3.43,0,0,1-3.59-3.26Zm5.9,0a2.32,2.32,0,1,0-2.32,2.32A2.32,2.32,0,0,0,617.22,228.43Z"/><path class="cls-4" d="M631.65,227.88v4h-1.24v-3.82c0-1.35-.65-2-1.78-2a2,2,0,0,0-2.09,1.91,1.64,1.64,0,0,0,0,.38v3.53h-1.25v-3.82c0-1.35-.65-2-1.78-2a2,2,0,0,0-2.09,1.91,1.64,1.64,0,0,0,0,.38v3.53h-1.25V225h1.2v1a2.77,2.77,0,0,1,2.38-1.1,2.55,2.55,0,0,1,2.39,1.28,3.13,3.13,0,0,1,2.65-1.28C630.51,224.88,631.65,225.88,631.65,227.88Z"/><path class="cls-4" d="M641.09,228.43a3.35,3.35,0,0,1-3.16,3.53h-.32a3,3,0,0,1-2.41-1.08v3.56H634V225h1.19v1.09a2.94,2.94,0,0,1,2.45-1.24,3.34,3.34,0,0,1,3.49,3.2A2,2,0,0,1,641.09,228.43Zm-1.26,0a2.32,2.32,0,1,0-2.33,2.45,2.28,2.28,0,0,0,2.34-2.2A2.09,2.09,0,0,0,639.83,228.43Z"/><path class="cls-4" d="M649,228.88h-5.59a2.34,2.34,0,0,0,2.5,2,2.57,2.57,0,0,0,2-.84l.69.81a3.76,3.76,0,0,1-6.43-2.41,3.39,3.39,0,0,1,3.19-3.56h.22A3.33,3.33,0,0,1,649,228.1c0,.11,0,.22,0,.33A2.26,2.26,0,0,1,649,228.88Zm-5.59-.9h4.42a2.22,2.22,0,0,0-4.42,0Z"/><path class="cls-4" d="M654.65,231.48a2.35,2.35,0,0,1-1.51.48,2,2,0,0,1-2.18-1.8,2.16,2.16,0,0,1,0-.36V226h-1.17v-1H651v-1.54h1.25V225h2v1h-2v3.73a1,1,0,0,0,.82,1.15.76.76,0,0,0,.26,0,1.58,1.58,0,0,0,1-.33Z"/><path class="cls-4" d="M655.94,222.88a.85.85,0,1,1,.9.8h-.06a.81.81,0,0,1-.84-.78Zm.22,2.13h1.25v6.87h-1.25Z"/><path class="cls-4" d="M663.66,231.48a2.35,2.35,0,0,1-1.51.48,2,2,0,0,1-2.18-1.8,2.16,2.16,0,0,1,0-.36V226H658.8v-1H660v-1.54h1.25V225h2v1h-2v3.73a1,1,0,0,0,.82,1.15.76.76,0,0,0,.26,0,1.58,1.58,0,0,0,1-.33Z"/><path class="cls-4" d="M665,222.88a.85.85,0,1,1,.9.8h-.06a.81.81,0,0,1-.84-.78Zm.22,2.13h1.25v6.87h-1.25Z"/><path class="cls-4" d="M674.89,225l-3,6.89H670.6l-3-6.89h1.3l2.36,5.52,2.42-5.52Z"/><path class="cls-4" d="M682.07,228.88h-5.59a2.33,2.33,0,0,0,2.49,2,2.57,2.57,0,0,0,2-.84l.69.81a3.75,3.75,0,0,1-5.3.05,3.71,3.71,0,0,1-1.12-2.46,3.38,3.38,0,0,1,3.25-3.51h.21a3.33,3.33,0,0,1,3.41,3.23c0,.11,0,.21,0,.32S682.08,228.73,682.07,228.88Zm-5.59-.9h4.42a2.22,2.22,0,0,0-4.42,0Z"/><path class="cls-4" d="M691,224.88v1.21h-.28a2.05,2.05,0,0,0-2.18,1.93,1.79,1.79,0,0,0,0,.4v3.46h-1.25V225h1.2v1.16A2.62,2.62,0,0,1,691,224.88Z"/><path class="cls-4" d="M698.69,228.88H693.1a2.34,2.34,0,0,0,2.5,2,2.57,2.57,0,0,0,2-.84l.69.81a3.75,3.75,0,0,1-5.3.05,3.71,3.71,0,0,1-1.12-2.46,3.37,3.37,0,0,1,3.23-3.51h.22a3.33,3.33,0,0,1,3.42,3.22c0,.11,0,.22,0,.33A2.71,2.71,0,0,1,698.69,228.88Zm-5.59-.9h4.42a2.22,2.22,0,0,0-4.42,0Z"/><path class="cls-4" d="M704.32,231.48a2.35,2.35,0,0,1-1.51.48,2,2,0,0,1-2.18-1.8,2.16,2.16,0,0,1,0-.36V226h-1.17v-1h1.14v-1.54h1.25V225h2v1h-2v3.73a1,1,0,0,0,.82,1.15.76.76,0,0,0,.26,0,1.58,1.58,0,0,0,1-.33Z"/><path class="cls-4" d="M712.25,225v6.89h-1.18v-1a2.81,2.81,0,0,1-2.34,1.12,2.71,2.71,0,0,1-3-2.38,3.21,3.21,0,0,1,0-.62v-4H707v3.82c0,1.35.68,2,1.86,2A2,2,0,0,0,711,229a1.77,1.77,0,0,0,0-.46V225Z"/><path class="cls-4" d="M718.34,224.88v1.21h-.29a2.05,2.05,0,0,0-2.18,1.93,1.79,1.79,0,0,0,0,.4v3.46H714.6V225h1.2v1.16A2.64,2.64,0,0,1,718.34,224.88Z"/><path class="cls-4" d="M726.41,227.88v4h-1.25v-3.82c0-1.35-.67-2-1.86-2a2,2,0,0,0-2.19,1.9,1.7,1.7,0,0,0,0,.39v3.53h-1.25V225h1.2v1a3,3,0,0,1,2.53-1.11,2.67,2.67,0,0,1,2.83,2.5A2.75,2.75,0,0,1,726.41,227.88Z"/><path class="cls-4" d="M727.85,231.15l.52-1a4.42,4.42,0,0,0,2.42.72c1.16,0,1.64-.35,1.64-.94,0-1.54-4.36-.21-4.36-3,0-1.23,1.11-2.07,2.88-2.07a5,5,0,0,1,2.51.63l-.54,1a3.53,3.53,0,0,0-2-.55c-1.09,0-1.62.4-1.62.95,0,1.62,4.37.3,4.37,3,0,1.24-1.15,2-3,2A5,5,0,0,1,727.85,231.15Z"/></g><g id="Liquidity"><path class="cls-4" d="M603,247.78h1.3v8h4.93v1.1H603Z"/><path class="cls-4" d="M610.35,247.88a.85.85,0,1,1,.9.8h-.06a.81.81,0,0,1-.84-.78Zm.22,2.13h1.25v6.87H610.6Z"/><path class="cls-4" d="M620.69,250v9.41h-1.24v-3.52A3,3,0,0,1,617,257a3.52,3.52,0,0,1,0-7,2.92,2.92,0,0,1,2.46,1.16v-1.09Zm-1.23,3.44a2.32,2.32,0,1,0-2.31,2.44,2.28,2.28,0,0,0,2.32-2.22c0-.08,0-.15,0-.22Z"/><path class="cls-4" d="M629.48,250v6.89H628.3v-1A2.83,2.83,0,0,1,626,257a2.71,2.71,0,0,1-3-2.38,3.21,3.21,0,0,1,0-.62v-4h1.24v3.82c0,1.35.68,2,1.86,2a2,2,0,0,0,2.15-1.84,2.26,2.26,0,0,0,0-.45V250Z"/><path class="cls-4" d="M631.6,247.88a.82.82,0,0,1,.82-.82h0a.8.8,0,0,1,.84.76v0a.85.85,0,0,1-1.69,0Zm.22,2.13h1.25v6.87h-1.25Z"/><path class="cls-4" d="M642,247.23v9.65h-1.2v-1.09a2.9,2.9,0,0,1-2.45,1.17,3.52,3.52,0,0,1,0-7,2.94,2.94,0,0,1,2.4,1.11v-3.8Zm-1.24,6.2a2.32,2.32,0,1,0-2.32,2.32A2.32,2.32,0,0,0,640.75,253.43Z"/><path class="cls-4" d="M644.13,247.88a.82.82,0,0,1,.82-.82h0a.8.8,0,0,1,.84.76v0a.85.85,0,0,1-1.69,0Zm.22,2.13h1.25v6.87h-1.25Z"/><path class="cls-4" d="M651.86,256.48a2.35,2.35,0,0,1-1.51.48,2,2,0,0,1-2.19-1.79,2.29,2.29,0,0,1,0-.37V251H647v-1h1.17v-1.54h1.25V250h2v1h-2v3.73a1,1,0,0,0,.82,1.15.76.76,0,0,0,.26,0,1.58,1.58,0,0,0,1-.33Z"/><path class="cls-4" d="M659.33,250,656,257.57c-.61,1.46-1.4,1.91-2.46,1.91a2.56,2.56,0,0,1-1.77-.64l.54-.93a1.77,1.77,0,0,0,1.23.5c.6,0,1-.27,1.32-1.06l.22-.48L652,250h1.3l2.41,5.51,2.38-5.51Z"/></g><circle id="Ellipse_118" data-name="Ellipse 118" class="cls-7" cx="302.98" cy="303.69" r="3.07"/><circle id="Ellipse_119" data-name="Ellipse 119" class="cls-7" cx="302.98" cy="277" r="3.07"/><g id="ERC-20_Token_Leverage" data-name="ERC-20 Token Leverage"><path class="cls-4" d="M609.6,312.75v1.13H603v-9.1h6.42v1.1H604.3v2.8h4.56v1.1H604.3v2.94Z"/><path class="cls-4" d="M617.82,313.88l-2-2.8H613v2.8h-1.3v-9.1h3.55c2.36,0,3.79,1.2,3.79,3.17a2.88,2.88,0,0,1-2,2.88l2.16,3.05Zm0-5.93c0-1.3-.87-2-2.53-2h-2.21v4.1h2.21c1.62,0,2.49-.8,2.49-2.1Z"/><path class="cls-4" d="M620.45,309.33a4.59,4.59,0,0,1,4.54-4.65h.28a4.52,4.52,0,0,1,3.46,1.41l-.85.82a3.39,3.39,0,0,0-2.56-1.08,3.5,3.5,0,0,0,0,7,3.36,3.36,0,0,0,2.56-1.1l.85.82a4.5,4.5,0,0,1-3.47,1.43,4.6,4.6,0,0,1-4.81-4.36Z"/><path class="cls-4" d="M629.93,309.77h3.49v1.11h-3.49Z"/><path class="cls-4" d="M641,312.75v1.13h-6.53V313l3.7-3.58c1-.94,1.14-1.51,1.14-2.08,0-.94-.66-1.51-1.93-1.51a2.85,2.85,0,0,0-2.33,1l-.88-.77a4.17,4.17,0,0,1,3.32-1.37c1.9,0,3.12,1,3.12,2.53a3.69,3.69,0,0,1-1.49,2.86l-2.78,2.68Z"/><path class="cls-4" d="M642,309.33c0-3,1.59-4.65,3.72-4.65s3.7,1.69,3.7,4.65-1.58,4.65-3.7,4.65S642,312.29,642,309.33Zm6.12,0c0-2.33-1-3.5-2.4-3.5s-2.42,1.17-2.42,3.5,1,3.5,2.42,3.5S648.16,311.66,648.16,309.33Z"/><path class="cls-4" d="M656.76,305.88H653.6v-1.1h7.52v1.1H658v8h-1.28Z"/><path class="cls-4" d="M661.05,310.43a3.58,3.58,0,1,1,3.63,3.53h0a3.43,3.43,0,0,1-3.59-3.26Zm5.9,0a2.32,2.32,0,1,0-2.32,2.32A2.32,2.32,0,0,0,667,310.43Z"/><path class="cls-4" d="M672.6,310.67,671.17,312v1.89h-1.25v-9.65h1.25v6.19l3.75-3.43h1.51l-2.83,2.89,3.19,4H675.2Z"/><path class="cls-4" d="M683.86,310.88h-5.59a2.34,2.34,0,0,0,2.5,2,2.57,2.57,0,0,0,2-.84l.69.81a3.76,3.76,0,0,1-6.43-2.41,3.38,3.38,0,0,1,3.25-3.51h.21a3.33,3.33,0,0,1,3.42,3.22c0,.11,0,.22,0,.33A2.71,2.71,0,0,1,683.86,310.88Zm-5.59-.9h4.42a2.22,2.22,0,0,0-4.42,0Z"/><path class="cls-4" d="M692.16,309.88v4h-1.25v-3.82c0-1.35-.68-2-1.86-2a2,2,0,0,0-2.19,1.79,1.68,1.68,0,0,0,0,.5v3.53H685.6V307h1.19v1a3,3,0,0,1,2.51-1.11,2.68,2.68,0,0,1,2.87,2.47A2.35,2.35,0,0,1,692.16,309.88Z"/><path class="cls-4" d="M698.15,304.78h1.3v8h4.93v1.1h-6.23Z"/><path class="cls-4" d="M711.8,310.88h-5.59a2.34,2.34,0,0,0,2.5,2,2.57,2.57,0,0,0,2-.84l.69.81a3.75,3.75,0,0,1-5.3,0,3.71,3.71,0,0,1-1.12-2.46,3.38,3.38,0,0,1,3.25-3.51h.21a3.33,3.33,0,0,1,3.41,3.23c0,.11,0,.21,0,.32A3.58,3.58,0,0,0,711.8,310.88Zm-5.59-.9h4.39a2.22,2.22,0,0,0-4.42,0Z"/><path class="cls-4" d="M719.52,307l-3,6.89h-1.28l-3-6.89h1.3l2.36,5.52,2.42-5.52Z"/><path class="cls-4" d="M726.7,310.88h-5.59a2.33,2.33,0,0,0,2.49,2,2.57,2.57,0,0,0,2-.84l.69.81a3.75,3.75,0,0,1-5.3,0,3.71,3.71,0,0,1-1.12-2.46,3.38,3.38,0,0,1,3.25-3.51h.21a3.33,3.33,0,0,1,3.41,3.23c0,.11,0,.21,0,.32S726.71,310.73,726.7,310.88Zm-5.59-.9h4.42a2.22,2.22,0,0,0-4.42,0Z"/><path class="cls-4" d="M732.16,306.88v1.21h-.29a2.05,2.05,0,0,0-2.18,1.93,1.79,1.79,0,0,0,0,.4v3.46h-1.25V307h1.2v1.16A2.63,2.63,0,0,1,732.16,306.88Z"/><path class="cls-4" d="M739.14,309.72v4.16H738V313a2.59,2.59,0,0,1-2.27,1c-1.56,0-2.55-.83-2.55-2s.72-2,2.77-2h2v-.24c0-1.06-.61-1.67-1.85-1.67a3.44,3.44,0,0,0-2.18.74l-.52-.93a4.62,4.62,0,0,1,2.85-.89A2.5,2.5,0,0,1,739.14,309.72Zm-1.25,2v-1H736c-1.24,0-1.59.48-1.59,1.07S735,313,735.9,313a2,2,0,0,0,2-1.19Z"/><path class="cls-4" d="M748.08,307v5.95c0,2.43-1.23,3.54-3.57,3.54a5.06,5.06,0,0,1-3.29-1l.59-1a4.22,4.22,0,0,0,2.66.9c1.62,0,2.36-.76,2.36-2.32v-.54a3.14,3.14,0,0,1-2.48,1.06,3.34,3.34,0,1,1-.37-6.67,2.28,2.28,0,0,1,.37,0,3.14,3.14,0,0,1,2.55,1.14V307Zm-1.22,3.26a2.38,2.38,0,1,0-2.22,2.22A2.38,2.38,0,0,0,746.86,310.25Z"/><path class="cls-4" d="M756.66,310.88h-5.59a2.34,2.34,0,0,0,2.5,2,2.57,2.57,0,0,0,2-.84l.69.81a3.76,3.76,0,0,1-6.43-2.41,3.38,3.38,0,0,1,3.25-3.51h.21a3.33,3.33,0,0,1,3.42,3.22c0,.11,0,.22,0,.33S756.67,310.73,756.66,310.88Zm-5.59-.9h4.42a2.22,2.22,0,0,0-4.42,0Z"/></g><g id="Secondary_Market" data-name="Secondary Market"><path class="cls-4" d="M602.2,344.88l.48-1a4.69,4.69,0,0,0,3,1.05c1.57,0,2.25-.61,2.25-1.41,0-2.22-5.51-.81-5.51-4.19,0-1.41,1.09-2.6,3.48-2.6a5.41,5.41,0,0,1,2.93.8l-.43,1a4.71,4.71,0,0,0-2.5-.74c-1.55,0-2.21.65-2.21,1.44,0,2.23,5.51.84,5.51,4.18,0,1.39-1.11,2.58-3.52,2.58A5.33,5.33,0,0,1,602.2,344.88Z"/><path class="cls-4" d="M617.12,342.88h-5.59a2.34,2.34,0,0,0,2.5,2,2.57,2.57,0,0,0,2-.84l.68.81a3.75,3.75,0,0,1-5.3,0,3.71,3.71,0,0,1-1.12-2.46,3.38,3.38,0,0,1,3.25-3.51h.21a3.33,3.33,0,0,1,3.42,3.22c0,.11,0,.22,0,.33S617.13,342.73,617.12,342.88Zm-5.59-.9H616a2.22,2.22,0,0,0-4.42,0Z"/><path class="cls-4" d="M618.24,342.43a3.45,3.45,0,0,1,3.36-3.52h.28a3.1,3.1,0,0,1,2.81,1.47l-1,.61a2.13,2.13,0,0,0-1.87-1,2.43,2.43,0,0,0,0,4.85,2.16,2.16,0,0,0,1.87-1l1,.6a3.1,3.1,0,0,1-2.81,1.48,3.45,3.45,0,0,1-3.64-3.25Z"/><path class="cls-4" d="M625.6,342.43a3.58,3.58,0,1,1,3.63,3.53h-.05a3.43,3.43,0,0,1-3.58-3.28Zm5.9,0a2.32,2.32,0,1,0-2.32,2.32A2.32,2.32,0,0,0,631.5,342.43Z"/><path class="cls-4" d="M641,341.88v4h-1.25v-3.82c0-1.35-.68-2-1.86-2a2,2,0,0,0-2.19,1.9,1.7,1.7,0,0,0,0,.39v3.53h-1.25V339h1.15v1a3,3,0,0,1,2.49-1.11,2.67,2.67,0,0,1,2.91,2.41A2.92,2.92,0,0,1,641,341.88Z"/><path class="cls-4" d="M649.84,336.23v9.65H648.6v-1.09a2.9,2.9,0,0,1-2.45,1.17,3.52,3.52,0,0,1,0-7,2.94,2.94,0,0,1,2.4,1.11v-3.8Zm-1.23,6.2a2.32,2.32,0,1,0-2.32,2.44,2.28,2.28,0,0,0,2.32-2.22c0-.08,0-.15,0-.22Z"/><path class="cls-4" d="M657.67,341.72v4.16h-1.19V345a2.55,2.55,0,0,1-2.26,1c-1.56,0-2.55-.83-2.55-2s.72-2,2.77-2h2v-.24c0-1.06-.61-1.67-1.85-1.67a3.44,3.44,0,0,0-2.18.74l-.52-.93a4.56,4.56,0,0,1,2.85-.89A2.5,2.5,0,0,1,657.67,341.72Zm-1.25,2v-1h-1.93c-1.23,0-1.58.48-1.58,1.07s.57,1.12,1.52,1.12a2,2,0,0,0,2-1.19Z"/><path class="cls-4" d="M663.69,338.88v1.21h-.29a2.05,2.05,0,0,0-2.18,1.93,1.79,1.79,0,0,0,0,.4v3.46H660V339h1.2v1.16A2.63,2.63,0,0,1,663.69,338.88Z"/><path class="cls-4" d="M671.6,339l-3.34,7.58c-.61,1.46-1.4,1.91-2.46,1.91a2.52,2.52,0,0,1-1.76-.64l.56-1a1.77,1.77,0,0,0,1.23.5c.6,0,1-.27,1.32-1.06l.22-.48-3-6.88h1.23l2.4,5.51,2.38-5.51Z"/><path class="cls-4" d="M684.89,345.88v-6.63l-3.29,5.52H681l-3.29-5.48v6.59h-1.25v-9.1h1.07l3.79,6.4,3.75-6.4h1.06v9.1Z"/><path class="cls-4" d="M694.14,341.72v4.16H693V345a2.55,2.55,0,0,1-2.26,1c-1.56,0-2.55-.83-2.55-2s.72-2,2.77-2h2v-.24c0-1.06-.61-1.67-1.85-1.67a3.44,3.44,0,0,0-2.18.74l-.52-.93a4.59,4.59,0,0,1,2.84-.89A2.5,2.5,0,0,1,694.14,341.72Zm-1.24,2v-1H691c-1.23,0-1.58.48-1.58,1.07S690,345,690.91,345a2,2,0,0,0,2-1.19Z"/><path class="cls-4" d="M700.16,338.88v1.21h-.28A2.05,2.05,0,0,0,697.7,342a1.79,1.79,0,0,0,0,.4v3.46h-1.25V339h1.19v1.16A2.65,2.65,0,0,1,700.16,338.88Z"/><path class="cls-4" d="M704.38,342.67,703,344v1.89H701.7v-9.65H703v6.19L706.7,339h1.51l-2.9,2.85,3.19,4H707Z"/><path class="cls-4" d="M715.6,342.88H710a2.34,2.34,0,0,0,2.5,2,2.57,2.57,0,0,0,2-.84l.68.81a3.75,3.75,0,0,1-5.3,0,3.71,3.71,0,0,1-1.12-2.46,3.38,3.38,0,0,1,3.25-3.51h.21a3.33,3.33,0,0,1,3.42,3.22c0,.11,0,.22,0,.33S715.6,342.73,715.6,342.88ZM710,342h4.42a2.22,2.22,0,0,0-4.42,0Z"/><path class="cls-4" d="M721.25,345.48a2.35,2.35,0,0,1-1.51.48,2,2,0,0,1-2.18-1.8,2.16,2.16,0,0,1,0-.36V340h-1.17v-1h1.21v-1.54h1.25V339h2v1h-2v3.73c0,.74.38,1.16,1.07,1.16a1.58,1.58,0,0,0,1-.33Z"/></g><g id="Value_Proposition" data-name="Value Proposition"><path d="M609.49,138.88l-3.94,9.1h-2.08l-3.87-9.1h2.27l2.77,6.5,2.81-6.5Z"/><path d="M615.77,144v4h-1.9v-.87a2.3,2.3,0,0,1-2.13,1c-1.64,0-2.61-.91-2.61-2.12s.87-2.09,3-2.09h1.61c0-.87-.52-1.38-1.61-1.38a3.34,3.34,0,0,0-2,.65l-.73-1.41a5.31,5.31,0,0,1,3-.85C614.54,140.88,615.77,141.88,615.77,144Zm-2,1.78V145h-1.39c-1,0-1.25.35-1.25.82s.43.85,1.15.85a1.49,1.49,0,0,0,1.46-.95Z"/><path d="M617.6,138.31h2V148h-2Z"/><path d="M628.6,141v7h-2v-.83a2.85,2.85,0,0,1-2.17.93,2.8,2.8,0,0,1-3-3.14v-4h2v3.66c0,1.17.52,1.69,1.42,1.69s1.61-.6,1.61-1.89v-3.46Z"/><path d="M637.26,145H632a1.85,1.85,0,0,0,2,1.41,2.33,2.33,0,0,0,1.75-.68l1.08,1.17a3.64,3.64,0,0,1-2.88,1.13c-2.42,0-4-1.52-4-3.6a3.56,3.56,0,0,1,3.52-3.6h.21a3.47,3.47,0,0,1,3.64,3.29v.34A4.89,4.89,0,0,1,637.26,145Zm-5.32-1.15h3.45a1.68,1.68,0,0,0-1.72-1.46A1.66,1.66,0,0,0,631.94,143.88Z"/><path d="M650.36,142.16c0,2-1.52,3.29-4,3.29H644.6V148h-2.11v-9.08h3.94C648.84,138.88,650.36,140.12,650.36,142.16Zm-2.13,0c0-1-.65-1.59-1.94-1.59H644.6v3.16h1.71C647.6,143.73,648.23,143.15,648.23,142.16Z"/><path d="M656.06,140.88v1.87h-.46a1.72,1.72,0,0,0-1.87,1.56,1.7,1.7,0,0,0,0,.39V148h-2v-7h1.93v.88A2.84,2.84,0,0,1,656.06,140.88Z"/><path d="M656.68,144.46a3.85,3.85,0,1,1,4.09,3.59h-.24a3.61,3.61,0,0,1-3.84-3.36A1.93,1.93,0,0,1,656.68,144.46Zm5.63,0a1.8,1.8,0,1,0-1.78,1.94,1.77,1.77,0,0,0,1.79-1.75A1.21,1.21,0,0,0,662.31,144.46Z"/><path d="M673.33,144.46a3.38,3.38,0,0,1-3.17,3.59h-.31a2.75,2.75,0,0,1-2.11-.84v3.26h-2V141h1.93v.81a2.74,2.74,0,0,1,2.2-.91,3.4,3.4,0,0,1,3.47,3.31A2.81,2.81,0,0,1,673.33,144.46Zm-2.05,0a1.79,1.79,0,0,0-3.57.3,1.8,1.8,0,0,0,1.79,1.64,1.77,1.77,0,0,0,1.79-1.75A1.21,1.21,0,0,0,671.28,144.46Z"/><path d="M674.17,144.46a3.85,3.85,0,1,1,4.09,3.59H678a3.6,3.6,0,0,1-3.83-3.35A2.09,2.09,0,0,1,674.17,144.46Zm5.63,0A1.8,1.8,0,1,0,678,146.4a1.77,1.77,0,0,0,1.8-1.74A1.34,1.34,0,0,0,679.8,144.46Z"/><path d="M682.52,147.31l.68-1.46a4.71,4.71,0,0,0,2.43.68c.94,0,1.29-.25,1.29-.64,0-1.14-4.23,0-4.23-2.77,0-1.32,1.2-2.26,3.24-2.26a5.71,5.71,0,0,1,2.69.61l-.67,1.44a4,4,0,0,0-2-.52c-.91,0-1.3.29-1.3.65,0,1.2,4.23,0,4.23,2.8,0,1.3-1.21,2.22-3.31,2.22A5.9,5.9,0,0,1,682.52,147.31Z"/><path d="M689.86,138.88a1.16,1.16,0,0,1,1.16-1.14h.1a1.13,1.13,0,0,1,1.25,1,.22.22,0,0,1,0,.08,1.17,1.17,0,0,1-1.17,1.17h-.09a1.16,1.16,0,0,1-1.26-1Zm.24,2.1h2v7h-2Z"/><path d="M698.53,147.62a2.91,2.91,0,0,1-1.65.44,2.31,2.31,0,0,1-2.61-2,2.44,2.44,0,0,1,0-.54v-2.87h-1.08v-1.56h1.08v-1.7h2v1.7H698v1.56h-1.74v2.85a.81.81,0,0,0,.69.91.55.55,0,0,0,.18,0,1.43,1.43,0,0,0,.82-.26Z"/><path d="M699.42,138.88a1.15,1.15,0,0,1,1.18-1.13h.09a1.13,1.13,0,0,1,1.25,1,.22.22,0,0,1,0,.08,1.27,1.27,0,0,1-2.53,0Zm.25,2.1h2v7h-2Z"/><path d="M703.06,144.46a3.85,3.85,0,1,1,4.09,3.59h-.24a3.61,3.61,0,0,1-3.84-3.36A1.93,1.93,0,0,1,703.06,144.46Zm5.63,0a1.79,1.79,0,0,0-3.57.3,1.8,1.8,0,0,0,1.79,1.64,1.76,1.76,0,0,0,1.79-1.73A1.48,1.48,0,0,0,708.69,144.46Z"/><path d="M719.25,144v4h-2v-3.69c0-1.13-.52-1.65-1.42-1.65a1.65,1.65,0,0,0-1.67,1.88V148h-2v-7h1.94v.82a3.08,3.08,0,0,1,2.31-.92,2.74,2.74,0,0,1,2.86,2.61A2.64,2.64,0,0,1,719.25,144Z"/></g><circle id="Ellipse_120" data-name="Ellipse 120" class="cls-7" cx="576.61" cy="279.95" r="3.07"/><circle id="Ellipse_121" data-name="Ellipse 121" class="cls-7" cx="576.61" cy="307.95" r="3.07"/><circle id="Ellipse_122" data-name="Ellipse 122" class="cls-7" cx="576.61" cy="341.95" r="3.07"/><g id="Underwriting_policies" data-name="Underwriting policies"><path d="M325.66,144v-5.07h2.11v5c0,1.73.75,2.44,2,2.44s2-.71,2-2.44v-5h2.08V144c0,2.68-1.54,4.17-4.12,4.17S325.66,146.63,325.66,144Z"/><path d="M343,144v4h-2v-3.69c0-1.13-.52-1.65-1.42-1.65a1.66,1.66,0,0,0-1.68,1.88V148h-2v-7h1.94v.82a3.08,3.08,0,0,1,2.31-.92A2.75,2.75,0,0,1,343,144Z"/><path d="M352,138.31V148h-1.94v-.81a2.7,2.7,0,0,1-2.18.91,3.6,3.6,0,0,1,0-7.2,2.66,2.66,0,0,1,2.09.85v-3.4Zm-2,6.15a1.8,1.8,0,1,0-1.78,1.94,1.77,1.77,0,0,0,1.8-1.74,1.34,1.34,0,0,0,0-.2Z"/><path d="M360.71,145h-5.29a1.87,1.87,0,0,0,2,1.41,2.37,2.37,0,0,0,1.76-.68l1.08,1.17a3.69,3.69,0,0,1-2.89,1.13c-2.42,0-4-1.52-4-3.6a3.56,3.56,0,0,1,3.52-3.6h.21a3.47,3.47,0,0,1,3.64,3.29v.34A4.89,4.89,0,0,1,360.71,145Zm-5.32-1.15h3.45a1.75,1.75,0,0,0-3.45,0Z"/><path d="M366.44,140.88v1.87H366a1.72,1.72,0,0,0-1.87,1.56,1.7,1.7,0,0,0,0,.39V148h-2v-7h1.94v.88A2.79,2.79,0,0,1,366.44,140.88Z"/><path d="M379.13,141l-2.53,7h-2l-1.57-4.34L371.45,148h-2l-2.52-7h1.91l1.65,4.74,1.72-4.74h1.71l1.67,4.74,1.7-4.74Z"/><path d="M384.42,140.88v1.87H384a1.72,1.72,0,0,0-1.87,1.56,1.7,1.7,0,0,0,0,.39V148h-2v-7h1.94v.88A2.79,2.79,0,0,1,384.42,140.88Z"/><path d="M385.39,138.88a1.16,1.16,0,0,1,1.16-1.14h.1a1.13,1.13,0,0,1,1.25,1,.22.22,0,0,1,0,.08,1.17,1.17,0,0,1-1.17,1.17h-.09a1.16,1.16,0,0,1-1.26-1Zm.24,2.1h2v7h-2Z"/><path d="M394.06,147.62a2.91,2.91,0,0,1-1.65.44,2.31,2.31,0,0,1-2.61-2,2.44,2.44,0,0,1,0-.54v-2.87h-1.08v-1.56h1.08v-1.7h2v1.7h1.81v1.56h-1.74v2.85a.81.81,0,0,0,.69.91.55.55,0,0,0,.18,0,1.43,1.43,0,0,0,.82-.26Z"/><path d="M395,138.88a1.15,1.15,0,0,1,1.18-1.13h.08a1.14,1.14,0,0,1,1.26,1,.28.28,0,0,1,0,.09,1.27,1.27,0,0,1-2.53,0Zm.25,2.1h2v7h-2Z"/><path d="M406.26,144v4h-2v-3.69c0-1.13-.52-1.65-1.42-1.65a1.66,1.66,0,0,0-1.68,1.88V148h-2v-7h1.94v.82a3.08,3.08,0,0,1,2.31-.92A2.75,2.75,0,0,1,406.26,144Z"/><path d="M415.39,141v5.83c0,2.6-1.4,3.79-3.93,3.79a5.74,5.74,0,0,1-3.43-1l.81-1.45a4.13,4.13,0,0,0,2.47.79c1.43,0,2.05-.65,2.05-1.91v-.3a2.9,2.9,0,0,1-2.21.87,3.38,3.38,0,0,1,0-6.76h0a2.82,2.82,0,0,1,2.32,1v-.9Zm-2,3.28a1.84,1.84,0,1,0-2,1.72h.12a1.69,1.69,0,0,0,1.83-1.55A1,1,0,0,0,413.39,144.24Z"/><path d="M428.6,144.46a3.38,3.38,0,0,1-3.17,3.59h-.31a2.75,2.75,0,0,1-2.11-.84v3.26h-2V141H423v.81a2.74,2.74,0,0,1,2.2-.91,3.39,3.39,0,0,1,3.46,3.32A2.53,2.53,0,0,1,428.6,144.46Zm-2.05,0a1.79,1.79,0,0,0-3.57.3,1.8,1.8,0,0,0,1.79,1.64,1.77,1.77,0,0,0,1.76-1.78c0-.05,0-.11,0-.16Z"/><path d="M429.4,144.46a3.85,3.85,0,1,1,4.09,3.59h-.24a3.61,3.61,0,0,1-3.84-3.36A1.93,1.93,0,0,1,429.4,144.46Zm5.63,0a1.79,1.79,0,0,0-3.57.3,1.8,1.8,0,0,0,1.79,1.64,1.76,1.76,0,0,0,1.79-1.73A1.48,1.48,0,0,0,435,144.46Z"/><path d="M438.44,138.31h2V148h-2Z"/><path d="M442.1,138.88a1.15,1.15,0,0,1,1.18-1.13h.09a1.13,1.13,0,0,1,1.25,1,.22.22,0,0,1,0,.08,1.27,1.27,0,0,1-2.53,0Zm.25,2.1h2v7h-2Z"/><path d="M445.74,144.46a3.62,3.62,0,0,1,3.65-3.59h.21a3.23,3.23,0,0,1,3.14,1.78l-1.58.85a1.73,1.73,0,0,0-1.57-1,1.94,1.94,0,0,0,0,3.88,1.71,1.71,0,0,0,1.57-1l1.58.85A3.27,3.27,0,0,1,449.6,148a3.62,3.62,0,0,1-3.85-3.37A1.09,1.09,0,0,1,445.74,144.46Z"/><path d="M453.7,138.88a1.15,1.15,0,0,1,1.18-1.13H455a1.13,1.13,0,0,1,1.25,1,.22.22,0,0,1,0,.08,1.27,1.27,0,0,1-2.52,0ZM454,141h2v7h-2Z"/><path d="M464.67,145h-5.29a1.87,1.87,0,0,0,2,1.41,2.37,2.37,0,0,0,1.76-.68l1.08,1.17a3.69,3.69,0,0,1-2.89,1.13c-2.42,0-4-1.52-4-3.6a3.56,3.56,0,0,1,3.52-3.6h.21a3.46,3.46,0,0,1,3.64,3.27,2.16,2.16,0,0,1,0,.36A4.89,4.89,0,0,1,464.67,145Zm-5.32-1.15h3.45a1.75,1.75,0,0,0-3.45,0Z"/><path d="M465.39,147.31l.67-1.46a4.71,4.71,0,0,0,2.43.68c.94,0,1.29-.25,1.29-.64,0-1.14-4.22,0-4.22-2.77,0-1.32,1.19-2.26,3.23-2.26a5.71,5.71,0,0,1,2.69.61l-.67,1.44a4,4,0,0,0-2-.52c-.91,0-1.3.29-1.3.65,0,1.2,4.23,0,4.23,2.8,0,1.3-1.21,2.22-3.3,2.22A5.9,5.9,0,0,1,465.39,147.31Z"/></g><g id="isologotypo"><path id="Path_245" data-name="Path 245" class="cls-10" d="M572.82,70.34V55.88h6.39a4,4,0,0,1,1.84.42,4.76,4.76,0,0,1,1.46,1.1,5.24,5.24,0,0,1,1,1.54,5,5,0,0,1,.35,1.75,4.78,4.78,0,0,1-.7,2.55,4,4,0,0,1-1.9,1.66l3.3,5.44h-3.17l-3-4.85H575.6v4.85ZM575.6,63h3.52a1.42,1.42,0,0,0,.73-.19,1.74,1.74,0,0,0,.58-.5,2.26,2.26,0,0,0,.38-.74,2.91,2.91,0,0,0,.15-.92,2.69,2.69,0,0,0-.17-.93,2.47,2.47,0,0,0-.44-.75,1.86,1.86,0,0,0-.63-.48,1.51,1.51,0,0,0-.72-.18h-3.4Z"/><path id="Path_246" data-name="Path 246" class="cls-10" d="M585.48,63a7.59,7.59,0,0,1,.48-2.62,7.05,7.05,0,0,1,3.64-4,6.88,6.88,0,0,1,3-.63,6.61,6.61,0,0,1,3.45.87,5.6,5.6,0,0,1,2.17,2.28l-2.16,1.49a3.64,3.64,0,0,0-.69-1,3.18,3.18,0,0,0-.88-.66,4.42,4.42,0,0,0-1-.36,4.79,4.79,0,0,0-1-.11,3.84,3.84,0,0,0-1.85.43,4,4,0,0,0-1.3,1.11,4.64,4.64,0,0,0-.77,1.54,5.59,5.59,0,0,0,0,3.57,4.92,4.92,0,0,0,.86,1.55,4.16,4.16,0,0,0,1.35,1.08,3.66,3.66,0,0,0,1.72.4,4.21,4.21,0,0,0,1-.12,3.59,3.59,0,0,0,1-.39,3.69,3.69,0,0,0,.89-.68,3.14,3.14,0,0,0,.65-1l2.3,1.32a4.66,4.66,0,0,1-1,1.44,6.19,6.19,0,0,1-1.44,1,7.58,7.58,0,0,1-3.52.87,6.06,6.06,0,0,1-2.83-.65,7.34,7.34,0,0,1-2.21-1.7,7.94,7.94,0,0,1-1.44-2.38A7.47,7.47,0,0,1,585.48,63Z"/><path id="Path_247" data-name="Path 247" class="cls-10" d="M603.14,61.07v9.27h-2.81V55.88h2.18L610,65.37V55.88h2.81V70.34H610.6Z"/><path id="Path_248" data-name="Path 248" class="cls-10" d="M566.29,56.31a1,1,0,0,0-1.84-.1,15.42,15.42,0,0,1-.85,1.67,14.5,14.5,0,0,0-27.88,7.54,18.48,18.48,0,0,0-2,3.3,1,1,0,0,0,.46,1.34h0a1,1,0,0,0,1.33-.47h0a14.07,14.07,0,0,1,.88-1.62,14.5,14.5,0,0,0,27.87-7.53,18.48,18.48,0,0,0,2-3.3,1,1,0,0,0,0-.77Zm-3.82,6.57a12.49,12.49,0,0,1-24.62,3,18.58,18.58,0,0,1,9.51-5.74,27.86,27.86,0,0,1,6.23-1l-3,3L552,63.6l5.42-5.42L551.26,52l-1.42,1.42,3.76,3.77a30.08,30.08,0,0,0-6.74,1,22.73,22.73,0,0,0-7.22,3.34,18.75,18.75,0,0,0-2.17,1.81v-.48a12.49,12.49,0,0,1,24.61-3,18.43,18.43,0,0,1-9.5,5.73,27.36,27.36,0,0,1-6.23,1l3-3-1.41-1.42-5.42,5.43,6.17,6.17,1.42-1.42-3.77-3.76a30.08,30.08,0,0,0,6.74-1,22.68,22.68,0,0,0,7.21-3.34,19.93,19.93,0,0,0,2.18-1.81Z"/></g><g id="Ellipse_123" data-name="Ellipse 123"><circle class="cls-10" cx="576.6" cy="143.88" r="8"/><circle class="cls-9" cx="576.6" cy="143.88" r="7.5"/></g><g id="ORIGINATORS"><path d="M259.24,63.44a4.6,4.6,0,1,1,4.85,4.33h-.26a4.33,4.33,0,0,1-4.58-4.08A2.26,2.26,0,0,1,259.24,63.44Zm7.22,0a2.63,2.63,0,1,0-2.63,2.69,2.57,2.57,0,0,0,2.63-2.51v-.18Z"/><path d="M275.25,67.64,273.6,65.3h-1.79v2.34H269.9v-8.4h3.63c2.24,0,3.65,1.17,3.65,3a2.72,2.72,0,0,1-1.73,2.65l1.88,2.7Zm-1.83-6.76h-1.58V63.8h1.58c1.19,0,1.79-.55,1.79-1.46S274.6,60.88,273.42,60.88Z"/><path d="M278.72,59.24h1.94v8.4h-1.94Z"/><path d="M288.33,63.31h1.77v3.4a5.74,5.74,0,0,1-3.39,1.07,4.35,4.35,0,1,1-.59-8.68h.59a4.5,4.5,0,0,1,3.52,1.45L289,61.7a2.84,2.84,0,0,0-2.17-1,2.69,2.69,0,0,0,0,5.38,3.21,3.21,0,0,0,1.52-.36Z"/><path d="M291.91,59.24h1.94v8.4h-1.94Z"/><path d="M303.54,59.24v8.4H302l-4.19-5.1v5.1h-1.92v-8.4h1.61l4.17,5.1v-5.1Z"/><path d="M311.07,65.88h-3.9l-.75,1.8h-2l3.75-8.4h1.91l3.76,8.4h-2Zm-.62-1.48-1.33-3.21-1.33,3.21Z"/><path d="M316.05,60.88h-2.69V59.24h7.32v1.64H318v6.81h-1.94Z"/><path d="M321.08,63.44a4.6,4.6,0,1,1,4.85,4.33h-.26a4.33,4.33,0,0,1-4.58-4.08A2.26,2.26,0,0,1,321.08,63.44Zm7.22,0a2.63,2.63,0,1,0-2.63,2.69,2.57,2.57,0,0,0,2.63-2.51Z"/><path d="M337.08,67.64l-1.62-2.34h-1.78v2.34h-1.95v-8.4h3.64c2.24,0,3.64,1.17,3.64,3a2.73,2.73,0,0,1-1.72,2.65l1.88,2.7Zm-1.82-6.76h-1.58V63.8h1.58c1.19,0,1.79-.55,1.79-1.46S336.45,60.88,335.26,60.88Z"/><path d="M339.89,66.81l.66-1.46a5,5,0,0,0,2.77.87c1.15,0,1.62-.38,1.62-.9,0-1.57-4.88-.49-4.88-3.61,0-1.42,1.15-2.61,3.54-2.61a5.71,5.71,0,0,1,2.91.74l-.6,1.48a4.62,4.62,0,0,0-2.32-.66c-1.15,0-1.6.43-1.6,1,0,1.54,4.88.48,4.88,3.56,0,1.4-1.16,2.6-3.56,2.6A5.94,5.94,0,0,1,339.89,66.81Z"/></g><g id="BORROWERS"><path d="M40.3,66.44c0,1.45-1.16,2.29-3.36,2.29H32.6v-8.4h4.1c2.1,0,3.18.88,3.18,2.19a2,2,0,0,1-1.12,1.84A2.06,2.06,0,0,1,40.3,66.44ZM34.53,61.8v2h1.93c.94,0,1.46-.34,1.46-1s-.52-1-1.46-1Zm3.81,4.44c0-.71-.54-1-1.55-1H34.53v2.08h2.26C37.8,67.27,38.34,67,38.34,66.24Z"/><path d="M41.25,64.53a4.35,4.35,0,0,1,4.33-4.35h.26a4.35,4.35,0,0,1,.59,8.68h-.59a4.33,4.33,0,0,1-4.58-4.08A2.26,2.26,0,0,1,41.25,64.53Zm7.22,0a2.63,2.63,0,1,0-2.63,2.69,2.56,2.56,0,0,0,2.63-2.49Z"/><path d="M57.25,68.73,55.6,66.39H53.85v2.34h-2v-8.4h3.64c2.24,0,3.64,1.17,3.64,3A2.73,2.73,0,0,1,57.41,66l1.88,2.7Zm-1.82-6.85H53.85v3h1.58c1.19,0,1.79-.55,1.79-1.46S56.6,61.88,55.43,61.88Z"/><path d="M66.07,68.73l-1.62-2.34H62.67v2.34h-2v-8.4h3.64c2.24,0,3.64,1.17,3.64,3A2.73,2.73,0,0,1,66.23,66l1.88,2.7Zm-1.82-6.85H62.67v3h1.58c1.19,0,1.79-.55,1.79-1.46S65.44,61.88,64.25,61.88Z"/><path d="M69,64.53a4.6,4.6,0,1,1,4.84,4.34H73.6A4.34,4.34,0,0,1,69,64.79,2.26,2.26,0,0,1,69,64.53Zm7.22,0a2.63,2.63,0,1,0-2.64,2.69,2.55,2.55,0,0,0,2.64-2.48Z"/><path d="M92.08,60.33l-2.74,8.4H87.25L85.4,63.05l-1.9,5.68H81.42l-2.76-8.4h2l1.94,5.91,2-5.91h1.8l1.92,6,2-6Z"/><path d="M99.67,67.17v1.56h-6.5v-8.4h6.35v1.55H95.1v1.83H99v1.51H95.1v1.94Z"/><path d="M106.6,68.73,105,66.39H103.2v2.34h-2v-8.4h3.64c2.24,0,3.64,1.17,3.64,3A2.73,2.73,0,0,1,106.78,66l1.88,2.7Zm-1.85-6.85h-1.58v3h1.58c1.19,0,1.79-.55,1.79-1.46S105.94,61.88,104.75,61.88Z"/><path d="M109.38,67.88l.66-1.46a5,5,0,0,0,2.77.87c1.15,0,1.62-.38,1.62-.89,0-1.58-4.88-.5-4.88-3.61,0-1.43,1.15-2.62,3.54-2.62a5.71,5.71,0,0,1,2.91.74l-.6,1.48a4.72,4.72,0,0,0-2.32-.66c-1.15,0-1.6.43-1.6,1,0,1.55,4.88.48,4.88,3.56,0,1.4-1.16,2.6-3.56,2.6A5.94,5.94,0,0,1,109.38,67.88Z"/></g><g id="Group_356" data-name="Group 356"><line id="Line_872-2" data-name="Line 872-2" class="cls-8" x1="131.1" y1="63.38" x2="239.1" y2="63.38"/><line id="Line_873-2" data-name="Line 873-2" class="cls-9" x1="232.1" y1="71.38" x2="239.1" y2="63.38"/><line id="Line_874-2" data-name="Line 874-2" class="cls-9" x1="232.1" y1="56.38" x2="239.1" y2="63.38"/></g><g id="Ellipse_124" data-name="Ellipse 124"><circle class="cls-10" cx="303.6" cy="142.88" r="8"/><circle class="cls-9" cx="303.6" cy="142.88" r="7.5"/></g></g></g></svg>