<svg id="Capa_1" data-name="Capa 1" xmlns="http://www.w3.org/2000/svg" viewBox="0 0 891 369.52"><defs><style>.cls-1,.cls-3,.cls-4,.cls-7{fill:none;}.cls-2{fill:#696969;}.cls-3,.cls-4,.cls-5,.cls-6,.cls-7{stroke:#000;}.cls-4,.cls-7{stroke-miterlimit:10;}.cls-5,.cls-8{fill:#fff;}.cls-6{fill:#404fff;}.cls-7{stroke-width:0.5px;}</style></defs><title>esquemas</title><rect class="cls-1" x="0.39" y="0.12" width="891" height="369.52"/><rect class="cls-1" x="124.58" y="22.88" width="627" height="326"/><path class="cls-2" d="M448,225.77h1.3v8h4.92v1.11H448Z"/><path class="cls-2" d="M456.63,226.88h-3.12v-1.13H461v1.13h-3.12v8h-1.29Z"/><path class="cls-2" d="M470.25,225.77l-4,9.1H465l-4-9.1h1.4l3.28,7.48,3.3-7.48Z"/><path class="cls-2" d="M481.19,234.88l-2-2.79h-2.82v2.79h-1.3v-9.1h3.55c2.37,0,3.8,1.2,3.8,3.17a2.89,2.89,0,0,1-2,2.88l2.16,3Zm0-5.93c0-1.3-.87-2-2.54-2h-2.21v4.1h2.14c1.7-.05,2.57-.81,2.57-2.11Z"/><path class="cls-2" d="M489.77,230.71v4.17h-1.19V234a2.54,2.54,0,0,1-2.26,1c-1.56,0-2.55-.83-2.55-2s.72-2,2.77-2h2v-.25c0-1.05-.61-1.66-1.85-1.66a3.44,3.44,0,0,0-2.18.74l-.52-.94a4.63,4.63,0,0,1,2.85-.88A2.5,2.5,0,0,1,489.77,230.71Zm-1.25,2.06v-1h-1.94c-1.23,0-1.58.48-1.58,1.07s.57,1.12,1.52,1.12A2,2,0,0,0,488.52,232.77Z"/><path class="cls-2" d="M496,234.47a2.32,2.32,0,0,1-1.5.48,2,2,0,0,1-2.19-1.79,2.28,2.28,0,0,1,0-.37V229h-1.17v-1h1.17V226.5h1.25V228h2v1h-2v3.73a1,1,0,0,0,.85,1.13.79.79,0,0,0,.22,0,1.58,1.58,0,0,0,1-.33Z"/><path class="cls-2" d="M497.24,225.88a.82.82,0,0,1,.82-.82h0a.8.8,0,0,1,.84.76v0a.85.85,0,0,1-1.69,0Zm.22,2.13h1.25v6.87h-1.25Z"/><path class="cls-2" d="M500.45,231.43a3.59,3.59,0,1,1,3.66,3.52H504a3.43,3.43,0,0,1-3.59-3.26Zm5.9,0a2.32,2.32,0,0,0-4.64,0h0a2.32,2.32,0,0,0,4.64,0Z"/><path class="cls-2" d="M448,256.75h1.3v9.13H448Z"/><path class="cls-2" d="M458.33,261.88v4h-1.25v-3.82c0-1.36-.67-2-1.86-2a2,2,0,0,0-2.19,1.79,1.68,1.68,0,0,0,0,.5v3.53h-1.25V259H453v1a2.94,2.94,0,0,1,2.48-1.11,2.66,2.66,0,0,1,2.87,2.45A2.53,2.53,0,0,1,458.33,261.88Z"/><path class="cls-2" d="M464.52,265.45a2.35,2.35,0,0,1-1.51.48,2,2,0,0,1-2.18-1.8,2.16,2.16,0,0,1,0-.36V260h-1.17v-1h1.17v-1.51h1.25V259h2v1h-2v3.74a1,1,0,0,0,.83,1.14.7.7,0,0,0,.25,0,1.57,1.57,0,0,0,1-.32Z"/><path class="cls-2" d="M472,262.82h-5.6a2.34,2.34,0,0,0,2.5,2,2.56,2.56,0,0,0,2-.83l.69.81a3.75,3.75,0,0,1-5.3.05,3.71,3.71,0,0,1-1.12-2.46,3.38,3.38,0,0,1,3.25-3.51h.16a3.33,3.33,0,0,1,3.41,3.23c0,.11,0,.21,0,.32A1,1,0,0,1,472,262.82Zm-5.6-.9h4.43a2.23,2.23,0,0,0-4.43,0Z"/><path class="cls-2" d="M477.46,258.88v1.21h-.29A2.05,2.05,0,0,0,475,262a1.79,1.79,0,0,0,0,.4v3.46h-1.25V259H475v1.16A2.63,2.63,0,0,1,477.46,258.88Z"/><path class="cls-2" d="M485.12,262.82h-5.54a2.33,2.33,0,0,0,2.49,2,2.56,2.56,0,0,0,2-.83l.69.81a3.77,3.77,0,0,1-6.41-2.07c0-.11,0-.23,0-.34a3.38,3.38,0,0,1,3.25-3.51h.21a3.33,3.33,0,0,1,3.41,3.23c0,.11,0,.21,0,.32A2.7,2.7,0,0,1,485.12,262.82Zm-5.54-.94H484a2.22,2.22,0,0,0-4.42,0Z"/><path class="cls-2" d="M486,265.12l.52-1a4.42,4.42,0,0,0,2.42.72c1.15,0,1.63-.35,1.63-.94,0-1.55-4.35-.21-4.35-2.95,0-1.24,1.1-2.07,2.87-2.07a5,5,0,0,1,2.51.63l-.53,1a3.53,3.53,0,0,0-2-.55c-1.09,0-1.63.4-1.63,1,0,1.62,4.37.3,4.37,3,0,1.25-1.14,2-3,2A5,5,0,0,1,486,265.12Z"/><path class="cls-2" d="M497.27,265.45a2.35,2.35,0,0,1-1.51.48,2,2,0,0,1-2.18-1.8,2.16,2.16,0,0,1,0-.36V260H492.4v-1h1.18v-1.51h1.24V259h2v1h-2v3.74a1,1,0,0,0,.83,1.14.7.7,0,0,0,.25,0,1.57,1.57,0,0,0,1-.32Z"/><path class="cls-2" d="M508.58,265.88l-2-2.8h-2.82v2.8h-1.3v-9.1H506c2.37,0,3.8,1.19,3.8,3.17a2.87,2.87,0,0,1-2,2.87l2.16,3.06Zm0-5.93c0-1.3-.87-2-2.54-2h-2.21V262H506c1.59-.07,2.46-.82,2.46-2.16Z"/><path class="cls-2" d="M517.12,261.69v4.19h-1.19V265a2.55,2.55,0,0,1-2.26,1c-1.56,0-2.55-.84-2.55-2s.72-2,2.77-2h2v-.24c0-1.06-.61-1.67-1.85-1.67a3.44,3.44,0,0,0-2.18.74l-.52-.93a4.56,4.56,0,0,1,2.85-.89C516.05,258.88,517.12,259.8,517.12,261.69Zm-1.25,2.05v-1H514c-1.24,0-1.59.48-1.59,1.07s.57,1.11,1.52,1.11A2,2,0,0,0,515.87,263.74Z"/><path class="cls-2" d="M523.31,265.45a2.35,2.35,0,0,1-1.51.48,2,2,0,0,1-2.19-1.79,2.28,2.28,0,0,1,0-.37V260h-1.17v-1h1.14v-1.51h1.25V259h2v1h-2v3.74a1,1,0,0,0,.83,1.14.7.7,0,0,0,.25,0,1.57,1.57,0,0,0,1-.32Z"/><path class="cls-2" d="M530.78,262.82h-5.59a2.34,2.34,0,0,0,2.5,2,2.56,2.56,0,0,0,2-.83l.69.81a3.53,3.53,0,0,1-2.72,1.12,3.45,3.45,0,0,1-3.7-3.18c0-.12,0-.23,0-.35a3.38,3.38,0,0,1,3.25-3.51h.21a3.33,3.33,0,0,1,3.42,3.22c0,.11,0,.22,0,.33S530.79,262.7,530.78,262.82Zm-5.59-.9h4.39a2.22,2.22,0,0,0-4.42,0Z"/><path class="cls-2" d="M448,288.2h3.83c2.92,0,4.91,1.85,4.91,4.55s-2,4.55-4.91,4.55H448Zm3.75,8a3.43,3.43,0,1,0,.52-6.84h-3v6.84Z"/><path class="cls-2" d="M464.92,290.41v6.89h-1.18v-1a2.81,2.81,0,0,1-2.34,1.12,2.71,2.71,0,0,1-3-2.38,3.21,3.21,0,0,1,0-.62v-4h1.24v3.82c0,1.35.68,2,1.86,2a2,2,0,0,0,2.15-1.83,1.77,1.77,0,0,0,0-.46v-3.56Z"/><path class="cls-2" d="M471,290.35v1.2h-.29a2.07,2.07,0,0,0-2.16,2,2.3,2.3,0,0,0,0,.37v3.43h-1.25v-6.89h1.2v1.16A2.61,2.61,0,0,1,471,290.35Z"/><path class="cls-2" d="M478,293.14v4.16H476.8v-.91a2.55,2.55,0,0,1-2.26,1c-1.56,0-2.55-.83-2.55-2s.72-2,2.77-2h2v-.25c0-1.06-.61-1.67-1.85-1.67a3.45,3.45,0,0,0-2.18.75l-.52-.94a4.63,4.63,0,0,1,2.85-.88C476.92,290.35,478,291.26,478,293.14Zm-1.25,2.05v-1h-1.92c-1.24,0-1.59.48-1.59,1.07s.57,1.12,1.52,1.12A2,2,0,0,0,476.74,295.19Z"/><path class="cls-2" d="M484.18,296.88a2.35,2.35,0,0,1-1.51.48,2,2,0,0,1-2.19-1.79,2.29,2.29,0,0,1,0-.37v-3.78h-1.17v-1h1.17v-1.54h1.25v1.51h2v1h-2v3.73a1,1,0,0,0,.82,1.15.76.76,0,0,0,.26,0,1.58,1.58,0,0,0,1-.33Z"/><path class="cls-2" d="M485.46,288.28a.82.82,0,0,1,.82-.82h0a.8.8,0,0,1,.84.76v0a.85.85,0,0,1-1.69,0Zm.22,2.13h1.25v6.89h-1.25Z"/><path class="cls-2" d="M488.67,293.88a3.59,3.59,0,1,1,3.66,3.52h-.07a3.43,3.43,0,0,1-3.59-3.26Zm5.91,0a2.33,2.33,0,1,0-4.65-.31,1.6,1.6,0,0,0,0,.31,2.33,2.33,0,0,0,4.65.31A1.6,1.6,0,0,0,494.58,293.88Z"/><path class="cls-2" d="M504.1,293.34v4h-1.24v-3.86c0-1.35-.68-2-1.86-2a2,2,0,0,0-2.2,1.89,1.79,1.79,0,0,0,0,.4v3.55h-1.23v-6.89h1.19v1a3,3,0,0,1,2.48-1.1,2.67,2.67,0,0,1,2.86,2.46A2.53,2.53,0,0,1,504.1,293.34Z"/><line id="Line_752" data-name="Line 752" class="cls-3" x1="251.08" y1="79.38" x2="350.08" y2="79.38"/><line id="Line_753" data-name="Line 753" class="cls-3" x1="343.08" y1="87.38" x2="350.08" y2="79.38"/><line id="Line_754" data-name="Line 754" class="cls-3" x1="343.08" y1="72.38" x2="350.08" y2="79.38"/><line id="Line_755" data-name="Line 755" class="cls-3" x1="616.08" y1="79.38" x2="517.08" y2="79.38"/><line id="Line_756" data-name="Line 756" class="cls-3" x1="524.08" y1="71.38" x2="517.08" y2="79.38"/><line id="Line_757" data-name="Line 757" class="cls-3" x1="524.08" y1="86.38" x2="517.08" y2="79.38"/><line id="Line_758" data-name="Line 758" class="cls-4" x1="428.08" y1="323.38" x2="427.96" y2="163.38"/><circle id="Ellipse_142" data-name="Ellipse 142" class="cls-5" cx="427.96" cy="261.69" r="3.07"/><circle id="Ellipse_143" data-name="Ellipse 143" class="cls-5" cx="427.96" cy="231.14" r="3.07"/><circle id="Ellipse_144" data-name="Ellipse 144" class="cls-5" cx="427.96" cy="290.91" r="3.07"/><circle id="Ellipse_149" data-name="Ellipse 149" class="cls-5" cx="427.96" cy="322.91" r="3.07"/><path class="cls-2" d="M453.74,326h-4.83l-1,2.27h-1.33l4.12-9.1H452l4.14,9.1h-1.37Zm-.45-1-2-4.46-2,4.46Z"/><path class="cls-2" d="M468.72,324.34v4h-1.25v-3.86c0-1.35-.65-2-1.78-2a2,2,0,0,0-2.09,1.91,1.64,1.64,0,0,0,0,.38v3.55h-1.25v-3.84c0-1.35-.64-2-1.78-2a2,2,0,0,0-2.08,1.92,1.53,1.53,0,0,0,0,.37v3.55h-1.25v-6.89h1.19v1a2.82,2.82,0,0,1,2.38-1.09,2.55,2.55,0,0,1,2.4,1.27,3.1,3.1,0,0,1,2.65-1.27C467.58,321.35,468.72,322.31,468.72,324.34Z"/><path class="cls-2" d="M470.42,324.88a3.59,3.59,0,1,1,3.66,3.52H474a3.43,3.43,0,0,1-3.59-3.26Zm5.9,0A2.32,2.32,0,1,0,474,327.2,2.32,2.32,0,0,0,476.32,324.88Z"/><path class="cls-2" d="M483,321.35v1.2h-.29a2.06,2.06,0,0,0-2.17,1.95,2.42,2.42,0,0,0,0,.38v3.43h-1.25v-6.89h1.2v1.16A2.62,2.62,0,0,1,483,321.35Z"/><path class="cls-2" d="M488.71,327.88a2.35,2.35,0,0,1-1.51.48,2,2,0,0,1-2.18-1.8,2.16,2.16,0,0,1,0-.36v-3.78h-1.17v-1H485v-1.54h1.25v1.51h2v1h-2v3.73a1,1,0,0,0,.82,1.15.76.76,0,0,0,.26,0,1.58,1.58,0,0,0,1-.33Z"/><path class="cls-2" d="M490,319.28a.82.82,0,0,1,.82-.82h0a.81.81,0,0,1-.06,1.62A.82.82,0,0,1,490,319.28Zm.22,2.13h1.25v6.89h-1.25Z"/><path class="cls-2" d="M499,327.27v1h-5.78v-.81l4.07-5h-4v-1h5.59v.82l-4.07,5Z"/><path class="cls-2" d="M506.08,324.14v4.16H504.9v-.91a2.59,2.59,0,0,1-2.27,1c-1.55,0-2.54-.83-2.54-2s.71-2,2.77-2h2v-.25c0-1.06-.61-1.67-1.84-1.67a3.48,3.48,0,0,0-2.19.75l-.52-.94a4.63,4.63,0,0,1,2.85-.88C505,321.35,506.08,322.26,506.08,324.14Zm-1.25,2.05v-1h-1.92c-1.24,0-1.59.48-1.59,1.07s.57,1.12,1.52,1.12A2,2,0,0,0,504.83,326.19Z"/><path class="cls-2" d="M512.27,327.88a2.35,2.35,0,0,1-1.51.48,2,2,0,0,1-2.18-1.8,2.16,2.16,0,0,1,0-.36v-3.78h-1.17v-1h1.17v-1.54h1.24v1.51h2v1h-2v3.73a1,1,0,0,0,.82,1.15.76.76,0,0,0,.26,0,1.58,1.58,0,0,0,1-.33Z"/><path class="cls-2" d="M513.58,319.28a.82.82,0,0,1,.82-.82h0a.81.81,0,1,1-.85.82Zm.23,2.13h1.24v6.89h-1.27Z"/><path class="cls-2" d="M516.77,324.88a3.58,3.58,0,1,1,3.64,3.52h-.06a3.42,3.42,0,0,1-3.58-3.25Zm5.9,0a2.32,2.32,0,1,0-2.32,2.43,2.24,2.24,0,0,0,2.32-2.19A1,1,0,0,0,522.67,324.88Z"/><path class="cls-2" d="M532.2,324.34v4H531v-3.86c0-1.35-.68-2-1.86-2a2,2,0,0,0-2.19,1.79,1.68,1.68,0,0,0,0,.5v3.55h-1.25v-6.89h1.19v1a3,3,0,0,1,2.49-1.1,2.66,2.66,0,0,1,2.87,2.45A2.62,2.62,0,0,1,532.2,324.34Z"/><path class="cls-2" d="M537.14,327.57l.52-1a4.37,4.37,0,0,0,2.41.72c1.16,0,1.64-.35,1.64-.94,0-1.54-4.35-.2-4.35-3,0-1.23,1.1-2.06,2.87-2.06a5,5,0,0,1,2.51.62l-.53,1a3.53,3.53,0,0,0-2-.55c-1.09,0-1.63.4-1.63,1,0,1.63,4.37.3,4.37,3,0,1.25-1.14,2-3,2A4.89,4.89,0,0,1,537.14,327.57Z"/><path class="cls-2" d="M543.88,324.88a3.45,3.45,0,0,1,3.36-3.52h.28a3.07,3.07,0,0,1,2.81,1.46l-1,.62a2.13,2.13,0,0,0-1.87-1,2.43,2.43,0,0,0,0,4.85,2.16,2.16,0,0,0,1.87-1l1,.6a3.08,3.08,0,0,1-2.81,1.48,3.45,3.45,0,0,1-3.64-3.25Z"/><path class="cls-2" d="M558.39,324.34v4h-1.25v-3.86c0-1.35-.67-2-1.85-2a2,2,0,0,0-2.2,1.89,1.79,1.79,0,0,0,0,.4v3.55h-1.25v-9.65h1.25v3.74a3,3,0,0,1,2.43-1,2.68,2.68,0,0,1,2.87,2.46A2.46,2.46,0,0,1,558.39,324.34Z"/><path class="cls-2" d="M567,325.27h-5.59a2.33,2.33,0,0,0,2.49,2,2.57,2.57,0,0,0,2-.84l.69.81a3.75,3.75,0,0,1-6.42-2.4,3.37,3.37,0,0,1,3.23-3.51h.23a3.33,3.33,0,0,1,3.41,3.23c0,.1,0,.21,0,.31S567,325.15,567,325.27Zm-5.59-.9h4.42a2.22,2.22,0,0,0-4.42,0Z"/><path class="cls-2" d="M575.2,318.65v9.65H574v-1.09a2.91,2.91,0,0,1-2.42,1.17,3.52,3.52,0,0,1,0-7,2.91,2.91,0,0,1,2.4,1.1v-3.8ZM574,324.88a2.33,2.33,0,1,0-2.32,2.43,2.28,2.28,0,0,0,2.32-2.23A1.34,1.34,0,0,0,574,324.88Z"/><path class="cls-2" d="M584,321.41v6.89h-1.18v-1a2.8,2.8,0,0,1-2.35,1.12,2.71,2.71,0,0,1-3-2.38,3.21,3.21,0,0,1,0-.62v-4h1.25v3.82c0,1.35.68,2,1.86,2a2,2,0,0,0,2.15-1.84,2.26,2.26,0,0,0,0-.45v-3.56Z"/><path class="cls-2" d="M586.37,318.65h1.21v9.65h-1.25Z"/><path class="cls-2" d="M596.2,325.27h-5.62a2.33,2.33,0,0,0,2.49,2,2.57,2.57,0,0,0,2-.84l.69.81a3.75,3.75,0,0,1-6.42-2.4,3.37,3.37,0,0,1,3.23-3.51h.23a3.33,3.33,0,0,1,3.41,3.23c0,.1,0,.21,0,.31A1.78,1.78,0,0,1,596.2,325.27Zm-5.59-.9H595a2.22,2.22,0,0,0-4.42,0Z"/><path d="M445.09,201.33a5,5,0,0,1,8.68-3.09l-1.35,1.24a2.92,2.92,0,1,0,0,3.68l1.35,1.25a5,5,0,0,1-8.68-3.08Z"/><path d="M461.91,198.88v7H460v-.83a2.84,2.84,0,0,1-2.17.93,2.8,2.8,0,0,1-3-3.14v-4h2v3.65c0,1.17.52,1.69,1.42,1.69s1.61-.6,1.61-1.89v-3.41Z"/><path d="M463.12,205.23l.67-1.46a4.71,4.71,0,0,0,2.43.68c.94,0,1.29-.25,1.29-.64,0-1.14-4.22,0-4.22-2.77,0-1.32,1.19-2.26,3.23-2.26a5.71,5.71,0,0,1,2.69.61l-.63,1.49a4,4,0,0,0-2-.52c-.91,0-1.3.28-1.3.65,0,1.19,4.23,0,4.23,2.79,0,1.3-1.21,2.22-3.3,2.22A6,6,0,0,1,463.12,205.23Z"/><path d="M475.21,205.54a2.91,2.91,0,0,1-1.65.44,2.31,2.31,0,0,1-2.61-2,2.44,2.44,0,0,1,0-.54V200.6h-1.07V199h1.07v-1.7h2V199h1.74v1.56h-1.74v2.85a.81.81,0,0,0,.69.91.55.55,0,0,0,.18,0,1.43,1.43,0,0,0,.82-.26Z"/><path d="M475.58,202.38a3.85,3.85,0,1,1,4.09,3.59h-.24a3.61,3.61,0,0,1-3.84-3.36A1.93,1.93,0,0,1,475.58,202.38Zm5.63,0a1.8,1.8,0,1,0-3.58-.38,2.41,2.41,0,0,0,0,.38,1.8,1.8,0,0,0,3.58.38A2.41,2.41,0,0,0,481.21,202.38Z"/><path d="M496.46,201.88v4h-2v-3.69c0-1.13-.51-1.65-1.33-1.65s-1.55.58-1.55,1.83v3.51h-2v-3.69c0-1.13-.48-1.65-1.32-1.65s-1.54.58-1.54,1.83v3.51h-2v-7h1.86v.8a2.85,2.85,0,0,1,2.2-.91,2.6,2.6,0,0,1,2.3,1.15,3.16,3.16,0,0,1,2.5-1.14C495.27,198.78,496.46,199.74,496.46,201.88Z"/><path d="M498,196.78a1.16,1.16,0,0,1,1.16-1.14h.1a1.13,1.13,0,0,1,1.25,1,.22.22,0,0,1,0,.08,1.17,1.17,0,0,1-1.17,1.17h-.09a1.16,1.16,0,0,1-1.26-1Zm.24,2.11h2v7h-2Z"/><path d="M508,204.32v1.56h-6.25v-1.22l3.57-4.21h-3.47v-1.57h6v1.22l-3.56,4.21Z"/><path d="M515.44,201.88v4h-1.86V205a2.28,2.28,0,0,1-2.13,1c-1.63,0-2.61-.91-2.61-2.11s.87-2.1,3-2.1h1.61c0-.87-.52-1.38-1.61-1.38a3.34,3.34,0,0,0-2,.65l-.73-1.41a5.39,5.39,0,0,1,3-.85C514.21,198.78,515.44,199.77,515.44,201.88Zm-2,1.78v-.72h-1.39c-.94,0-1.24.36-1.24.82s.42.85,1.14.85a1.46,1.46,0,0,0,1.46-.94Z"/><path d="M524.89,202.38a3.38,3.38,0,0,1-3.17,3.59h-.31a2.74,2.74,0,0,1-2.2-.91v.81h-1.93v-9.65h2v3.4a2.71,2.71,0,0,1,2.11-.85,3.39,3.39,0,0,1,3.5,3.29A1.61,1.61,0,0,1,524.89,202.38Zm-2,0a1.79,1.79,0,0,0-3.57.3,1.8,1.8,0,0,0,1.79,1.64,1.76,1.76,0,0,0,1.79-1.73A1.48,1.48,0,0,0,522.84,202.38Z"/><path d="M526.25,196.23h2v9.65h-2Z"/><path d="M537,203h-5.29a1.86,1.86,0,0,0,2,1.41,2.37,2.37,0,0,0,1.76-.68l1.08,1.17a3.69,3.69,0,0,1-2.89,1.13c-2.42,0-4-1.52-4-3.6a3.56,3.56,0,0,1,3.52-3.6h.21a3.47,3.47,0,0,1,3.64,3.29v.34A5,5,0,0,1,537,203Zm-5.32-1.18h3.45a1.75,1.75,0,0,0-3.45,0Z"/><path d="M550.07,200.08c0,2-1.52,3.29-4,3.29h-1.83v2.51h-2.11v-9.1h3.94C548.58,196.78,550.07,198,550.07,200.08Zm-2.13,0c0-1-.65-1.59-1.93-1.59h-1.72v3.16H546C547.29,201.65,547.94,201.07,547.94,200.08Z"/><path d="M557.58,201.88v4h-1.9V205a2.28,2.28,0,0,1-2.13,1c-1.64,0-2.61-.91-2.61-2.11s.87-2.1,3-2.1h1.61c0-.87-.52-1.38-1.61-1.38a3.41,3.41,0,0,0-2,.65l-.72-1.41a5.31,5.31,0,0,1,3-.85C556.31,198.78,557.58,199.77,557.58,201.88Zm-2,1.78v-.72h-1.39c-1,0-1.25.36-1.25.82s.43.85,1.15.85a1.49,1.49,0,0,0,1.43-.94Z"/><path d="M563.72,198.78v1.87h-.45a1.72,1.72,0,0,0-1.87,1.56,1.7,1.7,0,0,0,0,.39v3.28h-2v-7h1.94v.92A2.78,2.78,0,0,1,563.72,198.78Z"/><path d="M571.08,201.88v4h-1.9V205a2.28,2.28,0,0,1-2.13,1c-1.64,0-2.61-.91-2.61-2.11s.87-2.1,3-2.1h1.61c0-.87-.52-1.38-1.61-1.38a3.34,3.34,0,0,0-2,.65l-.73-1.41a5.39,5.39,0,0,1,3-.85C569.85,198.78,571.08,199.77,571.08,201.88Zm-2,1.78v-.72h-1.39c-1,0-1.25.36-1.25.82s.43.85,1.15.85a1.46,1.46,0,0,0,1.46-.94Z"/><path d="M584.73,201.88v4h-2v-3.69c0-1.13-.5-1.65-1.32-1.65s-1.55.58-1.55,1.83v3.51h-2v-3.69c0-1.13-.48-1.65-1.32-1.65s-1.54.58-1.54,1.83v3.51h-2v-7h1.94v.8a2.85,2.85,0,0,1,2.2-.91,2.61,2.61,0,0,1,2.3,1.15,3.15,3.15,0,0,1,2.52-1.15C583.58,198.78,584.73,199.74,584.73,201.88Z"/><path d="M593.44,203h-5.29a1.87,1.87,0,0,0,2,1.41,2.37,2.37,0,0,0,1.76-.68l1.08,1.17A3.69,3.69,0,0,1,590.1,206c-2.42,0-4-1.52-4-3.6a3.56,3.56,0,0,1,3.52-3.6h.21a3.47,3.47,0,0,1,3.64,3.29v.34A4.89,4.89,0,0,1,593.44,203Zm-5.32-1.18h3.46a1.75,1.75,0,0,0-3.45,0Z"/><path d="M599.34,205.54a2.91,2.91,0,0,1-1.65.44,2.3,2.3,0,0,1-2.6-2,2,2,0,0,1,0-.55V200.6H594V199h1.08v-1.7h2V199h1.74v1.56h-1.74v2.85a.81.81,0,0,0,.69.91.55.55,0,0,0,.18,0,1.43,1.43,0,0,0,.82-.26Z"/><path d="M607.08,203h-5.29a1.85,1.85,0,0,0,2,1.41,2.33,2.33,0,0,0,1.75-.68l1,1.2A3.64,3.64,0,0,1,603.7,206c-2.42,0-4-1.52-4-3.6a3.56,3.56,0,0,1,3.52-3.6h.21a3.47,3.47,0,0,1,3.64,3.29v.34A1.43,1.43,0,0,1,607.08,203Zm-5.32-1.18h3.45a1.68,1.68,0,0,0-1.72-1.45,1.65,1.65,0,0,0-1.73,1.45Z"/><path d="M612.81,198.78v1.87h-.45a1.72,1.72,0,0,0-1.87,1.56,1.7,1.7,0,0,0,0,.39v3.28h-2v-7h1.94v.92A2.78,2.78,0,0,1,612.81,198.78Z"/><path d="M613.37,205.23l.68-1.46a4.71,4.71,0,0,0,2.43.68c.93,0,1.29-.25,1.29-.64,0-1.14-4.23,0-4.23-2.77,0-1.32,1.2-2.26,3.24-2.26a5.71,5.71,0,0,1,2.69.61l-.68,1.45a4,4,0,0,0-2-.52c-.91,0-1.3.28-1.3.65,0,1.19,4.22,0,4.22,2.79,0,1.3-1.21,2.22-3.3,2.22A6.09,6.09,0,0,1,613.37,205.23Z"/><path id="Rectangle_1013" data-name="Rectangle 1013" class="cls-4" d="M154.34,60.64H232.8a18.28,18.28,0,0,1,18.26,18.24h0A18.27,18.27,0,0,1,232.8,97.15H154.34a18.27,18.27,0,0,1-18.26-18.27h0A18.27,18.27,0,0,1,154.34,60.64Z"/><path d="M160.28,81.44c0,1.45-1.16,2.29-3.36,2.29h-4.34v-8.4h4.1c2.1,0,3.18.88,3.18,2.19a2,2,0,0,1-1.12,1.84A2.06,2.06,0,0,1,160.28,81.44Zm-5.77-4.64v2h1.93c.94,0,1.46-.34,1.46-1s-.52-1-1.46-1Zm3.81,4.44c0-.71-.54-1-1.55-1h-2.26v2.08h2.26C157.78,82.27,158.32,82,158.32,81.24Z"/><path d="M161.23,79.53a4.35,4.35,0,0,1,4.33-4.35h.26a4.35,4.35,0,0,1,.59,8.68h-.59a4.33,4.33,0,0,1-4.58-4.08A2.26,2.26,0,0,1,161.23,79.53Zm7.22,0a2.63,2.63,0,1,0-2.63,2.69,2.56,2.56,0,0,0,2.63-2.49Z"/><path d="M177.23,83.73l-1.65-2.34h-1.75v2.34h-2v-8.4h3.64c2.24,0,3.64,1.17,3.64,3A2.73,2.73,0,0,1,177.39,81l1.88,2.7Zm-1.82-6.85h-1.58v3h1.58c1.19,0,1.79-.55,1.79-1.46S176.58,76.88,175.41,76.88Z"/><path d="M186.05,83.73l-1.62-2.34h-1.78v2.34h-2v-8.4h3.64c2.24,0,3.64,1.17,3.64,3A2.73,2.73,0,0,1,186.21,81l1.88,2.7Zm-1.82-6.85h-1.58v3h1.58c1.19,0,1.79-.55,1.79-1.46S185.42,76.88,184.23,76.88Z"/><path d="M189,79.53a4.6,4.6,0,1,1,4.84,4.34h-.26A4.34,4.34,0,0,1,189,79.79,2.26,2.26,0,0,1,189,79.53Zm7.22,0a2.63,2.63,0,1,0-2.64,2.69,2.55,2.55,0,0,0,2.64-2.48Z"/><path d="M212.06,75.33l-2.74,8.4h-2.09l-1.85-5.68-1.9,5.68H201.4l-2.76-8.4h2l1.94,5.91,2-5.91h1.8l1.92,6,2-6Z"/><path d="M219.65,82.17v1.56h-6.5v-8.4h6.35v1.55h-4.42v1.83H219v1.51h-3.9v1.94Z"/><path d="M226.58,83.73,225,81.39h-1.81v2.34h-2v-8.4h3.64c2.24,0,3.64,1.17,3.64,3A2.73,2.73,0,0,1,226.76,81l1.88,2.7Zm-1.85-6.85h-1.58v3h1.58c1.19,0,1.79-.55,1.79-1.46S225.92,76.88,224.73,76.88Z"/><path d="M229.36,82.88l.66-1.46a5,5,0,0,0,2.77.87c1.15,0,1.62-.38,1.62-.89,0-1.58-4.88-.5-4.88-3.61,0-1.43,1.15-2.62,3.54-2.62a5.71,5.71,0,0,1,2.91.74l-.6,1.48a4.72,4.72,0,0,0-2.32-.66c-1.15,0-1.6.43-1.6,1,0,1.55,4.88.48,4.88,3.56,0,1.4-1.16,2.6-3.56,2.6A5.94,5.94,0,0,1,229.36,82.88Z"/><path id="Rectangle_1015" data-name="Rectangle 1015" class="cls-4" d="M634.34,60.64H712.8a18.28,18.28,0,0,1,18.26,18.24h0A18.27,18.27,0,0,1,712.8,97.15H634.34a18.27,18.27,0,0,1-18.26-18.27h0A18.27,18.27,0,0,1,634.34,60.64Z"/><path d="M637.05,79.43a4.62,4.62,0,0,1,8-2.85l-1.24,1.15a2.72,2.72,0,0,0-2.12-1,2.69,2.69,0,1,0,2.12,4.37l1.24,1.15a4.61,4.61,0,0,1-8-2.85Z"/><path d="M651.72,83.63l-1.62-2.34h-1.78v2.34h-2V75.24H650c2.24,0,3.64,1.16,3.64,3a2.73,2.73,0,0,1-1.72,2.65l1.88,2.7Zm-1.82-6.81h-1.58v2.93h1.58c1.19,0,1.79-.56,1.79-1.47S651.09,76.82,649.9,76.82Z"/><path d="M661.7,82.07v1.56h-6.51V75.24h6.39V76.8h-4.42v1.82h3.9v1.51h-3.9v1.94Z"/><path d="M663.25,75.24h3.81c2.75,0,4.63,1.65,4.63,4.19s-1.88,4.2-4.63,4.2h-3.81ZM667,82a2.61,2.61,0,1,0,.32-5.21,1.71,1.71,0,0,0-.32,0h-1.77V82Z"/><path d="M673.16,75.24h1.94v8.39h-1.94Z"/><path d="M678.83,76.82h-2.68V75.24h7.31v1.58h-2.68v6.81h-2Z"/><path d="M683.86,79.43a4.6,4.6,0,1,1,4.84,4.34h-.24a4.34,4.34,0,0,1-4.59-4.09A2.26,2.26,0,0,1,683.86,79.43Zm7.22,0a2.63,2.63,0,1,0-2.62,2.69,2.55,2.55,0,0,0,2.62-2.48Z"/><path d="M699.87,83.63l-1.62-2.34h-1.79v2.34h-1.94V75.24h3.63c2.24,0,3.65,1.16,3.65,3a2.72,2.72,0,0,1-1.73,2.65l1.88,2.7ZM698,76.82h-1.58v2.93H698c1.19,0,1.79-.56,1.79-1.47s-.6-1.46-1.79-1.46Z"/><path d="M702.68,82.81l.66-1.47a4.9,4.9,0,0,0,2.77.88c1.15,0,1.62-.39,1.62-.9,0-1.57-4.88-.49-4.88-3.61,0-1.43,1.15-2.62,3.53-2.62a5.65,5.65,0,0,1,2.92.75l-.6,1.47a4.79,4.79,0,0,0-2.33-.66c-1.15,0-1.59.43-1.59,1,0,1.55,4.88.48,4.88,3.56,0,1.41-1.16,2.61-3.56,2.61A5.94,5.94,0,0,1,702.68,82.81Z"/><circle id="Ellipse_159" data-name="Ellipse 159" class="cls-6" cx="428.74" cy="83.16" r="48.7"/><circle id="Ellipse_160" data-name="Ellipse 160" class="cls-7" cx="428.74" cy="83.16" r="48.7"/><path id="Path_245" data-name="Path 245" class="cls-8" d="M426.8,90.34V75.88h6.39a4,4,0,0,1,1.84.42,4.76,4.76,0,0,1,1.46,1.1,5.24,5.24,0,0,1,1,1.54,5,5,0,0,1,.35,1.75,4.78,4.78,0,0,1-.7,2.55,4,4,0,0,1-1.9,1.66l3.3,5.44h-3.17l-3-4.85h-2.79v4.85ZM429.58,83h3.52a1.42,1.42,0,0,0,.73-.19,1.74,1.74,0,0,0,.58-.5,2.26,2.26,0,0,0,.38-.74,2.64,2.64,0,0,0,.14-.92,2.53,2.53,0,0,0-.6-1.68,1.86,1.86,0,0,0-.63-.48,1.51,1.51,0,0,0-.72-.18h-3.4Z"/><path id="Path_246" data-name="Path 246" class="cls-8" d="M439.46,83a7.59,7.59,0,0,1,.48-2.62,7.05,7.05,0,0,1,3.64-4,6.91,6.91,0,0,1,3-.63,6.61,6.61,0,0,1,3.45.87,5.6,5.6,0,0,1,2.17,2.28L450,80.4a3.64,3.64,0,0,0-.69-1,3.18,3.18,0,0,0-.88-.66,4.42,4.42,0,0,0-1-.36,4.79,4.79,0,0,0-1-.11,3.84,3.84,0,0,0-1.85.43,4,4,0,0,0-1.3,1.11,4.64,4.64,0,0,0-.77,1.54,5.59,5.59,0,0,0,0,3.57,4.92,4.92,0,0,0,.86,1.55,4.16,4.16,0,0,0,1.35,1.08,3.66,3.66,0,0,0,1.72.4,4.21,4.21,0,0,0,1-.12,3.59,3.59,0,0,0,1-.39,3.69,3.69,0,0,0,.89-.68,3.14,3.14,0,0,0,.65-1l2.3,1.32a4.66,4.66,0,0,1-1,1.44,6.19,6.19,0,0,1-1.44,1,7.58,7.58,0,0,1-3.52.87,6.06,6.06,0,0,1-2.83-.65,7.34,7.34,0,0,1-2.21-1.7,7.94,7.94,0,0,1-1.44-2.38A7.47,7.47,0,0,1,439.46,83Z"/><path id="Path_247" data-name="Path 247" class="cls-8" d="M457.12,81.07v9.27h-2.81V75.88h2.18L464,85.37V75.88h2.81V90.34h-2.25Z"/><path id="Path_248" data-name="Path 248" class="cls-8" d="M420.27,76.31a1,1,0,0,0-1.84-.1,15.42,15.42,0,0,1-.85,1.67,14.5,14.5,0,0,0-27.88,7.54,18.48,18.48,0,0,0-2,3.3,1,1,0,0,0,.46,1.34h0a1,1,0,0,0,1.33-.47h0a14.07,14.07,0,0,1,.88-1.62,14.5,14.5,0,0,0,27.87-7.53,18.48,18.48,0,0,0,2-3.3,1,1,0,0,0,0-.77Zm-3.83,6.57a12.49,12.49,0,0,1-24.62,3,18.65,18.65,0,0,1,9.52-5.74,27.86,27.86,0,0,1,6.23-1l-3,3L406,83.6l5.41-5.42L405.23,72l-1.41,1.42,3.76,3.77a30.07,30.07,0,0,0-6.73,1,22.73,22.73,0,0,0-7.22,3.34,18.75,18.75,0,0,0-2.17,1.81v-.48a12.49,12.49,0,0,1,24.61-3,18.43,18.43,0,0,1-9.5,5.73,27.36,27.36,0,0,1-6.23,1l3-3-1.41-1.42-5.42,5.43,6.17,6.17,1.42-1.42-3.77-3.76a30.08,30.08,0,0,0,6.74-1,22.68,22.68,0,0,0,7.21-3.34,18.75,18.75,0,0,0,2.17-1.81C416.44,82.55,416.44,82.71,416.44,82.88Z"/><circle class="cls-8" cx="428.58" cy="145.88" r="34"/><circle class="cls-3" cx="428.58" cy="145.88" r="33.5"/><path d="M414.58,142.2v1.43h-6v-7.7h5.82v1.43h-4V139H414v1.39H410.4v1.78Z"/><path d="M415.31,143.08l.57-1.23a4,4,0,0,0,2.06.57c.79,0,1.08-.21,1.08-.54,0-1-3.57,0-3.57-2.34,0-1.12,1-1.91,2.74-1.91a4.88,4.88,0,0,1,2.28.51l-.58,1.22a3.37,3.37,0,0,0-1.7-.44c-.77,0-1.1.25-1.1.55,0,1,3.57,0,3.57,2.37,0,1.1-1,1.88-2.79,1.88A5.18,5.18,0,0,1,415.31,143.08Z"/><path d="M421.28,140.67a3,3,0,0,1,3.09-3h.21a2.7,2.7,0,0,1,2.65,1.5l-1.33.72a1.49,1.49,0,0,0-1.33-.82,1.64,1.64,0,1,0,0,3.28,1.45,1.45,0,0,0,1.33-.81l1.33.72a2.75,2.75,0,0,1-2.65,1.5,3,3,0,0,1-3.29-2.79C421.28,140.87,421.28,140.77,421.28,140.67Z"/><path d="M431.89,137.63v1.58h-.38a1.46,1.46,0,0,0-1.58,1.31,1.29,1.29,0,0,0,0,.34v2.79h-1.72v-5.92h1.64v.78A2.37,2.37,0,0,1,431.89,137.63Z"/><path d="M432.42,140.67a3.26,3.26,0,1,1,3.51,3h-.25a3,3,0,0,1-3.25-2.73A2.44,2.44,0,0,1,432.42,140.67Zm4.77,0a1.52,1.52,0,1,0-1.51,1.64,1.5,1.5,0,0,0,1.52-1.48C437.2,140.77,437.19,140.72,437.19,140.67Z"/><path d="M449.41,137.71l-2.15,5.92h-1.68L444.25,140l-1.37,3.67h-1.65l-2.14-5.92h1.62l1.4,4,1.45-4H445l1.41,4,1.44-4Z"/><path d="M403.84,153.78a4.24,4.24,0,0,1,7.35-2.62l-1.14,1.06a2.43,2.43,0,1,0-1.94,4,2.45,2.45,0,0,0,1.94-.92l1.14,1.06a4.24,4.24,0,0,1-7.35-2.61Z"/><path d="M411.58,154.67a3.26,3.26,0,1,1,3.46,3h-.2a3,3,0,0,1-3.25-2.73C411.58,154.88,411.58,154.78,411.58,154.67Zm4.76,0a1.52,1.52,0,1,0-3,.24,1.55,1.55,0,0,0,3.08,0,1.48,1.48,0,0,0,0-.21Z"/><path d="M425.32,154.24v3.39h-1.74v-3.12c0-1-.44-1.4-1.2-1.4a1.41,1.41,0,0,0-1.42,1.6v2.92h-1.71v-5.92h1.64v.7a2.56,2.56,0,0,1,1.95-.78,2.32,2.32,0,0,1,2.49,2.13A2.57,2.57,0,0,1,425.32,154.24Z"/><path d="M430.68,157.35a2.44,2.44,0,0,1-1.39.37,2,2,0,0,1-2.2-1.77,1.37,1.37,0,0,1,0-.35v-2.43h-.92v-1.29h.92v-1.45h1.71v1.45h1.48v1.32h-1.48v2.4a.71.71,0,0,0,.6.79h.14a1.14,1.14,0,0,0,.69-.22Z"/><path d="M435.33,151.63v1.58h-.39a1.46,1.46,0,0,0-1.58,1.31,1.29,1.29,0,0,0,0,.34v2.79h-1.72v-5.92h1.64v.78A2.39,2.39,0,0,1,435.33,151.63Z"/><path d="M441.58,154.25v3.38H440v-.75a2,2,0,0,1-1.81.83c-1.38,0-2.21-.77-2.21-1.79s.74-1.77,2.54-1.77h1.37c0-.74-.44-1.17-1.37-1.17a2.88,2.88,0,0,0-1.7.55l-.62-1.2a4.6,4.6,0,0,1,2.55-.71C440.51,151.63,441.58,152.46,441.58,154.25Zm-1.71,1.51v-.6h-1.18c-.8,0-1.06.29-1.06.69s.37.71,1,.71a1.28,1.28,0,0,0,1.21-.8Z"/><path d="M442.73,154.67a3,3,0,0,1,3.09-3H446a2.7,2.7,0,0,1,2.65,1.5l-1.33.72a1.49,1.49,0,0,0-1.33-.82,1.64,1.64,0,1,0,0,3.28,1.45,1.45,0,0,0,1.33-.81l1.33.72a2.75,2.75,0,0,1-2.65,1.5,3,3,0,0,1-3.29-2.79C442.73,154.87,442.73,154.77,442.73,154.67Z"/><path d="M453.58,157.35a2.48,2.48,0,0,1-1.4.37A2,2,0,0,1,450,156a1.37,1.37,0,0,1,0-.35v-2.43h-.92v-1.29H450v-1.45h1.71v1.45h1.48v1.32h-1.48v2.4a.71.71,0,0,0,.6.79h.14a1.14,1.14,0,0,0,.69-.22Z"/><circle class="cls-8" cx="427.58" cy="201.88" r="8"/><circle class="cls-3" cx="427.58" cy="201.88" r="7.5"/></svg>