<svg id="Capa_1" data-name="Capa 1" xmlns="http://www.w3.org/2000/svg" viewBox="0 0 314 721.11"><defs><style>.cls-1,.cls-8{isolation:isolate;}.cls-2{fill:#f24136;}.cls-3{fill:#4155ff;}.cls-4{fill:#85bf6b;}.cls-10,.cls-11,.cls-13,.cls-15,.cls-17,.cls-19,.cls-5,.cls-6,.cls-7,.cls-9{fill:none;}.cls-15,.cls-5{stroke:#f24136;}.cls-10,.cls-5,.cls-6,.cls-7,.cls-9{stroke-miterlimit:10;}.cls-10,.cls-13,.cls-15,.cls-17,.cls-5{stroke-width:2px;}.cls-13,.cls-15,.cls-17,.cls-5{stroke-dasharray:3 3;}.cls-11,.cls-6{stroke:#000;}.cls-10,.cls-7{stroke:#85bf6b;}.cls-7{stroke-width:1.5px;}.cls-8{fill:#e6e6e6;opacity:0.62;}.cls-13,.cls-9{stroke:#4155ff;}.cls-12{fill:#afafaf;}.cls-14{fill:#d87d3a;}.cls-16{fill:#969696;}.cls-17{stroke:#d87d3a;}.cls-18{fill:#fff;}</style></defs><title>esquemas-1</title><g id="Artboard_1" data-name="Artboard 1"><g id="Group_482" data-name="Group 482"><g id="REQUEST_DATE" data-name="REQUEST DATE" class="cls-1"><g class="cls-1"><path d="M177.54,23.84l-1.75-2.53h-1.94v2.53h-2.1v-9.1h3.93c2.44,0,4,1.26,4,3.31a3,3,0,0,1-1.88,2.87l2,2.92Zm-2-7.38h-1.72v3.17h1.72c1.28,0,1.93-.6,1.93-1.58S176.85,16.46,175.57,16.46Z"/><path d="M188.35,22.15v1.69h-7v-9.1h6.88v1.69h-4.79v2h4.23v1.64h-4.23v2.1Z"/><path d="M199.84,24.82a3.09,3.09,0,0,1-2.46,1.12c-1.35,0-2.3-.5-3.7-2a4.65,4.65,0,0,1-4.26-4.67,5,5,0,0,1,10,0,4.58,4.58,0,0,1-3.25,4.45,1.69,1.69,0,0,0,1.29.64,2,2,0,0,0,1.48-.68Zm-5.44-2.61a2.78,2.78,0,0,0,2.85-2.92,2.85,2.85,0,1,0-5.69,0A2.78,2.78,0,0,0,194.4,22.21Z"/><path d="M200.89,19.84v-5.1H203v5c0,1.73.75,2.45,2,2.45s2-.72,2-2.45v-5h2.08v5.1c0,2.68-1.53,4.16-4.12,4.16S200.89,22.52,200.89,19.84Z"/><path d="M218.26,22.15v1.69h-7v-9.1h6.88v1.69h-4.78v2h4.22v1.64h-4.22v2.1Z"/><path d="M219.22,23l.72-1.59a5.32,5.32,0,0,0,3,.95c1.25,0,1.75-.42,1.75-1,0-1.7-5.29-.53-5.29-3.91,0-1.55,1.25-2.83,3.84-2.83a6.16,6.16,0,0,1,3.16.8l-.65,1.6a5.17,5.17,0,0,0-2.53-.71c-1.24,0-1.72.46-1.72,1,0,1.67,5.29.52,5.29,3.86,0,1.52-1.26,2.82-3.86,2.82A6.53,6.53,0,0,1,219.22,23Z"/><path d="M230,16.46h-2.91V14.74H235v1.72h-2.91v7.38H230Z"/></g><g class="cls-1"><path d="M185.51,31.74h4.13c3,0,5,1.8,5,4.55s-2,4.55-5,4.55h-4.13Zm4,7.37a2.82,2.82,0,1,0,0-5.64h-1.93v5.64Z"/><path d="M202.11,38.89h-4.23l-.8,2h-2.16l4.05-9.1h2.08l4.07,9.1h-2.21Zm-.67-1.6L200,33.81l-1.44,3.48Z"/><path d="M207.5,33.46h-2.91V31.74h7.93v1.72h-2.91v7.38H207.5Z"/><path d="M220.7,39.15v1.69h-7v-9.1h6.88v1.69h-4.79v2H220v1.64h-4.23v2.1Z"/></g></g><g id="EXPIRATION_DATE" data-name="EXPIRATION DATE" class="cls-1"><g class="cls-1"><path class="cls-2" d="M37,299.28V301h-7v-9.1h6.88v1.69H32v2h4.22v1.64H32v2.11Z"/><path class="cls-2" d="M44.28,301l-2.2-3.16L39.92,301H37.51l3.36-4.63-3.19-4.47h2.39l2.09,2.95,2.05-2.95h2.28l-3.17,4.39L46.71,301Z"/><path class="cls-2" d="M55.43,295.17c0,2-1.52,3.29-4,3.29H49.65V301H47.54v-9.1h3.94C53.91,291.87,55.43,293.13,55.43,295.17Zm-2.13,0c0-1-.65-1.59-1.94-1.59H49.65v3.16h1.71C52.65,296.74,53.3,296.16,53.3,295.17Z"/><path class="cls-2" d="M56.93,291.87H59V301h-2.1Z"/><path class="cls-2" d="M67,301l-1.76-2.54H63.3V301H61.19v-9.1h3.94c2.43,0,4,1.26,4,3.3A3,3,0,0,1,67.21,298l2,2.93Zm-2-7.39H63.3v3.18H65c1.29,0,1.94-.6,1.94-1.59S66.3,293.58,65,293.58Z"/><path class="cls-2" d="M76.74,299H72.51l-.8,2H69.55l4.06-9.1h2.08l4.07,9.1H77.55Zm-.66-1.6-1.45-3.48-1.44,3.48Z"/><path class="cls-2" d="M82.13,293.58H79.22v-1.71h7.93v1.71H84.24V301H82.13Z"/><path class="cls-2" d="M88.28,291.87h2.11V301H88.28Z"/><path class="cls-2" d="M92,296.42a5,5,0,1,1,5,4.7A4.71,4.71,0,0,1,92,296.42Zm7.83,0A2.85,2.85,0,1,0,97,299.33,2.77,2.77,0,0,0,99.8,296.42Z"/><path class="cls-2" d="M111.87,291.87V301h-1.73l-4.54-5.53V301h-2.08v-9.1h1.74l4.53,5.52v-5.52Z"/></g><g class="cls-1"><path class="cls-2" d="M53.54,308.87h4.13c3,0,5,1.79,5,4.55s-2,4.55-5,4.55H53.54Zm4,7.37a2.82,2.82,0,1,0,0-5.64H55.64v5.64Z"/><path class="cls-2" d="M70.14,316H65.91l-.81,2H63l4-9.1h2.08l4.07,9.1H70.94Zm-.67-1.6L68,310.94l-1.44,3.48Z"/><path class="cls-2" d="M75.53,310.58H72.62v-1.71h7.93v1.71H77.64V318H75.53Z"/><path class="cls-2" d="M88.73,316.28V318h-7v-9.1h6.88v1.69H83.77v2H88v1.64H83.77v2.11Z"/></g></g><g id="LENDING_DATE" data-name="LENDING DATE" class="cls-1"><g class="cls-1"><path class="cls-3" d="M230.94,197.42H233v7.39h4.57v1.71h-6.67Z"/><path class="cls-3" d="M245.84,204.83v1.69h-7.05v-9.1h6.88v1.69h-4.79v2h4.23v1.64h-4.23v2.1Z"/><path class="cls-3" d="M255.86,197.42v9.1h-1.73L249.59,201v5.52h-2.08v-9.1h1.75l4.52,5.53v-5.53Z"/><path class="cls-3" d="M258,197.42h4.13c3,0,5,1.8,5,4.55s-2,4.55-5,4.55H258Zm4,7.37a2.82,2.82,0,1,0,0-5.64h-1.93v5.64Z"/><path class="cls-3" d="M268.75,197.42h2.11v9.1h-2.11Z"/><path class="cls-3" d="M281.36,197.42v9.1h-1.72L275.1,201v5.52H273v-9.1h1.74l4.52,5.53v-5.53Z"/><path class="cls-3" d="M289.67,201.83h1.93v3.69a6.26,6.26,0,0,1-3.68,1.16,4.71,4.71,0,1,1,0-9.41,4.83,4.83,0,0,1,3.8,1.57l-1.35,1.25a3.08,3.08,0,0,0-2.35-1,2.92,2.92,0,1,0,0,5.83,3.29,3.29,0,0,0,1.64-.4Z"/></g><g class="cls-1"><path class="cls-3" d="M243.81,214.42h4.13c3,0,5,1.8,5,4.55s-2,4.55-5,4.55h-4.13Zm4,7.37a2.82,2.82,0,1,0,0-5.64h-1.93v5.64Z"/><path class="cls-3" d="M260.41,221.57h-4.23l-.8,2h-2.16l4.06-9.1h2.08l4.07,9.1h-2.21Zm-.66-1.6-1.45-3.48L256.86,220Z"/><path class="cls-3" d="M265.8,216.14h-2.91v-1.72h7.93v1.72h-2.91v7.38H265.8Z"/><path class="cls-3" d="M279,221.83v1.69H272v-9.1h6.88v1.69h-4.78v2h4.22v1.64h-4.22v2.1Z"/></g></g><g id="INSTALLMENTS" class="cls-1"><g class="cls-1"><path class="cls-4" d="M85.87,348.08H88v9.1h-2.1Z"/><path class="cls-4" d="M98.48,348.08v9.1H96.75l-4.54-5.52v5.52H90.13v-9.1h1.75l4.52,5.53v-5.53Z"/><path class="cls-4" d="M99.92,356.28l.72-1.58a5.32,5.32,0,0,0,3,.95c1.25,0,1.75-.42,1.75-1,0-1.7-5.29-.53-5.29-3.91,0-1.55,1.25-2.83,3.84-2.83a6.16,6.16,0,0,1,3.16.8l-.65,1.6a5.18,5.18,0,0,0-2.52-.72c-1.25,0-1.73.47-1.73,1,0,1.68,5.29.53,5.29,3.87,0,1.52-1.26,2.82-3.86,2.82A6.45,6.45,0,0,1,99.92,356.28Z"/><path class="cls-4" d="M110.69,349.8h-2.92v-1.72h7.93v1.72h-2.91v7.38h-2.1Z"/><path class="cls-4" d="M122.37,355.23h-4.22l-.81,1.95h-2.16l4.06-9.1h2.08l4.07,9.1h-2.21Zm-.66-1.6-1.44-3.48-1.45,3.48Z"/><path class="cls-4" d="M126.34,348.08h2.1v7.39H133v1.71h-6.67Z"/><path class="cls-4" d="M134.19,348.08h2.11v7.39h4.56v1.71h-6.67Z"/><path class="cls-4" d="M150.32,357.18v-5.46l-2.68,4.5h-.95L144,351.84v5.34h-2v-9.1h1.74l3.41,5.66,3.35-5.66h1.73l0,9.1Z"/><path class="cls-4" d="M161.5,355.49v1.69h-7v-9.1h6.87v1.69h-4.78v2h4.22v1.64h-4.22v2.1Z"/><path class="cls-4" d="M171.53,348.08v9.1H169.8l-4.54-5.52v5.52h-2.08v-9.1h1.74l4.53,5.53v-5.53Z"/><path class="cls-4" d="M175.57,349.8h-2.91v-1.72h7.93v1.72h-2.92v7.38h-2.1Z"/><path class="cls-4" d="M180.94,356.28l.71-1.58a5.36,5.36,0,0,0,3,.95c1.24,0,1.75-.42,1.75-1,0-1.7-5.29-.53-5.29-3.91,0-1.55,1.25-2.83,3.83-2.83a6.11,6.11,0,0,1,3.16.8l-.65,1.6a5.13,5.13,0,0,0-2.52-.72c-1.25,0-1.73.47-1.73,1,0,1.68,5.29.53,5.29,3.87,0,1.52-1.26,2.82-3.86,2.82A6.42,6.42,0,0,1,180.94,356.28Z"/></g></g><g id="REPAYMENT_DATE" data-name="REPAYMENT DATE" class="cls-1"><g class="cls-1"><path d="M167.05,498.28l-1.75-2.53h-1.94v2.53h-2.11v-9.1h3.94c2.43,0,3.95,1.26,3.95,3.3a3,3,0,0,1-1.87,2.88l2,2.92Zm-2-7.38h-1.71v3.17h1.71c1.29,0,1.94-.6,1.94-1.59S166.36,490.9,165.07,490.9Z"/><path d="M177.85,496.59v1.69h-7v-9.1h6.87v1.69H172.9v2h4.23v1.63H172.9v2.11Z"/><path d="M187.42,492.48c0,2-1.52,3.29-3.95,3.29h-1.83v2.51h-2.11v-9.1h3.94C185.9,489.18,187.42,490.44,187.42,492.48Zm-2.13,0c0-1-.65-1.58-1.94-1.58h-1.71v3.16h1.71C184.64,494.06,185.29,493.47,185.29,492.48Z"/><path d="M194.45,496.33h-4.22l-.81,1.95h-2.16l4.06-9.1h2.08l4.07,9.1h-2.21Zm-.66-1.6-1.44-3.48-1.45,3.48Z"/><path d="M202.23,495.06v3.22h-2.11V495l-3.52-5.85h2.23l2.44,4,2.43-4h2.06Z"/><path d="M214.84,498.28l0-5.46-2.67,4.5h-1l-2.67-4.38v5.34h-2v-9.1h1.74l3.4,5.66,3.36-5.66h1.73l0,9.1Z"/><path d="M226,496.59v1.69H219v-9.1h6.88v1.69h-4.79v2h4.23v1.63h-4.23v2.11Z"/><path d="M236,489.18v9.1h-1.73l-4.54-5.52v5.52h-2.08v-9.1h1.75l4.52,5.53v-5.53Z"/><path d="M240.08,490.9h-2.91v-1.72h7.93v1.72h-2.91v7.38h-2.11Z"/></g><g class="cls-1"><path d="M185.31,506.18h4.13c3,0,5,1.79,5,4.55s-2,4.55-5,4.55h-4.13Zm4,7.37a2.82,2.82,0,1,0,0-5.64h-1.93v5.64Z"/><path d="M201.91,513.33h-4.23l-.8,1.95h-2.16l4.06-9.1h2.08l4.07,9.1h-2.21Zm-.66-1.6-1.45-3.48-1.44,3.48Z"/><path d="M207.3,507.9h-2.91v-1.72h7.93v1.72h-2.91v7.38H207.3Z"/><path d="M220.5,513.59v1.69h-7.05v-9.1h6.88v1.69h-4.78v2h4.22v1.63h-4.22v2.11Z"/></g></g><line id="Line_678" data-name="Line 678" class="cls-5" x1="68.32" y1="60.34" x2="68.32" y2="266.27"/><line id="Line_680" data-name="Line 680" class="cls-6" x1="203.01" y1="61.34" x2="203.01" y2="242.27"/><g id="_1" data-name=" 1" class="cls-1"><g class="cls-1"><path class="cls-4" d="M261.82,308.78v10.5h-2.43v-8.55h-2.1v-2Z"/></g></g><g id="_2" data-name=" 2" class="cls-1"><g class="cls-1"><path class="cls-4" d="M264.12,395.77v2h-7.94v-1.57l4.05-3.83c.93-.88,1.1-1.42,1.1-1.93,0-.83-.57-1.31-1.68-1.31a2.59,2.59,0,0,0-2.18,1.05L255.7,389a4.89,4.89,0,0,1,4.17-1.95c2.34,0,3.9,1.2,3.9,3.11,0,1-.28,1.95-1.75,3.31l-2.42,2.28Z"/></g></g><g id="_3" data-name=" 3" class="cls-1"><g class="cls-1"><path class="cls-4" d="M264,463.63c0,1.77-1.37,3.39-4.35,3.39a7.23,7.23,0,0,1-4-1.12l1-1.86a5.07,5.07,0,0,0,3,.94c1.21,0,2-.49,2-1.35s-.58-1.29-2-1.29h-1.11v-1.6l2.16-2.45H256.2v-2h7.35v1.58l-2.37,2.7A3,3,0,0,1,264,463.63Z"/></g></g><circle id="Ellipse_109" data-name="Ellipse 109" class="cls-7" cx="259.91" cy="312.88" r="15.23"/><circle id="Ellipse_110" data-name="Ellipse 110" class="cls-7" cx="259.91" cy="391.52" r="15.23"/><circle id="Ellipse_111" data-name="Ellipse 111" class="cls-7" cx="259.91" cy="460.61" r="15.23"/><rect id="Rectangle_950" data-name="Rectangle 950" class="cls-8" x="203.01" y="242.63" width="22.59" height="219.29"/><line id="Line_687" data-name="Line 687" class="cls-9" x1="203.01" y1="240.27" x2="203.01" y2="462.27"/><line id="Line_688" data-name="Line 688" class="cls-10" x1="234.49" y1="313.24" x2="203.01" y2="313.24"/><line id="Line_689" data-name="Line 689" class="cls-10" x1="234.49" y1="392.13" x2="203.01" y2="392.13"/><line id="Line_690" data-name="Line 690" class="cls-10" x1="234.49" y1="461.93" x2="203.01" y2="461.93"/><line id="Line_691" data-name="Line 691" class="cls-9" x1="261.72" y1="242.11" x2="203.01" y2="242.11"/><g id="Group_479" data-name="Group 479"><line id="Line_692" data-name="Line 692" class="cls-11" x1="209.03" y1="235.27" x2="202.19" y2="242.11"/><line id="Line_693" data-name="Line 693" class="cls-11" x1="203.33" y1="242.11" x2="196.49" y2="235.27"/></g><rect id="Rectangle_1044" data-name="Rectangle 1044" class="cls-3" x="255.87" y="236.83" width="10.26" height="10.26" rx="2" transform="translate(-94.64 255.42) rotate(-45)"/><g id="Rectangle_1045" data-name="Rectangle 1045"><rect class="cls-12" x="197.73" y="456.84" width="10.26" height="10.26" rx="2" transform="translate(-267.25 278.75) rotate(-45)"/><rect class="cls-11" x="198.23" y="457.34" width="9.26" height="9.26" rx="1.5" transform="translate(-267.25 278.75) rotate(-45)"/></g><rect id="Rectangle_1046" data-name="Rectangle 1046" class="cls-2" x="63.68" y="262.84" width="10.26" height="10.26" transform="translate(-169.33 127.14) rotate(-45)"/><path id="Path_250" data-name="Path 250" class="cls-13" d="M129.92,383.34v162"/><rect id="Rectangle_1047" data-name="Rectangle 1047" class="cls-14" x="125.28" y="539.68" width="10.26" height="10.26" rx="2" transform="translate(-347.04 251.79) rotate(-45)"/><g id="DUE_DATE" data-name="DUE DATE" class="cls-1"><g class="cls-1"><path class="cls-14" d="M74.34,532.69h4.13c3,0,5,1.8,5,4.55s-2,4.55-5,4.55H74.34Zm4,7.38a2.83,2.83,0,1,0,0-5.65H76.44v5.65Z"/><path class="cls-14" d="M85,537.79v-5.1h2.1v5c0,1.73.76,2.45,2,2.45s2-.72,2-2.45v-5h2.08v5.1c0,2.68-1.53,4.16-4.12,4.16S85,540.47,85,537.79Z"/><path class="cls-14" d="M102.37,540.1v1.69H95.32v-9.1h6.88v1.69H97.41v2h4.23V538H97.41v2.1Z"/></g><g class="cls-1"><path class="cls-14" d="M70.76,549.69h4.13c3,0,5,1.8,5,4.55s-2,4.55-5,4.55H70.76Zm4,7.38a2.83,2.83,0,1,0,0-5.65H72.86v5.65Z"/><path class="cls-14" d="M87.36,556.84H83.13l-.8,1.95H80.17l4-9.1H86.3l4.07,9.1H88.16Zm-.67-1.59-1.44-3.49-1.44,3.49Z"/><path class="cls-14" d="M92.75,551.41H89.84v-1.72h7.93v1.72H94.86v7.38H92.75Z"/><path class="cls-14" d="M106,557.1v1.69h-7v-9.1h6.88v1.69H101v2h4.22V555H101v2.1Z"/></g></g><line id="Line_1246" data-name="Line 1246" class="cls-15" x1="200.16" y1="60.34" x2="66.16" y2="60.34"/><line id="Line_1247" data-name="Line 1247" class="cls-13" x1="203.16" y1="383.34" x2="130.16" y2="383.34"/><g id="DEFAULT_DATE" data-name="DEFAULT DATE" class="cls-1"><g class="cls-1"><path class="cls-16" d="M100.47,675.24h4.14c3,0,5,1.8,5,4.55s-2,4.55-5,4.55h-4.14Zm4,7.37a2.82,2.82,0,1,0,0-5.64h-1.92v5.64Z"/><path class="cls-16" d="M118.26,682.65v1.69h-7.05v-9.1h6.88v1.69H113.3v2h4.23v1.64H113.3v2.1Z"/><path class="cls-16" d="M122,676.93v2.41h4.21V681H122v3.31h-2.11v-9.1h6.88v1.69Z"/><path class="cls-16" d="M133.86,682.39h-4.23l-.81,2h-2.15l4-9.1h2.08l4.07,9.1h-2.21Zm-.67-1.6-1.44-3.48-1.44,3.48Z"/><path class="cls-16" d="M137.55,680.34v-5.1h2.1v5c0,1.73.76,2.45,2,2.45s2-.72,2-2.45v-5h2.08v5.1c0,2.68-1.53,4.16-4.12,4.16S137.55,683,137.55,680.34Z"/><path class="cls-16" d="M147.87,675.24H150v7.39h4.56v1.71h-6.67Z"/><path class="cls-16" d="M156.76,677h-2.91v-1.72h7.93V677h-2.91v7.38h-2.11Z"/></g><g class="cls-1"><path class="cls-16" d="M113.26,692.24h4.13c3,0,5,1.8,5,4.55s-2,4.55-5,4.55h-4.13Zm4,7.37a2.82,2.82,0,1,0,0-5.64h-1.93v5.64Z"/><path class="cls-16" d="M129.86,699.39h-4.23l-.8,2h-2.16l4-9.1h2.08l4.07,9.1h-2.21Zm-.67-1.6-1.44-3.48-1.44,3.48Z"/><path class="cls-16" d="M135.25,694h-2.91v-1.72h7.93V694h-2.91v7.38h-2.11Z"/><path class="cls-16" d="M148.45,699.65v1.69h-7v-9.1h6.88v1.69H143.5v2h4.22v1.64H143.5v2.1Z"/></g></g><path id="Path_334" data-name="Path 334" class="cls-17" d="M129.92,539.81V653.29"/><g id="Rectangle_1159" data-name="Rectangle 1159"><rect class="cls-18" x="124.28" y="647.97" width="10.26" height="10.26" rx="2" transform="translate(-423.91 282.8) rotate(-45)"/><rect class="cls-11" x="124.78" y="648.47" width="9.26" height="9.26" rx="1.5" transform="translate(-423.91 282.8) rotate(-45)"/></g><g id="Requested" class="cls-1"><g class="cls-1"><path d="M121.84,148.84l-1.75-2.53h-1.94v2.53H116v-9.1H120c2.43,0,4,1.26,4,3.31a3,3,0,0,1-1.87,2.87l2,2.92Zm-2-7.38h-1.72v3.17h1.72c1.28,0,1.93-.6,1.93-1.58S121.15,141.46,119.87,141.46Z"/><path d="M132.27,145.92H127a1.85,1.85,0,0,0,2,1.4,2.37,2.37,0,0,0,1.75-.67l1.08,1.17a3.65,3.65,0,0,1-2.88,1.13c-2.42,0-4-1.52-4-3.6a3.57,3.57,0,0,1,3.74-3.61,3.47,3.47,0,0,1,3.64,3.63C132.31,145.53,132.28,145.75,132.27,145.92ZM127,144.73h3.44a1.75,1.75,0,0,0-3.44,0Z"/><path d="M140.76,141.85v9.52h-2V148.1a2.71,2.71,0,0,1-2.1.85,3.61,3.61,0,0,1,0-7.21,2.7,2.7,0,0,1,2.19.91v-.8Zm-2,3.5a1.8,1.8,0,1,0-1.78,1.93A1.77,1.77,0,0,0,138.77,145.35Z"/><path d="M149.67,141.85v7h-1.92V148a2.83,2.83,0,0,1-2.17.94c-1.76,0-3-1-3-3.15v-4h2v3.65c0,1.17.52,1.69,1.41,1.69s1.62-.6,1.62-1.88v-3.46Z"/><path d="M158.37,145.92h-5.29a1.86,1.86,0,0,0,2,1.4,2.4,2.4,0,0,0,1.76-.67l1.08,1.17A3.68,3.68,0,0,1,155,149c-2.42,0-4-1.52-4-3.6a3.56,3.56,0,0,1,3.73-3.61,3.47,3.47,0,0,1,3.64,3.63C158.41,145.53,158.38,145.75,158.37,145.92Zm-5.32-1.19h3.45a1.75,1.75,0,0,0-3.45,0Z"/><path d="M159.09,148.19l.67-1.45a4.79,4.79,0,0,0,2.43.67c.94,0,1.29-.24,1.29-.63,0-1.15-4.23,0-4.23-2.77,0-1.33,1.2-2.27,3.24-2.27a5.74,5.74,0,0,1,2.69.62l-.67,1.44a4,4,0,0,0-2-.52c-.91,0-1.3.29-1.3.65,0,1.2,4.23,0,4.23,2.79,0,1.3-1.21,2.23-3.31,2.23A6,6,0,0,1,159.09,148.19Z"/><path d="M171.18,148.51a3,3,0,0,1-1.66.44,2.31,2.31,0,0,1-2.61-2.51v-2.87h-1.08V142h1.08V140.3h2V142h1.74v1.56h-1.74v2.84a.82.82,0,0,0,.87.93,1.43,1.43,0,0,0,.82-.26Z"/><path d="M178.91,145.92h-5.29a1.85,1.85,0,0,0,2,1.4,2.4,2.4,0,0,0,1.76-.67l1.08,1.17a3.69,3.69,0,0,1-2.89,1.13c-2.42,0-4-1.52-4-3.6a3.56,3.56,0,0,1,3.73-3.61,3.47,3.47,0,0,1,3.64,3.63C179,145.53,178.92,145.75,178.91,145.92Zm-5.32-1.19H177a1.75,1.75,0,0,0-3.45,0Z"/><path d="M187.43,139.2v9.64h-1.94V148a2.7,2.7,0,0,1-2.19.91,3.61,3.61,0,0,1,0-7.21,2.71,2.71,0,0,1,2.1.85V139.2Zm-2,6.15a1.8,1.8,0,1,0-1.78,1.93A1.77,1.77,0,0,0,185.44,145.35Z"/></g></g><g id="Ongoing" class="cls-1"><g class="cls-1"><path class="cls-3" d="M131.31,276.29a5,5,0,1,1,5,4.71A4.71,4.71,0,0,1,131.31,276.29Zm7.83,0a2.85,2.85,0,1,0-2.85,2.92A2.78,2.78,0,0,0,139.14,276.29Z"/><path class="cls-3" d="M149.86,276.84v4h-2v-3.69c0-1.13-.52-1.65-1.41-1.65s-1.68.6-1.68,1.89v3.45h-2v-7h1.94v.82a3,3,0,0,1,2.31-.93C148.61,273.74,149.86,274.71,149.86,276.84Z"/><path class="cls-3" d="M159,273.85v5.82c0,2.6-1.41,3.8-3.93,3.8a5.8,5.8,0,0,1-3.43-1l.8-1.46a4.21,4.21,0,0,0,2.47.79c1.43,0,2.06-.65,2.06-1.91v-.3a2.86,2.86,0,0,1-2.21.88,3.39,3.39,0,1,1,0-6.77,2.8,2.8,0,0,1,2.31,1v-.9Zm-2,3.28a1.7,1.7,0,0,0-1.83-1.72,1.72,1.72,0,1,0,0,3.43A1.69,1.69,0,0,0,157,277.13Z"/><path class="cls-3" d="M160.35,277.35a3.85,3.85,0,1,1,3.85,3.6A3.61,3.61,0,0,1,160.35,277.35Zm5.63,0a1.79,1.79,0,1,0-1.78,1.93A1.77,1.77,0,0,0,166,277.35Z"/><path class="cls-3" d="M169.14,271.74a1.16,1.16,0,0,1,1.26-1.13,1.14,1.14,0,0,1,1.26,1.09,1.27,1.27,0,0,1-2.52,0Zm.25,2.11h2v7h-2Z"/><path class="cls-3" d="M180.45,276.84v4h-2v-3.69c0-1.13-.52-1.65-1.42-1.65s-1.67.6-1.67,1.89v3.45h-2v-7h1.94v.82a3,3,0,0,1,2.31-.93C179.2,273.74,180.45,274.71,180.45,276.84Z"/><path class="cls-3" d="M189.58,273.85v5.82c0,2.6-1.41,3.8-3.93,3.8a5.8,5.8,0,0,1-3.43-1l.8-1.46a4.21,4.21,0,0,0,2.47.79c1.43,0,2.06-.65,2.06-1.91v-.3a2.88,2.88,0,0,1-2.21.88,3.39,3.39,0,1,1,0-6.77,2.8,2.8,0,0,1,2.31,1v-.9Zm-2,3.28a1.84,1.84,0,1,0-1.83,1.71A1.7,1.7,0,0,0,187.57,277.13Z"/></g></g><g id="In_debt" data-name="In debt" class="cls-1"><g class="cls-1"><path class="cls-14" d="M64.69,600.24H66.8v9.1H64.69Z"/><path class="cls-14" d="M76,605.34v4h-2v-3.69c0-1.13-.52-1.65-1.41-1.65s-1.68.6-1.68,1.89v3.45h-2v-7h1.94v.82a3,3,0,0,1,2.31-.93C74.71,602.24,76,603.21,76,605.34Z"/><path class="cls-14" d="M88.6,599.7v9.64H86.66v-.8a2.7,2.7,0,0,1-2.18.91,3.61,3.61,0,0,1,0-7.21,2.69,2.69,0,0,1,2.09.85V599.7Zm-2,6.15a1.8,1.8,0,1,0-1.78,1.93A1.77,1.77,0,0,0,86.61,605.85Z"/><path class="cls-14" d="M97.28,606.42H92a1.86,1.86,0,0,0,2,1.4,2.4,2.4,0,0,0,1.76-.67l1.08,1.17a3.68,3.68,0,0,1-2.89,1.13c-2.42,0-4-1.52-4-3.6a3.56,3.56,0,0,1,3.73-3.61,3.47,3.47,0,0,1,3.64,3.63C97.32,606,97.29,606.25,97.28,606.42ZM92,605.23h3.45a1.75,1.75,0,0,0-3.45,0Z"/><path class="cls-14" d="M106.29,605.85a3.4,3.4,0,0,1-3.48,3.6,2.73,2.73,0,0,1-2.2-.91v.8H98.67V599.7h2v3.39a2.74,2.74,0,0,1,2.11-.85A3.4,3.4,0,0,1,106.29,605.85Zm-2.05,0a1.79,1.79,0,1,0-1.78,1.93A1.77,1.77,0,0,0,104.24,605.85Z"/><path class="cls-14" d="M112.15,609a2.94,2.94,0,0,1-1.65.44,2.31,2.31,0,0,1-2.61-2.51v-2.87h-1.08v-1.56h1.08V600.8h2v1.71h1.74v1.56h-1.74v2.84a.82.82,0,0,0,.87.93,1.43,1.43,0,0,0,.82-.26Z"/></g></g><g id="Rectangle_1161" data-name="Rectangle 1161"><rect x="197.5" y="54.61" width="10.26" height="10.26" rx="2" transform="translate(17.11 160.78) rotate(-45)"/><rect class="cls-11" x="198" y="55.11" width="9.26" height="9.26" rx="1.5" transform="translate(17.11 160.78) rotate(-45)"/></g></g></g><rect class="cls-19" width="314" height="721.11"/></svg>