<svg xmlns="http://www.w3.org/2000/svg" xmlns:xlink="http://www.w3.org/1999/xlink" width="889" height="366" viewBox="0 0 889 366">
  <defs>
    <clipPath id="clip-iPhone_6_7_8_1">
      <rect width="889" height="366"/>
    </clipPath>
  </defs>
  <g id="iPhone_6_7_8_1" data-name="iPhone 6/7/8 – 1" clip-path="url(#clip-iPhone_6_7_8_1)">
    <circle id="Ellipse_108" data-name="Ellipse 108" cx="48.703" cy="48.703" r="48.703" transform="translate(524.457 13.58)" fill="#404fff" stroke="#000" stroke-width="1"/>
    <text id="Skin_in_the_game" data-name="Skin in the game" transform="translate(323.063 280.39)" fill="#696969" font-size="13" font-family="Montserrat-Medium, Montserrat" font-weight="500"><tspan x="0" y="0">Skin in the game</tspan></text>
    <text id="Originator_Risk_Management" data-name="Originator Risk Management" transform="translate(600.063 175.271)" fill="#696969" font-size="13" font-family="Montserrat-Medium, Montserrat" font-weight="500"><tspan x="0" y="0">Originator Risk Management</tspan></text>
    <text id="Buyback_Guarantee" data-name="Buyback Guarantee" transform="translate(323.063 308.089)" fill="#696969" font-size="13" font-family="Montserrat-Medium, Montserrat" font-weight="500"><tspan x="0" y="0">Buyback Guarantee</tspan></text>
    <text id="Scoring" transform="translate(323.283 199.208)" fill="#696969" font-size="13" font-family="Montserrat-Medium, Montserrat" font-weight="500"><tspan x="0" y="0">Scoring</tspan></text>
    <text id="KYC" transform="translate(323.283 226.781)" fill="#696969" font-size="13" font-family="Montserrat-Medium, Montserrat" font-weight="500"><tspan x="0" y="0">KYC</tspan></text>
    <text id="Collection" transform="translate(323.283 253.586)" fill="#696969" font-size="13" font-family="Montserrat-Medium, Montserrat" font-weight="500"><tspan x="0" y="0">Collection</tspan></text>
    <circle id="Ellipse_109" data-name="Ellipse 109" cx="48.703" cy="48.703" r="48.703" transform="translate(524.457 13.58)" fill="none" stroke="#000" stroke-miterlimit="10" stroke-width="0.5"/>
    <line id="Line_1233" data-name="Line 1233" y1="227.514" transform="translate(575.014 111.986)" fill="none" stroke="#000" stroke-miterlimit="10" stroke-width="1"/>
    <line id="Line_1234" data-name="Line 1234" y1="219" transform="translate(301.383 81.5)" fill="none" stroke="#000" stroke-miterlimit="10" stroke-width="1"/>
    <text id="CREDITORS" transform="translate(777.004 67.752)" font-size="12" font-family="Montserrat-Bold, Montserrat" font-weight="700"><tspan x="0" y="0">CREDITORS</tspan></text>
    <circle id="Ellipse_110" data-name="Ellipse 110" cx="3.066" cy="3.066" r="3.066" transform="translate(298.316 245.741)" fill="#fff" stroke="#000" stroke-width="1"/>
    <circle id="Ellipse_111" data-name="Ellipse 111" cx="3.066" cy="3.066" r="3.066" transform="translate(298.316 163)" fill="#fff" stroke="#000" stroke-width="1"/>
    <circle id="Ellipse_112" data-name="Ellipse 112" cx="3.066" cy="3.066" r="3.066" transform="translate(298.316 190.961)" fill="#fff" stroke="#000" stroke-width="1"/>
    <circle id="Ellipse_113" data-name="Ellipse 113" cx="3.066" cy="3.066" r="3.066" transform="translate(298.316 219.053)" fill="#fff" stroke="#000" stroke-width="1"/>
    <circle id="Ellipse_114" data-name="Ellipse 114" cx="3.066" cy="3.066" r="3.066" transform="translate(571.948 166)" fill="#fff" stroke="#000" stroke-width="1"/>
    <circle id="Ellipse_115" data-name="Ellipse 115" cx="3.066" cy="3.066" r="3.066" transform="translate(571.948 196)" fill="#fff" stroke="#000" stroke-width="1"/>
    <circle id="Ellipse_116" data-name="Ellipse 116" cx="3.066" cy="3.066" r="3.066" transform="translate(571.948 224)" fill="#fff" stroke="#000" stroke-width="1"/>
    <circle id="Ellipse_117" data-name="Ellipse 117" cx="3.066" cy="3.066" r="3.066" transform="translate(571.948 249)" fill="#fff" stroke="#000" stroke-width="1"/>
    <rect id="Rectangle_1142" data-name="Rectangle 1142" width="114.982" height="36.528" rx="18.264" transform="translate(756.5 44.758)" fill="none" stroke="#000" stroke-miterlimit="10" stroke-width="1"/>
    <rect id="Rectangle_1143" data-name="Rectangle 1143" width="114.982" height="36.528" rx="18.264" transform="translate(14.5 44.758)" fill="none" stroke="#000" stroke-miterlimit="10" stroke-width="1"/>
    <rect id="Rectangle_1144" data-name="Rectangle 1144" width="114.982" height="36.528" rx="18.264" transform="translate(243.5 44.758)" fill="none" stroke="#000" stroke-miterlimit="10" stroke-width="1"/>
    <g id="Group_354" data-name="Group 354" transform="translate(-73.018 -755)">
      <line id="Line_872" data-name="Line 872" x2="151" transform="translate(431.518 817.5)" fill="none" stroke="#000" stroke-width="1" stroke-dasharray="2 0"/>
      <line id="Line_873" data-name="Line 873" y1="8" x2="7" transform="translate(575.518 817.5)" fill="none" stroke="#000" stroke-width="1"/>
      <line id="Line_874" data-name="Line 874" x2="7" y2="7" transform="translate(575.518 810.5)" fill="none" stroke="#000" stroke-width="1"/>
    </g>
    <g id="Group_355" data-name="Group 355" transform="translate(1228 880) rotate(180)">
      <path id="Path_249" data-name="Path 249" d="M-19.73,0H99" transform="translate(491.5 817.5)" fill="none" stroke="#000" stroke-width="1" stroke-dasharray="2 0"/>
      <line id="Line_876" data-name="Line 876" y1="8" x2="7" transform="translate(583.5 817.5)" fill="none" stroke="#000" stroke-width="1"/>
      <line id="Line_877" data-name="Line 877" x2="7" y2="7" transform="translate(583.5 810.5)" fill="none" stroke="#000" stroke-width="1"/>
    </g>
    <text id="Interest_rate" data-name="Interest rate" transform="translate(323 171)" fill="#696969" font-size="13" font-family="Montserrat-Medium, Montserrat" font-weight="500"><tspan x="0" y="0">Interest rate</tspan></text>
    <text id="Geographical_diversification" data-name="Geographical diversification" transform="translate(600.063 203)" fill="#696969" font-size="13" font-family="Montserrat-Medium, Montserrat" font-weight="500"><tspan x="0" y="0">Geographical diversification</tspan></text>
    <text id="Non-custodian_Escrow" data-name="Non-custodian Escrow" transform="translate(600.063 283)" fill="#696969" font-size="13" font-family="Montserrat-Medium, Montserrat" font-weight="500"><tspan x="0" y="0">Non-custodian Escrow</tspan></text>
    <text id="Competitive_returns" data-name="Competitive returns" transform="translate(600.063 231)" fill="#696969" font-size="13" font-family="Montserrat-Medium, Montserrat" font-weight="500"><tspan x="0" y="0">Competitive returns</tspan></text>
    <text id="Liquidity" transform="translate(600.063 256)" fill="#696969" font-size="13" font-family="Montserrat-Medium, Montserrat" font-weight="500"><tspan x="0" y="0">Liquidity</tspan></text>
    <circle id="Ellipse_118" data-name="Ellipse 118" cx="3.066" cy="3.066" r="3.066" transform="translate(298.316 299.741)" fill="#fff" stroke="#000" stroke-width="1"/>
    <circle id="Ellipse_119" data-name="Ellipse 119" cx="3.066" cy="3.066" r="3.066" transform="translate(298.316 273.053)" fill="#fff" stroke="#000" stroke-width="1"/>
    <text id="ERC-20_Token_Leverage" data-name="ERC-20 Token Leverage" transform="translate(600.063 313)" fill="#696969" font-size="13" font-family="Montserrat-Medium, Montserrat" font-weight="500"><tspan x="0" y="0">ERC-20 Token Leverage</tspan></text>
    <text id="Secondary_Market" data-name="Secondary Market" transform="translate(600.063 345)" fill="#696969" font-size="13" font-family="Montserrat-Medium, Montserrat" font-weight="500"><tspan x="0" y="0">Secondary Market</tspan></text>
    <text id="Value_Proposition" data-name="Value Proposition" transform="translate(598.063 147.079)" font-size="13" font-family="Montserrat-Bold, Montserrat" font-weight="700"><tspan x="0" y="0">Value Proposition</tspan></text>
    <circle id="Ellipse_120" data-name="Ellipse 120" cx="3.066" cy="3.066" r="3.066" transform="translate(571.948 276)" fill="#fff" stroke="#000" stroke-width="1"/>
    <circle id="Ellipse_121" data-name="Ellipse 121" cx="3.066" cy="3.066" r="3.066" transform="translate(571.948 304)" fill="#fff" stroke="#000" stroke-width="1"/>
    <circle id="Ellipse_122" data-name="Ellipse 122" cx="3.066" cy="3.066" r="3.066" transform="translate(571.948 338)" fill="#fff" stroke="#000" stroke-width="1"/>
    <text id="Underwriting_policies" data-name="Underwriting policies" transform="translate(323.063 147.079)" font-size="13" font-family="Montserrat-Bold, Montserrat" font-weight="700"><tspan x="0" y="0">Underwriting policies</tspan></text>
    <g id="isologotypo" transform="translate(524.765 38.108)">
      <path id="Path_245" data-name="Path 245" d="M201,60.906V46.449h6.394a4.115,4.115,0,0,1,1.842.417,4.787,4.787,0,0,1,1.457,1.1,5.17,5.17,0,0,1,.955,1.546A4.656,4.656,0,0,1,212,51.255a4.8,4.8,0,0,1-.7,2.557,4.036,4.036,0,0,1-1.9,1.66l3.3,5.435H209.53l-2.953-4.846H203.81v4.846Zm2.812-7.309h3.522a1.476,1.476,0,0,0,.723-.184,1.864,1.864,0,0,0,.581-.5,2.506,2.506,0,0,0,.387-.743,2.939,2.939,0,0,0,.142-.917,2.605,2.605,0,0,0-.164-.937,2.417,2.417,0,0,0-.437-.743,1.951,1.951,0,0,0-.632-.488,1.636,1.636,0,0,0-.723-.174h-3.4Z" transform="translate(-154.547 -29.557)" fill="#fff"/>
      <path id="Path_246" data-name="Path 246" d="M263.56,53.25a7.517,7.517,0,0,1,.478-2.617,7.129,7.129,0,0,1,1.4-2.31,7.022,7.022,0,0,1,2.239-1.65,6.915,6.915,0,0,1,3.014-.632,6.581,6.581,0,0,1,3.451.874,5.607,5.607,0,0,1,2.168,2.281l-2.158,1.49a3.723,3.723,0,0,0-.692-1.028A3.484,3.484,0,0,0,272.58,49a3.977,3.977,0,0,0-.976-.356,4.755,4.755,0,0,0-1-.111,3.818,3.818,0,0,0-1.844.427,4.049,4.049,0,0,0-1.3,1.111,4.87,4.87,0,0,0-.775,1.542,5.869,5.869,0,0,0-.265,1.721,5.667,5.667,0,0,0,.306,1.844,4.9,4.9,0,0,0,.866,1.557,4.305,4.305,0,0,0,1.344,1.079,3.674,3.674,0,0,0,1.721.4,4.561,4.561,0,0,0,1.012-.121,3.889,3.889,0,0,0,1.012-.387,3.8,3.8,0,0,0,.885-.682,3.115,3.115,0,0,0,.652-1.012l2.3,1.324a4.346,4.346,0,0,1-.988,1.435,6.317,6.317,0,0,1-1.445,1.049,7.386,7.386,0,0,1-1.721.652,7.512,7.512,0,0,1-1.791.225,6.182,6.182,0,0,1-2.834-.652,7.4,7.4,0,0,1-2.208-1.7,7.917,7.917,0,0,1-1.445-2.382A7.435,7.435,0,0,1,263.56,53.25Z" transform="translate(-204.443 -29.23)" fill="#fff"/>
      <path id="Path_247" data-name="Path 247" d="M339.71,51.642v9.265H336.9V46.45h2.178l7.534,9.489V46.47h2.81V60.907H347.14Z" transform="translate(-262.938 -29.557)" fill="#fff"/>
      <path id="Path_248" data-name="Path 248" d="M39.929,17.322a1.012,1.012,0,0,0-.514-.569.984.984,0,0,0-.427-.1,1.012,1.012,0,0,0-.9.573,17.408,17.408,0,0,1-.883,1.619A14.5,14.5,0,0,0,9.328,26.384a18.606,18.606,0,0,0-2.006,3.3,1,1,0,1,0,1.81.858,16.926,16.926,0,0,1,.881-1.619,14.5,14.5,0,0,0,27.873-7.528,18.607,18.607,0,0,0,2.006-3.3.994.994,0,0,0,.038-.773ZM36.1,23.886a12.493,12.493,0,0,1-24.62,3.006,18.614,18.614,0,0,1,9.512-5.735,27.877,27.877,0,0,1,6.232-.953L24.234,23.2l1.417,1.417L31.07,19.19,24.9,13.016l-1.417,1.417L27.25,18.2a29.64,29.64,0,0,0-6.734,1.012,22.671,22.671,0,0,0-7.22,3.34,18.42,18.42,0,0,0-2.172,1.81c0-.158-.01-.318-.01-.476a12.493,12.493,0,0,1,24.612-3.006,18.5,18.5,0,0,1-9.5,5.735,27.877,27.877,0,0,1-6.234.953l2.986-2.994-1.417-1.417L16.143,28.58l6.172,6.174,1.417-1.417L19.967,29.57A29.673,29.673,0,0,0,26.7,28.558a22.671,22.671,0,0,0,7.218-3.34,18.449,18.449,0,0,0,2.172-1.81C36.1,23.567,36.1,23.726,36.1,23.886Z" transform="translate(0 0)" fill="#fff"/>
    </g>
    <g id="Ellipse_123" data-name="Ellipse 123" transform="translate(567 135)" fill="#fff" stroke="#000" stroke-width="1">
      <circle cx="8" cy="8" r="8" stroke="none"/>
      <circle cx="8" cy="8" r="7.5" fill="none"/>
    </g>
    <text id="ORIGINATORS" transform="translate(257.174 66.758)" font-size="12" font-family="Montserrat-Bold, Montserrat" font-weight="700"><tspan x="0" y="0">ORIGINATORS</tspan></text>
    <text id="BORROWERS" transform="translate(30 67.85)" font-size="12" font-family="Montserrat-Bold, Montserrat" font-weight="700"><tspan x="0" y="0">BORROWERS</tspan></text>
    <g id="Group_356" data-name="Group 356" transform="translate(-345.018 -755)">
      <line id="Line_872-2" data-name="Line 872" x2="108" transform="translate(474.518 817.5)" fill="none" stroke="#000" stroke-width="1" stroke-dasharray="2 0"/>
      <line id="Line_873-2" data-name="Line 873" y1="8" x2="7" transform="translate(575.518 817.5)" fill="none" stroke="#000" stroke-width="1"/>
      <line id="Line_874-2" data-name="Line 874" x2="7" y2="7" transform="translate(575.518 810.5)" fill="none" stroke="#000" stroke-width="1"/>
    </g>
    <g id="Ellipse_124" data-name="Ellipse 124" transform="translate(294 134)" fill="#fff" stroke="#000" stroke-width="1">
      <circle cx="8" cy="8" r="8" stroke="none"/>
      <circle cx="8" cy="8" r="7.5" fill="none"/>
    </g>
  </g>
</svg>
